{
  "title" : "",
  "description" : "",
  "author" : "",
  "targetLoudness" : -18.0,
  "shouldApplyLoudnessNormalization" : true,
  "videoFormatFrameRate" : 30,
  "audioFormatSampleRate" : 44100,
  "width" : 1920.0,
  "height" : 1080.0,
  "version" : "4.0",
  "editRate" : 30,
  "authoringClientName" :  {
    "name" : "Camtasia",
    "platform" : "Windows",
    "version" : "20.0"
  },
  "sourceBin" : [
    {
      "id" : 1,
      "src" : "C:\\Users\\C5314887\\OneDrive - SAP SE\\Documents\\Camtasia\\Rec 04-11-21_001.trec",
      "rect" : [0, 0, 0, 0],
      "lastMod" : "20210412T030132",
      "sourceTracks" : [
        {
          "range" : [0, 7388160],
          "type" : 2,
          "editRate" : 44100,
          "trackRect" : [0, 0, 0, 0],
          "sampleRate" : 44100,
          "bitDepth" : 16,
          "numChannels" : 2,
          "integratedLUFS" : -19.6653072384178,
          "peakLevel" : 0.81475830078125,
          "metaData" : ""
        },
        {
          "range" : [0, 7388160],
          "type" : 2,
          "editRate" : 44100,
          "trackRect" : [0, 0, 0, 0],
          "sampleRate" : 44100,
          "bitDepth" : 16,
          "numChannels" : 2,
          "integratedLUFS" : -1.79769313486232e+308,
          "peakLevel" : 0.0,
          "metaData" : ""
        }
      ],
      "metadata" : {
        "timeAdded" : "20210412T030134.388413"
      }
    },
    {
      "id" : 2,
      "src" : "C:\\Users\\C5314887\\OneDrive - SAP SE\\Documents\\GitHub\\cox-katie.github.io\\_projects\\mail-icon.png",
      "rect" : [0, 0, 512, 512],
      "lastMod" : "20210412T031801",
      "sourceTracks" : [
        {
          "range" : [0, 1],
          "type" : 1,
          "editRate" : 10000000,
          "trackRect" : [0, 0, 512, 512],
          "sampleRate" : 0,
          "bitDepth" : 32,
          "numChannels" : 0,
          "integratedLUFS" : 100.0,
          "peakLevel" : -1.0,
          "metaData" : ""
        }
      ],
      "metadata" : {
        "timeAdded" : "20210412T031815.616934"
      }
    },
    {
      "id" : 3,
      "src" : "C:\\Users\\C5314887\\OneDrive - SAP SE\\Documents\\Camtasia\\Rec 04-11-21_002.trec",
      "rect" : [0, 0, 1920, 1080],
      "lastMod" : "20210412T040545",
      "sourceTracks" : [
        {
          "range" : [0, 9697],
          "type" : 0,
          "editRate" : 30,
          "trackRect" : [0, 0, 1920, 1080],
          "sampleRate" : 14,
          "bitDepth" : 0,
          "numChannels" : 0,
          "integratedLUFS" : 100.0,
          "peakLevel" : -1.0,
          "metaData" : "2b7b6a00-7a1f-11e2-83d0-0017f200be7f;2b7b6aef-7a1f-11e2-83d0-0017f200be7f;2b7b6af0-7a1f-11e2-83d0-0017f200be7f;2b7b6af1-7a1f-11e2-83d0-0017f200be7f;2b7b6af2-7a1f-11e2-83d0-0017f200be7f;2b7b6af3-7a1f-11e2-83d0-0017f200be7f;2b7b6af5-7a1f-11e2-83d0-0017f200be7f;2b7b6af6-7a1f-11e2-83d0-0017f200be7f;2b7b6af7-7a1f-11e2-83d0-0017f200be7f;2b7b6af8-7a1f-11e2-83d0-0017f200be7f;2b7b6af9-7a1f-11e2-83d0-0017f200be7f;2b7b6afa-7a1f-11e2-83d0-0017f200be7f;"
        },
        {
          "range" : [0, 14262272],
          "type" : 2,
          "editRate" : 44100,
          "trackRect" : [0, 0, 0, 0],
          "sampleRate" : 44100,
          "bitDepth" : 16,
          "numChannels" : 2,
          "integratedLUFS" : -24.0402134618301,
          "peakLevel" : 1.0,
          "metaData" : ""
        },
        {
          "range" : [0, 14264320],
          "type" : 2,
          "editRate" : 44100,
          "trackRect" : [0, 0, 0, 0],
          "sampleRate" : 44100,
          "bitDepth" : 16,
          "numChannels" : 2,
          "integratedLUFS" : -1.79769313486232e+308,
          "peakLevel" : 0.0,
          "metaData" : ""
        }
      ],
      "metadata" : {
        "timeAdded" : "20210412T040547.131168"
      }
    },
    {
      "id" : 4,
      "src" : "C:\\Users\\C5314887\\OneDrive - SAP SE\\Documents\\Camtasia\\Rec 04-11-21_003.trec",
      "rect" : [0, 0, 1920, 1080],
      "lastMod" : "20210412T041349",
      "sourceTracks" : [
        {
          "range" : [0, 436],
          "type" : 0,
          "editRate" : 30,
          "trackRect" : [0, 0, 1920, 1080],
          "sampleRate" : 5,
          "bitDepth" : 0,
          "numChannels" : 0,
          "integratedLUFS" : 100.0,
          "peakLevel" : -1.0,
          "metaData" : "2b7b6a00-7a1f-11e2-83d0-0017f200be7f;2b7b6aef-7a1f-11e2-83d0-0017f200be7f;2b7b6af0-7a1f-11e2-83d0-0017f200be7f;2b7b6af1-7a1f-11e2-83d0-0017f200be7f;2b7b6af2-7a1f-11e2-83d0-0017f200be7f;2b7b6af3-7a1f-11e2-83d0-0017f200be7f;2b7b6af5-7a1f-11e2-83d0-0017f200be7f;2b7b6af6-7a1f-11e2-83d0-0017f200be7f;2b7b6af7-7a1f-11e2-83d0-0017f200be7f;2b7b6af8-7a1f-11e2-83d0-0017f200be7f;2b7b6af9-7a1f-11e2-83d0-0017f200be7f;2b7b6afa-7a1f-11e2-83d0-0017f200be7f;"
        },
        {
          "range" : [0, 657408],
          "type" : 2,
          "editRate" : 44100,
          "trackRect" : [0, 0, 0, 0],
          "sampleRate" : 44100,
          "bitDepth" : 16,
          "numChannels" : 2,
          "integratedLUFS" : -17.1844598495784,
          "peakLevel" : 0.997772216796875,
          "metaData" : ""
        },
        {
          "range" : [0, 657408],
          "type" : 2,
          "editRate" : 44100,
          "trackRect" : [0, 0, 0, 0],
          "sampleRate" : 44100,
          "bitDepth" : 16,
          "numChannels" : 2,
          "integratedLUFS" : -1.79769313486232e+308,
          "peakLevel" : 0.0,
          "metaData" : ""
        }
      ],
      "metadata" : {
        "timeAdded" : "20210412T041352.478881"
      }
    },
    {
      "id" : 5,
      "src" : "C:\\Users\\C5314887\\OneDrive - SAP SE\\Documents\\Camtasia\\Rec 04-11-21_004.trec",
      "rect" : [0, 0, 1920, 1080],
      "lastMod" : "20210412T043739",
      "sourceTracks" : [
        {
          "range" : [0, 377],
          "type" : 0,
          "editRate" : 30,
          "trackRect" : [0, 0, 1920, 1080],
          "sampleRate" : 13,
          "bitDepth" : 0,
          "numChannels" : 0,
          "integratedLUFS" : 100.0,
          "peakLevel" : -1.0,
          "metaData" : "2b7b6a00-7a1f-11e2-83d0-0017f200be7f;2b7b6aef-7a1f-11e2-83d0-0017f200be7f;2b7b6af0-7a1f-11e2-83d0-0017f200be7f;2b7b6af1-7a1f-11e2-83d0-0017f200be7f;2b7b6af2-7a1f-11e2-83d0-0017f200be7f;2b7b6af3-7a1f-11e2-83d0-0017f200be7f;2b7b6af5-7a1f-11e2-83d0-0017f200be7f;2b7b6af6-7a1f-11e2-83d0-0017f200be7f;2b7b6af7-7a1f-11e2-83d0-0017f200be7f;2b7b6af8-7a1f-11e2-83d0-0017f200be7f;2b7b6af9-7a1f-11e2-83d0-0017f200be7f;2b7b6afa-7a1f-11e2-83d0-0017f200be7f;"
        },
        {
          "range" : [0, 564224],
          "type" : 2,
          "editRate" : 44100,
          "trackRect" : [0, 0, 0, 0],
          "sampleRate" : 44100,
          "bitDepth" : 16,
          "numChannels" : 2,
          "integratedLUFS" : -43.7243260901196,
          "peakLevel" : 0.087005615234375,
          "metaData" : ""
        },
        {
          "range" : [0, 564224],
          "type" : 2,
          "editRate" : 44100,
          "trackRect" : [0, 0, 0, 0],
          "sampleRate" : 44100,
          "bitDepth" : 16,
          "numChannels" : 2,
          "integratedLUFS" : -1.79769313486232e+308,
          "peakLevel" : 0.0,
          "metaData" : ""
        }
      ],
      "metadata" : {
        "timeAdded" : "20210412T043740.556595"
      }
    },
    {
      "id" : 6,
      "src" : "C:\\Users\\C5314887\\OneDrive - SAP SE\\Documents\\Camtasia\\Rec 04-11-21_005.trec",
      "rect" : [0, 0, 1920, 1080],
      "lastMod" : "20210412T044207",
      "sourceTracks" : [
        {
          "range" : [0, 498],
          "type" : 0,
          "editRate" : 30,
          "trackRect" : [0, 0, 1920, 1080],
          "sampleRate" : 5,
          "bitDepth" : 0,
          "numChannels" : 0,
          "integratedLUFS" : 100.0,
          "peakLevel" : -1.0,
          "metaData" : "2b7b6a00-7a1f-11e2-83d0-0017f200be7f;2b7b6aef-7a1f-11e2-83d0-0017f200be7f;2b7b6af0-7a1f-11e2-83d0-0017f200be7f;2b7b6af1-7a1f-11e2-83d0-0017f200be7f;2b7b6af2-7a1f-11e2-83d0-0017f200be7f;2b7b6af3-7a1f-11e2-83d0-0017f200be7f;2b7b6af5-7a1f-11e2-83d0-0017f200be7f;2b7b6af6-7a1f-11e2-83d0-0017f200be7f;2b7b6af7-7a1f-11e2-83d0-0017f200be7f;2b7b6af8-7a1f-11e2-83d0-0017f200be7f;2b7b6af9-7a1f-11e2-83d0-0017f200be7f;2b7b6afa-7a1f-11e2-83d0-0017f200be7f;"
        },
        {
          "range" : [0, 749568],
          "type" : 2,
          "editRate" : 44100,
          "trackRect" : [0, 0, 0, 0],
          "sampleRate" : 44100,
          "bitDepth" : 16,
          "numChannels" : 2,
          "integratedLUFS" : -18.0840663251971,
          "peakLevel" : 1.0,
          "metaData" : ""
        },
        {
          "range" : [0, 747520],
          "type" : 2,
          "editRate" : 44100,
          "trackRect" : [0, 0, 0, 0],
          "sampleRate" : 44100,
          "bitDepth" : 16,
          "numChannels" : 2,
          "integratedLUFS" : -1.79769313486232e+308,
          "peakLevel" : 0.0,
          "metaData" : ""
        }
      ],
      "metadata" : {
        "timeAdded" : "20210412T044209.348623"
      }
    },
    {
      "id" : 7,
      "src" : "C:\\Users\\C5314887\\OneDrive - SAP SE\\Documents\\Camtasia\\Rec 04-12-21.trec",
      "rect" : [0, 0, 0, 0],
      "lastMod" : "20210412T142052",
      "sourceTracks" : [
        {
          "range" : [0, 653312],
          "type" : 2,
          "editRate" : 44100,
          "trackRect" : [0, 0, 0, 0],
          "sampleRate" : 44100,
          "bitDepth" : 16,
          "numChannels" : 2,
          "integratedLUFS" : -20.0031953481435,
          "peakLevel" : 0.676727294921875,
          "metaData" : ""
        }
      ],
      "metadata" : {
        "timeAdded" : "20210412T142053.325507"
      }
    },
    {
      "id" : 8,
      "src" : "C:\\Users\\C5314887\\OneDrive - SAP SE\\Documents\\Camtasia\\Rec 04-12-21_001.trec",
      "rect" : [0, 0, 0, 0],
      "lastMod" : "20210412T142358",
      "sourceTracks" : [
        {
          "range" : [0, 7285760],
          "type" : 2,
          "editRate" : 44100,
          "trackRect" : [0, 0, 0, 0],
          "sampleRate" : 44100,
          "bitDepth" : 16,
          "numChannels" : 2,
          "integratedLUFS" : -19.2020214323463,
          "peakLevel" : 0.9830322265625,
          "metaData" : ""
        }
      ],
      "metadata" : {
        "timeAdded" : "20210412T142359.901152"
      }
    }
  ],
  "timeline" : {
    "id" : 9,
    "sceneTrack" : {
      "scenes" : [
        {
          "csml" : {
            "tracks" : [
              {
                "trackIndex" : 0,
                "medias" : [
                  {
                    "id" : 10,
                    "_type" : "AMFile",
                    "src" : 8,
                    "trackNumber" : 0,
                    "attributes" : {
                      "ident" : "Rec 04-12-21_001",
                      "gain" : 1.0,
                      "mixToMono" : false
                    },
                      "channelNumber" : "0,1",
                    "effects" : [
                        {
                          "effectName" : "NoiseReduction",
                          "bypassed" : false,
                          "category" : "categoryAudioEffects",
                          "parameters" : {
                            "denoiserAmount" : 20.0,
                            "denoiserThreshold" : 0.0,
                            "noiseProfile" : "x9dYPsRKuz6XHQY/oRmsP/xpqj8XKGY+EzwYPg9dQz50HK89mK/7PXnuET19oaM9RQUGPTy/BT2O\r\ndLE9yCvzPc2aEz7eTBM9o95BPSAt3D2oiGQ+026zPSx8Aj5Mh309JzOyPOlQXzyPlrE8RAqlPBGm\r\ntz00cck82P8rPQnN9jxk+hE9eitAPAthpzy69Zc8iQ6+Ox7fGzxvaSI8jTm9O3w2Szwwmro77BVz\r\nO7lgDDyQQe08lHpFPZDujj1oGMM8JQILPUv5KT2YSv48D4Y0PYA4Cj0GaBE9KBSxPCTjJD2dn8s8\r\nI8OTPMyZAjwGIac8TNCNPAVS6DyzcLk8upMDPJNlITxlBc88wHqBPKR/TDziEIg8bkUvPc4oFD34\r\nTow8IuOFPFQrcjx21xk8dkYKPHUW4zto5pA7eqPTOyhyczvcCio7HpmVOylEpzpy/zU7CJyTO8+N\r\nejt8/X871vVEO0QnZzuUWbM8RNG8Onk7CDuDUYU7inyyO475DzuY4og7MgI9OzY6GDu7ZAs7+D0L\r\nO+coSTuxPZw7xTktO+Kz/Drosxg7P36cOnA0BzsJUeg6YpdRO4elIDu0BiI7RezWOjeh8jprDoo6\r\nmDkMO/erpjpOBTI72JuOO9t0HDvy8s864fCzOpnIvzoWMGI7EwkEO7fOHTtoDNA60KsAOy9vDTs3\r\nkNc6c5UtO/5bHTtq8Pg6IqM/O05QbTvS1yc7ftSiOvaPgjqpIAw7WPMbO2PlhTr2b787hR4bOrne\r\nUTqDxZQ63wzIOuDfvzqSM9w6Hh6EOoHSlzutUH064xTDOvLrnzrf7Ko6BIuhOpyiODpObnQ64NK3\r\nOuFdyDqZFqI6FKE5OowEjjrvkMI6mGZUOl0Cqzqr4GA6+b6OOjMOkToFnsY6Se2zOswSkTqHE5o6\r\nDd/ROkVmrDrqpR475jEuOrAVkjq1e806vS5FOjvzNDtPZZI6WK8pOpGVgjrO8l46ytkqOjzgcjp2\r\nVV86CNauOoDwUDrGcVI6CLo1OudohTq1ck06BxYBOtTIdzrTTCE6fFtAOhV4LjqrjnE6Q3hdOnPN\r\nGTpym2868czROt6YkzpWHWc644NJOmsxnTvf5Do6NrjVOlcHEDrzbWw6CmOuOssGqzqYWMw5Wp9x\r\nOmiGwjpzKDQ6CLmVPILz4juW6Zc6whxVOs4/mjrNkFg6kjlFO5wOnjrP4gU6fNlZOqxxtTms8tI6\r\nhDytOlz+TTp8MHA6TMgSOpCKYTqJ+6U7SwWFOjebpTos8Bc6RH7SOa4rGDod3To6tiFEOni0IDqK\r\nIAw6hTRDOpGimjt9IjQ6DFYLOrdKgjot1Os64ftDPH2heDzHtsQ6yixaOuyTQjqc1W46cGbcOzF3\r\nMDv99jM6gHUmOomDqjlqktQ5UTNCOlLKWTpPXkQ6osX1OfpboTrN8Xk6AVoqOpgZLzrmYgE6OnT6\r\nOXQxujmwir05/FvAObUG5zl8G/450AD5OfyXuDmavmM6burcOabHFTrSWyQ69EspOsk48TkC+Kw5\r\nYWf2OWtumjktIDQ6La6MOYw+oDlUKaE5QRkeOmwGtzmlOJI5UGXsOQ3FBTot9Uk6RM3NOZBR5Tnp\r\noqs5WModOk6G2jkceNA587SJOeYkmjk5fSg6sQdAOnoE+zkebhc6xjkOOjZTNTpZylc5KSjfOdi2\r\nwTk/Eu85NOTiOYhAvDnozDE6gHjsOUg7EDpIkeM5+K4lOndZzjn3qY85zp4YOsQM3jlrpaA5QnKe\r\nOT3/gzngdu05aipdORvdwzl53545c+qfOUbGQzqjnqM5Jn8GOtH/uDkiTgM6Qi+xOfdlFzr9my86\r\n0RbKOTK03Tm+Gx469OHKOWj6JDqs7tk5HBjgOfiCLTo1eRE6s5tWOiVe1TlUJAI6IeXVOX4ROTpi\r\nu6k5ShjpOUKhzjlYXfE5pQvwOXhL4zl4Dmk6lij1OfkgxznFec05uYD8OU7LRTreTy86OMvsOcdJ\r\nrDl7ZsI5kjSJOoF4FTorYNw5b+S1OROS9TnPYZw5P/qOOWBa4Tl0zzg5NyuHORM/ijpffqc5nQDB\r\nOQuB3znFXqU5tb4lOjAdLDroe685vmiOOmESRzrrjFQ6L2YVOjy/tTlMeaM5xonyOaYMiznAM7U5\r\ncuSZOa+v5zkQDus5IFECOhjTpDmWC5s5XZBNOpfH0TmGzBQ6rWaUOW+2CjocE9w5ZBOYOQ3Kmjl6\r\nIgw6J/KNOd1lpTk+1DA66Q62OcSNbzlD6+I5C/x4OSWClzrkojo6JnoMOpxTgTngAJQ52u5iOguA\r\nbzqjAYQ5T2hCOkQ0sTn8Ie45mHRpOYGUBToex3k53I0jOsiEzznkOCo603pTOhPQwDkMmx45Hr4y\r\nOu0PsjmD4y86PK2rOpoMEzq7PxI6CxT1Od/mBDrxPIo6wvdQOs42FTpj+RA6b2ekOahLGzq4iDo6\r\nCZfSOf9o9jnSLKQ57xP6OXssnzoM4xw60rONOc/bozmbblc5tTWnOXQO9zkcPZY574FrOm88pjn6\r\ngIA55s9vOkw9Qjrguhw6U/NfOpRfujmJ8bQ5dRwBOidVIDqSpuE5KjXxOfNlhTnh8Bg6lSnbOoxV\r\nPTorDlI6zDEWOnvKjjlog6k5ZkVzOTBL5TnRZCw6bPDEOVJwBDqrAmo6fLNMOjoM8Tnxcmo5UCI/\r\nORXtJTpq+sM5XJ8TOrw0pDksK5A5Fg4NOn8JOjrQYLg5XCi1ORlPHDqtgKk5v1cHOnT4djmQV4U5\r\nPaHLObaRXznrh9Q5uB3dOcXHLTrZsKA5hD4VOqYWwDlRihc6SE4uOhJlezkWxsc5UuGVOUjoeTk2\r\nM485uSEkOYlMGTkFI4M5y4JOOY7quTkMzow5QRVAOZoAaDlhNIU5wxNtOfqvfTk4pb85MktiOa4r\r\nAjoDf285H9eDOSZ0GTo+F5I526AHOhgptTlnWYE5DCZyORjKszkAgqQ5/4qdOZZpxTk0Lm45f+J8\r\nOX+ChTneDG05pnyOOVFwrDnp2545l4juObXrSzlBd/Q5bqJlOcZ2jzmu8V05tXs8OfLHYjlC8eA5\r\n0rv5OQX29Dm2sw05xceeOTHPszkyYas5UomuORYNyTlGhbQ5gGdiOZgeazlxYqQ5APHXOfjy6zkv\r\nCqE5Ol1hOdYyqTmPkHg5XA6UOeZcBTpqxWs5nfbMOUh6lDmbJZs5CqBhOadF1jl6ZMc5hcVYOeuK\r\nxTntCu05rwlJOQVUhjmki505zv1aOVOUoTmDFAE55Q7FORpFljmifrI5k7chOkwU4jmeUDA5OsSp\r\nOToCpjk81I45hSahOfz9WDkzxVY5dT3HOVaE0TmmDIo5Fq7COT6dAjplLaE5QVOOOVqYRTl0vZA5\r\nlzGHOTyOnzkunpE5bKF5OQciHznmrZ055fdjOc1g4jkaJJ45wtulOQw0XznOYPM5RozaOdmPxTnz\r\nGAk6t2E6Oe7klzmfbDs5BWaxOb5EbDns3T05kGFpObRLCjrvrVw5cMQKOkF60Dkj3X856rigObro\r\nkTkSizE5Rs1XOV8/uzn+S0g5876TOU7gDDlGTsk4zl9uOTI0aTm6S545nuPgOZWTVzkAyZA5fLGB\r\nOeQXczml1Js5bGyzOWrOuzkyg2Q51LKVOW4ARjntdmc5mNdpOUdW3jlmWlY5VmOAOf/Wrzmq4NE5\r\n5E+xOaiFQzmcSqQ5/ZuDOe7RxzkMAZs5j8WsObTqhDl0tF055wqdOQrxlznCG5s52HigOb0ekDm0\r\n3Vk5c5m2OZtsFTm6kjo5V4SIOTUtyDkw1jo5uoUEOD8pDDdf9sA2L5SGNikdtDboME42bURtNnem\r\nmjb8EJo2HZV8NiVInjYSuYA2xBdYNiz3MjY0BIE2+A8aNnXyCDbblkI2yocdNj1YOjba1i02jkUz\r\nNko4hjaRe382+uvmNbNvaDbAVB82wF4UNgyFFzYqOVM2opcDNgtlvDcUARc4HhtmODOV6Dhavvk4\r\n//qmOPsdjjcCE4I3anpsNoOBizYXDHw4Eh7vOLThAzmf0So4AvdcN2nLPjf3Jok4/rAAOGJN3zdx\r\nu944mXIrOcrUtTj6eic49b0DOVpCujgetXw3HZHzNrde0jejA8I3VFP0N3EyqjeyY083tx5VN3dJ\r\nhjiETVY4HDVwOUQjxzgFdwo4iTnUN0ycqTiG0YY41wwJOd1Ggjm2VEo4GGcPOCQE1DfCkkk4JtME\r\nOY5HtTiifV44nwK5OENzwTiFbxg5bJ2FOXtUdjmncBM5QvvLOI7HEDlGpPE4x/qdOP1saDkiOf04\r\n/hWaOEYp7Th0sM033/xJNqWwVDb1mUk2ho0WNtsqVjbea2A2Obt4NlzW4DXSAAc2iiZtNq+dSjaQ\r\nGOw1gjwmNsgwTjaFjcY1MK0HNoXEXjZcHns2eNoMNjR5BDYZj7s1CWVONrwhiDYM0z020yh2Noio\r\nSza2Dz82DmE1NjfQVDZyFtg1BktDNiSgTTY8dS82wU6MNlf1FDbBtBo2v1DWNY69bDayQUo2VK6b\r\nNk8gITZfOhM2hpFhNrVNFDbd2wM2dsDgNcaVXDarrnw2ymxLNkj3RzbywJc2cpAVNq4INzbgFBI2\r\n9q8TNusS9DXgKfE1fmDaNdk5ITbY6BY2MFN6Nh6OBTY++ww28BhFNvJoBjYwywk2T9RcNhBwgDZW\r\nOho2eKUtNr5r6zU0kCc2cEomNlcqDDaTo0s2L6XmNReTDDZwxA42nBgkNuqXLTYIChw2WQwjNrgH\r\nMDYNITU2jfpnNrZhIjbeSSQ2UXuPNmMNSTYGZoQ2JI9WNn6ulzZGJLg2HZSdNiB7LzeExRg50YQ6\r\nORgNlThgLSM5mQceOfVqUjlWrE443qqbOXSqCjlRYlE5BVsjOZpJIzm8EIk5iupHOSfSqTlExvg4\r\nWakDOQBxSzkUSA0594TQOCj8sTg/1M05QgrKOc3iITpQOKo7RqqUOa1saDkiexQ5HqT+OKQkbzmw\r\ncdI5dV5GOrgfjDoS6RU6gl1PPEMLpTo8qLA5uOZvOcevEjl3kgM5sUBqOSTSrjmG3Go5+e/QOvxl\r\nnTzgmkY7dKYTOiTxZTr4h5k5mQEYOVZNjzmoS0U5zu5COXYE5ThsjKE5UOsxOTpj+zlirMk4AoLL\r\nOFXbITlAzGY5Z0WTOewZgjiefb44KAFTOf4lyzkyz7o4W5vwOL/nvzjnoAc5Qyi5OPmcAjqw3b04\r\n7EAKOeJTpDgXNuM4GjreOABvtjg0zZc4AOphOKILFjg2ALY41higOBlijTg01Nc48hc0OFm8gjj+\r\nWhA4FDQ3OJldkjjDDS44hA8AOHyNQTgQuC04l+NbOEAZijjvUyY4frM7OHP5BDig1MU32t0iOP6Y\r\nAziElgA4bxcDOIKqwjcozPk37zAkOG83HzitNj83WIG0N6ChljdScbs3bE9RN5qL0DeSBTU3DTFQ\r\nNyi+njc0MKk2mAf+Nk4c9DafQ+A3/FRONxIzdzfxYck2CYYNN4aLWDcHXK42YN78NgBIuTbH11g+\r\nxEq7PpcdBj+hGaw//GmqPxcoZj4TPBg+D11DPnQcrz2Yr/s9ee4RPX2hoz1FBQY9PL8FPY50sT3I\r\nK/M9zZoTPt5MEz2j3kE9IC3cPaiIZD7TbrM9LHwCPkyHfT0nM7I86VBfPI+WsTxECqU8Eaa3PTRx\r\nyTzY/ys9Cc32PGT6ET16K0A8C2GnPLr1lzyJDr47Ht8bPG9pIjyNOb07fDZLPDCaujvsFXM7uWAM\r\nPJBB7TyUekU9kO6OPWgYwzwlAgs9S/kpPZhK/jwPhjQ9gDgKPQZoET0oFLE8JOMkPZ2fyzwjw5M8\r\nzJkCPAYhpzxM0I08BVLoPLNwuTy6kwM8k2UhPGUFzzzAeoE8pH9MPOIQiDxuRS89zigUPfhOjDwi\r\n44U8VCtyPHbXGTx2Rgo8dRbjO2jmkDt6o9M7KHJzO9wKKjsemZU7KUSnOnL/NTsInJM7z416O3z9\r\nfzvW9UQ7RCdnO5RZszxE0bw6eTsIO4NRhTuKfLI7jvkPO5jiiDsyAj07NjoYO7tkCzv4PQs75yhJ\r\nO7E9nDvFOS074rP8OuizGDs/fpw6cDQHOwlR6Dpil1E7h6UgO7QGIjtF7NY6N6HyOmsOijqYOQw7\r\n96umOk4FMjvYm44723QcO/Lyzzrh8LM6mci/OhYwYjsTCQQ7t84dO2gM0DrQqwA7L28NOzeQ1zpz\r\nlS07/lsdO2rw+Doioz87TlBtO9LXJzt+1KI69o+COqkgDDtY8xs7Y+WFOvZvvzuFHhs6ud5ROoPF\r\nlDrfDMg64N+/OpIz3DoeHoQ6gdKXO61QfTrjFMM68uufOt/sqjoEi6E6nKI4Ok5udDrg0rc64V3I\r\nOpkWojoUoTk6jASOOu+QwjqYZlQ6XQKrOqvgYDr5vo46Mw6ROgWexjpJ7bM6zBKROocTmjoN39E6\r\nRWasOuqlHjvmMS46sBWSOrV7zTq9LkU6O/M0O09lkjpYryk6kZWCOs7yXjrK2So6POByOnZVXzoI\r\n1q46gPBQOsZxUjoIujU652iFOrVyTToHFgE61Mh3OtNMITp8W0A6FXguOquOcTpDeF06c80ZOnKb\r\nbzrxzNE63piTOlYdZzrjg0k6azGdO9/kOjo2uNU6VwcQOvNtbDoKY646ywarOphYzDlan3E6aIbC\r\nOnMoNDoIuZU8gvPiO5bplzrCHFU6zj+aOs2QWDqSOUU7nA6eOs/iBTp82Vk6rHG1Oazy0jqEPK06\r\nXP5NOnwwcDpMyBI6kIphOon7pTtLBYU6N5ulOizwFzpEftI5risYOh3dOjq2IUQ6eLQgOoogDDqF\r\nNEM6kaKaO30iNDoMVgs6t0qCOi3U6zrh+0M8faF4PMe2xDrKLFo67JNCOpzVbjpwZtw7MXcwO/32\r\nMzqAdSY6iYOqOWqS1DlRM0I6UspZOk9eRDqixfU5+luhOs3xeToBWio6mBkvOuZiATo6dPo5dDG6\r\nObCKvTn8W8A5tQbnOXwb/jnQAPk5/Je4OZq+Yzpu6tw5pscVOtJbJDr0Syk6yTjxOQL4rDlhZ/Y5\r\na26aOS0gNDotrow5jD6gOVQpoTlBGR46bAa3OaU4kjlQZew5DcUFOi31STpEzc05kFHlOemiqzlY\r\nyh06TobaORx40DnztIk55iSaOTl9KDqxB0A6egT7OR5uFzrGOQ46NlM1OlnKVzkpKN852LbBOT8S\r\n7zk05OI5iEC8OejMMTqAeOw5SDsQOkiR4zn4riU6d1nOOfepjznOnhg6xAzeOWuloDlCcp45Pf+D\r\nOeB27TlqKl05G93DOXnfnjlz6p85RsZDOqOeozkmfwY60f+4OSJOAzpCL7E592UXOv2bLzrRFso5\r\nMrTdOb4bHjr04co5aPokOqzu2TkcGOA5+IItOjV5ETqzm1Y6JV7VOVQkAjoh5dU5fhE5OmK7qTlK\r\nGOk5QqHOOVhd8TmlC/A5eEvjOXgOaTqWKPU5+SDHOcV5zTm5gPw5TstFOt5PLzo4y+w5x0msOXtm\r\nwjmSNIk6gXgVOitg3Dlv5LU5E5L1Oc9hnDk/+o45YFrhOXTPODk3K4c5Ez+KOl9+pzmdAME5C4Hf\r\nOcVepTm1viU6MB0sOuh7rzm+aI46YRJHOuuMVDovZhU6PL+1OUx5oznGifI5pgyLOcAztTly5Jk5\r\nr6/nORAO6zkgUQI6GNOkOZYLmzldkE06l8fROYbMFDqtZpQ5b7YKOhwT3DlkE5g5DcqaOXoiDDon\r\n8o053WWlOT7UMDrpDrY5xI1vOUPr4jkL/Hg5JYKXOuSiOjomegw6nFOBOeAAlDna7mI6C4BvOqMB\r\nhDlPaEI6RDSxOfwh7jmYdGk5gZQFOh7HeTncjSM6yITPOeQ4KjrTelM6E9DAOQybHjkevjI67Q+y\r\nOYPjLzo8ras6mgwTOrs/EjoLFPU53+YEOvE8ijrC91A6zjYVOmP5EDpvZ6Q5qEsbOriIOjoJl9I5\r\n/2j2OdIspDnvE/o5eyyfOgzjHDrSs405z9ujOZtuVzm1Nac5dA73ORw9ljnvgWs6bzymOfqAgDnm\r\nz286TD1COuC6HDpT8186lF+6OYnxtDl1HAE6J1UgOpKm4TkqNfE582WFOeHwGDqVKds6jFU9OisO\r\nUjrMMRY6e8qOOWiDqTlmRXM5MEvlOdFkLDps8MQ5UnAEOqsCajp8s0w6OgzxOfFyajlQIj85Fe0l\r\nOmr6wzlcnxM6vDSkOSwrkDkWDg06fwk6OtBguDlcKLU5GU8cOq2AqTm/Vwc6dPh2OZBXhTk9ocs5\r\ntpFfOeuH1Dm4Hd05xcctOtmwoDmEPhU6phbAOVGKFzpITi46EmV7ORbGxzlS4ZU5SOh5OTYzjzm5\r\nISQ5iUwZOQUjgznLgk45juq5OQzOjDlBFUA5mgBoOWE0hTnDE205+q99OTilvzkyS2I5risCOgN/\r\nbzkf14M5JnQZOj4XkjnboAc6GCm1OWdZgTkMJnI5GMqzOQCCpDn/ip05lmnFOTQubjl/4nw5f4KF\r\nOd4MbTmmfI45UXCsOenbnjmXiO45tetLOUF39DluomU5xnaPOa7xXTm1ezw58sdiOULx4DnSu/k5\r\nBfb0ObazDTnFx545Mc+zOTJhqzlSia45Fg3JOUaFtDmAZ2I5mB5rOXFipDkA8dc5+PLrOS8KoTk6\r\nXWE51jKpOY+QeDlcDpQ55lwFOmrFazmd9sw5SHqUOZslmzkKoGE5p0XWOXpkxzmFxVg564rFOe0K\r\n7TmvCUk5BVSGOaSLnTnO/Vo5U5ShOYMUATnlDsU5GkWWOaJ+sjmTtyE6TBTiOZ5QMDk6xKk5OgKm\r\nOTzUjjmFJqE5/P1YOTPFVjl1Pcc5VoTROaYMijkWrsI5Pp0COmUtoTlBU445WphFOXS9kDmXMYc5\r\nPI6fOS6ekTlsoXk5ByIfOeatnTnl92M5zWDiORoknjnC26U5DDRfOc5g8zlGjNo52Y/FOfMYCTq3\r\nYTo57uSXOZ9sOzkFZrE5vkRsOezdPTmQYWk5tEsKOu+tXDlwxAo6QXrQOSPdfznquKA5uuiRORKL\r\nMTlGzVc5Xz+7Of5LSDnzvpM5TuAMOUZOyTjOX245MjRpObpLnjme4+A5lZNXOQDJkDl8sYE55Bdz\r\nOaXUmzlsbLM5as67OTKDZDnUspU5bgBGOe12ZzmY12k5R1beOWZaVjlWY4A5/9avOarg0TnkT7E5\r\nqIVDOZxKpDn9m4M57tHHOQwBmzmPxaw5tOqEOXS0XTnnCp05CvGXOcIbmznYeKA5vR6QObTdWTlz\r\nmbY5m2wVObqSOjlXhIg5NS3IOTDWOjm6hQQ4PykMN1/2wDYvlIY2KR20NugwTjZtRG02d6aaNvwQ\r\nmjYdlXw2JUieNhK5gDbEF1g2LPcyNjQEgTb4Dxo2dfIINtuWQjbKhx02PVg6NtrWLTaORTM2SjiG\r\nNpF7fzb66+Y1s29oNsBUHzbAXhQ2DIUXNio5UzailwM2C2W8NxQBFzgeG2Y4M5XoOFq++Tj/+qY4\r\n+x2ONwITgjdqemw2g4GLNhcMfDgSHu84tOEDOZ/RKjgC91w3acs+N/cmiTj+sAA4Yk3fN3G73jiZ\r\ncis5ytS1OPp6Jzj1vQM5WkK6OB61fDcdkfM2t17SN6MDwjdUU/Q3cTKqN7JjTze3HlU3d0mGOIRN\r\nVjgcNXA5RCPHOAV3CjiJOdQ3TJypOIbRhjjXDAk53UaCObZUSjgYZw84JATUN8KSSTgm0wQ5jke1\r\nOKJ9XjifArk4Q3PBOIVvGDlsnYU5e1R2OadwEzlC+8s4jscQOUak8TjH+p04/WxoOSI5/Tj+FZo4\r\nRintOHSwzTff/Ek2pbBUNvWZSTaGjRY22ypWNt5rYDY5u3g2XNbgNdIABzaKJm02r51KNpAY7DWC\r\nPCY2yDBONoWNxjUwrQc2hcReNlweezZ42gw2NHkENhmPuzUJZU42vCGINgzTPTbTKHY2iKhLNrYP\r\nPzYOYTU2N9BUNnIW2DUGS0M2JKBNNjx1LzbBTow2V/UUNsG0Gja/UNY1jr1sNrJBSjZUrps2TyAh\r\nNl86EzaGkWE2tU0UNt3bAzZ2wOA1xpVcNquufDbKbEs2SPdHNvLAlzZykBU2rgg3NuAUEjb2rxM2\r\n6xL0NeAp8TV+YNo12TkhNtjoFjYwU3o2Ho4FNj77DDbwGEU28mgGNjDLCTZP1Fw2EHCANlY6GjZ4\r\npS02vmvrNTSQJzZwSiY2VyoMNpOjSzYvpeY1F5MMNnDEDjacGCQ26pctNggKHDZZDCM2uAcwNg0h\r\nNTaN+mc2tmEiNt5JJDZRe482Yw1JNgZmhDYkj1Y2fq6XNkYkuDYdlJ02IHsvN4TFGDnRhDo5GA2V\r\nOGAtIzmZBx459WpSOVasTjjeqps5dKoKOVFiUTkFWyM5mkkjObwQiTmK6kc5J9KpOUTG+DhZqQM5\r\nAHFLORRIDTn3hNA4KPyxOD/UzTlCCso5zeIhOlA4qjtGqpQ5rWxoOSJ7FDkepP44pCRvObBx0jl1\r\nXkY6uB+MOhLpFTqCXU88QwulOjyosDm45m85x68SOXeSAzmxQGo5JNKuOYbcajn579A6/GWdPOCa\r\nRjt0phM6JPFlOviHmTmZARg5Vk2POahLRTnO7kI5dgTlOGyMoTlQ6zE5OmP7OWKsyTgCgss4Vdsh\r\nOUDMZjlnRZM57BmCOJ59vjgoAVM5/iXLOTLPujhbm/A4v+e/OOegBzlDKLk4+ZwCOrDdvTjsQAo5\r\n4lOkOBc24zgaOt44AG+2ODTNlzgA6mE4ogsWODYAtjjWGKA4GWKNODTU1zjyFzQ4WbyCOP5aEDgU\r\nNDc4mV2SOMMNLjiEDwA4fI1BOBC4LTiX41s4QBmKOO9TJjh+szs4c/kEOKDUxTfa3SI4/pgDOISW\r\nADhvFwM4gqrCNyjM+TfvMCQ4bzcfOK02PzdYgbQ3oKGWN1JxuzdsT1E3movQN5IFNTcNMVA3KL6e\r\nNzQwqTaYB/42Thz0Np9D4Df8VE43EjN3N/FhyTYJhg03hotYNwdcrjZg3vw2AEi5Ng==",
                            "noiseTrainingType" : "default"
                          },
                          "metadata" : {
                            "presetName" : "Noise Removal"
                          }
                        }
                    ],
                    "start" : 0,
                    "duration" : 205,
                    "mediaStart" : 34,
                    "mediaDuration" : 205,
                    "scalar" : 1,
                    "metadata" : {
                      "clipSpeedAttribute" : false
                    },
                    "animationTracks" : {

                    }
                  },
                  {
                    "id" : 11,
                    "_type" : "AMFile",
                    "src" : 8,
                    "trackNumber" : 0,
                    "attributes" : {
                      "ident" : "Rec 04-12-21_001",
                      "gain" : 1.0,
                      "mixToMono" : false
                    },
                      "channelNumber" : "0,1",
                    "effects" : [
                        {
                          "effectName" : "NoiseReduction",
                          "bypassed" : false,
                          "category" : "categoryAudioEffects",
                          "parameters" : {
                            "denoiserAmount" : 22.4,
                            "denoiserThreshold" : 6.0,
                            "noiseProfile" : "x9dYPsRKuz6XHQY/oRmsP/xpqj8XKGY+EzwYPg9dQz50HK89mK/7PXnuET19oaM9RQUGPTy/BT2O\r\ndLE9yCvzPc2aEz7eTBM9o95BPSAt3D2oiGQ+026zPSx8Aj5Mh309JzOyPOlQXzyPlrE8RAqlPBGm\r\ntz00cck82P8rPQnN9jxk+hE9eitAPAthpzy69Zc8iQ6+Ox7fGzxvaSI8jTm9O3w2Szwwmro77BVz\r\nO7lgDDyQQe08lHpFPZDujj1oGMM8JQILPUv5KT2YSv48D4Y0PYA4Cj0GaBE9KBSxPCTjJD2dn8s8\r\nI8OTPMyZAjwGIac8TNCNPAVS6DyzcLk8upMDPJNlITxlBc88wHqBPKR/TDziEIg8bkUvPc4oFD34\r\nTow8IuOFPFQrcjx21xk8dkYKPHUW4zto5pA7eqPTOyhyczvcCio7HpmVOylEpzpy/zU7CJyTO8+N\r\nejt8/X871vVEO0QnZzuUWbM8RNG8Onk7CDuDUYU7inyyO475DzuY4og7MgI9OzY6GDu7ZAs7+D0L\r\nO+coSTuxPZw7xTktO+Kz/Drosxg7P36cOnA0BzsJUeg6YpdRO4elIDu0BiI7RezWOjeh8jprDoo6\r\nmDkMO/erpjpOBTI72JuOO9t0HDvy8s864fCzOpnIvzoWMGI7EwkEO7fOHTtoDNA60KsAOy9vDTs3\r\nkNc6c5UtO/5bHTtq8Pg6IqM/O05QbTvS1yc7ftSiOvaPgjqpIAw7WPMbO2PlhTr2b787hR4bOrne\r\nUTqDxZQ63wzIOuDfvzqSM9w6Hh6EOoHSlzutUH064xTDOvLrnzrf7Ko6BIuhOpyiODpObnQ64NK3\r\nOuFdyDqZFqI6FKE5OowEjjrvkMI6mGZUOl0Cqzqr4GA6+b6OOjMOkToFnsY6Se2zOswSkTqHE5o6\r\nDd/ROkVmrDrqpR475jEuOrAVkjq1e806vS5FOjvzNDtPZZI6WK8pOpGVgjrO8l46ytkqOjzgcjp2\r\nVV86CNauOoDwUDrGcVI6CLo1OudohTq1ck06BxYBOtTIdzrTTCE6fFtAOhV4LjqrjnE6Q3hdOnPN\r\nGTpym2868czROt6YkzpWHWc644NJOmsxnTvf5Do6NrjVOlcHEDrzbWw6CmOuOssGqzqYWMw5Wp9x\r\nOmiGwjpzKDQ6CLmVPILz4juW6Zc6whxVOs4/mjrNkFg6kjlFO5wOnjrP4gU6fNlZOqxxtTms8tI6\r\nhDytOlz+TTp8MHA6TMgSOpCKYTqJ+6U7SwWFOjebpTos8Bc6RH7SOa4rGDod3To6tiFEOni0IDqK\r\nIAw6hTRDOpGimjt9IjQ6DFYLOrdKgjot1Os64ftDPH2heDzHtsQ6yixaOuyTQjqc1W46cGbcOzF3\r\nMDv99jM6gHUmOomDqjlqktQ5UTNCOlLKWTpPXkQ6osX1OfpboTrN8Xk6AVoqOpgZLzrmYgE6OnT6\r\nOXQxujmwir05/FvAObUG5zl8G/450AD5OfyXuDmavmM6burcOabHFTrSWyQ69EspOsk48TkC+Kw5\r\nYWf2OWtumjktIDQ6La6MOYw+oDlUKaE5QRkeOmwGtzmlOJI5UGXsOQ3FBTot9Uk6RM3NOZBR5Tnp\r\noqs5WModOk6G2jkceNA587SJOeYkmjk5fSg6sQdAOnoE+zkebhc6xjkOOjZTNTpZylc5KSjfOdi2\r\nwTk/Eu85NOTiOYhAvDnozDE6gHjsOUg7EDpIkeM5+K4lOndZzjn3qY85zp4YOsQM3jlrpaA5QnKe\r\nOT3/gzngdu05aipdORvdwzl53545c+qfOUbGQzqjnqM5Jn8GOtH/uDkiTgM6Qi+xOfdlFzr9my86\r\n0RbKOTK03Tm+Gx469OHKOWj6JDqs7tk5HBjgOfiCLTo1eRE6s5tWOiVe1TlUJAI6IeXVOX4ROTpi\r\nu6k5ShjpOUKhzjlYXfE5pQvwOXhL4zl4Dmk6lij1OfkgxznFec05uYD8OU7LRTreTy86OMvsOcdJ\r\nrDl7ZsI5kjSJOoF4FTorYNw5b+S1OROS9TnPYZw5P/qOOWBa4Tl0zzg5NyuHORM/ijpffqc5nQDB\r\nOQuB3znFXqU5tb4lOjAdLDroe685vmiOOmESRzrrjFQ6L2YVOjy/tTlMeaM5xonyOaYMiznAM7U5\r\ncuSZOa+v5zkQDus5IFECOhjTpDmWC5s5XZBNOpfH0TmGzBQ6rWaUOW+2CjocE9w5ZBOYOQ3Kmjl6\r\nIgw6J/KNOd1lpTk+1DA66Q62OcSNbzlD6+I5C/x4OSWClzrkojo6JnoMOpxTgTngAJQ52u5iOguA\r\nbzqjAYQ5T2hCOkQ0sTn8Ie45mHRpOYGUBToex3k53I0jOsiEzznkOCo603pTOhPQwDkMmx45Hr4y\r\nOu0PsjmD4y86PK2rOpoMEzq7PxI6CxT1Od/mBDrxPIo6wvdQOs42FTpj+RA6b2ekOahLGzq4iDo6\r\nCZfSOf9o9jnSLKQ57xP6OXssnzoM4xw60rONOc/bozmbblc5tTWnOXQO9zkcPZY574FrOm88pjn6\r\ngIA55s9vOkw9Qjrguhw6U/NfOpRfujmJ8bQ5dRwBOidVIDqSpuE5KjXxOfNlhTnh8Bg6lSnbOoxV\r\nPTorDlI6zDEWOnvKjjlog6k5ZkVzOTBL5TnRZCw6bPDEOVJwBDqrAmo6fLNMOjoM8Tnxcmo5UCI/\r\nORXtJTpq+sM5XJ8TOrw0pDksK5A5Fg4NOn8JOjrQYLg5XCi1ORlPHDqtgKk5v1cHOnT4djmQV4U5\r\nPaHLObaRXznrh9Q5uB3dOcXHLTrZsKA5hD4VOqYWwDlRihc6SE4uOhJlezkWxsc5UuGVOUjoeTk2\r\nM485uSEkOYlMGTkFI4M5y4JOOY7quTkMzow5QRVAOZoAaDlhNIU5wxNtOfqvfTk4pb85MktiOa4r\r\nAjoDf285H9eDOSZ0GTo+F5I526AHOhgptTlnWYE5DCZyORjKszkAgqQ5/4qdOZZpxTk0Lm45f+J8\r\nOX+ChTneDG05pnyOOVFwrDnp2545l4juObXrSzlBd/Q5bqJlOcZ2jzmu8V05tXs8OfLHYjlC8eA5\r\n0rv5OQX29Dm2sw05xceeOTHPszkyYas5UomuORYNyTlGhbQ5gGdiOZgeazlxYqQ5APHXOfjy6zkv\r\nCqE5Ol1hOdYyqTmPkHg5XA6UOeZcBTpqxWs5nfbMOUh6lDmbJZs5CqBhOadF1jl6ZMc5hcVYOeuK\r\nxTntCu05rwlJOQVUhjmki505zv1aOVOUoTmDFAE55Q7FORpFljmifrI5k7chOkwU4jmeUDA5OsSp\r\nOToCpjk81I45hSahOfz9WDkzxVY5dT3HOVaE0TmmDIo5Fq7COT6dAjplLaE5QVOOOVqYRTl0vZA5\r\nlzGHOTyOnzkunpE5bKF5OQciHznmrZ055fdjOc1g4jkaJJ45wtulOQw0XznOYPM5RozaOdmPxTnz\r\nGAk6t2E6Oe7klzmfbDs5BWaxOb5EbDns3T05kGFpObRLCjrvrVw5cMQKOkF60Dkj3X856rigObro\r\nkTkSizE5Rs1XOV8/uzn+S0g5876TOU7gDDlGTsk4zl9uOTI0aTm6S545nuPgOZWTVzkAyZA5fLGB\r\nOeQXczml1Js5bGyzOWrOuzkyg2Q51LKVOW4ARjntdmc5mNdpOUdW3jlmWlY5VmOAOf/Wrzmq4NE5\r\n5E+xOaiFQzmcSqQ5/ZuDOe7RxzkMAZs5j8WsObTqhDl0tF055wqdOQrxlznCG5s52HigOb0ekDm0\r\n3Vk5c5m2OZtsFTm6kjo5V4SIOTUtyDkw1jo5uoUEOD8pDDdf9sA2L5SGNikdtDboME42bURtNnem\r\nmjb8EJo2HZV8NiVInjYSuYA2xBdYNiz3MjY0BIE2+A8aNnXyCDbblkI2yocdNj1YOjba1i02jkUz\r\nNko4hjaRe382+uvmNbNvaDbAVB82wF4UNgyFFzYqOVM2opcDNgtlvDcUARc4HhtmODOV6Dhavvk4\r\n//qmOPsdjjcCE4I3anpsNoOBizYXDHw4Eh7vOLThAzmf0So4AvdcN2nLPjf3Jok4/rAAOGJN3zdx\r\nu944mXIrOcrUtTj6eic49b0DOVpCujgetXw3HZHzNrde0jejA8I3VFP0N3EyqjeyY083tx5VN3dJ\r\nhjiETVY4HDVwOUQjxzgFdwo4iTnUN0ycqTiG0YY41wwJOd1Ggjm2VEo4GGcPOCQE1DfCkkk4JtME\r\nOY5HtTiifV44nwK5OENzwTiFbxg5bJ2FOXtUdjmncBM5QvvLOI7HEDlGpPE4x/qdOP1saDkiOf04\r\n/hWaOEYp7Th0sM033/xJNqWwVDb1mUk2ho0WNtsqVjbea2A2Obt4NlzW4DXSAAc2iiZtNq+dSjaQ\r\nGOw1gjwmNsgwTjaFjcY1MK0HNoXEXjZcHns2eNoMNjR5BDYZj7s1CWVONrwhiDYM0z020yh2Noio\r\nSza2Dz82DmE1NjfQVDZyFtg1BktDNiSgTTY8dS82wU6MNlf1FDbBtBo2v1DWNY69bDayQUo2VK6b\r\nNk8gITZfOhM2hpFhNrVNFDbd2wM2dsDgNcaVXDarrnw2ymxLNkj3RzbywJc2cpAVNq4INzbgFBI2\r\n9q8TNusS9DXgKfE1fmDaNdk5ITbY6BY2MFN6Nh6OBTY++ww28BhFNvJoBjYwywk2T9RcNhBwgDZW\r\nOho2eKUtNr5r6zU0kCc2cEomNlcqDDaTo0s2L6XmNReTDDZwxA42nBgkNuqXLTYIChw2WQwjNrgH\r\nMDYNITU2jfpnNrZhIjbeSSQ2UXuPNmMNSTYGZoQ2JI9WNn6ulzZGJLg2HZSdNiB7LzeExRg50YQ6\r\nORgNlThgLSM5mQceOfVqUjlWrE443qqbOXSqCjlRYlE5BVsjOZpJIzm8EIk5iupHOSfSqTlExvg4\r\nWakDOQBxSzkUSA0594TQOCj8sTg/1M05QgrKOc3iITpQOKo7RqqUOa1saDkiexQ5HqT+OKQkbzmw\r\ncdI5dV5GOrgfjDoS6RU6gl1PPEMLpTo8qLA5uOZvOcevEjl3kgM5sUBqOSTSrjmG3Go5+e/QOvxl\r\nnTzgmkY7dKYTOiTxZTr4h5k5mQEYOVZNjzmoS0U5zu5COXYE5ThsjKE5UOsxOTpj+zlirMk4AoLL\r\nOFXbITlAzGY5Z0WTOewZgjiefb44KAFTOf4lyzkyz7o4W5vwOL/nvzjnoAc5Qyi5OPmcAjqw3b04\r\n7EAKOeJTpDgXNuM4GjreOABvtjg0zZc4AOphOKILFjg2ALY41higOBlijTg01Nc48hc0OFm8gjj+\r\nWhA4FDQ3OJldkjjDDS44hA8AOHyNQTgQuC04l+NbOEAZijjvUyY4frM7OHP5BDig1MU32t0iOP6Y\r\nAziElgA4bxcDOIKqwjcozPk37zAkOG83HzitNj83WIG0N6ChljdScbs3bE9RN5qL0DeSBTU3DTFQ\r\nNyi+njc0MKk2mAf+Nk4c9DafQ+A3/FRONxIzdzfxYck2CYYNN4aLWDcHXK42YN78NgBIuTbH11g+\r\nxEq7PpcdBj+hGaw//GmqPxcoZj4TPBg+D11DPnQcrz2Yr/s9ee4RPX2hoz1FBQY9PL8FPY50sT3I\r\nK/M9zZoTPt5MEz2j3kE9IC3cPaiIZD7TbrM9LHwCPkyHfT0nM7I86VBfPI+WsTxECqU8Eaa3PTRx\r\nyTzY/ys9Cc32PGT6ET16K0A8C2GnPLr1lzyJDr47Ht8bPG9pIjyNOb07fDZLPDCaujvsFXM7uWAM\r\nPJBB7TyUekU9kO6OPWgYwzwlAgs9S/kpPZhK/jwPhjQ9gDgKPQZoET0oFLE8JOMkPZ2fyzwjw5M8\r\nzJkCPAYhpzxM0I08BVLoPLNwuTy6kwM8k2UhPGUFzzzAeoE8pH9MPOIQiDxuRS89zigUPfhOjDwi\r\n44U8VCtyPHbXGTx2Rgo8dRbjO2jmkDt6o9M7KHJzO9wKKjsemZU7KUSnOnL/NTsInJM7z416O3z9\r\nfzvW9UQ7RCdnO5RZszxE0bw6eTsIO4NRhTuKfLI7jvkPO5jiiDsyAj07NjoYO7tkCzv4PQs75yhJ\r\nO7E9nDvFOS074rP8OuizGDs/fpw6cDQHOwlR6Dpil1E7h6UgO7QGIjtF7NY6N6HyOmsOijqYOQw7\r\n96umOk4FMjvYm44723QcO/Lyzzrh8LM6mci/OhYwYjsTCQQ7t84dO2gM0DrQqwA7L28NOzeQ1zpz\r\nlS07/lsdO2rw+Doioz87TlBtO9LXJzt+1KI69o+COqkgDDtY8xs7Y+WFOvZvvzuFHhs6ud5ROoPF\r\nlDrfDMg64N+/OpIz3DoeHoQ6gdKXO61QfTrjFMM68uufOt/sqjoEi6E6nKI4Ok5udDrg0rc64V3I\r\nOpkWojoUoTk6jASOOu+QwjqYZlQ6XQKrOqvgYDr5vo46Mw6ROgWexjpJ7bM6zBKROocTmjoN39E6\r\nRWasOuqlHjvmMS46sBWSOrV7zTq9LkU6O/M0O09lkjpYryk6kZWCOs7yXjrK2So6POByOnZVXzoI\r\n1q46gPBQOsZxUjoIujU652iFOrVyTToHFgE61Mh3OtNMITp8W0A6FXguOquOcTpDeF06c80ZOnKb\r\nbzrxzNE63piTOlYdZzrjg0k6azGdO9/kOjo2uNU6VwcQOvNtbDoKY646ywarOphYzDlan3E6aIbC\r\nOnMoNDoIuZU8gvPiO5bplzrCHFU6zj+aOs2QWDqSOUU7nA6eOs/iBTp82Vk6rHG1Oazy0jqEPK06\r\nXP5NOnwwcDpMyBI6kIphOon7pTtLBYU6N5ulOizwFzpEftI5risYOh3dOjq2IUQ6eLQgOoogDDqF\r\nNEM6kaKaO30iNDoMVgs6t0qCOi3U6zrh+0M8faF4PMe2xDrKLFo67JNCOpzVbjpwZtw7MXcwO/32\r\nMzqAdSY6iYOqOWqS1DlRM0I6UspZOk9eRDqixfU5+luhOs3xeToBWio6mBkvOuZiATo6dPo5dDG6\r\nObCKvTn8W8A5tQbnOXwb/jnQAPk5/Je4OZq+Yzpu6tw5pscVOtJbJDr0Syk6yTjxOQL4rDlhZ/Y5\r\na26aOS0gNDotrow5jD6gOVQpoTlBGR46bAa3OaU4kjlQZew5DcUFOi31STpEzc05kFHlOemiqzlY\r\nyh06TobaORx40DnztIk55iSaOTl9KDqxB0A6egT7OR5uFzrGOQ46NlM1OlnKVzkpKN852LbBOT8S\r\n7zk05OI5iEC8OejMMTqAeOw5SDsQOkiR4zn4riU6d1nOOfepjznOnhg6xAzeOWuloDlCcp45Pf+D\r\nOeB27TlqKl05G93DOXnfnjlz6p85RsZDOqOeozkmfwY60f+4OSJOAzpCL7E592UXOv2bLzrRFso5\r\nMrTdOb4bHjr04co5aPokOqzu2TkcGOA5+IItOjV5ETqzm1Y6JV7VOVQkAjoh5dU5fhE5OmK7qTlK\r\nGOk5QqHOOVhd8TmlC/A5eEvjOXgOaTqWKPU5+SDHOcV5zTm5gPw5TstFOt5PLzo4y+w5x0msOXtm\r\nwjmSNIk6gXgVOitg3Dlv5LU5E5L1Oc9hnDk/+o45YFrhOXTPODk3K4c5Ez+KOl9+pzmdAME5C4Hf\r\nOcVepTm1viU6MB0sOuh7rzm+aI46YRJHOuuMVDovZhU6PL+1OUx5oznGifI5pgyLOcAztTly5Jk5\r\nr6/nORAO6zkgUQI6GNOkOZYLmzldkE06l8fROYbMFDqtZpQ5b7YKOhwT3DlkE5g5DcqaOXoiDDon\r\n8o053WWlOT7UMDrpDrY5xI1vOUPr4jkL/Hg5JYKXOuSiOjomegw6nFOBOeAAlDna7mI6C4BvOqMB\r\nhDlPaEI6RDSxOfwh7jmYdGk5gZQFOh7HeTncjSM6yITPOeQ4KjrTelM6E9DAOQybHjkevjI67Q+y\r\nOYPjLzo8ras6mgwTOrs/EjoLFPU53+YEOvE8ijrC91A6zjYVOmP5EDpvZ6Q5qEsbOriIOjoJl9I5\r\n/2j2OdIspDnvE/o5eyyfOgzjHDrSs405z9ujOZtuVzm1Nac5dA73ORw9ljnvgWs6bzymOfqAgDnm\r\nz286TD1COuC6HDpT8186lF+6OYnxtDl1HAE6J1UgOpKm4TkqNfE582WFOeHwGDqVKds6jFU9OisO\r\nUjrMMRY6e8qOOWiDqTlmRXM5MEvlOdFkLDps8MQ5UnAEOqsCajp8s0w6OgzxOfFyajlQIj85Fe0l\r\nOmr6wzlcnxM6vDSkOSwrkDkWDg06fwk6OtBguDlcKLU5GU8cOq2AqTm/Vwc6dPh2OZBXhTk9ocs5\r\ntpFfOeuH1Dm4Hd05xcctOtmwoDmEPhU6phbAOVGKFzpITi46EmV7ORbGxzlS4ZU5SOh5OTYzjzm5\r\nISQ5iUwZOQUjgznLgk45juq5OQzOjDlBFUA5mgBoOWE0hTnDE205+q99OTilvzkyS2I5risCOgN/\r\nbzkf14M5JnQZOj4XkjnboAc6GCm1OWdZgTkMJnI5GMqzOQCCpDn/ip05lmnFOTQubjl/4nw5f4KF\r\nOd4MbTmmfI45UXCsOenbnjmXiO45tetLOUF39DluomU5xnaPOa7xXTm1ezw58sdiOULx4DnSu/k5\r\nBfb0ObazDTnFx545Mc+zOTJhqzlSia45Fg3JOUaFtDmAZ2I5mB5rOXFipDkA8dc5+PLrOS8KoTk6\r\nXWE51jKpOY+QeDlcDpQ55lwFOmrFazmd9sw5SHqUOZslmzkKoGE5p0XWOXpkxzmFxVg564rFOe0K\r\n7TmvCUk5BVSGOaSLnTnO/Vo5U5ShOYMUATnlDsU5GkWWOaJ+sjmTtyE6TBTiOZ5QMDk6xKk5OgKm\r\nOTzUjjmFJqE5/P1YOTPFVjl1Pcc5VoTROaYMijkWrsI5Pp0COmUtoTlBU445WphFOXS9kDmXMYc5\r\nPI6fOS6ekTlsoXk5ByIfOeatnTnl92M5zWDiORoknjnC26U5DDRfOc5g8zlGjNo52Y/FOfMYCTq3\r\nYTo57uSXOZ9sOzkFZrE5vkRsOezdPTmQYWk5tEsKOu+tXDlwxAo6QXrQOSPdfznquKA5uuiRORKL\r\nMTlGzVc5Xz+7Of5LSDnzvpM5TuAMOUZOyTjOX245MjRpObpLnjme4+A5lZNXOQDJkDl8sYE55Bdz\r\nOaXUmzlsbLM5as67OTKDZDnUspU5bgBGOe12ZzmY12k5R1beOWZaVjlWY4A5/9avOarg0TnkT7E5\r\nqIVDOZxKpDn9m4M57tHHOQwBmzmPxaw5tOqEOXS0XTnnCp05CvGXOcIbmznYeKA5vR6QObTdWTlz\r\nmbY5m2wVObqSOjlXhIg5NS3IOTDWOjm6hQQ4PykMN1/2wDYvlIY2KR20NugwTjZtRG02d6aaNvwQ\r\nmjYdlXw2JUieNhK5gDbEF1g2LPcyNjQEgTb4Dxo2dfIINtuWQjbKhx02PVg6NtrWLTaORTM2SjiG\r\nNpF7fzb66+Y1s29oNsBUHzbAXhQ2DIUXNio5UzailwM2C2W8NxQBFzgeG2Y4M5XoOFq++Tj/+qY4\r\n+x2ONwITgjdqemw2g4GLNhcMfDgSHu84tOEDOZ/RKjgC91w3acs+N/cmiTj+sAA4Yk3fN3G73jiZ\r\ncis5ytS1OPp6Jzj1vQM5WkK6OB61fDcdkfM2t17SN6MDwjdUU/Q3cTKqN7JjTze3HlU3d0mGOIRN\r\nVjgcNXA5RCPHOAV3CjiJOdQ3TJypOIbRhjjXDAk53UaCObZUSjgYZw84JATUN8KSSTgm0wQ5jke1\r\nOKJ9XjifArk4Q3PBOIVvGDlsnYU5e1R2OadwEzlC+8s4jscQOUak8TjH+p04/WxoOSI5/Tj+FZo4\r\nRintOHSwzTff/Ek2pbBUNvWZSTaGjRY22ypWNt5rYDY5u3g2XNbgNdIABzaKJm02r51KNpAY7DWC\r\nPCY2yDBONoWNxjUwrQc2hcReNlweezZ42gw2NHkENhmPuzUJZU42vCGINgzTPTbTKHY2iKhLNrYP\r\nPzYOYTU2N9BUNnIW2DUGS0M2JKBNNjx1LzbBTow2V/UUNsG0Gja/UNY1jr1sNrJBSjZUrps2TyAh\r\nNl86EzaGkWE2tU0UNt3bAzZ2wOA1xpVcNquufDbKbEs2SPdHNvLAlzZykBU2rgg3NuAUEjb2rxM2\r\n6xL0NeAp8TV+YNo12TkhNtjoFjYwU3o2Ho4FNj77DDbwGEU28mgGNjDLCTZP1Fw2EHCANlY6GjZ4\r\npS02vmvrNTSQJzZwSiY2VyoMNpOjSzYvpeY1F5MMNnDEDjacGCQ26pctNggKHDZZDCM2uAcwNg0h\r\nNTaN+mc2tmEiNt5JJDZRe482Yw1JNgZmhDYkj1Y2fq6XNkYkuDYdlJ02IHsvN4TFGDnRhDo5GA2V\r\nOGAtIzmZBx459WpSOVasTjjeqps5dKoKOVFiUTkFWyM5mkkjObwQiTmK6kc5J9KpOUTG+DhZqQM5\r\nAHFLORRIDTn3hNA4KPyxOD/UzTlCCso5zeIhOlA4qjtGqpQ5rWxoOSJ7FDkepP44pCRvObBx0jl1\r\nXkY6uB+MOhLpFTqCXU88QwulOjyosDm45m85x68SOXeSAzmxQGo5JNKuOYbcajn579A6/GWdPOCa\r\nRjt0phM6JPFlOviHmTmZARg5Vk2POahLRTnO7kI5dgTlOGyMoTlQ6zE5OmP7OWKsyTgCgss4Vdsh\r\nOUDMZjlnRZM57BmCOJ59vjgoAVM5/iXLOTLPujhbm/A4v+e/OOegBzlDKLk4+ZwCOrDdvTjsQAo5\r\n4lOkOBc24zgaOt44AG+2ODTNlzgA6mE4ogsWODYAtjjWGKA4GWKNODTU1zjyFzQ4WbyCOP5aEDgU\r\nNDc4mV2SOMMNLjiEDwA4fI1BOBC4LTiX41s4QBmKOO9TJjh+szs4c/kEOKDUxTfa3SI4/pgDOISW\r\nADhvFwM4gqrCNyjM+TfvMCQ4bzcfOK02PzdYgbQ3oKGWN1JxuzdsT1E3movQN5IFNTcNMVA3KL6e\r\nNzQwqTaYB/42Thz0Np9D4Df8VE43EjN3N/FhyTYJhg03hotYNwdcrjZg3vw2AEi5Ng==",
                            "noiseTrainingType" : "default"
                          },
                          "metadata" : {
                            "default-NoiseReduction_denoiserAmount" : 20.0,
                            "default-NoiseReduction_denoiserThreshold" : 0.0,
                            "presetName" : "Noise Removal"
                          }
                        }
                    ],
                    "start" : 205,
                    "duration" : 485,
                    "mediaStart" : 1184,
                    "mediaDuration" : 485,
                    "scalar" : 1,
                    "metadata" : {
                      "clipSpeedAttribute" : false,
                      "default-height" : 0.0,
                      "default-width" : 0.0
                    },
                    "animationTracks" : {

                    }
                  },
                  {
                    "id" : 12,
                    "_type" : "AMFile",
                    "src" : 8,
                    "trackNumber" : 0,
                    "attributes" : {
                      "ident" : "Rec 04-12-21_001",
                      "gain" : 1.0,
                      "mixToMono" : false
                    },
                      "channelNumber" : "0,1",
                    "effects" : [
                        {
                          "effectName" : "NoiseReduction",
                          "bypassed" : false,
                          "category" : "categoryAudioEffects",
                          "parameters" : {
                            "denoiserAmount" : 22.4,
                            "denoiserThreshold" : 6.0,
                            "noiseProfile" : "x9dYPsRKuz6XHQY/oRmsP/xpqj8XKGY+EzwYPg9dQz50HK89mK/7PXnuET19oaM9RQUGPTy/BT2O\r\ndLE9yCvzPc2aEz7eTBM9o95BPSAt3D2oiGQ+026zPSx8Aj5Mh309JzOyPOlQXzyPlrE8RAqlPBGm\r\ntz00cck82P8rPQnN9jxk+hE9eitAPAthpzy69Zc8iQ6+Ox7fGzxvaSI8jTm9O3w2Szwwmro77BVz\r\nO7lgDDyQQe08lHpFPZDujj1oGMM8JQILPUv5KT2YSv48D4Y0PYA4Cj0GaBE9KBSxPCTjJD2dn8s8\r\nI8OTPMyZAjwGIac8TNCNPAVS6DyzcLk8upMDPJNlITxlBc88wHqBPKR/TDziEIg8bkUvPc4oFD34\r\nTow8IuOFPFQrcjx21xk8dkYKPHUW4zto5pA7eqPTOyhyczvcCio7HpmVOylEpzpy/zU7CJyTO8+N\r\nejt8/X871vVEO0QnZzuUWbM8RNG8Onk7CDuDUYU7inyyO475DzuY4og7MgI9OzY6GDu7ZAs7+D0L\r\nO+coSTuxPZw7xTktO+Kz/Drosxg7P36cOnA0BzsJUeg6YpdRO4elIDu0BiI7RezWOjeh8jprDoo6\r\nmDkMO/erpjpOBTI72JuOO9t0HDvy8s864fCzOpnIvzoWMGI7EwkEO7fOHTtoDNA60KsAOy9vDTs3\r\nkNc6c5UtO/5bHTtq8Pg6IqM/O05QbTvS1yc7ftSiOvaPgjqpIAw7WPMbO2PlhTr2b787hR4bOrne\r\nUTqDxZQ63wzIOuDfvzqSM9w6Hh6EOoHSlzutUH064xTDOvLrnzrf7Ko6BIuhOpyiODpObnQ64NK3\r\nOuFdyDqZFqI6FKE5OowEjjrvkMI6mGZUOl0Cqzqr4GA6+b6OOjMOkToFnsY6Se2zOswSkTqHE5o6\r\nDd/ROkVmrDrqpR475jEuOrAVkjq1e806vS5FOjvzNDtPZZI6WK8pOpGVgjrO8l46ytkqOjzgcjp2\r\nVV86CNauOoDwUDrGcVI6CLo1OudohTq1ck06BxYBOtTIdzrTTCE6fFtAOhV4LjqrjnE6Q3hdOnPN\r\nGTpym2868czROt6YkzpWHWc644NJOmsxnTvf5Do6NrjVOlcHEDrzbWw6CmOuOssGqzqYWMw5Wp9x\r\nOmiGwjpzKDQ6CLmVPILz4juW6Zc6whxVOs4/mjrNkFg6kjlFO5wOnjrP4gU6fNlZOqxxtTms8tI6\r\nhDytOlz+TTp8MHA6TMgSOpCKYTqJ+6U7SwWFOjebpTos8Bc6RH7SOa4rGDod3To6tiFEOni0IDqK\r\nIAw6hTRDOpGimjt9IjQ6DFYLOrdKgjot1Os64ftDPH2heDzHtsQ6yixaOuyTQjqc1W46cGbcOzF3\r\nMDv99jM6gHUmOomDqjlqktQ5UTNCOlLKWTpPXkQ6osX1OfpboTrN8Xk6AVoqOpgZLzrmYgE6OnT6\r\nOXQxujmwir05/FvAObUG5zl8G/450AD5OfyXuDmavmM6burcOabHFTrSWyQ69EspOsk48TkC+Kw5\r\nYWf2OWtumjktIDQ6La6MOYw+oDlUKaE5QRkeOmwGtzmlOJI5UGXsOQ3FBTot9Uk6RM3NOZBR5Tnp\r\noqs5WModOk6G2jkceNA587SJOeYkmjk5fSg6sQdAOnoE+zkebhc6xjkOOjZTNTpZylc5KSjfOdi2\r\nwTk/Eu85NOTiOYhAvDnozDE6gHjsOUg7EDpIkeM5+K4lOndZzjn3qY85zp4YOsQM3jlrpaA5QnKe\r\nOT3/gzngdu05aipdORvdwzl53545c+qfOUbGQzqjnqM5Jn8GOtH/uDkiTgM6Qi+xOfdlFzr9my86\r\n0RbKOTK03Tm+Gx469OHKOWj6JDqs7tk5HBjgOfiCLTo1eRE6s5tWOiVe1TlUJAI6IeXVOX4ROTpi\r\nu6k5ShjpOUKhzjlYXfE5pQvwOXhL4zl4Dmk6lij1OfkgxznFec05uYD8OU7LRTreTy86OMvsOcdJ\r\nrDl7ZsI5kjSJOoF4FTorYNw5b+S1OROS9TnPYZw5P/qOOWBa4Tl0zzg5NyuHORM/ijpffqc5nQDB\r\nOQuB3znFXqU5tb4lOjAdLDroe685vmiOOmESRzrrjFQ6L2YVOjy/tTlMeaM5xonyOaYMiznAM7U5\r\ncuSZOa+v5zkQDus5IFECOhjTpDmWC5s5XZBNOpfH0TmGzBQ6rWaUOW+2CjocE9w5ZBOYOQ3Kmjl6\r\nIgw6J/KNOd1lpTk+1DA66Q62OcSNbzlD6+I5C/x4OSWClzrkojo6JnoMOpxTgTngAJQ52u5iOguA\r\nbzqjAYQ5T2hCOkQ0sTn8Ie45mHRpOYGUBToex3k53I0jOsiEzznkOCo603pTOhPQwDkMmx45Hr4y\r\nOu0PsjmD4y86PK2rOpoMEzq7PxI6CxT1Od/mBDrxPIo6wvdQOs42FTpj+RA6b2ekOahLGzq4iDo6\r\nCZfSOf9o9jnSLKQ57xP6OXssnzoM4xw60rONOc/bozmbblc5tTWnOXQO9zkcPZY574FrOm88pjn6\r\ngIA55s9vOkw9Qjrguhw6U/NfOpRfujmJ8bQ5dRwBOidVIDqSpuE5KjXxOfNlhTnh8Bg6lSnbOoxV\r\nPTorDlI6zDEWOnvKjjlog6k5ZkVzOTBL5TnRZCw6bPDEOVJwBDqrAmo6fLNMOjoM8Tnxcmo5UCI/\r\nORXtJTpq+sM5XJ8TOrw0pDksK5A5Fg4NOn8JOjrQYLg5XCi1ORlPHDqtgKk5v1cHOnT4djmQV4U5\r\nPaHLObaRXznrh9Q5uB3dOcXHLTrZsKA5hD4VOqYWwDlRihc6SE4uOhJlezkWxsc5UuGVOUjoeTk2\r\nM485uSEkOYlMGTkFI4M5y4JOOY7quTkMzow5QRVAOZoAaDlhNIU5wxNtOfqvfTk4pb85MktiOa4r\r\nAjoDf285H9eDOSZ0GTo+F5I526AHOhgptTlnWYE5DCZyORjKszkAgqQ5/4qdOZZpxTk0Lm45f+J8\r\nOX+ChTneDG05pnyOOVFwrDnp2545l4juObXrSzlBd/Q5bqJlOcZ2jzmu8V05tXs8OfLHYjlC8eA5\r\n0rv5OQX29Dm2sw05xceeOTHPszkyYas5UomuORYNyTlGhbQ5gGdiOZgeazlxYqQ5APHXOfjy6zkv\r\nCqE5Ol1hOdYyqTmPkHg5XA6UOeZcBTpqxWs5nfbMOUh6lDmbJZs5CqBhOadF1jl6ZMc5hcVYOeuK\r\nxTntCu05rwlJOQVUhjmki505zv1aOVOUoTmDFAE55Q7FORpFljmifrI5k7chOkwU4jmeUDA5OsSp\r\nOToCpjk81I45hSahOfz9WDkzxVY5dT3HOVaE0TmmDIo5Fq7COT6dAjplLaE5QVOOOVqYRTl0vZA5\r\nlzGHOTyOnzkunpE5bKF5OQciHznmrZ055fdjOc1g4jkaJJ45wtulOQw0XznOYPM5RozaOdmPxTnz\r\nGAk6t2E6Oe7klzmfbDs5BWaxOb5EbDns3T05kGFpObRLCjrvrVw5cMQKOkF60Dkj3X856rigObro\r\nkTkSizE5Rs1XOV8/uzn+S0g5876TOU7gDDlGTsk4zl9uOTI0aTm6S545nuPgOZWTVzkAyZA5fLGB\r\nOeQXczml1Js5bGyzOWrOuzkyg2Q51LKVOW4ARjntdmc5mNdpOUdW3jlmWlY5VmOAOf/Wrzmq4NE5\r\n5E+xOaiFQzmcSqQ5/ZuDOe7RxzkMAZs5j8WsObTqhDl0tF055wqdOQrxlznCG5s52HigOb0ekDm0\r\n3Vk5c5m2OZtsFTm6kjo5V4SIOTUtyDkw1jo5uoUEOD8pDDdf9sA2L5SGNikdtDboME42bURtNnem\r\nmjb8EJo2HZV8NiVInjYSuYA2xBdYNiz3MjY0BIE2+A8aNnXyCDbblkI2yocdNj1YOjba1i02jkUz\r\nNko4hjaRe382+uvmNbNvaDbAVB82wF4UNgyFFzYqOVM2opcDNgtlvDcUARc4HhtmODOV6Dhavvk4\r\n//qmOPsdjjcCE4I3anpsNoOBizYXDHw4Eh7vOLThAzmf0So4AvdcN2nLPjf3Jok4/rAAOGJN3zdx\r\nu944mXIrOcrUtTj6eic49b0DOVpCujgetXw3HZHzNrde0jejA8I3VFP0N3EyqjeyY083tx5VN3dJ\r\nhjiETVY4HDVwOUQjxzgFdwo4iTnUN0ycqTiG0YY41wwJOd1Ggjm2VEo4GGcPOCQE1DfCkkk4JtME\r\nOY5HtTiifV44nwK5OENzwTiFbxg5bJ2FOXtUdjmncBM5QvvLOI7HEDlGpPE4x/qdOP1saDkiOf04\r\n/hWaOEYp7Th0sM033/xJNqWwVDb1mUk2ho0WNtsqVjbea2A2Obt4NlzW4DXSAAc2iiZtNq+dSjaQ\r\nGOw1gjwmNsgwTjaFjcY1MK0HNoXEXjZcHns2eNoMNjR5BDYZj7s1CWVONrwhiDYM0z020yh2Noio\r\nSza2Dz82DmE1NjfQVDZyFtg1BktDNiSgTTY8dS82wU6MNlf1FDbBtBo2v1DWNY69bDayQUo2VK6b\r\nNk8gITZfOhM2hpFhNrVNFDbd2wM2dsDgNcaVXDarrnw2ymxLNkj3RzbywJc2cpAVNq4INzbgFBI2\r\n9q8TNusS9DXgKfE1fmDaNdk5ITbY6BY2MFN6Nh6OBTY++ww28BhFNvJoBjYwywk2T9RcNhBwgDZW\r\nOho2eKUtNr5r6zU0kCc2cEomNlcqDDaTo0s2L6XmNReTDDZwxA42nBgkNuqXLTYIChw2WQwjNrgH\r\nMDYNITU2jfpnNrZhIjbeSSQ2UXuPNmMNSTYGZoQ2JI9WNn6ulzZGJLg2HZSdNiB7LzeExRg50YQ6\r\nORgNlThgLSM5mQceOfVqUjlWrE443qqbOXSqCjlRYlE5BVsjOZpJIzm8EIk5iupHOSfSqTlExvg4\r\nWakDOQBxSzkUSA0594TQOCj8sTg/1M05QgrKOc3iITpQOKo7RqqUOa1saDkiexQ5HqT+OKQkbzmw\r\ncdI5dV5GOrgfjDoS6RU6gl1PPEMLpTo8qLA5uOZvOcevEjl3kgM5sUBqOSTSrjmG3Go5+e/QOvxl\r\nnTzgmkY7dKYTOiTxZTr4h5k5mQEYOVZNjzmoS0U5zu5COXYE5ThsjKE5UOsxOTpj+zlirMk4AoLL\r\nOFXbITlAzGY5Z0WTOewZgjiefb44KAFTOf4lyzkyz7o4W5vwOL/nvzjnoAc5Qyi5OPmcAjqw3b04\r\n7EAKOeJTpDgXNuM4GjreOABvtjg0zZc4AOphOKILFjg2ALY41higOBlijTg01Nc48hc0OFm8gjj+\r\nWhA4FDQ3OJldkjjDDS44hA8AOHyNQTgQuC04l+NbOEAZijjvUyY4frM7OHP5BDig1MU32t0iOP6Y\r\nAziElgA4bxcDOIKqwjcozPk37zAkOG83HzitNj83WIG0N6ChljdScbs3bE9RN5qL0DeSBTU3DTFQ\r\nNyi+njc0MKk2mAf+Nk4c9DafQ+A3/FRONxIzdzfxYck2CYYNN4aLWDcHXK42YN78NgBIuTbH11g+\r\nxEq7PpcdBj+hGaw//GmqPxcoZj4TPBg+D11DPnQcrz2Yr/s9ee4RPX2hoz1FBQY9PL8FPY50sT3I\r\nK/M9zZoTPt5MEz2j3kE9IC3cPaiIZD7TbrM9LHwCPkyHfT0nM7I86VBfPI+WsTxECqU8Eaa3PTRx\r\nyTzY/ys9Cc32PGT6ET16K0A8C2GnPLr1lzyJDr47Ht8bPG9pIjyNOb07fDZLPDCaujvsFXM7uWAM\r\nPJBB7TyUekU9kO6OPWgYwzwlAgs9S/kpPZhK/jwPhjQ9gDgKPQZoET0oFLE8JOMkPZ2fyzwjw5M8\r\nzJkCPAYhpzxM0I08BVLoPLNwuTy6kwM8k2UhPGUFzzzAeoE8pH9MPOIQiDxuRS89zigUPfhOjDwi\r\n44U8VCtyPHbXGTx2Rgo8dRbjO2jmkDt6o9M7KHJzO9wKKjsemZU7KUSnOnL/NTsInJM7z416O3z9\r\nfzvW9UQ7RCdnO5RZszxE0bw6eTsIO4NRhTuKfLI7jvkPO5jiiDsyAj07NjoYO7tkCzv4PQs75yhJ\r\nO7E9nDvFOS074rP8OuizGDs/fpw6cDQHOwlR6Dpil1E7h6UgO7QGIjtF7NY6N6HyOmsOijqYOQw7\r\n96umOk4FMjvYm44723QcO/Lyzzrh8LM6mci/OhYwYjsTCQQ7t84dO2gM0DrQqwA7L28NOzeQ1zpz\r\nlS07/lsdO2rw+Doioz87TlBtO9LXJzt+1KI69o+COqkgDDtY8xs7Y+WFOvZvvzuFHhs6ud5ROoPF\r\nlDrfDMg64N+/OpIz3DoeHoQ6gdKXO61QfTrjFMM68uufOt/sqjoEi6E6nKI4Ok5udDrg0rc64V3I\r\nOpkWojoUoTk6jASOOu+QwjqYZlQ6XQKrOqvgYDr5vo46Mw6ROgWexjpJ7bM6zBKROocTmjoN39E6\r\nRWasOuqlHjvmMS46sBWSOrV7zTq9LkU6O/M0O09lkjpYryk6kZWCOs7yXjrK2So6POByOnZVXzoI\r\n1q46gPBQOsZxUjoIujU652iFOrVyTToHFgE61Mh3OtNMITp8W0A6FXguOquOcTpDeF06c80ZOnKb\r\nbzrxzNE63piTOlYdZzrjg0k6azGdO9/kOjo2uNU6VwcQOvNtbDoKY646ywarOphYzDlan3E6aIbC\r\nOnMoNDoIuZU8gvPiO5bplzrCHFU6zj+aOs2QWDqSOUU7nA6eOs/iBTp82Vk6rHG1Oazy0jqEPK06\r\nXP5NOnwwcDpMyBI6kIphOon7pTtLBYU6N5ulOizwFzpEftI5risYOh3dOjq2IUQ6eLQgOoogDDqF\r\nNEM6kaKaO30iNDoMVgs6t0qCOi3U6zrh+0M8faF4PMe2xDrKLFo67JNCOpzVbjpwZtw7MXcwO/32\r\nMzqAdSY6iYOqOWqS1DlRM0I6UspZOk9eRDqixfU5+luhOs3xeToBWio6mBkvOuZiATo6dPo5dDG6\r\nObCKvTn8W8A5tQbnOXwb/jnQAPk5/Je4OZq+Yzpu6tw5pscVOtJbJDr0Syk6yTjxOQL4rDlhZ/Y5\r\na26aOS0gNDotrow5jD6gOVQpoTlBGR46bAa3OaU4kjlQZew5DcUFOi31STpEzc05kFHlOemiqzlY\r\nyh06TobaORx40DnztIk55iSaOTl9KDqxB0A6egT7OR5uFzrGOQ46NlM1OlnKVzkpKN852LbBOT8S\r\n7zk05OI5iEC8OejMMTqAeOw5SDsQOkiR4zn4riU6d1nOOfepjznOnhg6xAzeOWuloDlCcp45Pf+D\r\nOeB27TlqKl05G93DOXnfnjlz6p85RsZDOqOeozkmfwY60f+4OSJOAzpCL7E592UXOv2bLzrRFso5\r\nMrTdOb4bHjr04co5aPokOqzu2TkcGOA5+IItOjV5ETqzm1Y6JV7VOVQkAjoh5dU5fhE5OmK7qTlK\r\nGOk5QqHOOVhd8TmlC/A5eEvjOXgOaTqWKPU5+SDHOcV5zTm5gPw5TstFOt5PLzo4y+w5x0msOXtm\r\nwjmSNIk6gXgVOitg3Dlv5LU5E5L1Oc9hnDk/+o45YFrhOXTPODk3K4c5Ez+KOl9+pzmdAME5C4Hf\r\nOcVepTm1viU6MB0sOuh7rzm+aI46YRJHOuuMVDovZhU6PL+1OUx5oznGifI5pgyLOcAztTly5Jk5\r\nr6/nORAO6zkgUQI6GNOkOZYLmzldkE06l8fROYbMFDqtZpQ5b7YKOhwT3DlkE5g5DcqaOXoiDDon\r\n8o053WWlOT7UMDrpDrY5xI1vOUPr4jkL/Hg5JYKXOuSiOjomegw6nFOBOeAAlDna7mI6C4BvOqMB\r\nhDlPaEI6RDSxOfwh7jmYdGk5gZQFOh7HeTncjSM6yITPOeQ4KjrTelM6E9DAOQybHjkevjI67Q+y\r\nOYPjLzo8ras6mgwTOrs/EjoLFPU53+YEOvE8ijrC91A6zjYVOmP5EDpvZ6Q5qEsbOriIOjoJl9I5\r\n/2j2OdIspDnvE/o5eyyfOgzjHDrSs405z9ujOZtuVzm1Nac5dA73ORw9ljnvgWs6bzymOfqAgDnm\r\nz286TD1COuC6HDpT8186lF+6OYnxtDl1HAE6J1UgOpKm4TkqNfE582WFOeHwGDqVKds6jFU9OisO\r\nUjrMMRY6e8qOOWiDqTlmRXM5MEvlOdFkLDps8MQ5UnAEOqsCajp8s0w6OgzxOfFyajlQIj85Fe0l\r\nOmr6wzlcnxM6vDSkOSwrkDkWDg06fwk6OtBguDlcKLU5GU8cOq2AqTm/Vwc6dPh2OZBXhTk9ocs5\r\ntpFfOeuH1Dm4Hd05xcctOtmwoDmEPhU6phbAOVGKFzpITi46EmV7ORbGxzlS4ZU5SOh5OTYzjzm5\r\nISQ5iUwZOQUjgznLgk45juq5OQzOjDlBFUA5mgBoOWE0hTnDE205+q99OTilvzkyS2I5risCOgN/\r\nbzkf14M5JnQZOj4XkjnboAc6GCm1OWdZgTkMJnI5GMqzOQCCpDn/ip05lmnFOTQubjl/4nw5f4KF\r\nOd4MbTmmfI45UXCsOenbnjmXiO45tetLOUF39DluomU5xnaPOa7xXTm1ezw58sdiOULx4DnSu/k5\r\nBfb0ObazDTnFx545Mc+zOTJhqzlSia45Fg3JOUaFtDmAZ2I5mB5rOXFipDkA8dc5+PLrOS8KoTk6\r\nXWE51jKpOY+QeDlcDpQ55lwFOmrFazmd9sw5SHqUOZslmzkKoGE5p0XWOXpkxzmFxVg564rFOe0K\r\n7TmvCUk5BVSGOaSLnTnO/Vo5U5ShOYMUATnlDsU5GkWWOaJ+sjmTtyE6TBTiOZ5QMDk6xKk5OgKm\r\nOTzUjjmFJqE5/P1YOTPFVjl1Pcc5VoTROaYMijkWrsI5Pp0COmUtoTlBU445WphFOXS9kDmXMYc5\r\nPI6fOS6ekTlsoXk5ByIfOeatnTnl92M5zWDiORoknjnC26U5DDRfOc5g8zlGjNo52Y/FOfMYCTq3\r\nYTo57uSXOZ9sOzkFZrE5vkRsOezdPTmQYWk5tEsKOu+tXDlwxAo6QXrQOSPdfznquKA5uuiRORKL\r\nMTlGzVc5Xz+7Of5LSDnzvpM5TuAMOUZOyTjOX245MjRpObpLnjme4+A5lZNXOQDJkDl8sYE55Bdz\r\nOaXUmzlsbLM5as67OTKDZDnUspU5bgBGOe12ZzmY12k5R1beOWZaVjlWY4A5/9avOarg0TnkT7E5\r\nqIVDOZxKpDn9m4M57tHHOQwBmzmPxaw5tOqEOXS0XTnnCp05CvGXOcIbmznYeKA5vR6QObTdWTlz\r\nmbY5m2wVObqSOjlXhIg5NS3IOTDWOjm6hQQ4PykMN1/2wDYvlIY2KR20NugwTjZtRG02d6aaNvwQ\r\nmjYdlXw2JUieNhK5gDbEF1g2LPcyNjQEgTb4Dxo2dfIINtuWQjbKhx02PVg6NtrWLTaORTM2SjiG\r\nNpF7fzb66+Y1s29oNsBUHzbAXhQ2DIUXNio5UzailwM2C2W8NxQBFzgeG2Y4M5XoOFq++Tj/+qY4\r\n+x2ONwITgjdqemw2g4GLNhcMfDgSHu84tOEDOZ/RKjgC91w3acs+N/cmiTj+sAA4Yk3fN3G73jiZ\r\ncis5ytS1OPp6Jzj1vQM5WkK6OB61fDcdkfM2t17SN6MDwjdUU/Q3cTKqN7JjTze3HlU3d0mGOIRN\r\nVjgcNXA5RCPHOAV3CjiJOdQ3TJypOIbRhjjXDAk53UaCObZUSjgYZw84JATUN8KSSTgm0wQ5jke1\r\nOKJ9XjifArk4Q3PBOIVvGDlsnYU5e1R2OadwEzlC+8s4jscQOUak8TjH+p04/WxoOSI5/Tj+FZo4\r\nRintOHSwzTff/Ek2pbBUNvWZSTaGjRY22ypWNt5rYDY5u3g2XNbgNdIABzaKJm02r51KNpAY7DWC\r\nPCY2yDBONoWNxjUwrQc2hcReNlweezZ42gw2NHkENhmPuzUJZU42vCGINgzTPTbTKHY2iKhLNrYP\r\nPzYOYTU2N9BUNnIW2DUGS0M2JKBNNjx1LzbBTow2V/UUNsG0Gja/UNY1jr1sNrJBSjZUrps2TyAh\r\nNl86EzaGkWE2tU0UNt3bAzZ2wOA1xpVcNquufDbKbEs2SPdHNvLAlzZykBU2rgg3NuAUEjb2rxM2\r\n6xL0NeAp8TV+YNo12TkhNtjoFjYwU3o2Ho4FNj77DDbwGEU28mgGNjDLCTZP1Fw2EHCANlY6GjZ4\r\npS02vmvrNTSQJzZwSiY2VyoMNpOjSzYvpeY1F5MMNnDEDjacGCQ26pctNggKHDZZDCM2uAcwNg0h\r\nNTaN+mc2tmEiNt5JJDZRe482Yw1JNgZmhDYkj1Y2fq6XNkYkuDYdlJ02IHsvN4TFGDnRhDo5GA2V\r\nOGAtIzmZBx459WpSOVasTjjeqps5dKoKOVFiUTkFWyM5mkkjObwQiTmK6kc5J9KpOUTG+DhZqQM5\r\nAHFLORRIDTn3hNA4KPyxOD/UzTlCCso5zeIhOlA4qjtGqpQ5rWxoOSJ7FDkepP44pCRvObBx0jl1\r\nXkY6uB+MOhLpFTqCXU88QwulOjyosDm45m85x68SOXeSAzmxQGo5JNKuOYbcajn579A6/GWdPOCa\r\nRjt0phM6JPFlOviHmTmZARg5Vk2POahLRTnO7kI5dgTlOGyMoTlQ6zE5OmP7OWKsyTgCgss4Vdsh\r\nOUDMZjlnRZM57BmCOJ59vjgoAVM5/iXLOTLPujhbm/A4v+e/OOegBzlDKLk4+ZwCOrDdvTjsQAo5\r\n4lOkOBc24zgaOt44AG+2ODTNlzgA6mE4ogsWODYAtjjWGKA4GWKNODTU1zjyFzQ4WbyCOP5aEDgU\r\nNDc4mV2SOMMNLjiEDwA4fI1BOBC4LTiX41s4QBmKOO9TJjh+szs4c/kEOKDUxTfa3SI4/pgDOISW\r\nADhvFwM4gqrCNyjM+TfvMCQ4bzcfOK02PzdYgbQ3oKGWN1JxuzdsT1E3movQN5IFNTcNMVA3KL6e\r\nNzQwqTaYB/42Thz0Np9D4Df8VE43EjN3N/FhyTYJhg03hotYNwdcrjZg3vw2AEi5Ng==",
                            "noiseTrainingType" : "default"
                          },
                          "metadata" : {
                            "default-NoiseReduction_denoiserAmount" : 20.0,
                            "default-NoiseReduction_denoiserThreshold" : 0.0,
                            "presetName" : "Noise Removal"
                          }
                        }
                    ],
                    "start" : 690,
                    "duration" : 552,
                    "mediaStart" : 1693,
                    "mediaDuration" : 552,
                    "scalar" : 1,
                    "metadata" : {
                      "clipSpeedAttribute" : false,
                      "default-height" : 0.0,
                      "default-width" : 0.0
                    },
                    "animationTracks" : {

                    }
                  },
                  {
                    "id" : 13,
                    "_type" : "AMFile",
                    "src" : 8,
                    "trackNumber" : 0,
                    "attributes" : {
                      "ident" : "Rec 04-12-21_001",
                      "gain" : 1.0,
                      "mixToMono" : false
                    },
                      "channelNumber" : "0,1",
                    "effects" : [
                        {
                          "effectName" : "NoiseReduction",
                          "bypassed" : false,
                          "category" : "categoryAudioEffects",
                          "parameters" : {
                            "denoiserAmount" : 22.4,
                            "denoiserThreshold" : 6.0,
                            "noiseProfile" : "x9dYPsRKuz6XHQY/oRmsP/xpqj8XKGY+EzwYPg9dQz50HK89mK/7PXnuET19oaM9RQUGPTy/BT2O\r\ndLE9yCvzPc2aEz7eTBM9o95BPSAt3D2oiGQ+026zPSx8Aj5Mh309JzOyPOlQXzyPlrE8RAqlPBGm\r\ntz00cck82P8rPQnN9jxk+hE9eitAPAthpzy69Zc8iQ6+Ox7fGzxvaSI8jTm9O3w2Szwwmro77BVz\r\nO7lgDDyQQe08lHpFPZDujj1oGMM8JQILPUv5KT2YSv48D4Y0PYA4Cj0GaBE9KBSxPCTjJD2dn8s8\r\nI8OTPMyZAjwGIac8TNCNPAVS6DyzcLk8upMDPJNlITxlBc88wHqBPKR/TDziEIg8bkUvPc4oFD34\r\nTow8IuOFPFQrcjx21xk8dkYKPHUW4zto5pA7eqPTOyhyczvcCio7HpmVOylEpzpy/zU7CJyTO8+N\r\nejt8/X871vVEO0QnZzuUWbM8RNG8Onk7CDuDUYU7inyyO475DzuY4og7MgI9OzY6GDu7ZAs7+D0L\r\nO+coSTuxPZw7xTktO+Kz/Drosxg7P36cOnA0BzsJUeg6YpdRO4elIDu0BiI7RezWOjeh8jprDoo6\r\nmDkMO/erpjpOBTI72JuOO9t0HDvy8s864fCzOpnIvzoWMGI7EwkEO7fOHTtoDNA60KsAOy9vDTs3\r\nkNc6c5UtO/5bHTtq8Pg6IqM/O05QbTvS1yc7ftSiOvaPgjqpIAw7WPMbO2PlhTr2b787hR4bOrne\r\nUTqDxZQ63wzIOuDfvzqSM9w6Hh6EOoHSlzutUH064xTDOvLrnzrf7Ko6BIuhOpyiODpObnQ64NK3\r\nOuFdyDqZFqI6FKE5OowEjjrvkMI6mGZUOl0Cqzqr4GA6+b6OOjMOkToFnsY6Se2zOswSkTqHE5o6\r\nDd/ROkVmrDrqpR475jEuOrAVkjq1e806vS5FOjvzNDtPZZI6WK8pOpGVgjrO8l46ytkqOjzgcjp2\r\nVV86CNauOoDwUDrGcVI6CLo1OudohTq1ck06BxYBOtTIdzrTTCE6fFtAOhV4LjqrjnE6Q3hdOnPN\r\nGTpym2868czROt6YkzpWHWc644NJOmsxnTvf5Do6NrjVOlcHEDrzbWw6CmOuOssGqzqYWMw5Wp9x\r\nOmiGwjpzKDQ6CLmVPILz4juW6Zc6whxVOs4/mjrNkFg6kjlFO5wOnjrP4gU6fNlZOqxxtTms8tI6\r\nhDytOlz+TTp8MHA6TMgSOpCKYTqJ+6U7SwWFOjebpTos8Bc6RH7SOa4rGDod3To6tiFEOni0IDqK\r\nIAw6hTRDOpGimjt9IjQ6DFYLOrdKgjot1Os64ftDPH2heDzHtsQ6yixaOuyTQjqc1W46cGbcOzF3\r\nMDv99jM6gHUmOomDqjlqktQ5UTNCOlLKWTpPXkQ6osX1OfpboTrN8Xk6AVoqOpgZLzrmYgE6OnT6\r\nOXQxujmwir05/FvAObUG5zl8G/450AD5OfyXuDmavmM6burcOabHFTrSWyQ69EspOsk48TkC+Kw5\r\nYWf2OWtumjktIDQ6La6MOYw+oDlUKaE5QRkeOmwGtzmlOJI5UGXsOQ3FBTot9Uk6RM3NOZBR5Tnp\r\noqs5WModOk6G2jkceNA587SJOeYkmjk5fSg6sQdAOnoE+zkebhc6xjkOOjZTNTpZylc5KSjfOdi2\r\nwTk/Eu85NOTiOYhAvDnozDE6gHjsOUg7EDpIkeM5+K4lOndZzjn3qY85zp4YOsQM3jlrpaA5QnKe\r\nOT3/gzngdu05aipdORvdwzl53545c+qfOUbGQzqjnqM5Jn8GOtH/uDkiTgM6Qi+xOfdlFzr9my86\r\n0RbKOTK03Tm+Gx469OHKOWj6JDqs7tk5HBjgOfiCLTo1eRE6s5tWOiVe1TlUJAI6IeXVOX4ROTpi\r\nu6k5ShjpOUKhzjlYXfE5pQvwOXhL4zl4Dmk6lij1OfkgxznFec05uYD8OU7LRTreTy86OMvsOcdJ\r\nrDl7ZsI5kjSJOoF4FTorYNw5b+S1OROS9TnPYZw5P/qOOWBa4Tl0zzg5NyuHORM/ijpffqc5nQDB\r\nOQuB3znFXqU5tb4lOjAdLDroe685vmiOOmESRzrrjFQ6L2YVOjy/tTlMeaM5xonyOaYMiznAM7U5\r\ncuSZOa+v5zkQDus5IFECOhjTpDmWC5s5XZBNOpfH0TmGzBQ6rWaUOW+2CjocE9w5ZBOYOQ3Kmjl6\r\nIgw6J/KNOd1lpTk+1DA66Q62OcSNbzlD6+I5C/x4OSWClzrkojo6JnoMOpxTgTngAJQ52u5iOguA\r\nbzqjAYQ5T2hCOkQ0sTn8Ie45mHRpOYGUBToex3k53I0jOsiEzznkOCo603pTOhPQwDkMmx45Hr4y\r\nOu0PsjmD4y86PK2rOpoMEzq7PxI6CxT1Od/mBDrxPIo6wvdQOs42FTpj+RA6b2ekOahLGzq4iDo6\r\nCZfSOf9o9jnSLKQ57xP6OXssnzoM4xw60rONOc/bozmbblc5tTWnOXQO9zkcPZY574FrOm88pjn6\r\ngIA55s9vOkw9Qjrguhw6U/NfOpRfujmJ8bQ5dRwBOidVIDqSpuE5KjXxOfNlhTnh8Bg6lSnbOoxV\r\nPTorDlI6zDEWOnvKjjlog6k5ZkVzOTBL5TnRZCw6bPDEOVJwBDqrAmo6fLNMOjoM8Tnxcmo5UCI/\r\nORXtJTpq+sM5XJ8TOrw0pDksK5A5Fg4NOn8JOjrQYLg5XCi1ORlPHDqtgKk5v1cHOnT4djmQV4U5\r\nPaHLObaRXznrh9Q5uB3dOcXHLTrZsKA5hD4VOqYWwDlRihc6SE4uOhJlezkWxsc5UuGVOUjoeTk2\r\nM485uSEkOYlMGTkFI4M5y4JOOY7quTkMzow5QRVAOZoAaDlhNIU5wxNtOfqvfTk4pb85MktiOa4r\r\nAjoDf285H9eDOSZ0GTo+F5I526AHOhgptTlnWYE5DCZyORjKszkAgqQ5/4qdOZZpxTk0Lm45f+J8\r\nOX+ChTneDG05pnyOOVFwrDnp2545l4juObXrSzlBd/Q5bqJlOcZ2jzmu8V05tXs8OfLHYjlC8eA5\r\n0rv5OQX29Dm2sw05xceeOTHPszkyYas5UomuORYNyTlGhbQ5gGdiOZgeazlxYqQ5APHXOfjy6zkv\r\nCqE5Ol1hOdYyqTmPkHg5XA6UOeZcBTpqxWs5nfbMOUh6lDmbJZs5CqBhOadF1jl6ZMc5hcVYOeuK\r\nxTntCu05rwlJOQVUhjmki505zv1aOVOUoTmDFAE55Q7FORpFljmifrI5k7chOkwU4jmeUDA5OsSp\r\nOToCpjk81I45hSahOfz9WDkzxVY5dT3HOVaE0TmmDIo5Fq7COT6dAjplLaE5QVOOOVqYRTl0vZA5\r\nlzGHOTyOnzkunpE5bKF5OQciHznmrZ055fdjOc1g4jkaJJ45wtulOQw0XznOYPM5RozaOdmPxTnz\r\nGAk6t2E6Oe7klzmfbDs5BWaxOb5EbDns3T05kGFpObRLCjrvrVw5cMQKOkF60Dkj3X856rigObro\r\nkTkSizE5Rs1XOV8/uzn+S0g5876TOU7gDDlGTsk4zl9uOTI0aTm6S545nuPgOZWTVzkAyZA5fLGB\r\nOeQXczml1Js5bGyzOWrOuzkyg2Q51LKVOW4ARjntdmc5mNdpOUdW3jlmWlY5VmOAOf/Wrzmq4NE5\r\n5E+xOaiFQzmcSqQ5/ZuDOe7RxzkMAZs5j8WsObTqhDl0tF055wqdOQrxlznCG5s52HigOb0ekDm0\r\n3Vk5c5m2OZtsFTm6kjo5V4SIOTUtyDkw1jo5uoUEOD8pDDdf9sA2L5SGNikdtDboME42bURtNnem\r\nmjb8EJo2HZV8NiVInjYSuYA2xBdYNiz3MjY0BIE2+A8aNnXyCDbblkI2yocdNj1YOjba1i02jkUz\r\nNko4hjaRe382+uvmNbNvaDbAVB82wF4UNgyFFzYqOVM2opcDNgtlvDcUARc4HhtmODOV6Dhavvk4\r\n//qmOPsdjjcCE4I3anpsNoOBizYXDHw4Eh7vOLThAzmf0So4AvdcN2nLPjf3Jok4/rAAOGJN3zdx\r\nu944mXIrOcrUtTj6eic49b0DOVpCujgetXw3HZHzNrde0jejA8I3VFP0N3EyqjeyY083tx5VN3dJ\r\nhjiETVY4HDVwOUQjxzgFdwo4iTnUN0ycqTiG0YY41wwJOd1Ggjm2VEo4GGcPOCQE1DfCkkk4JtME\r\nOY5HtTiifV44nwK5OENzwTiFbxg5bJ2FOXtUdjmncBM5QvvLOI7HEDlGpPE4x/qdOP1saDkiOf04\r\n/hWaOEYp7Th0sM033/xJNqWwVDb1mUk2ho0WNtsqVjbea2A2Obt4NlzW4DXSAAc2iiZtNq+dSjaQ\r\nGOw1gjwmNsgwTjaFjcY1MK0HNoXEXjZcHns2eNoMNjR5BDYZj7s1CWVONrwhiDYM0z020yh2Noio\r\nSza2Dz82DmE1NjfQVDZyFtg1BktDNiSgTTY8dS82wU6MNlf1FDbBtBo2v1DWNY69bDayQUo2VK6b\r\nNk8gITZfOhM2hpFhNrVNFDbd2wM2dsDgNcaVXDarrnw2ymxLNkj3RzbywJc2cpAVNq4INzbgFBI2\r\n9q8TNusS9DXgKfE1fmDaNdk5ITbY6BY2MFN6Nh6OBTY++ww28BhFNvJoBjYwywk2T9RcNhBwgDZW\r\nOho2eKUtNr5r6zU0kCc2cEomNlcqDDaTo0s2L6XmNReTDDZwxA42nBgkNuqXLTYIChw2WQwjNrgH\r\nMDYNITU2jfpnNrZhIjbeSSQ2UXuPNmMNSTYGZoQ2JI9WNn6ulzZGJLg2HZSdNiB7LzeExRg50YQ6\r\nORgNlThgLSM5mQceOfVqUjlWrE443qqbOXSqCjlRYlE5BVsjOZpJIzm8EIk5iupHOSfSqTlExvg4\r\nWakDOQBxSzkUSA0594TQOCj8sTg/1M05QgrKOc3iITpQOKo7RqqUOa1saDkiexQ5HqT+OKQkbzmw\r\ncdI5dV5GOrgfjDoS6RU6gl1PPEMLpTo8qLA5uOZvOcevEjl3kgM5sUBqOSTSrjmG3Go5+e/QOvxl\r\nnTzgmkY7dKYTOiTxZTr4h5k5mQEYOVZNjzmoS0U5zu5COXYE5ThsjKE5UOsxOTpj+zlirMk4AoLL\r\nOFXbITlAzGY5Z0WTOewZgjiefb44KAFTOf4lyzkyz7o4W5vwOL/nvzjnoAc5Qyi5OPmcAjqw3b04\r\n7EAKOeJTpDgXNuM4GjreOABvtjg0zZc4AOphOKILFjg2ALY41higOBlijTg01Nc48hc0OFm8gjj+\r\nWhA4FDQ3OJldkjjDDS44hA8AOHyNQTgQuC04l+NbOEAZijjvUyY4frM7OHP5BDig1MU32t0iOP6Y\r\nAziElgA4bxcDOIKqwjcozPk37zAkOG83HzitNj83WIG0N6ChljdScbs3bE9RN5qL0DeSBTU3DTFQ\r\nNyi+njc0MKk2mAf+Nk4c9DafQ+A3/FRONxIzdzfxYck2CYYNN4aLWDcHXK42YN78NgBIuTbH11g+\r\nxEq7PpcdBj+hGaw//GmqPxcoZj4TPBg+D11DPnQcrz2Yr/s9ee4RPX2hoz1FBQY9PL8FPY50sT3I\r\nK/M9zZoTPt5MEz2j3kE9IC3cPaiIZD7TbrM9LHwCPkyHfT0nM7I86VBfPI+WsTxECqU8Eaa3PTRx\r\nyTzY/ys9Cc32PGT6ET16K0A8C2GnPLr1lzyJDr47Ht8bPG9pIjyNOb07fDZLPDCaujvsFXM7uWAM\r\nPJBB7TyUekU9kO6OPWgYwzwlAgs9S/kpPZhK/jwPhjQ9gDgKPQZoET0oFLE8JOMkPZ2fyzwjw5M8\r\nzJkCPAYhpzxM0I08BVLoPLNwuTy6kwM8k2UhPGUFzzzAeoE8pH9MPOIQiDxuRS89zigUPfhOjDwi\r\n44U8VCtyPHbXGTx2Rgo8dRbjO2jmkDt6o9M7KHJzO9wKKjsemZU7KUSnOnL/NTsInJM7z416O3z9\r\nfzvW9UQ7RCdnO5RZszxE0bw6eTsIO4NRhTuKfLI7jvkPO5jiiDsyAj07NjoYO7tkCzv4PQs75yhJ\r\nO7E9nDvFOS074rP8OuizGDs/fpw6cDQHOwlR6Dpil1E7h6UgO7QGIjtF7NY6N6HyOmsOijqYOQw7\r\n96umOk4FMjvYm44723QcO/Lyzzrh8LM6mci/OhYwYjsTCQQ7t84dO2gM0DrQqwA7L28NOzeQ1zpz\r\nlS07/lsdO2rw+Doioz87TlBtO9LXJzt+1KI69o+COqkgDDtY8xs7Y+WFOvZvvzuFHhs6ud5ROoPF\r\nlDrfDMg64N+/OpIz3DoeHoQ6gdKXO61QfTrjFMM68uufOt/sqjoEi6E6nKI4Ok5udDrg0rc64V3I\r\nOpkWojoUoTk6jASOOu+QwjqYZlQ6XQKrOqvgYDr5vo46Mw6ROgWexjpJ7bM6zBKROocTmjoN39E6\r\nRWasOuqlHjvmMS46sBWSOrV7zTq9LkU6O/M0O09lkjpYryk6kZWCOs7yXjrK2So6POByOnZVXzoI\r\n1q46gPBQOsZxUjoIujU652iFOrVyTToHFgE61Mh3OtNMITp8W0A6FXguOquOcTpDeF06c80ZOnKb\r\nbzrxzNE63piTOlYdZzrjg0k6azGdO9/kOjo2uNU6VwcQOvNtbDoKY646ywarOphYzDlan3E6aIbC\r\nOnMoNDoIuZU8gvPiO5bplzrCHFU6zj+aOs2QWDqSOUU7nA6eOs/iBTp82Vk6rHG1Oazy0jqEPK06\r\nXP5NOnwwcDpMyBI6kIphOon7pTtLBYU6N5ulOizwFzpEftI5risYOh3dOjq2IUQ6eLQgOoogDDqF\r\nNEM6kaKaO30iNDoMVgs6t0qCOi3U6zrh+0M8faF4PMe2xDrKLFo67JNCOpzVbjpwZtw7MXcwO/32\r\nMzqAdSY6iYOqOWqS1DlRM0I6UspZOk9eRDqixfU5+luhOs3xeToBWio6mBkvOuZiATo6dPo5dDG6\r\nObCKvTn8W8A5tQbnOXwb/jnQAPk5/Je4OZq+Yzpu6tw5pscVOtJbJDr0Syk6yTjxOQL4rDlhZ/Y5\r\na26aOS0gNDotrow5jD6gOVQpoTlBGR46bAa3OaU4kjlQZew5DcUFOi31STpEzc05kFHlOemiqzlY\r\nyh06TobaORx40DnztIk55iSaOTl9KDqxB0A6egT7OR5uFzrGOQ46NlM1OlnKVzkpKN852LbBOT8S\r\n7zk05OI5iEC8OejMMTqAeOw5SDsQOkiR4zn4riU6d1nOOfepjznOnhg6xAzeOWuloDlCcp45Pf+D\r\nOeB27TlqKl05G93DOXnfnjlz6p85RsZDOqOeozkmfwY60f+4OSJOAzpCL7E592UXOv2bLzrRFso5\r\nMrTdOb4bHjr04co5aPokOqzu2TkcGOA5+IItOjV5ETqzm1Y6JV7VOVQkAjoh5dU5fhE5OmK7qTlK\r\nGOk5QqHOOVhd8TmlC/A5eEvjOXgOaTqWKPU5+SDHOcV5zTm5gPw5TstFOt5PLzo4y+w5x0msOXtm\r\nwjmSNIk6gXgVOitg3Dlv5LU5E5L1Oc9hnDk/+o45YFrhOXTPODk3K4c5Ez+KOl9+pzmdAME5C4Hf\r\nOcVepTm1viU6MB0sOuh7rzm+aI46YRJHOuuMVDovZhU6PL+1OUx5oznGifI5pgyLOcAztTly5Jk5\r\nr6/nORAO6zkgUQI6GNOkOZYLmzldkE06l8fROYbMFDqtZpQ5b7YKOhwT3DlkE5g5DcqaOXoiDDon\r\n8o053WWlOT7UMDrpDrY5xI1vOUPr4jkL/Hg5JYKXOuSiOjomegw6nFOBOeAAlDna7mI6C4BvOqMB\r\nhDlPaEI6RDSxOfwh7jmYdGk5gZQFOh7HeTncjSM6yITPOeQ4KjrTelM6E9DAOQybHjkevjI67Q+y\r\nOYPjLzo8ras6mgwTOrs/EjoLFPU53+YEOvE8ijrC91A6zjYVOmP5EDpvZ6Q5qEsbOriIOjoJl9I5\r\n/2j2OdIspDnvE/o5eyyfOgzjHDrSs405z9ujOZtuVzm1Nac5dA73ORw9ljnvgWs6bzymOfqAgDnm\r\nz286TD1COuC6HDpT8186lF+6OYnxtDl1HAE6J1UgOpKm4TkqNfE582WFOeHwGDqVKds6jFU9OisO\r\nUjrMMRY6e8qOOWiDqTlmRXM5MEvlOdFkLDps8MQ5UnAEOqsCajp8s0w6OgzxOfFyajlQIj85Fe0l\r\nOmr6wzlcnxM6vDSkOSwrkDkWDg06fwk6OtBguDlcKLU5GU8cOq2AqTm/Vwc6dPh2OZBXhTk9ocs5\r\ntpFfOeuH1Dm4Hd05xcctOtmwoDmEPhU6phbAOVGKFzpITi46EmV7ORbGxzlS4ZU5SOh5OTYzjzm5\r\nISQ5iUwZOQUjgznLgk45juq5OQzOjDlBFUA5mgBoOWE0hTnDE205+q99OTilvzkyS2I5risCOgN/\r\nbzkf14M5JnQZOj4XkjnboAc6GCm1OWdZgTkMJnI5GMqzOQCCpDn/ip05lmnFOTQubjl/4nw5f4KF\r\nOd4MbTmmfI45UXCsOenbnjmXiO45tetLOUF39DluomU5xnaPOa7xXTm1ezw58sdiOULx4DnSu/k5\r\nBfb0ObazDTnFx545Mc+zOTJhqzlSia45Fg3JOUaFtDmAZ2I5mB5rOXFipDkA8dc5+PLrOS8KoTk6\r\nXWE51jKpOY+QeDlcDpQ55lwFOmrFazmd9sw5SHqUOZslmzkKoGE5p0XWOXpkxzmFxVg564rFOe0K\r\n7TmvCUk5BVSGOaSLnTnO/Vo5U5ShOYMUATnlDsU5GkWWOaJ+sjmTtyE6TBTiOZ5QMDk6xKk5OgKm\r\nOTzUjjmFJqE5/P1YOTPFVjl1Pcc5VoTROaYMijkWrsI5Pp0COmUtoTlBU445WphFOXS9kDmXMYc5\r\nPI6fOS6ekTlsoXk5ByIfOeatnTnl92M5zWDiORoknjnC26U5DDRfOc5g8zlGjNo52Y/FOfMYCTq3\r\nYTo57uSXOZ9sOzkFZrE5vkRsOezdPTmQYWk5tEsKOu+tXDlwxAo6QXrQOSPdfznquKA5uuiRORKL\r\nMTlGzVc5Xz+7Of5LSDnzvpM5TuAMOUZOyTjOX245MjRpObpLnjme4+A5lZNXOQDJkDl8sYE55Bdz\r\nOaXUmzlsbLM5as67OTKDZDnUspU5bgBGOe12ZzmY12k5R1beOWZaVjlWY4A5/9avOarg0TnkT7E5\r\nqIVDOZxKpDn9m4M57tHHOQwBmzmPxaw5tOqEOXS0XTnnCp05CvGXOcIbmznYeKA5vR6QObTdWTlz\r\nmbY5m2wVObqSOjlXhIg5NS3IOTDWOjm6hQQ4PykMN1/2wDYvlIY2KR20NugwTjZtRG02d6aaNvwQ\r\nmjYdlXw2JUieNhK5gDbEF1g2LPcyNjQEgTb4Dxo2dfIINtuWQjbKhx02PVg6NtrWLTaORTM2SjiG\r\nNpF7fzb66+Y1s29oNsBUHzbAXhQ2DIUXNio5UzailwM2C2W8NxQBFzgeG2Y4M5XoOFq++Tj/+qY4\r\n+x2ONwITgjdqemw2g4GLNhcMfDgSHu84tOEDOZ/RKjgC91w3acs+N/cmiTj+sAA4Yk3fN3G73jiZ\r\ncis5ytS1OPp6Jzj1vQM5WkK6OB61fDcdkfM2t17SN6MDwjdUU/Q3cTKqN7JjTze3HlU3d0mGOIRN\r\nVjgcNXA5RCPHOAV3CjiJOdQ3TJypOIbRhjjXDAk53UaCObZUSjgYZw84JATUN8KSSTgm0wQ5jke1\r\nOKJ9XjifArk4Q3PBOIVvGDlsnYU5e1R2OadwEzlC+8s4jscQOUak8TjH+p04/WxoOSI5/Tj+FZo4\r\nRintOHSwzTff/Ek2pbBUNvWZSTaGjRY22ypWNt5rYDY5u3g2XNbgNdIABzaKJm02r51KNpAY7DWC\r\nPCY2yDBONoWNxjUwrQc2hcReNlweezZ42gw2NHkENhmPuzUJZU42vCGINgzTPTbTKHY2iKhLNrYP\r\nPzYOYTU2N9BUNnIW2DUGS0M2JKBNNjx1LzbBTow2V/UUNsG0Gja/UNY1jr1sNrJBSjZUrps2TyAh\r\nNl86EzaGkWE2tU0UNt3bAzZ2wOA1xpVcNquufDbKbEs2SPdHNvLAlzZykBU2rgg3NuAUEjb2rxM2\r\n6xL0NeAp8TV+YNo12TkhNtjoFjYwU3o2Ho4FNj77DDbwGEU28mgGNjDLCTZP1Fw2EHCANlY6GjZ4\r\npS02vmvrNTSQJzZwSiY2VyoMNpOjSzYvpeY1F5MMNnDEDjacGCQ26pctNggKHDZZDCM2uAcwNg0h\r\nNTaN+mc2tmEiNt5JJDZRe482Yw1JNgZmhDYkj1Y2fq6XNkYkuDYdlJ02IHsvN4TFGDnRhDo5GA2V\r\nOGAtIzmZBx459WpSOVasTjjeqps5dKoKOVFiUTkFWyM5mkkjObwQiTmK6kc5J9KpOUTG+DhZqQM5\r\nAHFLORRIDTn3hNA4KPyxOD/UzTlCCso5zeIhOlA4qjtGqpQ5rWxoOSJ7FDkepP44pCRvObBx0jl1\r\nXkY6uB+MOhLpFTqCXU88QwulOjyosDm45m85x68SOXeSAzmxQGo5JNKuOYbcajn579A6/GWdPOCa\r\nRjt0phM6JPFlOviHmTmZARg5Vk2POahLRTnO7kI5dgTlOGyMoTlQ6zE5OmP7OWKsyTgCgss4Vdsh\r\nOUDMZjlnRZM57BmCOJ59vjgoAVM5/iXLOTLPujhbm/A4v+e/OOegBzlDKLk4+ZwCOrDdvTjsQAo5\r\n4lOkOBc24zgaOt44AG+2ODTNlzgA6mE4ogsWODYAtjjWGKA4GWKNODTU1zjyFzQ4WbyCOP5aEDgU\r\nNDc4mV2SOMMNLjiEDwA4fI1BOBC4LTiX41s4QBmKOO9TJjh+szs4c/kEOKDUxTfa3SI4/pgDOISW\r\nADhvFwM4gqrCNyjM+TfvMCQ4bzcfOK02PzdYgbQ3oKGWN1JxuzdsT1E3movQN5IFNTcNMVA3KL6e\r\nNzQwqTaYB/42Thz0Np9D4Df8VE43EjN3N/FhyTYJhg03hotYNwdcrjZg3vw2AEi5Ng==",
                            "noiseTrainingType" : "default"
                          },
                          "metadata" : {
                            "default-NoiseReduction_denoiserAmount" : 20.0,
                            "default-NoiseReduction_denoiserThreshold" : 0.0,
                            "presetName" : "Noise Removal"
                          }
                        }
                    ],
                    "start" : 1242,
                    "duration" : 1107,
                    "mediaStart" : 2642,
                    "mediaDuration" : 1107,
                    "scalar" : 1,
                    "metadata" : {
                      "clipSpeedAttribute" : false,
                      "default-height" : 0.0,
                      "default-width" : 0.0
                    },
                    "animationTracks" : {

                    }
                  },
                  {
                    "id" : 14,
                    "_type" : "AMFile",
                    "src" : 8,
                    "trackNumber" : 0,
                    "attributes" : {
                      "ident" : "Rec 04-12-21_001",
                      "gain" : 1.0,
                      "mixToMono" : false
                    },
                      "channelNumber" : "0,1",
                    "effects" : [
                        {
                          "effectName" : "NoiseReduction",
                          "bypassed" : false,
                          "category" : "categoryAudioEffects",
                          "parameters" : {
                            "denoiserAmount" : 22.4,
                            "denoiserThreshold" : 6.0,
                            "noiseProfile" : "x9dYPsRKuz6XHQY/oRmsP/xpqj8XKGY+EzwYPg9dQz50HK89mK/7PXnuET19oaM9RQUGPTy/BT2O\r\ndLE9yCvzPc2aEz7eTBM9o95BPSAt3D2oiGQ+026zPSx8Aj5Mh309JzOyPOlQXzyPlrE8RAqlPBGm\r\ntz00cck82P8rPQnN9jxk+hE9eitAPAthpzy69Zc8iQ6+Ox7fGzxvaSI8jTm9O3w2Szwwmro77BVz\r\nO7lgDDyQQe08lHpFPZDujj1oGMM8JQILPUv5KT2YSv48D4Y0PYA4Cj0GaBE9KBSxPCTjJD2dn8s8\r\nI8OTPMyZAjwGIac8TNCNPAVS6DyzcLk8upMDPJNlITxlBc88wHqBPKR/TDziEIg8bkUvPc4oFD34\r\nTow8IuOFPFQrcjx21xk8dkYKPHUW4zto5pA7eqPTOyhyczvcCio7HpmVOylEpzpy/zU7CJyTO8+N\r\nejt8/X871vVEO0QnZzuUWbM8RNG8Onk7CDuDUYU7inyyO475DzuY4og7MgI9OzY6GDu7ZAs7+D0L\r\nO+coSTuxPZw7xTktO+Kz/Drosxg7P36cOnA0BzsJUeg6YpdRO4elIDu0BiI7RezWOjeh8jprDoo6\r\nmDkMO/erpjpOBTI72JuOO9t0HDvy8s864fCzOpnIvzoWMGI7EwkEO7fOHTtoDNA60KsAOy9vDTs3\r\nkNc6c5UtO/5bHTtq8Pg6IqM/O05QbTvS1yc7ftSiOvaPgjqpIAw7WPMbO2PlhTr2b787hR4bOrne\r\nUTqDxZQ63wzIOuDfvzqSM9w6Hh6EOoHSlzutUH064xTDOvLrnzrf7Ko6BIuhOpyiODpObnQ64NK3\r\nOuFdyDqZFqI6FKE5OowEjjrvkMI6mGZUOl0Cqzqr4GA6+b6OOjMOkToFnsY6Se2zOswSkTqHE5o6\r\nDd/ROkVmrDrqpR475jEuOrAVkjq1e806vS5FOjvzNDtPZZI6WK8pOpGVgjrO8l46ytkqOjzgcjp2\r\nVV86CNauOoDwUDrGcVI6CLo1OudohTq1ck06BxYBOtTIdzrTTCE6fFtAOhV4LjqrjnE6Q3hdOnPN\r\nGTpym2868czROt6YkzpWHWc644NJOmsxnTvf5Do6NrjVOlcHEDrzbWw6CmOuOssGqzqYWMw5Wp9x\r\nOmiGwjpzKDQ6CLmVPILz4juW6Zc6whxVOs4/mjrNkFg6kjlFO5wOnjrP4gU6fNlZOqxxtTms8tI6\r\nhDytOlz+TTp8MHA6TMgSOpCKYTqJ+6U7SwWFOjebpTos8Bc6RH7SOa4rGDod3To6tiFEOni0IDqK\r\nIAw6hTRDOpGimjt9IjQ6DFYLOrdKgjot1Os64ftDPH2heDzHtsQ6yixaOuyTQjqc1W46cGbcOzF3\r\nMDv99jM6gHUmOomDqjlqktQ5UTNCOlLKWTpPXkQ6osX1OfpboTrN8Xk6AVoqOpgZLzrmYgE6OnT6\r\nOXQxujmwir05/FvAObUG5zl8G/450AD5OfyXuDmavmM6burcOabHFTrSWyQ69EspOsk48TkC+Kw5\r\nYWf2OWtumjktIDQ6La6MOYw+oDlUKaE5QRkeOmwGtzmlOJI5UGXsOQ3FBTot9Uk6RM3NOZBR5Tnp\r\noqs5WModOk6G2jkceNA587SJOeYkmjk5fSg6sQdAOnoE+zkebhc6xjkOOjZTNTpZylc5KSjfOdi2\r\nwTk/Eu85NOTiOYhAvDnozDE6gHjsOUg7EDpIkeM5+K4lOndZzjn3qY85zp4YOsQM3jlrpaA5QnKe\r\nOT3/gzngdu05aipdORvdwzl53545c+qfOUbGQzqjnqM5Jn8GOtH/uDkiTgM6Qi+xOfdlFzr9my86\r\n0RbKOTK03Tm+Gx469OHKOWj6JDqs7tk5HBjgOfiCLTo1eRE6s5tWOiVe1TlUJAI6IeXVOX4ROTpi\r\nu6k5ShjpOUKhzjlYXfE5pQvwOXhL4zl4Dmk6lij1OfkgxznFec05uYD8OU7LRTreTy86OMvsOcdJ\r\nrDl7ZsI5kjSJOoF4FTorYNw5b+S1OROS9TnPYZw5P/qOOWBa4Tl0zzg5NyuHORM/ijpffqc5nQDB\r\nOQuB3znFXqU5tb4lOjAdLDroe685vmiOOmESRzrrjFQ6L2YVOjy/tTlMeaM5xonyOaYMiznAM7U5\r\ncuSZOa+v5zkQDus5IFECOhjTpDmWC5s5XZBNOpfH0TmGzBQ6rWaUOW+2CjocE9w5ZBOYOQ3Kmjl6\r\nIgw6J/KNOd1lpTk+1DA66Q62OcSNbzlD6+I5C/x4OSWClzrkojo6JnoMOpxTgTngAJQ52u5iOguA\r\nbzqjAYQ5T2hCOkQ0sTn8Ie45mHRpOYGUBToex3k53I0jOsiEzznkOCo603pTOhPQwDkMmx45Hr4y\r\nOu0PsjmD4y86PK2rOpoMEzq7PxI6CxT1Od/mBDrxPIo6wvdQOs42FTpj+RA6b2ekOahLGzq4iDo6\r\nCZfSOf9o9jnSLKQ57xP6OXssnzoM4xw60rONOc/bozmbblc5tTWnOXQO9zkcPZY574FrOm88pjn6\r\ngIA55s9vOkw9Qjrguhw6U/NfOpRfujmJ8bQ5dRwBOidVIDqSpuE5KjXxOfNlhTnh8Bg6lSnbOoxV\r\nPTorDlI6zDEWOnvKjjlog6k5ZkVzOTBL5TnRZCw6bPDEOVJwBDqrAmo6fLNMOjoM8Tnxcmo5UCI/\r\nORXtJTpq+sM5XJ8TOrw0pDksK5A5Fg4NOn8JOjrQYLg5XCi1ORlPHDqtgKk5v1cHOnT4djmQV4U5\r\nPaHLObaRXznrh9Q5uB3dOcXHLTrZsKA5hD4VOqYWwDlRihc6SE4uOhJlezkWxsc5UuGVOUjoeTk2\r\nM485uSEkOYlMGTkFI4M5y4JOOY7quTkMzow5QRVAOZoAaDlhNIU5wxNtOfqvfTk4pb85MktiOa4r\r\nAjoDf285H9eDOSZ0GTo+F5I526AHOhgptTlnWYE5DCZyORjKszkAgqQ5/4qdOZZpxTk0Lm45f+J8\r\nOX+ChTneDG05pnyOOVFwrDnp2545l4juObXrSzlBd/Q5bqJlOcZ2jzmu8V05tXs8OfLHYjlC8eA5\r\n0rv5OQX29Dm2sw05xceeOTHPszkyYas5UomuORYNyTlGhbQ5gGdiOZgeazlxYqQ5APHXOfjy6zkv\r\nCqE5Ol1hOdYyqTmPkHg5XA6UOeZcBTpqxWs5nfbMOUh6lDmbJZs5CqBhOadF1jl6ZMc5hcVYOeuK\r\nxTntCu05rwlJOQVUhjmki505zv1aOVOUoTmDFAE55Q7FORpFljmifrI5k7chOkwU4jmeUDA5OsSp\r\nOToCpjk81I45hSahOfz9WDkzxVY5dT3HOVaE0TmmDIo5Fq7COT6dAjplLaE5QVOOOVqYRTl0vZA5\r\nlzGHOTyOnzkunpE5bKF5OQciHznmrZ055fdjOc1g4jkaJJ45wtulOQw0XznOYPM5RozaOdmPxTnz\r\nGAk6t2E6Oe7klzmfbDs5BWaxOb5EbDns3T05kGFpObRLCjrvrVw5cMQKOkF60Dkj3X856rigObro\r\nkTkSizE5Rs1XOV8/uzn+S0g5876TOU7gDDlGTsk4zl9uOTI0aTm6S545nuPgOZWTVzkAyZA5fLGB\r\nOeQXczml1Js5bGyzOWrOuzkyg2Q51LKVOW4ARjntdmc5mNdpOUdW3jlmWlY5VmOAOf/Wrzmq4NE5\r\n5E+xOaiFQzmcSqQ5/ZuDOe7RxzkMAZs5j8WsObTqhDl0tF055wqdOQrxlznCG5s52HigOb0ekDm0\r\n3Vk5c5m2OZtsFTm6kjo5V4SIOTUtyDkw1jo5uoUEOD8pDDdf9sA2L5SGNikdtDboME42bURtNnem\r\nmjb8EJo2HZV8NiVInjYSuYA2xBdYNiz3MjY0BIE2+A8aNnXyCDbblkI2yocdNj1YOjba1i02jkUz\r\nNko4hjaRe382+uvmNbNvaDbAVB82wF4UNgyFFzYqOVM2opcDNgtlvDcUARc4HhtmODOV6Dhavvk4\r\n//qmOPsdjjcCE4I3anpsNoOBizYXDHw4Eh7vOLThAzmf0So4AvdcN2nLPjf3Jok4/rAAOGJN3zdx\r\nu944mXIrOcrUtTj6eic49b0DOVpCujgetXw3HZHzNrde0jejA8I3VFP0N3EyqjeyY083tx5VN3dJ\r\nhjiETVY4HDVwOUQjxzgFdwo4iTnUN0ycqTiG0YY41wwJOd1Ggjm2VEo4GGcPOCQE1DfCkkk4JtME\r\nOY5HtTiifV44nwK5OENzwTiFbxg5bJ2FOXtUdjmncBM5QvvLOI7HEDlGpPE4x/qdOP1saDkiOf04\r\n/hWaOEYp7Th0sM033/xJNqWwVDb1mUk2ho0WNtsqVjbea2A2Obt4NlzW4DXSAAc2iiZtNq+dSjaQ\r\nGOw1gjwmNsgwTjaFjcY1MK0HNoXEXjZcHns2eNoMNjR5BDYZj7s1CWVONrwhiDYM0z020yh2Noio\r\nSza2Dz82DmE1NjfQVDZyFtg1BktDNiSgTTY8dS82wU6MNlf1FDbBtBo2v1DWNY69bDayQUo2VK6b\r\nNk8gITZfOhM2hpFhNrVNFDbd2wM2dsDgNcaVXDarrnw2ymxLNkj3RzbywJc2cpAVNq4INzbgFBI2\r\n9q8TNusS9DXgKfE1fmDaNdk5ITbY6BY2MFN6Nh6OBTY++ww28BhFNvJoBjYwywk2T9RcNhBwgDZW\r\nOho2eKUtNr5r6zU0kCc2cEomNlcqDDaTo0s2L6XmNReTDDZwxA42nBgkNuqXLTYIChw2WQwjNrgH\r\nMDYNITU2jfpnNrZhIjbeSSQ2UXuPNmMNSTYGZoQ2JI9WNn6ulzZGJLg2HZSdNiB7LzeExRg50YQ6\r\nORgNlThgLSM5mQceOfVqUjlWrE443qqbOXSqCjlRYlE5BVsjOZpJIzm8EIk5iupHOSfSqTlExvg4\r\nWakDOQBxSzkUSA0594TQOCj8sTg/1M05QgrKOc3iITpQOKo7RqqUOa1saDkiexQ5HqT+OKQkbzmw\r\ncdI5dV5GOrgfjDoS6RU6gl1PPEMLpTo8qLA5uOZvOcevEjl3kgM5sUBqOSTSrjmG3Go5+e/QOvxl\r\nnTzgmkY7dKYTOiTxZTr4h5k5mQEYOVZNjzmoS0U5zu5COXYE5ThsjKE5UOsxOTpj+zlirMk4AoLL\r\nOFXbITlAzGY5Z0WTOewZgjiefb44KAFTOf4lyzkyz7o4W5vwOL/nvzjnoAc5Qyi5OPmcAjqw3b04\r\n7EAKOeJTpDgXNuM4GjreOABvtjg0zZc4AOphOKILFjg2ALY41higOBlijTg01Nc48hc0OFm8gjj+\r\nWhA4FDQ3OJldkjjDDS44hA8AOHyNQTgQuC04l+NbOEAZijjvUyY4frM7OHP5BDig1MU32t0iOP6Y\r\nAziElgA4bxcDOIKqwjcozPk37zAkOG83HzitNj83WIG0N6ChljdScbs3bE9RN5qL0DeSBTU3DTFQ\r\nNyi+njc0MKk2mAf+Nk4c9DafQ+A3/FRONxIzdzfxYck2CYYNN4aLWDcHXK42YN78NgBIuTbH11g+\r\nxEq7PpcdBj+hGaw//GmqPxcoZj4TPBg+D11DPnQcrz2Yr/s9ee4RPX2hoz1FBQY9PL8FPY50sT3I\r\nK/M9zZoTPt5MEz2j3kE9IC3cPaiIZD7TbrM9LHwCPkyHfT0nM7I86VBfPI+WsTxECqU8Eaa3PTRx\r\nyTzY/ys9Cc32PGT6ET16K0A8C2GnPLr1lzyJDr47Ht8bPG9pIjyNOb07fDZLPDCaujvsFXM7uWAM\r\nPJBB7TyUekU9kO6OPWgYwzwlAgs9S/kpPZhK/jwPhjQ9gDgKPQZoET0oFLE8JOMkPZ2fyzwjw5M8\r\nzJkCPAYhpzxM0I08BVLoPLNwuTy6kwM8k2UhPGUFzzzAeoE8pH9MPOIQiDxuRS89zigUPfhOjDwi\r\n44U8VCtyPHbXGTx2Rgo8dRbjO2jmkDt6o9M7KHJzO9wKKjsemZU7KUSnOnL/NTsInJM7z416O3z9\r\nfzvW9UQ7RCdnO5RZszxE0bw6eTsIO4NRhTuKfLI7jvkPO5jiiDsyAj07NjoYO7tkCzv4PQs75yhJ\r\nO7E9nDvFOS074rP8OuizGDs/fpw6cDQHOwlR6Dpil1E7h6UgO7QGIjtF7NY6N6HyOmsOijqYOQw7\r\n96umOk4FMjvYm44723QcO/Lyzzrh8LM6mci/OhYwYjsTCQQ7t84dO2gM0DrQqwA7L28NOzeQ1zpz\r\nlS07/lsdO2rw+Doioz87TlBtO9LXJzt+1KI69o+COqkgDDtY8xs7Y+WFOvZvvzuFHhs6ud5ROoPF\r\nlDrfDMg64N+/OpIz3DoeHoQ6gdKXO61QfTrjFMM68uufOt/sqjoEi6E6nKI4Ok5udDrg0rc64V3I\r\nOpkWojoUoTk6jASOOu+QwjqYZlQ6XQKrOqvgYDr5vo46Mw6ROgWexjpJ7bM6zBKROocTmjoN39E6\r\nRWasOuqlHjvmMS46sBWSOrV7zTq9LkU6O/M0O09lkjpYryk6kZWCOs7yXjrK2So6POByOnZVXzoI\r\n1q46gPBQOsZxUjoIujU652iFOrVyTToHFgE61Mh3OtNMITp8W0A6FXguOquOcTpDeF06c80ZOnKb\r\nbzrxzNE63piTOlYdZzrjg0k6azGdO9/kOjo2uNU6VwcQOvNtbDoKY646ywarOphYzDlan3E6aIbC\r\nOnMoNDoIuZU8gvPiO5bplzrCHFU6zj+aOs2QWDqSOUU7nA6eOs/iBTp82Vk6rHG1Oazy0jqEPK06\r\nXP5NOnwwcDpMyBI6kIphOon7pTtLBYU6N5ulOizwFzpEftI5risYOh3dOjq2IUQ6eLQgOoogDDqF\r\nNEM6kaKaO30iNDoMVgs6t0qCOi3U6zrh+0M8faF4PMe2xDrKLFo67JNCOpzVbjpwZtw7MXcwO/32\r\nMzqAdSY6iYOqOWqS1DlRM0I6UspZOk9eRDqixfU5+luhOs3xeToBWio6mBkvOuZiATo6dPo5dDG6\r\nObCKvTn8W8A5tQbnOXwb/jnQAPk5/Je4OZq+Yzpu6tw5pscVOtJbJDr0Syk6yTjxOQL4rDlhZ/Y5\r\na26aOS0gNDotrow5jD6gOVQpoTlBGR46bAa3OaU4kjlQZew5DcUFOi31STpEzc05kFHlOemiqzlY\r\nyh06TobaORx40DnztIk55iSaOTl9KDqxB0A6egT7OR5uFzrGOQ46NlM1OlnKVzkpKN852LbBOT8S\r\n7zk05OI5iEC8OejMMTqAeOw5SDsQOkiR4zn4riU6d1nOOfepjznOnhg6xAzeOWuloDlCcp45Pf+D\r\nOeB27TlqKl05G93DOXnfnjlz6p85RsZDOqOeozkmfwY60f+4OSJOAzpCL7E592UXOv2bLzrRFso5\r\nMrTdOb4bHjr04co5aPokOqzu2TkcGOA5+IItOjV5ETqzm1Y6JV7VOVQkAjoh5dU5fhE5OmK7qTlK\r\nGOk5QqHOOVhd8TmlC/A5eEvjOXgOaTqWKPU5+SDHOcV5zTm5gPw5TstFOt5PLzo4y+w5x0msOXtm\r\nwjmSNIk6gXgVOitg3Dlv5LU5E5L1Oc9hnDk/+o45YFrhOXTPODk3K4c5Ez+KOl9+pzmdAME5C4Hf\r\nOcVepTm1viU6MB0sOuh7rzm+aI46YRJHOuuMVDovZhU6PL+1OUx5oznGifI5pgyLOcAztTly5Jk5\r\nr6/nORAO6zkgUQI6GNOkOZYLmzldkE06l8fROYbMFDqtZpQ5b7YKOhwT3DlkE5g5DcqaOXoiDDon\r\n8o053WWlOT7UMDrpDrY5xI1vOUPr4jkL/Hg5JYKXOuSiOjomegw6nFOBOeAAlDna7mI6C4BvOqMB\r\nhDlPaEI6RDSxOfwh7jmYdGk5gZQFOh7HeTncjSM6yITPOeQ4KjrTelM6E9DAOQybHjkevjI67Q+y\r\nOYPjLzo8ras6mgwTOrs/EjoLFPU53+YEOvE8ijrC91A6zjYVOmP5EDpvZ6Q5qEsbOriIOjoJl9I5\r\n/2j2OdIspDnvE/o5eyyfOgzjHDrSs405z9ujOZtuVzm1Nac5dA73ORw9ljnvgWs6bzymOfqAgDnm\r\nz286TD1COuC6HDpT8186lF+6OYnxtDl1HAE6J1UgOpKm4TkqNfE582WFOeHwGDqVKds6jFU9OisO\r\nUjrMMRY6e8qOOWiDqTlmRXM5MEvlOdFkLDps8MQ5UnAEOqsCajp8s0w6OgzxOfFyajlQIj85Fe0l\r\nOmr6wzlcnxM6vDSkOSwrkDkWDg06fwk6OtBguDlcKLU5GU8cOq2AqTm/Vwc6dPh2OZBXhTk9ocs5\r\ntpFfOeuH1Dm4Hd05xcctOtmwoDmEPhU6phbAOVGKFzpITi46EmV7ORbGxzlS4ZU5SOh5OTYzjzm5\r\nISQ5iUwZOQUjgznLgk45juq5OQzOjDlBFUA5mgBoOWE0hTnDE205+q99OTilvzkyS2I5risCOgN/\r\nbzkf14M5JnQZOj4XkjnboAc6GCm1OWdZgTkMJnI5GMqzOQCCpDn/ip05lmnFOTQubjl/4nw5f4KF\r\nOd4MbTmmfI45UXCsOenbnjmXiO45tetLOUF39DluomU5xnaPOa7xXTm1ezw58sdiOULx4DnSu/k5\r\nBfb0ObazDTnFx545Mc+zOTJhqzlSia45Fg3JOUaFtDmAZ2I5mB5rOXFipDkA8dc5+PLrOS8KoTk6\r\nXWE51jKpOY+QeDlcDpQ55lwFOmrFazmd9sw5SHqUOZslmzkKoGE5p0XWOXpkxzmFxVg564rFOe0K\r\n7TmvCUk5BVSGOaSLnTnO/Vo5U5ShOYMUATnlDsU5GkWWOaJ+sjmTtyE6TBTiOZ5QMDk6xKk5OgKm\r\nOTzUjjmFJqE5/P1YOTPFVjl1Pcc5VoTROaYMijkWrsI5Pp0COmUtoTlBU445WphFOXS9kDmXMYc5\r\nPI6fOS6ekTlsoXk5ByIfOeatnTnl92M5zWDiORoknjnC26U5DDRfOc5g8zlGjNo52Y/FOfMYCTq3\r\nYTo57uSXOZ9sOzkFZrE5vkRsOezdPTmQYWk5tEsKOu+tXDlwxAo6QXrQOSPdfznquKA5uuiRORKL\r\nMTlGzVc5Xz+7Of5LSDnzvpM5TuAMOUZOyTjOX245MjRpObpLnjme4+A5lZNXOQDJkDl8sYE55Bdz\r\nOaXUmzlsbLM5as67OTKDZDnUspU5bgBGOe12ZzmY12k5R1beOWZaVjlWY4A5/9avOarg0TnkT7E5\r\nqIVDOZxKpDn9m4M57tHHOQwBmzmPxaw5tOqEOXS0XTnnCp05CvGXOcIbmznYeKA5vR6QObTdWTlz\r\nmbY5m2wVObqSOjlXhIg5NS3IOTDWOjm6hQQ4PykMN1/2wDYvlIY2KR20NugwTjZtRG02d6aaNvwQ\r\nmjYdlXw2JUieNhK5gDbEF1g2LPcyNjQEgTb4Dxo2dfIINtuWQjbKhx02PVg6NtrWLTaORTM2SjiG\r\nNpF7fzb66+Y1s29oNsBUHzbAXhQ2DIUXNio5UzailwM2C2W8NxQBFzgeG2Y4M5XoOFq++Tj/+qY4\r\n+x2ONwITgjdqemw2g4GLNhcMfDgSHu84tOEDOZ/RKjgC91w3acs+N/cmiTj+sAA4Yk3fN3G73jiZ\r\ncis5ytS1OPp6Jzj1vQM5WkK6OB61fDcdkfM2t17SN6MDwjdUU/Q3cTKqN7JjTze3HlU3d0mGOIRN\r\nVjgcNXA5RCPHOAV3CjiJOdQ3TJypOIbRhjjXDAk53UaCObZUSjgYZw84JATUN8KSSTgm0wQ5jke1\r\nOKJ9XjifArk4Q3PBOIVvGDlsnYU5e1R2OadwEzlC+8s4jscQOUak8TjH+p04/WxoOSI5/Tj+FZo4\r\nRintOHSwzTff/Ek2pbBUNvWZSTaGjRY22ypWNt5rYDY5u3g2XNbgNdIABzaKJm02r51KNpAY7DWC\r\nPCY2yDBONoWNxjUwrQc2hcReNlweezZ42gw2NHkENhmPuzUJZU42vCGINgzTPTbTKHY2iKhLNrYP\r\nPzYOYTU2N9BUNnIW2DUGS0M2JKBNNjx1LzbBTow2V/UUNsG0Gja/UNY1jr1sNrJBSjZUrps2TyAh\r\nNl86EzaGkWE2tU0UNt3bAzZ2wOA1xpVcNquufDbKbEs2SPdHNvLAlzZykBU2rgg3NuAUEjb2rxM2\r\n6xL0NeAp8TV+YNo12TkhNtjoFjYwU3o2Ho4FNj77DDbwGEU28mgGNjDLCTZP1Fw2EHCANlY6GjZ4\r\npS02vmvrNTSQJzZwSiY2VyoMNpOjSzYvpeY1F5MMNnDEDjacGCQ26pctNggKHDZZDCM2uAcwNg0h\r\nNTaN+mc2tmEiNt5JJDZRe482Yw1JNgZmhDYkj1Y2fq6XNkYkuDYdlJ02IHsvN4TFGDnRhDo5GA2V\r\nOGAtIzmZBx459WpSOVasTjjeqps5dKoKOVFiUTkFWyM5mkkjObwQiTmK6kc5J9KpOUTG+DhZqQM5\r\nAHFLORRIDTn3hNA4KPyxOD/UzTlCCso5zeIhOlA4qjtGqpQ5rWxoOSJ7FDkepP44pCRvObBx0jl1\r\nXkY6uB+MOhLpFTqCXU88QwulOjyosDm45m85x68SOXeSAzmxQGo5JNKuOYbcajn579A6/GWdPOCa\r\nRjt0phM6JPFlOviHmTmZARg5Vk2POahLRTnO7kI5dgTlOGyMoTlQ6zE5OmP7OWKsyTgCgss4Vdsh\r\nOUDMZjlnRZM57BmCOJ59vjgoAVM5/iXLOTLPujhbm/A4v+e/OOegBzlDKLk4+ZwCOrDdvTjsQAo5\r\n4lOkOBc24zgaOt44AG+2ODTNlzgA6mE4ogsWODYAtjjWGKA4GWKNODTU1zjyFzQ4WbyCOP5aEDgU\r\nNDc4mV2SOMMNLjiEDwA4fI1BOBC4LTiX41s4QBmKOO9TJjh+szs4c/kEOKDUxTfa3SI4/pgDOISW\r\nADhvFwM4gqrCNyjM+TfvMCQ4bzcfOK02PzdYgbQ3oKGWN1JxuzdsT1E3movQN5IFNTcNMVA3KL6e\r\nNzQwqTaYB/42Thz0Np9D4Df8VE43EjN3N/FhyTYJhg03hotYNwdcrjZg3vw2AEi5Ng==",
                            "noiseTrainingType" : "default"
                          },
                          "metadata" : {
                            "default-NoiseReduction_denoiserAmount" : 20.0,
                            "default-NoiseReduction_denoiserThreshold" : 0.0,
                            "presetName" : "Noise Removal"
                          }
                        }
                    ],
                    "start" : 2349,
                    "duration" : 263,
                    "mediaStart" : 3801,
                    "mediaDuration" : 263,
                    "scalar" : 1,
                    "metadata" : {
                      "clipSpeedAttribute" : false,
                      "default-height" : 0.0,
                      "default-width" : 0.0
                    },
                    "animationTracks" : {

                    }
                  },
                  {
                    "id" : 15,
                    "_type" : "AMFile",
                    "src" : 8,
                    "trackNumber" : 0,
                    "attributes" : {
                      "ident" : "Rec 04-12-21_001",
                      "gain" : 1.0,
                      "mixToMono" : false
                    },
                      "channelNumber" : "0,1",
                    "effects" : [
                        {
                          "effectName" : "NoiseReduction",
                          "bypassed" : false,
                          "category" : "categoryAudioEffects",
                          "parameters" : {
                            "denoiserAmount" : 22.4,
                            "denoiserThreshold" : 6.0,
                            "noiseProfile" : "x9dYPsRKuz6XHQY/oRmsP/xpqj8XKGY+EzwYPg9dQz50HK89mK/7PXnuET19oaM9RQUGPTy/BT2O\r\ndLE9yCvzPc2aEz7eTBM9o95BPSAt3D2oiGQ+026zPSx8Aj5Mh309JzOyPOlQXzyPlrE8RAqlPBGm\r\ntz00cck82P8rPQnN9jxk+hE9eitAPAthpzy69Zc8iQ6+Ox7fGzxvaSI8jTm9O3w2Szwwmro77BVz\r\nO7lgDDyQQe08lHpFPZDujj1oGMM8JQILPUv5KT2YSv48D4Y0PYA4Cj0GaBE9KBSxPCTjJD2dn8s8\r\nI8OTPMyZAjwGIac8TNCNPAVS6DyzcLk8upMDPJNlITxlBc88wHqBPKR/TDziEIg8bkUvPc4oFD34\r\nTow8IuOFPFQrcjx21xk8dkYKPHUW4zto5pA7eqPTOyhyczvcCio7HpmVOylEpzpy/zU7CJyTO8+N\r\nejt8/X871vVEO0QnZzuUWbM8RNG8Onk7CDuDUYU7inyyO475DzuY4og7MgI9OzY6GDu7ZAs7+D0L\r\nO+coSTuxPZw7xTktO+Kz/Drosxg7P36cOnA0BzsJUeg6YpdRO4elIDu0BiI7RezWOjeh8jprDoo6\r\nmDkMO/erpjpOBTI72JuOO9t0HDvy8s864fCzOpnIvzoWMGI7EwkEO7fOHTtoDNA60KsAOy9vDTs3\r\nkNc6c5UtO/5bHTtq8Pg6IqM/O05QbTvS1yc7ftSiOvaPgjqpIAw7WPMbO2PlhTr2b787hR4bOrne\r\nUTqDxZQ63wzIOuDfvzqSM9w6Hh6EOoHSlzutUH064xTDOvLrnzrf7Ko6BIuhOpyiODpObnQ64NK3\r\nOuFdyDqZFqI6FKE5OowEjjrvkMI6mGZUOl0Cqzqr4GA6+b6OOjMOkToFnsY6Se2zOswSkTqHE5o6\r\nDd/ROkVmrDrqpR475jEuOrAVkjq1e806vS5FOjvzNDtPZZI6WK8pOpGVgjrO8l46ytkqOjzgcjp2\r\nVV86CNauOoDwUDrGcVI6CLo1OudohTq1ck06BxYBOtTIdzrTTCE6fFtAOhV4LjqrjnE6Q3hdOnPN\r\nGTpym2868czROt6YkzpWHWc644NJOmsxnTvf5Do6NrjVOlcHEDrzbWw6CmOuOssGqzqYWMw5Wp9x\r\nOmiGwjpzKDQ6CLmVPILz4juW6Zc6whxVOs4/mjrNkFg6kjlFO5wOnjrP4gU6fNlZOqxxtTms8tI6\r\nhDytOlz+TTp8MHA6TMgSOpCKYTqJ+6U7SwWFOjebpTos8Bc6RH7SOa4rGDod3To6tiFEOni0IDqK\r\nIAw6hTRDOpGimjt9IjQ6DFYLOrdKgjot1Os64ftDPH2heDzHtsQ6yixaOuyTQjqc1W46cGbcOzF3\r\nMDv99jM6gHUmOomDqjlqktQ5UTNCOlLKWTpPXkQ6osX1OfpboTrN8Xk6AVoqOpgZLzrmYgE6OnT6\r\nOXQxujmwir05/FvAObUG5zl8G/450AD5OfyXuDmavmM6burcOabHFTrSWyQ69EspOsk48TkC+Kw5\r\nYWf2OWtumjktIDQ6La6MOYw+oDlUKaE5QRkeOmwGtzmlOJI5UGXsOQ3FBTot9Uk6RM3NOZBR5Tnp\r\noqs5WModOk6G2jkceNA587SJOeYkmjk5fSg6sQdAOnoE+zkebhc6xjkOOjZTNTpZylc5KSjfOdi2\r\nwTk/Eu85NOTiOYhAvDnozDE6gHjsOUg7EDpIkeM5+K4lOndZzjn3qY85zp4YOsQM3jlrpaA5QnKe\r\nOT3/gzngdu05aipdORvdwzl53545c+qfOUbGQzqjnqM5Jn8GOtH/uDkiTgM6Qi+xOfdlFzr9my86\r\n0RbKOTK03Tm+Gx469OHKOWj6JDqs7tk5HBjgOfiCLTo1eRE6s5tWOiVe1TlUJAI6IeXVOX4ROTpi\r\nu6k5ShjpOUKhzjlYXfE5pQvwOXhL4zl4Dmk6lij1OfkgxznFec05uYD8OU7LRTreTy86OMvsOcdJ\r\nrDl7ZsI5kjSJOoF4FTorYNw5b+S1OROS9TnPYZw5P/qOOWBa4Tl0zzg5NyuHORM/ijpffqc5nQDB\r\nOQuB3znFXqU5tb4lOjAdLDroe685vmiOOmESRzrrjFQ6L2YVOjy/tTlMeaM5xonyOaYMiznAM7U5\r\ncuSZOa+v5zkQDus5IFECOhjTpDmWC5s5XZBNOpfH0TmGzBQ6rWaUOW+2CjocE9w5ZBOYOQ3Kmjl6\r\nIgw6J/KNOd1lpTk+1DA66Q62OcSNbzlD6+I5C/x4OSWClzrkojo6JnoMOpxTgTngAJQ52u5iOguA\r\nbzqjAYQ5T2hCOkQ0sTn8Ie45mHRpOYGUBToex3k53I0jOsiEzznkOCo603pTOhPQwDkMmx45Hr4y\r\nOu0PsjmD4y86PK2rOpoMEzq7PxI6CxT1Od/mBDrxPIo6wvdQOs42FTpj+RA6b2ekOahLGzq4iDo6\r\nCZfSOf9o9jnSLKQ57xP6OXssnzoM4xw60rONOc/bozmbblc5tTWnOXQO9zkcPZY574FrOm88pjn6\r\ngIA55s9vOkw9Qjrguhw6U/NfOpRfujmJ8bQ5dRwBOidVIDqSpuE5KjXxOfNlhTnh8Bg6lSnbOoxV\r\nPTorDlI6zDEWOnvKjjlog6k5ZkVzOTBL5TnRZCw6bPDEOVJwBDqrAmo6fLNMOjoM8Tnxcmo5UCI/\r\nORXtJTpq+sM5XJ8TOrw0pDksK5A5Fg4NOn8JOjrQYLg5XCi1ORlPHDqtgKk5v1cHOnT4djmQV4U5\r\nPaHLObaRXznrh9Q5uB3dOcXHLTrZsKA5hD4VOqYWwDlRihc6SE4uOhJlezkWxsc5UuGVOUjoeTk2\r\nM485uSEkOYlMGTkFI4M5y4JOOY7quTkMzow5QRVAOZoAaDlhNIU5wxNtOfqvfTk4pb85MktiOa4r\r\nAjoDf285H9eDOSZ0GTo+F5I526AHOhgptTlnWYE5DCZyORjKszkAgqQ5/4qdOZZpxTk0Lm45f+J8\r\nOX+ChTneDG05pnyOOVFwrDnp2545l4juObXrSzlBd/Q5bqJlOcZ2jzmu8V05tXs8OfLHYjlC8eA5\r\n0rv5OQX29Dm2sw05xceeOTHPszkyYas5UomuORYNyTlGhbQ5gGdiOZgeazlxYqQ5APHXOfjy6zkv\r\nCqE5Ol1hOdYyqTmPkHg5XA6UOeZcBTpqxWs5nfbMOUh6lDmbJZs5CqBhOadF1jl6ZMc5hcVYOeuK\r\nxTntCu05rwlJOQVUhjmki505zv1aOVOUoTmDFAE55Q7FORpFljmifrI5k7chOkwU4jmeUDA5OsSp\r\nOToCpjk81I45hSahOfz9WDkzxVY5dT3HOVaE0TmmDIo5Fq7COT6dAjplLaE5QVOOOVqYRTl0vZA5\r\nlzGHOTyOnzkunpE5bKF5OQciHznmrZ055fdjOc1g4jkaJJ45wtulOQw0XznOYPM5RozaOdmPxTnz\r\nGAk6t2E6Oe7klzmfbDs5BWaxOb5EbDns3T05kGFpObRLCjrvrVw5cMQKOkF60Dkj3X856rigObro\r\nkTkSizE5Rs1XOV8/uzn+S0g5876TOU7gDDlGTsk4zl9uOTI0aTm6S545nuPgOZWTVzkAyZA5fLGB\r\nOeQXczml1Js5bGyzOWrOuzkyg2Q51LKVOW4ARjntdmc5mNdpOUdW3jlmWlY5VmOAOf/Wrzmq4NE5\r\n5E+xOaiFQzmcSqQ5/ZuDOe7RxzkMAZs5j8WsObTqhDl0tF055wqdOQrxlznCG5s52HigOb0ekDm0\r\n3Vk5c5m2OZtsFTm6kjo5V4SIOTUtyDkw1jo5uoUEOD8pDDdf9sA2L5SGNikdtDboME42bURtNnem\r\nmjb8EJo2HZV8NiVInjYSuYA2xBdYNiz3MjY0BIE2+A8aNnXyCDbblkI2yocdNj1YOjba1i02jkUz\r\nNko4hjaRe382+uvmNbNvaDbAVB82wF4UNgyFFzYqOVM2opcDNgtlvDcUARc4HhtmODOV6Dhavvk4\r\n//qmOPsdjjcCE4I3anpsNoOBizYXDHw4Eh7vOLThAzmf0So4AvdcN2nLPjf3Jok4/rAAOGJN3zdx\r\nu944mXIrOcrUtTj6eic49b0DOVpCujgetXw3HZHzNrde0jejA8I3VFP0N3EyqjeyY083tx5VN3dJ\r\nhjiETVY4HDVwOUQjxzgFdwo4iTnUN0ycqTiG0YY41wwJOd1Ggjm2VEo4GGcPOCQE1DfCkkk4JtME\r\nOY5HtTiifV44nwK5OENzwTiFbxg5bJ2FOXtUdjmncBM5QvvLOI7HEDlGpPE4x/qdOP1saDkiOf04\r\n/hWaOEYp7Th0sM033/xJNqWwVDb1mUk2ho0WNtsqVjbea2A2Obt4NlzW4DXSAAc2iiZtNq+dSjaQ\r\nGOw1gjwmNsgwTjaFjcY1MK0HNoXEXjZcHns2eNoMNjR5BDYZj7s1CWVONrwhiDYM0z020yh2Noio\r\nSza2Dz82DmE1NjfQVDZyFtg1BktDNiSgTTY8dS82wU6MNlf1FDbBtBo2v1DWNY69bDayQUo2VK6b\r\nNk8gITZfOhM2hpFhNrVNFDbd2wM2dsDgNcaVXDarrnw2ymxLNkj3RzbywJc2cpAVNq4INzbgFBI2\r\n9q8TNusS9DXgKfE1fmDaNdk5ITbY6BY2MFN6Nh6OBTY++ww28BhFNvJoBjYwywk2T9RcNhBwgDZW\r\nOho2eKUtNr5r6zU0kCc2cEomNlcqDDaTo0s2L6XmNReTDDZwxA42nBgkNuqXLTYIChw2WQwjNrgH\r\nMDYNITU2jfpnNrZhIjbeSSQ2UXuPNmMNSTYGZoQ2JI9WNn6ulzZGJLg2HZSdNiB7LzeExRg50YQ6\r\nORgNlThgLSM5mQceOfVqUjlWrE443qqbOXSqCjlRYlE5BVsjOZpJIzm8EIk5iupHOSfSqTlExvg4\r\nWakDOQBxSzkUSA0594TQOCj8sTg/1M05QgrKOc3iITpQOKo7RqqUOa1saDkiexQ5HqT+OKQkbzmw\r\ncdI5dV5GOrgfjDoS6RU6gl1PPEMLpTo8qLA5uOZvOcevEjl3kgM5sUBqOSTSrjmG3Go5+e/QOvxl\r\nnTzgmkY7dKYTOiTxZTr4h5k5mQEYOVZNjzmoS0U5zu5COXYE5ThsjKE5UOsxOTpj+zlirMk4AoLL\r\nOFXbITlAzGY5Z0WTOewZgjiefb44KAFTOf4lyzkyz7o4W5vwOL/nvzjnoAc5Qyi5OPmcAjqw3b04\r\n7EAKOeJTpDgXNuM4GjreOABvtjg0zZc4AOphOKILFjg2ALY41higOBlijTg01Nc48hc0OFm8gjj+\r\nWhA4FDQ3OJldkjjDDS44hA8AOHyNQTgQuC04l+NbOEAZijjvUyY4frM7OHP5BDig1MU32t0iOP6Y\r\nAziElgA4bxcDOIKqwjcozPk37zAkOG83HzitNj83WIG0N6ChljdScbs3bE9RN5qL0DeSBTU3DTFQ\r\nNyi+njc0MKk2mAf+Nk4c9DafQ+A3/FRONxIzdzfxYck2CYYNN4aLWDcHXK42YN78NgBIuTbH11g+\r\nxEq7PpcdBj+hGaw//GmqPxcoZj4TPBg+D11DPnQcrz2Yr/s9ee4RPX2hoz1FBQY9PL8FPY50sT3I\r\nK/M9zZoTPt5MEz2j3kE9IC3cPaiIZD7TbrM9LHwCPkyHfT0nM7I86VBfPI+WsTxECqU8Eaa3PTRx\r\nyTzY/ys9Cc32PGT6ET16K0A8C2GnPLr1lzyJDr47Ht8bPG9pIjyNOb07fDZLPDCaujvsFXM7uWAM\r\nPJBB7TyUekU9kO6OPWgYwzwlAgs9S/kpPZhK/jwPhjQ9gDgKPQZoET0oFLE8JOMkPZ2fyzwjw5M8\r\nzJkCPAYhpzxM0I08BVLoPLNwuTy6kwM8k2UhPGUFzzzAeoE8pH9MPOIQiDxuRS89zigUPfhOjDwi\r\n44U8VCtyPHbXGTx2Rgo8dRbjO2jmkDt6o9M7KHJzO9wKKjsemZU7KUSnOnL/NTsInJM7z416O3z9\r\nfzvW9UQ7RCdnO5RZszxE0bw6eTsIO4NRhTuKfLI7jvkPO5jiiDsyAj07NjoYO7tkCzv4PQs75yhJ\r\nO7E9nDvFOS074rP8OuizGDs/fpw6cDQHOwlR6Dpil1E7h6UgO7QGIjtF7NY6N6HyOmsOijqYOQw7\r\n96umOk4FMjvYm44723QcO/Lyzzrh8LM6mci/OhYwYjsTCQQ7t84dO2gM0DrQqwA7L28NOzeQ1zpz\r\nlS07/lsdO2rw+Doioz87TlBtO9LXJzt+1KI69o+COqkgDDtY8xs7Y+WFOvZvvzuFHhs6ud5ROoPF\r\nlDrfDMg64N+/OpIz3DoeHoQ6gdKXO61QfTrjFMM68uufOt/sqjoEi6E6nKI4Ok5udDrg0rc64V3I\r\nOpkWojoUoTk6jASOOu+QwjqYZlQ6XQKrOqvgYDr5vo46Mw6ROgWexjpJ7bM6zBKROocTmjoN39E6\r\nRWasOuqlHjvmMS46sBWSOrV7zTq9LkU6O/M0O09lkjpYryk6kZWCOs7yXjrK2So6POByOnZVXzoI\r\n1q46gPBQOsZxUjoIujU652iFOrVyTToHFgE61Mh3OtNMITp8W0A6FXguOquOcTpDeF06c80ZOnKb\r\nbzrxzNE63piTOlYdZzrjg0k6azGdO9/kOjo2uNU6VwcQOvNtbDoKY646ywarOphYzDlan3E6aIbC\r\nOnMoNDoIuZU8gvPiO5bplzrCHFU6zj+aOs2QWDqSOUU7nA6eOs/iBTp82Vk6rHG1Oazy0jqEPK06\r\nXP5NOnwwcDpMyBI6kIphOon7pTtLBYU6N5ulOizwFzpEftI5risYOh3dOjq2IUQ6eLQgOoogDDqF\r\nNEM6kaKaO30iNDoMVgs6t0qCOi3U6zrh+0M8faF4PMe2xDrKLFo67JNCOpzVbjpwZtw7MXcwO/32\r\nMzqAdSY6iYOqOWqS1DlRM0I6UspZOk9eRDqixfU5+luhOs3xeToBWio6mBkvOuZiATo6dPo5dDG6\r\nObCKvTn8W8A5tQbnOXwb/jnQAPk5/Je4OZq+Yzpu6tw5pscVOtJbJDr0Syk6yTjxOQL4rDlhZ/Y5\r\na26aOS0gNDotrow5jD6gOVQpoTlBGR46bAa3OaU4kjlQZew5DcUFOi31STpEzc05kFHlOemiqzlY\r\nyh06TobaORx40DnztIk55iSaOTl9KDqxB0A6egT7OR5uFzrGOQ46NlM1OlnKVzkpKN852LbBOT8S\r\n7zk05OI5iEC8OejMMTqAeOw5SDsQOkiR4zn4riU6d1nOOfepjznOnhg6xAzeOWuloDlCcp45Pf+D\r\nOeB27TlqKl05G93DOXnfnjlz6p85RsZDOqOeozkmfwY60f+4OSJOAzpCL7E592UXOv2bLzrRFso5\r\nMrTdOb4bHjr04co5aPokOqzu2TkcGOA5+IItOjV5ETqzm1Y6JV7VOVQkAjoh5dU5fhE5OmK7qTlK\r\nGOk5QqHOOVhd8TmlC/A5eEvjOXgOaTqWKPU5+SDHOcV5zTm5gPw5TstFOt5PLzo4y+w5x0msOXtm\r\nwjmSNIk6gXgVOitg3Dlv5LU5E5L1Oc9hnDk/+o45YFrhOXTPODk3K4c5Ez+KOl9+pzmdAME5C4Hf\r\nOcVepTm1viU6MB0sOuh7rzm+aI46YRJHOuuMVDovZhU6PL+1OUx5oznGifI5pgyLOcAztTly5Jk5\r\nr6/nORAO6zkgUQI6GNOkOZYLmzldkE06l8fROYbMFDqtZpQ5b7YKOhwT3DlkE5g5DcqaOXoiDDon\r\n8o053WWlOT7UMDrpDrY5xI1vOUPr4jkL/Hg5JYKXOuSiOjomegw6nFOBOeAAlDna7mI6C4BvOqMB\r\nhDlPaEI6RDSxOfwh7jmYdGk5gZQFOh7HeTncjSM6yITPOeQ4KjrTelM6E9DAOQybHjkevjI67Q+y\r\nOYPjLzo8ras6mgwTOrs/EjoLFPU53+YEOvE8ijrC91A6zjYVOmP5EDpvZ6Q5qEsbOriIOjoJl9I5\r\n/2j2OdIspDnvE/o5eyyfOgzjHDrSs405z9ujOZtuVzm1Nac5dA73ORw9ljnvgWs6bzymOfqAgDnm\r\nz286TD1COuC6HDpT8186lF+6OYnxtDl1HAE6J1UgOpKm4TkqNfE582WFOeHwGDqVKds6jFU9OisO\r\nUjrMMRY6e8qOOWiDqTlmRXM5MEvlOdFkLDps8MQ5UnAEOqsCajp8s0w6OgzxOfFyajlQIj85Fe0l\r\nOmr6wzlcnxM6vDSkOSwrkDkWDg06fwk6OtBguDlcKLU5GU8cOq2AqTm/Vwc6dPh2OZBXhTk9ocs5\r\ntpFfOeuH1Dm4Hd05xcctOtmwoDmEPhU6phbAOVGKFzpITi46EmV7ORbGxzlS4ZU5SOh5OTYzjzm5\r\nISQ5iUwZOQUjgznLgk45juq5OQzOjDlBFUA5mgBoOWE0hTnDE205+q99OTilvzkyS2I5risCOgN/\r\nbzkf14M5JnQZOj4XkjnboAc6GCm1OWdZgTkMJnI5GMqzOQCCpDn/ip05lmnFOTQubjl/4nw5f4KF\r\nOd4MbTmmfI45UXCsOenbnjmXiO45tetLOUF39DluomU5xnaPOa7xXTm1ezw58sdiOULx4DnSu/k5\r\nBfb0ObazDTnFx545Mc+zOTJhqzlSia45Fg3JOUaFtDmAZ2I5mB5rOXFipDkA8dc5+PLrOS8KoTk6\r\nXWE51jKpOY+QeDlcDpQ55lwFOmrFazmd9sw5SHqUOZslmzkKoGE5p0XWOXpkxzmFxVg564rFOe0K\r\n7TmvCUk5BVSGOaSLnTnO/Vo5U5ShOYMUATnlDsU5GkWWOaJ+sjmTtyE6TBTiOZ5QMDk6xKk5OgKm\r\nOTzUjjmFJqE5/P1YOTPFVjl1Pcc5VoTROaYMijkWrsI5Pp0COmUtoTlBU445WphFOXS9kDmXMYc5\r\nPI6fOS6ekTlsoXk5ByIfOeatnTnl92M5zWDiORoknjnC26U5DDRfOc5g8zlGjNo52Y/FOfMYCTq3\r\nYTo57uSXOZ9sOzkFZrE5vkRsOezdPTmQYWk5tEsKOu+tXDlwxAo6QXrQOSPdfznquKA5uuiRORKL\r\nMTlGzVc5Xz+7Of5LSDnzvpM5TuAMOUZOyTjOX245MjRpObpLnjme4+A5lZNXOQDJkDl8sYE55Bdz\r\nOaXUmzlsbLM5as67OTKDZDnUspU5bgBGOe12ZzmY12k5R1beOWZaVjlWY4A5/9avOarg0TnkT7E5\r\nqIVDOZxKpDn9m4M57tHHOQwBmzmPxaw5tOqEOXS0XTnnCp05CvGXOcIbmznYeKA5vR6QObTdWTlz\r\nmbY5m2wVObqSOjlXhIg5NS3IOTDWOjm6hQQ4PykMN1/2wDYvlIY2KR20NugwTjZtRG02d6aaNvwQ\r\nmjYdlXw2JUieNhK5gDbEF1g2LPcyNjQEgTb4Dxo2dfIINtuWQjbKhx02PVg6NtrWLTaORTM2SjiG\r\nNpF7fzb66+Y1s29oNsBUHzbAXhQ2DIUXNio5UzailwM2C2W8NxQBFzgeG2Y4M5XoOFq++Tj/+qY4\r\n+x2ONwITgjdqemw2g4GLNhcMfDgSHu84tOEDOZ/RKjgC91w3acs+N/cmiTj+sAA4Yk3fN3G73jiZ\r\ncis5ytS1OPp6Jzj1vQM5WkK6OB61fDcdkfM2t17SN6MDwjdUU/Q3cTKqN7JjTze3HlU3d0mGOIRN\r\nVjgcNXA5RCPHOAV3CjiJOdQ3TJypOIbRhjjXDAk53UaCObZUSjgYZw84JATUN8KSSTgm0wQ5jke1\r\nOKJ9XjifArk4Q3PBOIVvGDlsnYU5e1R2OadwEzlC+8s4jscQOUak8TjH+p04/WxoOSI5/Tj+FZo4\r\nRintOHSwzTff/Ek2pbBUNvWZSTaGjRY22ypWNt5rYDY5u3g2XNbgNdIABzaKJm02r51KNpAY7DWC\r\nPCY2yDBONoWNxjUwrQc2hcReNlweezZ42gw2NHkENhmPuzUJZU42vCGINgzTPTbTKHY2iKhLNrYP\r\nPzYOYTU2N9BUNnIW2DUGS0M2JKBNNjx1LzbBTow2V/UUNsG0Gja/UNY1jr1sNrJBSjZUrps2TyAh\r\nNl86EzaGkWE2tU0UNt3bAzZ2wOA1xpVcNquufDbKbEs2SPdHNvLAlzZykBU2rgg3NuAUEjb2rxM2\r\n6xL0NeAp8TV+YNo12TkhNtjoFjYwU3o2Ho4FNj77DDbwGEU28mgGNjDLCTZP1Fw2EHCANlY6GjZ4\r\npS02vmvrNTSQJzZwSiY2VyoMNpOjSzYvpeY1F5MMNnDEDjacGCQ26pctNggKHDZZDCM2uAcwNg0h\r\nNTaN+mc2tmEiNt5JJDZRe482Yw1JNgZmhDYkj1Y2fq6XNkYkuDYdlJ02IHsvN4TFGDnRhDo5GA2V\r\nOGAtIzmZBx459WpSOVasTjjeqps5dKoKOVFiUTkFWyM5mkkjObwQiTmK6kc5J9KpOUTG+DhZqQM5\r\nAHFLORRIDTn3hNA4KPyxOD/UzTlCCso5zeIhOlA4qjtGqpQ5rWxoOSJ7FDkepP44pCRvObBx0jl1\r\nXkY6uB+MOhLpFTqCXU88QwulOjyosDm45m85x68SOXeSAzmxQGo5JNKuOYbcajn579A6/GWdPOCa\r\nRjt0phM6JPFlOviHmTmZARg5Vk2POahLRTnO7kI5dgTlOGyMoTlQ6zE5OmP7OWKsyTgCgss4Vdsh\r\nOUDMZjlnRZM57BmCOJ59vjgoAVM5/iXLOTLPujhbm/A4v+e/OOegBzlDKLk4+ZwCOrDdvTjsQAo5\r\n4lOkOBc24zgaOt44AG+2ODTNlzgA6mE4ogsWODYAtjjWGKA4GWKNODTU1zjyFzQ4WbyCOP5aEDgU\r\nNDc4mV2SOMMNLjiEDwA4fI1BOBC4LTiX41s4QBmKOO9TJjh+szs4c/kEOKDUxTfa3SI4/pgDOISW\r\nADhvFwM4gqrCNyjM+TfvMCQ4bzcfOK02PzdYgbQ3oKGWN1JxuzdsT1E3movQN5IFNTcNMVA3KL6e\r\nNzQwqTaYB/42Thz0Np9D4Df8VE43EjN3N/FhyTYJhg03hotYNwdcrjZg3vw2AEi5Ng==",
                            "noiseTrainingType" : "default"
                          },
                          "metadata" : {
                            "default-NoiseReduction_denoiserAmount" : 20.0,
                            "default-NoiseReduction_denoiserThreshold" : 0.0,
                            "presetName" : "Noise Removal"
                          }
                        }
                    ],
                    "start" : 2612,
                    "duration" : 853,
                    "mediaStart" : 4103,
                    "mediaDuration" : 853,
                    "scalar" : 1,
                    "metadata" : {
                      "clipSpeedAttribute" : false,
                      "default-height" : 0.0,
                      "default-width" : 0.0
                    },
                    "animationTracks" : {

                    }
                  }
                ]
              },
              {
                "trackIndex" : 1,
                "medias" : [
                  {
                    "id" : 16,
                    "_type" : "Callout",
                    "def" : {
                      "kind" : "remix",
                      "shape" : "shape-rectangle",
                      "style" : "basic",
                      "fill-color-blue" : 0.0,
                      "fill-color-green" : 0.870588235294118,
                      "fill-color-opacity" : 1.0,
                      "fill-color-red" : 1.0,
                      "height" : 62.4561403507787,
                      "stroke-color-blue" : 1.0,
                      "stroke-color-green" : 1.0,
                      "stroke-color-opacity" : 1.0,
                      "stroke-color-red" : 1.0,
                      "stroke-width" : 0.0,
                      "width" : 420.701754385888,
                      "fill-style" : "solid",
                      "stroke-style" : "solid"
                    },
                    "attributes" : {
                      "autoRotateText" : true
                    },
                    "parameters" : {
                      "translation0" : -630.964912281016,
                      "translation1" : 48.5087719297934,
                      "sourceCrop0" : 0.0,
                      "sourceCrop1" : 0.0,
                      "sourceCrop2" : 0.0,
                      "sourceCrop3" : 0.0,
                      "geometryCrop0" : 0.0,
                      "geometryCrop1" : 0.0,
                      "geometryCrop2" : 0.0,
                      "geometryCrop3" : 0.0
                    },
                    "effects" : [

                    ],
                    "start" : 20,
                    "duration" : 193,
                    "mediaStart" : -22,
                    "mediaDuration" : 193,
                    "scalar" : 1,
                    "metadata" : {
                      "clipSpeedAttribute" : false,
                      "default-fill-color-blue" : 0.0,
                      "default-fill-color-green" : 0.0,
                      "default-fill-color-red" : 0.0,
                      "default-height" : 180.0,
                      "default-translation0" : 0.0,
                      "default-translation1" : 0.0,
                      "default-width" : 240.0
                    },
                    "animationTracks" : {

                    }
                  },
                  {
                    "id" : 17,
                    "_type" : "IMFile",
                    "src" : 2,
                    "trackNumber" : 0,
                    "trimStartSum" : 0,
                    "attributes" : {
                      "ident" : "mail-icon"
                    },
                    "parameters" : {
                      "translation0" : {
                        "type" : "double",
                        "defaultValue" : -608.210526315692,
                        "interp" : "eioe"
                      },
                      "translation1" : {
                        "type" : "double",
                        "defaultValue" : 227.192982456257,
                        "interp" : "eioe"
                      },
                      "sourceCrop0" : {
                        "type" : "double",
                        "defaultValue" : 0.0,
                        "interp" : "eioe"
                      },
                      "sourceCrop1" : {
                        "type" : "double",
                        "defaultValue" : 0.0,
                        "interp" : "eioe"
                      },
                      "sourceCrop2" : {
                        "type" : "double",
                        "defaultValue" : 0.0,
                        "interp" : "eioe"
                      },
                      "sourceCrop3" : {
                        "type" : "double",
                        "defaultValue" : 0.0,
                        "interp" : "eioe"
                      },
                      "geometryCrop0" : {
                        "type" : "double",
                        "defaultValue" : 0.0,
                        "interp" : "eioe"
                      },
                      "geometryCrop1" : {
                        "type" : "double",
                        "defaultValue" : 0.0,
                        "interp" : "eioe"
                      },
                      "geometryCrop2" : {
                        "type" : "double",
                        "defaultValue" : 0.0,
                        "interp" : "eioe"
                      },
                      "geometryCrop3" : {
                        "type" : "double",
                        "defaultValue" : 0.0,
                        "interp" : "eioe"
                      }
                    },
                    "effects" : [
                        {
                          "_type" : "GenericBehaviorEffect",
                          "effectName" : "popUp",
                          "bypassed" : false,
                          "start" : 0,
                          "duration" : 441                        ,
                          "in" : {
                            "attributes" : {
                              "name" : "grow",
                              "type" : 0,
                              "characterOrder" : 6,
                              "offsetBetweenCharacters" : 1,
                              "suggestedDurationPerCharacter" : 18,
                              "overlapProportion" : "3/4",
                              "movement" : 30,
                              "springDamping" : 5.0,
                              "springStiffness" : 50.0,
                              "bounceBounciness" : 0.45
                            }
                          
                          },
                          "center" : {
                            "attributes" : {
                              "name" : "none",
                              "type" : 0,
                              "characterOrder" : 6,
                              "offsetBetweenCharacters" : 0,
                              "secondsPerLoop" : 1,
                              "numberOfLoops" : -1,
                              "delayBetweenLoops" : 0,
                              "offsetBetweenCharacters" : 0
                            }
                          
                          },
                          "out" : {
                            "attributes" : {
                              "name" : "none",
                              "type" : 0,
                              "characterOrder" : 6,
                              "offsetBetweenCharacters" : 0,
                              "suggestedDurationPerCharacter" : 0,
                              "overlapProportion" : 0,
                              "movement" : -1,
                              "springDamping" : 5.0,
                              "springStiffness" : 50.0,
                              "bounceBounciness" : 0.45
                            }
                          
                          },
                          "metadata" : {
                            "default-behavior-center-style" : "popUp",
                            "default-behavior-in-style" : "hinge",
                            "default-behavior-out-style" : "hinge",
                            "presetName" : "Pop Up"
                          }
                        }
                    ],
                    "start" : 259,
                    "duration" : 441,
                    "mediaStart" : 0,
                    "mediaDuration" : 1,
                    "scalar" : 1,
                    "metadata" : {
                      "clipSpeedAttribute" : false,
                      "default-height" : 512.0,
                      "default-translation0" : 0.0,
                      "default-translation1" : 0.0,
                      "default-width" : 512.0
                    },
                    "animationTracks" : {

                    }
                  }
                ],
                "transitions" : [
                  {
                    "name" : "SlideRight",
                    "duration" : 30,
                    "trivial" : false,
                    "reverse" : false,
                    "bypass" : false,
                    "useAudioPreRoll" : true,
                    "useVisualPreRoll" : true,
                    "rightMedia" : 16
                  }
                ]
              },
              {
                "trackIndex" : 2,
                "medias" : [
                  {
                    "id" : 18,
                    "_type" : "Callout",
                    "def" : {
                      "kind" : "remix",
                      "shape" : "shape-rectangle",
                      "style" : "basic",
                      "fill-color-blue" : {
                        "type" : "double",
                        "defaultValue" : 0.0,
                        "interp" : "linr"
                      },
                      "fill-color-green" : {
                        "type" : "double",
                        "defaultValue" : 0.870588235294118,
                        "interp" : "linr"
                      },
                      "fill-color-opacity" : {
                        "type" : "double",
                        "defaultValue" : 1.0,
                        "interp" : "linr"
                      },
                      "fill-color-red" : {
                        "type" : "double",
                        "defaultValue" : 1.0,
                        "interp" : "linr"
                      },
                      "height" : {
                        "type" : "double",
                        "defaultValue" : 48.4210526313798,
                        "interp" : "linr"
                      },
                      "stroke-color-blue" : {
                        "type" : "double",
                        "defaultValue" : 1.0,
                        "interp" : "linr"
                      },
                      "stroke-color-green" : {
                        "type" : "double",
                        "defaultValue" : 1.0,
                        "interp" : "linr"
                      },
                      "stroke-color-opacity" : {
                        "type" : "double",
                        "defaultValue" : 1.0,
                        "interp" : "linr"
                      },
                      "stroke-color-red" : {
                        "type" : "double",
                        "defaultValue" : 1.0,
                        "interp" : "linr"
                      },
                      "stroke-width" : {
                        "type" : "double",
                        "defaultValue" : 0.0,
                        "interp" : "linr"
                      },
                      "width" : {
                        "type" : "double",
                        "defaultValue" : 397.894736842019,
                        "interp" : "linr"
                      },
                      "fill-style" : "solid",
                      "stroke-style" : "solid"
                    },
                    "attributes" : {
                      "autoRotateText" : true
                    },
                    "parameters" : {
                      "translation0" : {
                        "type" : "double",
                        "defaultValue" : -513.473684210804,
                        "interp" : "eioe"
                      },
                      "translation1" : {
                        "type" : "double",
                        "defaultValue" : 25.7894745544257,
                        "interp" : "eioe"
                      },
                      "sourceCrop0" : {
                        "type" : "double",
                        "defaultValue" : 0.0,
                        "interp" : "eioe"
                      },
                      "sourceCrop1" : {
                        "type" : "double",
                        "defaultValue" : 0.0,
                        "interp" : "eioe"
                      },
                      "sourceCrop2" : {
                        "type" : "double",
                        "defaultValue" : 0.0,
                        "interp" : "eioe"
                      },
                      "sourceCrop3" : {
                        "type" : "double",
                        "defaultValue" : 0.0,
                        "interp" : "eioe"
                      },
                      "geometryCrop0" : {
                        "type" : "double",
                        "defaultValue" : 0.0,
                        "interp" : "eioe"
                      },
                      "geometryCrop1" : {
                        "type" : "double",
                        "defaultValue" : 0.0,
                        "interp" : "eioe"
                      },
                      "geometryCrop2" : {
                        "type" : "double",
                        "defaultValue" : 0.0,
                        "interp" : "eioe"
                      },
                      "geometryCrop3" : {
                        "type" : "double",
                        "defaultValue" : 0.0,
                        "interp" : "eioe"
                      }
                    },
                    "effects" : [

                    ],
                    "start" : 276,
                    "duration" : 424,
                    "mediaStart" : -37,
                    "mediaDuration" : 424,
                    "scalar" : 1,
                    "metadata" : {
                      "clipSpeedAttribute" : false,
                      "default-fill-color-blue" : 0.0,
                      "default-fill-color-green" : 0.0,
                      "default-fill-color-red" : 0.0,
                      "default-height" : 180.0,
                      "default-translation0" : 0.0,
                      "default-translation1" : 0.0,
                      "default-width" : 240.0
                    },
                    "animationTracks" : {

                    }
                  },
                  {
                    "id" : 19,
                    "_type" : "StitchedMedia",
                    "minMediaStart" : 0,
                    "attributes" : {
                      "ident" : "Rec 04-11-21_002",
                      "gain" : 1.0,
                      "mixToMono" : false
                    },
                    "parameters" : {
                      "translation0" : {
                        "type" : "double",
                        "defaultValue" : 465.000000000107,
                        "keyframes" : [
                          {
                            "endTime" : 497,
                            "time" : 477,
                            "value" : -2.8421709430404e-13,
                            "duration" : 20
                          }
                        ]
                      },
                      "translation1" : 6.9238836886143e-11,
                      "scale0" : {
                        "type" : "double",
                        "defaultValue" : 0.748190787382365,
                        "keyframes" : [
                          {
                            "endTime" : 497,
                            "time" : 477,
                            "value" : 1.0,
                            "duration" : 20
                          }
                        ]
                      },
                      "scale1" : {
                        "type" : "double",
                        "defaultValue" : 0.748190787382366,
                        "keyframes" : [
                          {
                            "endTime" : 497,
                            "time" : 477,
                            "value" : 1.0,
                            "duration" : 20
                          }
                        ]
                      },
                      "sourceCrop0" : 0.0,
                      "sourceCrop1" : 0.0,
                      "sourceCrop2" : 0.0,
                      "sourceCrop3" : 0.0,
                      "geometryCrop0" : 0.0,
                      "geometryCrop1" : 0.0,
                      "geometryCrop2" : 0.0,
                      "geometryCrop3" : 0.0,
                      "volume" : 1.0,
                      "cursorOpacity" : 1.0,
                      "cursorScale" : 1.0
                    },
                    "medias" : [
                        {
                          "id" : 20,
                          "_type" : "UnifiedMedia",
                          "video" : 
                              {
                                "id" : 21,
                                "_type" : "ScreenVMFile",
                                "src" : 3,
                                "trackNumber" : 0,
                                "attributes" : {
                                  "ident" : "Rec 04-11-21_002"
                                },
                                "parameters" : {
                                  "sourceCrop0" : {
                                    "type" : "double",
                                    "defaultValue" : 0.0,
                                    "interp" : "eioe"
                                  },
                                  "sourceCrop1" : {
                                    "type" : "double",
                                    "defaultValue" : 0.0,
                                    "interp" : "eioe"
                                  },
                                  "sourceCrop2" : {
                                    "type" : "double",
                                    "defaultValue" : 0.0,
                                    "interp" : "eioe"
                                  },
                                  "sourceCrop3" : {
                                    "type" : "double",
                                    "defaultValue" : 0.0,
                                    "interp" : "eioe"
                                  },
                                  "geometryCrop0" : {
                                    "type" : "double",
                                    "defaultValue" : 0.0,
                                    "interp" : "eioe"
                                  },
                                  "geometryCrop1" : {
                                    "type" : "double",
                                    "defaultValue" : 0.0,
                                    "interp" : "eioe"
                                  },
                                  "geometryCrop2" : {
                                    "type" : "double",
                                    "defaultValue" : 0.0,
                                    "interp" : "eioe"
                                  },
                                  "geometryCrop3" : {
                                    "type" : "double",
                                    "defaultValue" : 0.0,
                                    "interp" : "eioe"
                                  },
                                  "cursorScale" : {
                                    "type" : "double",
                                    "defaultValue" : 0.0,
                                    "interp" : "linr"
                                  },
                                  "cursorOpacity" : {
                                    "type" : "double",
                                    "defaultValue" : 0.0,
                                    "interp" : "linr"
                                  }
                                },
                                "effects" : [

                                ],
                                "start" : 0,
                                "duration" : 126,
                                "mediaStart" : 0,
                                "mediaDuration" : 126,
                                "scalar" : 1,
                                "animationTracks" : {

                                }
                              },
                          "audio" : 
                              {
                                "id" : 22,
                                "_type" : "AMFile",
                                "src" : 3,
                                "trackNumber" : 2,
                                "attributes" : {
                                  "ident" : "",
                                  "gain" : 1.0,
                                  "mixToMono" : false
                                },
                                  "channelNumber" : "0,1",
                                "effects" : [

                                ],
                                "start" : 0,
                                "duration" : 126,
                                "mediaStart" : 0,
                                "mediaDuration" : 126,
                                "scalar" : 1,
                                "animationTracks" : {

                                }
                              }
,
                          "start" : 0,
                          "duration" : 126,
                          "mediaStart" : 0,
                          "mediaDuration" : 9697,
                          "scalar" : 1,
                          "metadata" : {
                            "AutoAppliedSmartFocus" : "False",
                            "clipSpeedAttribute" : false,
                            "default-height" : 1080.0,
                            "default-scale0" : 1.0,
                            "default-scale1" : 1.0,
                            "default-translation0" : 0.0,
                            "default-translation1" : 0.0,
                            "default-width" : 1920.0
                          }
                        },
                        {
                          "id" : 23,
                          "_type" : "ScreenIMFile",
                          "src" : 3,
                          "trackNumber" : 0,
                          "trimStartSum" : 0,
                          "attributes" : {
                            "ident" : "Rec 04-11-21_002"
                          },
                          "parameters" : {
                            "sourceCrop0" : {
                              "type" : "double",
                              "defaultValue" : 0.0,
                              "interp" : "eioe"
                            },
                            "sourceCrop1" : {
                              "type" : "double",
                              "defaultValue" : 0.0,
                              "interp" : "eioe"
                            },
                            "sourceCrop2" : {
                              "type" : "double",
                              "defaultValue" : 0.0,
                              "interp" : "eioe"
                            },
                            "sourceCrop3" : {
                              "type" : "double",
                              "defaultValue" : 0.0,
                              "interp" : "eioe"
                            },
                            "geometryCrop0" : {
                              "type" : "double",
                              "defaultValue" : 0.0,
                              "interp" : "eioe"
                            },
                            "geometryCrop1" : {
                              "type" : "double",
                              "defaultValue" : 0.0,
                              "interp" : "eioe"
                            },
                            "geometryCrop2" : {
                              "type" : "double",
                              "defaultValue" : 0.0,
                              "interp" : "eioe"
                            },
                            "geometryCrop3" : {
                              "type" : "double",
                              "defaultValue" : 0.0,
                              "interp" : "eioe"
                            },
                            "cursorOpacity" : {
                              "type" : "double",
                              "defaultValue" : 0.0,
                              "interp" : "linr"
                            },
                            "cursorScale" : {
                              "type" : "double",
                              "defaultValue" : 0.0,
                              "interp" : "linr"
                            }
                          },
                          "effects" : [

                          ],
                          "start" : 126,
                          "duration" : 480,
                          "mediaStart" : 125,
                          "mediaDuration" : 1,
                          "scalar" : 1,
                          "metadata" : {
                            "AutoAppliedSmartFocus" : "False"
                          },
                          "animationTracks" : {

                          }
                        },
                        {
                          "id" : 24,
                          "_type" : "UnifiedMedia",
                          "video" : 
                              {
                                "id" : 25,
                                "_type" : "ScreenVMFile",
                                "src" : 3,
                                "trackNumber" : 0,
                                "attributes" : {
                                  "ident" : "Rec 04-11-21_002"
                                },
                                "parameters" : {
                                  "sourceCrop0" : {
                                    "type" : "double",
                                    "defaultValue" : 0.0,
                                    "interp" : "eioe"
                                  },
                                  "sourceCrop1" : {
                                    "type" : "double",
                                    "defaultValue" : 0.0,
                                    "interp" : "eioe"
                                  },
                                  "sourceCrop2" : {
                                    "type" : "double",
                                    "defaultValue" : 0.0,
                                    "interp" : "eioe"
                                  },
                                  "sourceCrop3" : {
                                    "type" : "double",
                                    "defaultValue" : 0.0,
                                    "interp" : "eioe"
                                  },
                                  "geometryCrop0" : {
                                    "type" : "double",
                                    "defaultValue" : 0.0,
                                    "interp" : "eioe"
                                  },
                                  "geometryCrop1" : {
                                    "type" : "double",
                                    "defaultValue" : 0.0,
                                    "interp" : "eioe"
                                  },
                                  "geometryCrop2" : {
                                    "type" : "double",
                                    "defaultValue" : 0.0,
                                    "interp" : "eioe"
                                  },
                                  "geometryCrop3" : {
                                    "type" : "double",
                                    "defaultValue" : 0.0,
                                    "interp" : "eioe"
                                  },
                                  "cursorScale" : {
                                    "type" : "double",
                                    "defaultValue" : 0.0,
                                    "interp" : "linr"
                                  },
                                  "cursorOpacity" : {
                                    "type" : "double",
                                    "defaultValue" : 0.0,
                                    "interp" : "linr"
                                  }
                                },
                                "effects" : [

                                ],
                                "start" : 606,
                                "duration" : 37,
                                "mediaStart" : 126,
                                "mediaDuration" : 37,
                                "scalar" : 1,
                                "animationTracks" : {

                                }
                              },
                          "audio" : 
                              {
                                "id" : 26,
                                "_type" : "AMFile",
                                "src" : 3,
                                "trackNumber" : 2,
                                "attributes" : {
                                  "ident" : "",
                                  "gain" : 1.0,
                                  "mixToMono" : false
                                },
                                  "channelNumber" : "0,1",
                                "effects" : [

                                ],
                                "start" : 606,
                                "duration" : 37,
                                "mediaStart" : 126,
                                "mediaDuration" : 37,
                                "scalar" : 1,
                                "animationTracks" : {

                                }
                              }
,
                          "start" : 606,
                          "duration" : 37,
                          "mediaStart" : 0,
                          "mediaDuration" : 9697,
                          "scalar" : 1,
                          "metadata" : {
                            "AutoAppliedSmartFocus" : "False",
                            "clipSpeedAttribute" : false,
                            "default-height" : 1080.0,
                            "default-scale0" : 1.0,
                            "default-scale1" : 1.0,
                            "default-translation0" : 0.0,
                            "default-translation1" : 0.0,
                            "default-width" : 1920.0
                          }
                        },
                        {
                          "id" : 27,
                          "_type" : "ScreenIMFile",
                          "src" : 3,
                          "trackNumber" : 0,
                          "trimStartSum" : 0,
                          "attributes" : {
                            "ident" : "Rec 04-11-21_002"
                          },
                          "parameters" : {
                            "sourceCrop0" : {
                              "type" : "double",
                              "defaultValue" : 0.0,
                              "interp" : "eioe"
                            },
                            "sourceCrop1" : {
                              "type" : "double",
                              "defaultValue" : 0.0,
                              "interp" : "eioe"
                            },
                            "sourceCrop2" : {
                              "type" : "double",
                              "defaultValue" : 0.0,
                              "interp" : "eioe"
                            },
                            "sourceCrop3" : {
                              "type" : "double",
                              "defaultValue" : 0.0,
                              "interp" : "eioe"
                            },
                            "geometryCrop0" : {
                              "type" : "double",
                              "defaultValue" : 0.0,
                              "interp" : "eioe"
                            },
                            "geometryCrop1" : {
                              "type" : "double",
                              "defaultValue" : 0.0,
                              "interp" : "eioe"
                            },
                            "geometryCrop2" : {
                              "type" : "double",
                              "defaultValue" : 0.0,
                              "interp" : "eioe"
                            },
                            "geometryCrop3" : {
                              "type" : "double",
                              "defaultValue" : 0.0,
                              "interp" : "eioe"
                            },
                            "cursorOpacity" : {
                              "type" : "double",
                              "defaultValue" : 0.0,
                              "interp" : "linr"
                            },
                            "cursorScale" : {
                              "type" : "double",
                              "defaultValue" : 0.0,
                              "interp" : "linr"
                            }
                          },
                          "effects" : [

                          ],
                          "start" : 643,
                          "duration" : 60,
                          "mediaStart" : 163,
                          "mediaDuration" : 1,
                          "scalar" : 1,
                          "metadata" : {
                            "AutoAppliedSmartFocus" : "False"
                          },
                          "animationTracks" : {

                          }
                        },
                        {
                          "id" : 28,
                          "_type" : "UnifiedMedia",
                          "video" : 
                              {
                                "id" : 29,
                                "_type" : "ScreenVMFile",
                                "src" : 3,
                                "trackNumber" : 0,
                                "attributes" : {
                                  "ident" : "Rec 04-11-21_002"
                                },
                                "parameters" : {
                                  "sourceCrop0" : {
                                    "type" : "double",
                                    "defaultValue" : 0.0,
                                    "interp" : "eioe"
                                  },
                                  "sourceCrop1" : {
                                    "type" : "double",
                                    "defaultValue" : 0.0,
                                    "interp" : "eioe"
                                  },
                                  "sourceCrop2" : {
                                    "type" : "double",
                                    "defaultValue" : 0.0,
                                    "interp" : "eioe"
                                  },
                                  "sourceCrop3" : {
                                    "type" : "double",
                                    "defaultValue" : 0.0,
                                    "interp" : "eioe"
                                  },
                                  "geometryCrop0" : {
                                    "type" : "double",
                                    "defaultValue" : 0.0,
                                    "interp" : "eioe"
                                  },
                                  "geometryCrop1" : {
                                    "type" : "double",
                                    "defaultValue" : 0.0,
                                    "interp" : "eioe"
                                  },
                                  "geometryCrop2" : {
                                    "type" : "double",
                                    "defaultValue" : 0.0,
                                    "interp" : "eioe"
                                  },
                                  "geometryCrop3" : {
                                    "type" : "double",
                                    "defaultValue" : 0.0,
                                    "interp" : "eioe"
                                  },
                                  "cursorScale" : {
                                    "type" : "double",
                                    "defaultValue" : 0.0,
                                    "interp" : "linr"
                                  },
                                  "cursorOpacity" : {
                                    "type" : "double",
                                    "defaultValue" : 0.0,
                                    "interp" : "linr"
                                  }
                                },
                                "effects" : [

                                ],
                                "start" : 703,
                                "duration" : 9534,
                                "mediaStart" : 163,
                                "mediaDuration" : 9534,
                                "scalar" : 1,
                                "animationTracks" : {

                                }
                              },
                          "audio" : 
                              {
                                "id" : 30,
                                "_type" : "AMFile",
                                "src" : 3,
                                "trackNumber" : 2,
                                "attributes" : {
                                  "ident" : "",
                                  "gain" : 1.0,
                                  "mixToMono" : false
                                },
                                  "channelNumber" : "0,1",
                                "effects" : [

                                ],
                                "start" : 703,
                                "duration" : 9534,
                                "mediaStart" : 163,
                                "mediaDuration" : 9534,
                                "scalar" : 1,
                                "animationTracks" : {

                                }
                              }
,
                          "start" : 703,
                          "duration" : 9534,
                          "mediaStart" : 0,
                          "mediaDuration" : 9697,
                          "scalar" : 1,
                          "metadata" : {
                            "AutoAppliedSmartFocus" : "False",
                            "clipSpeedAttribute" : false,
                            "default-height" : 1080.0,
                            "default-scale0" : 1.0,
                            "default-scale1" : 1.0,
                            "default-translation0" : 0.0,
                            "default-translation1" : 0.0,
                            "default-width" : 1920.0
                          }
                        }
                    ],
                    "effects" : [

                    ],
                    "start" : 700,
                    "duration" : 455,
                    "mediaStart" : 80,
                    "mediaDuration" : 455,
                    "scalar" : 1,
                    "metadata" : {
                      "AutoAppliedSmartFocus" : "False",
                      "clipSpeedAttribute" : false
                    },
                    "animationTracks" : {
                      "visual" : [
                        {
                          "endTime" : 497,
                          "duration" : 20,
                          "range" : [ 477, 20]
                        }
                      ]
                    }
                  },
                  {
                    "id" : 31,
                    "_type" : "StitchedMedia",
                    "minMediaStart" : 0,
                    "attributes" : {
                      "ident" : "Rec 04-11-21_002",
                      "gain" : 1.0,
                      "mixToMono" : false
                    },
                    "parameters" : {
                      "translation0" : {
                        "type" : "double",
                        "defaultValue" : 465.000000000107,
                        "keyframes" : [
                          {
                            "endTime" : 497,
                            "time" : 477,
                            "value" : -2.8421709430404e-13,
                            "duration" : 20
                          }
                        ]
                      },
                      "translation1" : 6.9238836886143e-11,
                      "scale0" : {
                        "type" : "double",
                        "defaultValue" : 0.748190787382365,
                        "keyframes" : [
                          {
                            "endTime" : 497,
                            "time" : 477,
                            "value" : 1.0,
                            "duration" : 20
                          }
                        ]
                      },
                      "scale1" : {
                        "type" : "double",
                        "defaultValue" : 0.748190787382366,
                        "keyframes" : [
                          {
                            "endTime" : 497,
                            "time" : 477,
                            "value" : 1.0,
                            "duration" : 20
                          }
                        ]
                      },
                      "sourceCrop0" : 0.0,
                      "sourceCrop1" : 0.0,
                      "sourceCrop2" : 0.0,
                      "sourceCrop3" : 0.0,
                      "geometryCrop0" : 0.0,
                      "geometryCrop1" : 0.0,
                      "geometryCrop2" : 0.0,
                      "geometryCrop3" : 0.0,
                      "volume" : 1.0,
                      "cursorOpacity" : 1.0,
                      "cursorScale" : 1.0
                    },
                    "medias" : [
                        {
                          "id" : 32,
                          "_type" : "UnifiedMedia",
                          "video" : 
                              {
                                "id" : 33,
                                "_type" : "ScreenVMFile",
                                "src" : 3,
                                "trackNumber" : 0,
                                "attributes" : {
                                  "ident" : "Rec 04-11-21_002"
                                },
                                "parameters" : {
                                  "sourceCrop0" : {
                                    "type" : "double",
                                    "defaultValue" : 0.0,
                                    "interp" : "eioe"
                                  },
                                  "sourceCrop1" : {
                                    "type" : "double",
                                    "defaultValue" : 0.0,
                                    "interp" : "eioe"
                                  },
                                  "sourceCrop2" : {
                                    "type" : "double",
                                    "defaultValue" : 0.0,
                                    "interp" : "eioe"
                                  },
                                  "sourceCrop3" : {
                                    "type" : "double",
                                    "defaultValue" : 0.0,
                                    "interp" : "eioe"
                                  },
                                  "geometryCrop0" : {
                                    "type" : "double",
                                    "defaultValue" : 0.0,
                                    "interp" : "eioe"
                                  },
                                  "geometryCrop1" : {
                                    "type" : "double",
                                    "defaultValue" : 0.0,
                                    "interp" : "eioe"
                                  },
                                  "geometryCrop2" : {
                                    "type" : "double",
                                    "defaultValue" : 0.0,
                                    "interp" : "eioe"
                                  },
                                  "geometryCrop3" : {
                                    "type" : "double",
                                    "defaultValue" : 0.0,
                                    "interp" : "eioe"
                                  },
                                  "cursorScale" : {
                                    "type" : "double",
                                    "defaultValue" : 0.0,
                                    "interp" : "linr"
                                  },
                                  "cursorOpacity" : {
                                    "type" : "double",
                                    "defaultValue" : 0.0,
                                    "interp" : "linr"
                                  }
                                },
                                "effects" : [

                                ],
                                "start" : 0,
                                "duration" : 126,
                                "mediaStart" : 0,
                                "mediaDuration" : 126,
                                "scalar" : 1,
                                "animationTracks" : {

                                }
                              },
                          "audio" : 
                              {
                                "id" : 34,
                                "_type" : "AMFile",
                                "src" : 3,
                                "trackNumber" : 2,
                                "attributes" : {
                                  "ident" : "",
                                  "gain" : 1.0,
                                  "mixToMono" : false
                                },
                                  "channelNumber" : "0,1",
                                "effects" : [

                                ],
                                "start" : 0,
                                "duration" : 126,
                                "mediaStart" : 0,
                                "mediaDuration" : 126,
                                "scalar" : 1,
                                "animationTracks" : {

                                }
                              }
,
                          "start" : 0,
                          "duration" : 126,
                          "mediaStart" : 0,
                          "mediaDuration" : 9697,
                          "scalar" : 1,
                          "metadata" : {
                            "AutoAppliedSmartFocus" : "False",
                            "clipSpeedAttribute" : false,
                            "default-height" : 1080.0,
                            "default-scale0" : 1.0,
                            "default-scale1" : 1.0,
                            "default-translation0" : 0.0,
                            "default-translation1" : 0.0,
                            "default-width" : 1920.0
                          }
                        },
                        {
                          "id" : 35,
                          "_type" : "ScreenIMFile",
                          "src" : 3,
                          "trackNumber" : 0,
                          "trimStartSum" : 0,
                          "attributes" : {
                            "ident" : "Rec 04-11-21_002"
                          },
                          "parameters" : {
                            "sourceCrop0" : {
                              "type" : "double",
                              "defaultValue" : 0.0,
                              "interp" : "eioe"
                            },
                            "sourceCrop1" : {
                              "type" : "double",
                              "defaultValue" : 0.0,
                              "interp" : "eioe"
                            },
                            "sourceCrop2" : {
                              "type" : "double",
                              "defaultValue" : 0.0,
                              "interp" : "eioe"
                            },
                            "sourceCrop3" : {
                              "type" : "double",
                              "defaultValue" : 0.0,
                              "interp" : "eioe"
                            },
                            "geometryCrop0" : {
                              "type" : "double",
                              "defaultValue" : 0.0,
                              "interp" : "eioe"
                            },
                            "geometryCrop1" : {
                              "type" : "double",
                              "defaultValue" : 0.0,
                              "interp" : "eioe"
                            },
                            "geometryCrop2" : {
                              "type" : "double",
                              "defaultValue" : 0.0,
                              "interp" : "eioe"
                            },
                            "geometryCrop3" : {
                              "type" : "double",
                              "defaultValue" : 0.0,
                              "interp" : "eioe"
                            },
                            "cursorOpacity" : {
                              "type" : "double",
                              "defaultValue" : 0.0,
                              "interp" : "linr"
                            },
                            "cursorScale" : {
                              "type" : "double",
                              "defaultValue" : 0.0,
                              "interp" : "linr"
                            }
                          },
                          "effects" : [

                          ],
                          "start" : 126,
                          "duration" : 480,
                          "mediaStart" : 125,
                          "mediaDuration" : 1,
                          "scalar" : 1,
                          "metadata" : {
                            "AutoAppliedSmartFocus" : "False"
                          },
                          "animationTracks" : {

                          }
                        },
                        {
                          "id" : 36,
                          "_type" : "UnifiedMedia",
                          "video" : 
                              {
                                "id" : 37,
                                "_type" : "ScreenVMFile",
                                "src" : 3,
                                "trackNumber" : 0,
                                "attributes" : {
                                  "ident" : "Rec 04-11-21_002"
                                },
                                "parameters" : {
                                  "sourceCrop0" : {
                                    "type" : "double",
                                    "defaultValue" : 0.0,
                                    "interp" : "eioe"
                                  },
                                  "sourceCrop1" : {
                                    "type" : "double",
                                    "defaultValue" : 0.0,
                                    "interp" : "eioe"
                                  },
                                  "sourceCrop2" : {
                                    "type" : "double",
                                    "defaultValue" : 0.0,
                                    "interp" : "eioe"
                                  },
                                  "sourceCrop3" : {
                                    "type" : "double",
                                    "defaultValue" : 0.0,
                                    "interp" : "eioe"
                                  },
                                  "geometryCrop0" : {
                                    "type" : "double",
                                    "defaultValue" : 0.0,
                                    "interp" : "eioe"
                                  },
                                  "geometryCrop1" : {
                                    "type" : "double",
                                    "defaultValue" : 0.0,
                                    "interp" : "eioe"
                                  },
                                  "geometryCrop2" : {
                                    "type" : "double",
                                    "defaultValue" : 0.0,
                                    "interp" : "eioe"
                                  },
                                  "geometryCrop3" : {
                                    "type" : "double",
                                    "defaultValue" : 0.0,
                                    "interp" : "eioe"
                                  },
                                  "cursorScale" : {
                                    "type" : "double",
                                    "defaultValue" : 0.0,
                                    "interp" : "linr"
                                  },
                                  "cursorOpacity" : {
                                    "type" : "double",
                                    "defaultValue" : 0.0,
                                    "interp" : "linr"
                                  }
                                },
                                "effects" : [

                                ],
                                "start" : 606,
                                "duration" : 37,
                                "mediaStart" : 126,
                                "mediaDuration" : 37,
                                "scalar" : 1,
                                "animationTracks" : {

                                }
                              },
                          "audio" : 
                              {
                                "id" : 38,
                                "_type" : "AMFile",
                                "src" : 3,
                                "trackNumber" : 2,
                                "attributes" : {
                                  "ident" : "",
                                  "gain" : 1.0,
                                  "mixToMono" : false
                                },
                                  "channelNumber" : "0,1",
                                "effects" : [

                                ],
                                "start" : 606,
                                "duration" : 37,
                                "mediaStart" : 126,
                                "mediaDuration" : 37,
                                "scalar" : 1,
                                "animationTracks" : {

                                }
                              }
,
                          "start" : 606,
                          "duration" : 37,
                          "mediaStart" : 0,
                          "mediaDuration" : 9697,
                          "scalar" : 1,
                          "metadata" : {
                            "AutoAppliedSmartFocus" : "False",
                            "clipSpeedAttribute" : false,
                            "default-height" : 1080.0,
                            "default-scale0" : 1.0,
                            "default-scale1" : 1.0,
                            "default-translation0" : 0.0,
                            "default-translation1" : 0.0,
                            "default-width" : 1920.0
                          }
                        },
                        {
                          "id" : 39,
                          "_type" : "ScreenIMFile",
                          "src" : 3,
                          "trackNumber" : 0,
                          "trimStartSum" : 0,
                          "attributes" : {
                            "ident" : "Rec 04-11-21_002"
                          },
                          "parameters" : {
                            "sourceCrop0" : {
                              "type" : "double",
                              "defaultValue" : 0.0,
                              "interp" : "eioe"
                            },
                            "sourceCrop1" : {
                              "type" : "double",
                              "defaultValue" : 0.0,
                              "interp" : "eioe"
                            },
                            "sourceCrop2" : {
                              "type" : "double",
                              "defaultValue" : 0.0,
                              "interp" : "eioe"
                            },
                            "sourceCrop3" : {
                              "type" : "double",
                              "defaultValue" : 0.0,
                              "interp" : "eioe"
                            },
                            "geometryCrop0" : {
                              "type" : "double",
                              "defaultValue" : 0.0,
                              "interp" : "eioe"
                            },
                            "geometryCrop1" : {
                              "type" : "double",
                              "defaultValue" : 0.0,
                              "interp" : "eioe"
                            },
                            "geometryCrop2" : {
                              "type" : "double",
                              "defaultValue" : 0.0,
                              "interp" : "eioe"
                            },
                            "geometryCrop3" : {
                              "type" : "double",
                              "defaultValue" : 0.0,
                              "interp" : "eioe"
                            },
                            "cursorOpacity" : {
                              "type" : "double",
                              "defaultValue" : 0.0,
                              "interp" : "linr"
                            },
                            "cursorScale" : {
                              "type" : "double",
                              "defaultValue" : 0.0,
                              "interp" : "linr"
                            }
                          },
                          "effects" : [

                          ],
                          "start" : 643,
                          "duration" : 60,
                          "mediaStart" : 163,
                          "mediaDuration" : 1,
                          "scalar" : 1,
                          "metadata" : {
                            "AutoAppliedSmartFocus" : "False"
                          },
                          "animationTracks" : {

                          }
                        },
                        {
                          "id" : 40,
                          "_type" : "UnifiedMedia",
                          "video" : 
                              {
                                "id" : 41,
                                "_type" : "ScreenVMFile",
                                "src" : 3,
                                "trackNumber" : 0,
                                "attributes" : {
                                  "ident" : "Rec 04-11-21_002"
                                },
                                "parameters" : {
                                  "sourceCrop0" : {
                                    "type" : "double",
                                    "defaultValue" : 0.0,
                                    "interp" : "eioe"
                                  },
                                  "sourceCrop1" : {
                                    "type" : "double",
                                    "defaultValue" : 0.0,
                                    "interp" : "eioe"
                                  },
                                  "sourceCrop2" : {
                                    "type" : "double",
                                    "defaultValue" : 0.0,
                                    "interp" : "eioe"
                                  },
                                  "sourceCrop3" : {
                                    "type" : "double",
                                    "defaultValue" : 0.0,
                                    "interp" : "eioe"
                                  },
                                  "geometryCrop0" : {
                                    "type" : "double",
                                    "defaultValue" : 0.0,
                                    "interp" : "eioe"
                                  },
                                  "geometryCrop1" : {
                                    "type" : "double",
                                    "defaultValue" : 0.0,
                                    "interp" : "eioe"
                                  },
                                  "geometryCrop2" : {
                                    "type" : "double",
                                    "defaultValue" : 0.0,
                                    "interp" : "eioe"
                                  },
                                  "geometryCrop3" : {
                                    "type" : "double",
                                    "defaultValue" : 0.0,
                                    "interp" : "eioe"
                                  },
                                  "cursorScale" : {
                                    "type" : "double",
                                    "defaultValue" : 0.0,
                                    "interp" : "linr"
                                  },
                                  "cursorOpacity" : {
                                    "type" : "double",
                                    "defaultValue" : 0.0,
                                    "interp" : "linr"
                                  }
                                },
                                "effects" : [

                                ],
                                "start" : 703,
                                "duration" : 3,
                                "mediaStart" : 163,
                                "mediaDuration" : 3,
                                "scalar" : 1,
                                "animationTracks" : {

                                }
                              },
                          "audio" : 
                              {
                                "id" : 42,
                                "_type" : "AMFile",
                                "src" : 3,
                                "trackNumber" : 2,
                                "attributes" : {
                                  "ident" : "",
                                  "gain" : 1.0,
                                  "mixToMono" : false
                                },
                                  "channelNumber" : "0,1",
                                "effects" : [

                                ],
                                "start" : 703,
                                "duration" : 3,
                                "mediaStart" : 163,
                                "mediaDuration" : 3,
                                "scalar" : 1,
                                "animationTracks" : {

                                }
                              }
,
                          "start" : 703,
                          "duration" : 3,
                          "mediaStart" : 0,
                          "mediaDuration" : 9697,
                          "scalar" : 1,
                          "metadata" : {
                            "AutoAppliedSmartFocus" : "False",
                            "clipSpeedAttribute" : false,
                            "default-height" : 1080.0,
                            "default-scale0" : 1.0,
                            "default-scale1" : 1.0,
                            "default-translation0" : 0.0,
                            "default-translation1" : 0.0,
                            "default-width" : 1920.0
                          }
                        },
                        {
                          "id" : 43,
                          "_type" : "ScreenIMFile",
                          "src" : 3,
                          "trackNumber" : 0,
                          "trimStartSum" : 0,
                          "attributes" : {
                            "ident" : "Rec 04-11-21_002"
                          },
                          "parameters" : {
                            "sourceCrop0" : {
                              "type" : "double",
                              "defaultValue" : 0.0,
                              "interp" : "eioe"
                            },
                            "sourceCrop1" : {
                              "type" : "double",
                              "defaultValue" : 0.0,
                              "interp" : "eioe"
                            },
                            "sourceCrop2" : {
                              "type" : "double",
                              "defaultValue" : 0.0,
                              "interp" : "eioe"
                            },
                            "sourceCrop3" : {
                              "type" : "double",
                              "defaultValue" : 0.0,
                              "interp" : "eioe"
                            },
                            "geometryCrop0" : {
                              "type" : "double",
                              "defaultValue" : 0.0,
                              "interp" : "eioe"
                            },
                            "geometryCrop1" : {
                              "type" : "double",
                              "defaultValue" : 0.0,
                              "interp" : "eioe"
                            },
                            "geometryCrop2" : {
                              "type" : "double",
                              "defaultValue" : 0.0,
                              "interp" : "eioe"
                            },
                            "geometryCrop3" : {
                              "type" : "double",
                              "defaultValue" : 0.0,
                              "interp" : "eioe"
                            },
                            "cursorOpacity" : {
                              "type" : "double",
                              "defaultValue" : 0.0,
                              "interp" : "linr"
                            },
                            "cursorScale" : {
                              "type" : "double",
                              "defaultValue" : 0.0,
                              "interp" : "linr"
                            }
                          },
                          "effects" : [

                          ],
                          "start" : 706,
                          "duration" : 60,
                          "mediaStart" : 166,
                          "mediaDuration" : 1,
                          "scalar" : 1,
                          "metadata" : {
                            "AutoAppliedSmartFocus" : "False"
                          },
                          "animationTracks" : {

                          }
                        },
                        {
                          "id" : 44,
                          "_type" : "UnifiedMedia",
                          "video" : 
                              {
                                "id" : 45,
                                "_type" : "ScreenVMFile",
                                "src" : 3,
                                "trackNumber" : 0,
                                "attributes" : {
                                  "ident" : "Rec 04-11-21_002"
                                },
                                "parameters" : {
                                  "sourceCrop0" : {
                                    "type" : "double",
                                    "defaultValue" : 0.0,
                                    "interp" : "eioe"
                                  },
                                  "sourceCrop1" : {
                                    "type" : "double",
                                    "defaultValue" : 0.0,
                                    "interp" : "eioe"
                                  },
                                  "sourceCrop2" : {
                                    "type" : "double",
                                    "defaultValue" : 0.0,
                                    "interp" : "eioe"
                                  },
                                  "sourceCrop3" : {
                                    "type" : "double",
                                    "defaultValue" : 0.0,
                                    "interp" : "eioe"
                                  },
                                  "geometryCrop0" : {
                                    "type" : "double",
                                    "defaultValue" : 0.0,
                                    "interp" : "eioe"
                                  },
                                  "geometryCrop1" : {
                                    "type" : "double",
                                    "defaultValue" : 0.0,
                                    "interp" : "eioe"
                                  },
                                  "geometryCrop2" : {
                                    "type" : "double",
                                    "defaultValue" : 0.0,
                                    "interp" : "eioe"
                                  },
                                  "geometryCrop3" : {
                                    "type" : "double",
                                    "defaultValue" : 0.0,
                                    "interp" : "eioe"
                                  },
                                  "cursorScale" : {
                                    "type" : "double",
                                    "defaultValue" : 0.0,
                                    "interp" : "linr"
                                  },
                                  "cursorOpacity" : {
                                    "type" : "double",
                                    "defaultValue" : 0.0,
                                    "interp" : "linr"
                                  }
                                },
                                "effects" : [

                                ],
                                "start" : 766,
                                "duration" : 9531,
                                "mediaStart" : 166,
                                "mediaDuration" : 9531,
                                "scalar" : 1,
                                "animationTracks" : {

                                }
                              },
                          "audio" : 
                              {
                                "id" : 46,
                                "_type" : "AMFile",
                                "src" : 3,
                                "trackNumber" : 2,
                                "attributes" : {
                                  "ident" : "",
                                  "gain" : 1.0,
                                  "mixToMono" : false
                                },
                                  "channelNumber" : "0,1",
                                "effects" : [

                                ],
                                "start" : 766,
                                "duration" : 9531,
                                "mediaStart" : 166,
                                "mediaDuration" : 9531,
                                "scalar" : 1,
                                "animationTracks" : {

                                }
                              }
,
                          "start" : 766,
                          "duration" : 9531,
                          "mediaStart" : 0,
                          "mediaDuration" : 9697,
                          "scalar" : 1,
                          "metadata" : {
                            "AutoAppliedSmartFocus" : "False",
                            "clipSpeedAttribute" : true,
                            "default-height" : 1080.0,
                            "default-scale0" : 1.0,
                            "default-scale1" : 1.0,
                            "default-translation0" : 0.0,
                            "default-translation1" : 0.0,
                            "default-width" : 1920.0
                          }
                        }
                    ],
                    "effects" : [

                    ],
                    "start" : 1155,
                    "duration" : 359,
                    "mediaStart" : 693,
                    "mediaDuration" : 359,
                    "scalar" : 1,
                    "metadata" : {
                      "AutoAppliedSmartFocus" : "False",
                      "clipSpeedAttribute" : true
                    },
                    "animationTracks" : {
                      "visual" : [
                        {
                          "endTime" : 497,
                          "duration" : 20,
                          "range" : [ 477, 20]
                        }
                      ]
                    }
                  },
                  {
                    "id" : 47,
                    "_type" : "StitchedMedia",
                    "minMediaStart" : 0,
                    "attributes" : {
                      "ident" : "Rec 04-11-21_002",
                      "gain" : 1.0,
                      "mixToMono" : false
                    },
                    "parameters" : {
                      "translation0" : {
                        "type" : "double",
                        "defaultValue" : 465.000000000107,
                        "interp" : "eioe",
                        "keyframes" : [
                          {
                            "endTime" : 497,
                            "time" : 477,
                            "value" : -2.8421709430404e-13,
                            "duration" : 20
                          }
                        ]
                      },
                      "translation1" : {
                        "type" : "double",
                        "defaultValue" : 6.9238836886143e-11,
                        "interp" : "eioe"
                      },
                      "scale0" : {
                        "type" : "double",
                        "defaultValue" : 0.748190787382365,
                        "interp" : "eioe",
                        "keyframes" : [
                          {
                            "endTime" : 497,
                            "time" : 477,
                            "value" : 1.0,
                            "duration" : 20
                          }
                        ]
                      },
                      "scale1" : {
                        "type" : "double",
                        "defaultValue" : 0.748190787382366,
                        "interp" : "eioe",
                        "keyframes" : [
                          {
                            "endTime" : 497,
                            "time" : 477,
                            "value" : 1.0,
                            "duration" : 20
                          }
                        ]
                      },
                      "sourceCrop0" : {
                        "type" : "double",
                        "defaultValue" : 0.0,
                        "interp" : "eioe"
                      },
                      "sourceCrop1" : {
                        "type" : "double",
                        "defaultValue" : 0.0,
                        "interp" : "eioe"
                      },
                      "sourceCrop2" : {
                        "type" : "double",
                        "defaultValue" : 0.0,
                        "interp" : "eioe"
                      },
                      "sourceCrop3" : {
                        "type" : "double",
                        "defaultValue" : 0.0,
                        "interp" : "eioe"
                      },
                      "geometryCrop0" : {
                        "type" : "double",
                        "defaultValue" : 0.0,
                        "interp" : "eioe"
                      },
                      "geometryCrop1" : {
                        "type" : "double",
                        "defaultValue" : 0.0,
                        "interp" : "eioe"
                      },
                      "geometryCrop2" : {
                        "type" : "double",
                        "defaultValue" : 0.0,
                        "interp" : "eioe"
                      },
                      "geometryCrop3" : {
                        "type" : "double",
                        "defaultValue" : 0.0,
                        "interp" : "eioe"
                      },
                      "volume" : 1.0,
                      "cursorOpacity" : {
                        "type" : "double",
                        "defaultValue" : 1.0,
                        "interp" : "linr"
                      },
                      "cursorScale" : {
                        "type" : "double",
                        "defaultValue" : 1.0,
                        "interp" : "linr"
                      }
                    },
                    "medias" : [
                        {
                          "id" : 48,
                          "_type" : "UnifiedMedia",
                          "video" : 
                              {
                                "id" : 49,
                                "_type" : "ScreenVMFile",
                                "src" : 3,
                                "trackNumber" : 0,
                                "attributes" : {
                                  "ident" : "Rec 04-11-21_002"
                                },
                                "parameters" : {
                                  "sourceCrop0" : {
                                    "type" : "double",
                                    "defaultValue" : 0.0,
                                    "interp" : "eioe"
                                  },
                                  "sourceCrop1" : {
                                    "type" : "double",
                                    "defaultValue" : 0.0,
                                    "interp" : "eioe"
                                  },
                                  "sourceCrop2" : {
                                    "type" : "double",
                                    "defaultValue" : 0.0,
                                    "interp" : "eioe"
                                  },
                                  "sourceCrop3" : {
                                    "type" : "double",
                                    "defaultValue" : 0.0,
                                    "interp" : "eioe"
                                  },
                                  "geometryCrop0" : {
                                    "type" : "double",
                                    "defaultValue" : 0.0,
                                    "interp" : "eioe"
                                  },
                                  "geometryCrop1" : {
                                    "type" : "double",
                                    "defaultValue" : 0.0,
                                    "interp" : "eioe"
                                  },
                                  "geometryCrop2" : {
                                    "type" : "double",
                                    "defaultValue" : 0.0,
                                    "interp" : "eioe"
                                  },
                                  "geometryCrop3" : {
                                    "type" : "double",
                                    "defaultValue" : 0.0,
                                    "interp" : "eioe"
                                  },
                                  "cursorScale" : {
                                    "type" : "double",
                                    "defaultValue" : 0.0,
                                    "interp" : "linr"
                                  },
                                  "cursorOpacity" : {
                                    "type" : "double",
                                    "defaultValue" : 0.0,
                                    "interp" : "linr"
                                  }
                                },
                                "effects" : [

                                ],
                                "start" : 0,
                                "duration" : 126,
                                "mediaStart" : 0,
                                "mediaDuration" : 126,
                                "scalar" : 1,
                                "animationTracks" : {

                                }
                              },
                          "audio" : 
                              {
                                "id" : 50,
                                "_type" : "AMFile",
                                "src" : 3,
                                "trackNumber" : 2,
                                "attributes" : {
                                  "ident" : "",
                                  "gain" : 1.0,
                                  "mixToMono" : false
                                },
                                  "channelNumber" : "0,1",
                                "effects" : [

                                ],
                                "start" : 0,
                                "duration" : 126,
                                "mediaStart" : 0,
                                "mediaDuration" : 126,
                                "scalar" : 1,
                                "animationTracks" : {

                                }
                              }
,
                          "start" : 0,
                          "duration" : 126,
                          "mediaStart" : 0,
                          "mediaDuration" : 9697,
                          "scalar" : 1,
                          "metadata" : {
                            "AutoAppliedSmartFocus" : "False",
                            "clipSpeedAttribute" : false,
                            "default-height" : 1080.0,
                            "default-scale0" : 1.0,
                            "default-scale1" : 1.0,
                            "default-translation0" : 0.0,
                            "default-translation1" : 0.0,
                            "default-width" : 1920.0
                          }
                        },
                        {
                          "id" : 51,
                          "_type" : "ScreenIMFile",
                          "src" : 3,
                          "trackNumber" : 0,
                          "trimStartSum" : 0,
                          "attributes" : {
                            "ident" : "Rec 04-11-21_002"
                          },
                          "parameters" : {
                            "sourceCrop0" : {
                              "type" : "double",
                              "defaultValue" : 0.0,
                              "interp" : "eioe"
                            },
                            "sourceCrop1" : {
                              "type" : "double",
                              "defaultValue" : 0.0,
                              "interp" : "eioe"
                            },
                            "sourceCrop2" : {
                              "type" : "double",
                              "defaultValue" : 0.0,
                              "interp" : "eioe"
                            },
                            "sourceCrop3" : {
                              "type" : "double",
                              "defaultValue" : 0.0,
                              "interp" : "eioe"
                            },
                            "geometryCrop0" : {
                              "type" : "double",
                              "defaultValue" : 0.0,
                              "interp" : "eioe"
                            },
                            "geometryCrop1" : {
                              "type" : "double",
                              "defaultValue" : 0.0,
                              "interp" : "eioe"
                            },
                            "geometryCrop2" : {
                              "type" : "double",
                              "defaultValue" : 0.0,
                              "interp" : "eioe"
                            },
                            "geometryCrop3" : {
                              "type" : "double",
                              "defaultValue" : 0.0,
                              "interp" : "eioe"
                            },
                            "cursorOpacity" : {
                              "type" : "double",
                              "defaultValue" : 0.0,
                              "interp" : "linr"
                            },
                            "cursorScale" : {
                              "type" : "double",
                              "defaultValue" : 0.0,
                              "interp" : "linr"
                            }
                          },
                          "effects" : [

                          ],
                          "start" : 126,
                          "duration" : 480,
                          "mediaStart" : 125,
                          "mediaDuration" : 1,
                          "scalar" : 1,
                          "metadata" : {
                            "AutoAppliedSmartFocus" : "False"
                          },
                          "animationTracks" : {

                          }
                        },
                        {
                          "id" : 52,
                          "_type" : "UnifiedMedia",
                          "video" : 
                              {
                                "id" : 53,
                                "_type" : "ScreenVMFile",
                                "src" : 3,
                                "trackNumber" : 0,
                                "attributes" : {
                                  "ident" : "Rec 04-11-21_002"
                                },
                                "parameters" : {
                                  "sourceCrop0" : {
                                    "type" : "double",
                                    "defaultValue" : 0.0,
                                    "interp" : "eioe"
                                  },
                                  "sourceCrop1" : {
                                    "type" : "double",
                                    "defaultValue" : 0.0,
                                    "interp" : "eioe"
                                  },
                                  "sourceCrop2" : {
                                    "type" : "double",
                                    "defaultValue" : 0.0,
                                    "interp" : "eioe"
                                  },
                                  "sourceCrop3" : {
                                    "type" : "double",
                                    "defaultValue" : 0.0,
                                    "interp" : "eioe"
                                  },
                                  "geometryCrop0" : {
                                    "type" : "double",
                                    "defaultValue" : 0.0,
                                    "interp" : "eioe"
                                  },
                                  "geometryCrop1" : {
                                    "type" : "double",
                                    "defaultValue" : 0.0,
                                    "interp" : "eioe"
                                  },
                                  "geometryCrop2" : {
                                    "type" : "double",
                                    "defaultValue" : 0.0,
                                    "interp" : "eioe"
                                  },
                                  "geometryCrop3" : {
                                    "type" : "double",
                                    "defaultValue" : 0.0,
                                    "interp" : "eioe"
                                  },
                                  "cursorScale" : {
                                    "type" : "double",
                                    "defaultValue" : 0.0,
                                    "interp" : "linr"
                                  },
                                  "cursorOpacity" : {
                                    "type" : "double",
                                    "defaultValue" : 0.0,
                                    "interp" : "linr"
                                  }
                                },
                                "effects" : [

                                ],
                                "start" : 606,
                                "duration" : 37,
                                "mediaStart" : 126,
                                "mediaDuration" : 37,
                                "scalar" : 1,
                                "animationTracks" : {

                                }
                              },
                          "audio" : 
                              {
                                "id" : 54,
                                "_type" : "AMFile",
                                "src" : 3,
                                "trackNumber" : 2,
                                "attributes" : {
                                  "ident" : "",
                                  "gain" : 1.0,
                                  "mixToMono" : false
                                },
                                  "channelNumber" : "0,1",
                                "effects" : [

                                ],
                                "start" : 606,
                                "duration" : 37,
                                "mediaStart" : 126,
                                "mediaDuration" : 37,
                                "scalar" : 1,
                                "animationTracks" : {

                                }
                              }
,
                          "start" : 606,
                          "duration" : 37,
                          "mediaStart" : 0,
                          "mediaDuration" : 9697,
                          "scalar" : 1,
                          "metadata" : {
                            "AutoAppliedSmartFocus" : "False",
                            "clipSpeedAttribute" : false,
                            "default-height" : 1080.0,
                            "default-scale0" : 1.0,
                            "default-scale1" : 1.0,
                            "default-translation0" : 0.0,
                            "default-translation1" : 0.0,
                            "default-width" : 1920.0
                          }
                        },
                        {
                          "id" : 55,
                          "_type" : "ScreenIMFile",
                          "src" : 3,
                          "trackNumber" : 0,
                          "trimStartSum" : 0,
                          "attributes" : {
                            "ident" : "Rec 04-11-21_002"
                          },
                          "parameters" : {
                            "sourceCrop0" : {
                              "type" : "double",
                              "defaultValue" : 0.0,
                              "interp" : "eioe"
                            },
                            "sourceCrop1" : {
                              "type" : "double",
                              "defaultValue" : 0.0,
                              "interp" : "eioe"
                            },
                            "sourceCrop2" : {
                              "type" : "double",
                              "defaultValue" : 0.0,
                              "interp" : "eioe"
                            },
                            "sourceCrop3" : {
                              "type" : "double",
                              "defaultValue" : 0.0,
                              "interp" : "eioe"
                            },
                            "geometryCrop0" : {
                              "type" : "double",
                              "defaultValue" : 0.0,
                              "interp" : "eioe"
                            },
                            "geometryCrop1" : {
                              "type" : "double",
                              "defaultValue" : 0.0,
                              "interp" : "eioe"
                            },
                            "geometryCrop2" : {
                              "type" : "double",
                              "defaultValue" : 0.0,
                              "interp" : "eioe"
                            },
                            "geometryCrop3" : {
                              "type" : "double",
                              "defaultValue" : 0.0,
                              "interp" : "eioe"
                            },
                            "cursorOpacity" : {
                              "type" : "double",
                              "defaultValue" : 0.0,
                              "interp" : "linr"
                            },
                            "cursorScale" : {
                              "type" : "double",
                              "defaultValue" : 0.0,
                              "interp" : "linr"
                            }
                          },
                          "effects" : [

                          ],
                          "start" : 643,
                          "duration" : 60,
                          "mediaStart" : 163,
                          "mediaDuration" : 1,
                          "scalar" : 1,
                          "metadata" : {
                            "AutoAppliedSmartFocus" : "False"
                          },
                          "animationTracks" : {

                          }
                        },
                        {
                          "id" : 56,
                          "_type" : "UnifiedMedia",
                          "video" : 
                              {
                                "id" : 57,
                                "_type" : "ScreenVMFile",
                                "src" : 3,
                                "trackNumber" : 0,
                                "attributes" : {
                                  "ident" : "Rec 04-11-21_002"
                                },
                                "parameters" : {
                                  "sourceCrop0" : {
                                    "type" : "double",
                                    "defaultValue" : 0.0,
                                    "interp" : "eioe"
                                  },
                                  "sourceCrop1" : {
                                    "type" : "double",
                                    "defaultValue" : 0.0,
                                    "interp" : "eioe"
                                  },
                                  "sourceCrop2" : {
                                    "type" : "double",
                                    "defaultValue" : 0.0,
                                    "interp" : "eioe"
                                  },
                                  "sourceCrop3" : {
                                    "type" : "double",
                                    "defaultValue" : 0.0,
                                    "interp" : "eioe"
                                  },
                                  "geometryCrop0" : {
                                    "type" : "double",
                                    "defaultValue" : 0.0,
                                    "interp" : "eioe"
                                  },
                                  "geometryCrop1" : {
                                    "type" : "double",
                                    "defaultValue" : 0.0,
                                    "interp" : "eioe"
                                  },
                                  "geometryCrop2" : {
                                    "type" : "double",
                                    "defaultValue" : 0.0,
                                    "interp" : "eioe"
                                  },
                                  "geometryCrop3" : {
                                    "type" : "double",
                                    "defaultValue" : 0.0,
                                    "interp" : "eioe"
                                  },
                                  "cursorScale" : {
                                    "type" : "double",
                                    "defaultValue" : 0.0,
                                    "interp" : "linr"
                                  },
                                  "cursorOpacity" : {
                                    "type" : "double",
                                    "defaultValue" : 0.0,
                                    "interp" : "linr"
                                  }
                                },
                                "effects" : [

                                ],
                                "start" : 703,
                                "duration" : 9534,
                                "mediaStart" : 163,
                                "mediaDuration" : 9534,
                                "scalar" : 1,
                                "animationTracks" : {

                                }
                              },
                          "audio" : 
                              {
                                "id" : 58,
                                "_type" : "AMFile",
                                "src" : 3,
                                "trackNumber" : 2,
                                "attributes" : {
                                  "ident" : "",
                                  "gain" : 1.0,
                                  "mixToMono" : false
                                },
                                  "channelNumber" : "0,1",
                                "effects" : [

                                ],
                                "start" : 703,
                                "duration" : 9534,
                                "mediaStart" : 163,
                                "mediaDuration" : 9534,
                                "scalar" : 1,
                                "animationTracks" : {

                                }
                              }
,
                          "start" : 703,
                          "duration" : 9534,
                          "mediaStart" : 0,
                          "mediaDuration" : 9697,
                          "scalar" : 1,
                          "metadata" : {
                            "AutoAppliedSmartFocus" : "False",
                            "clipSpeedAttribute" : false,
                            "default-height" : 1080.0,
                            "default-scale0" : 1.0,
                            "default-scale1" : 1.0,
                            "default-translation0" : 0.0,
                            "default-translation1" : 0.0,
                            "default-width" : 1920.0
                          }
                        }
                    ],
                    "effects" : [

                    ],
                    "start" : 1514,
                    "duration" : 260,
                    "mediaStart" : 939,
                    "mediaDuration" : 260,
                    "scalar" : 1,
                    "metadata" : {
                      "AutoAppliedSmartFocus" : "False",
                      "clipSpeedAttribute" : false
                    },
                    "animationTracks" : {
                      "visual" : [
                        {
                          "endTime" : 497,
                          "duration" : 20,
                          "range" : [ 477, 20]
                        }
                      ]
                    }
                  },
                  {
                    "id" : 59,
                    "_type" : "StitchedMedia",
                    "minMediaStart" : 0,
                    "attributes" : {
                      "ident" : "Rec 04-11-21_002",
                      "gain" : 1.0,
                      "mixToMono" : false
                    },
                    "parameters" : {
                      "translation0" : {
                        "type" : "double",
                        "defaultValue" : 465.000000000107,
                        "interp" : "eioe",
                        "keyframes" : [
                          {
                            "endTime" : 497,
                            "time" : 477,
                            "value" : -2.8421709430404e-13,
                            "duration" : 20
                          }
                        ]
                      },
                      "translation1" : {
                        "type" : "double",
                        "defaultValue" : 6.9238836886143e-11,
                        "interp" : "eioe"
                      },
                      "scale0" : {
                        "type" : "double",
                        "defaultValue" : 0.748190787382365,
                        "interp" : "eioe",
                        "keyframes" : [
                          {
                            "endTime" : 497,
                            "time" : 477,
                            "value" : 1.0,
                            "duration" : 20
                          }
                        ]
                      },
                      "scale1" : {
                        "type" : "double",
                        "defaultValue" : 0.748190787382366,
                        "interp" : "eioe",
                        "keyframes" : [
                          {
                            "endTime" : 497,
                            "time" : 477,
                            "value" : 1.0,
                            "duration" : 20
                          }
                        ]
                      },
                      "sourceCrop0" : {
                        "type" : "double",
                        "defaultValue" : 0.0,
                        "interp" : "eioe"
                      },
                      "sourceCrop1" : {
                        "type" : "double",
                        "defaultValue" : 0.0,
                        "interp" : "eioe"
                      },
                      "sourceCrop2" : {
                        "type" : "double",
                        "defaultValue" : 0.0,
                        "interp" : "eioe"
                      },
                      "sourceCrop3" : {
                        "type" : "double",
                        "defaultValue" : 0.0,
                        "interp" : "eioe"
                      },
                      "geometryCrop0" : {
                        "type" : "double",
                        "defaultValue" : 0.0,
                        "interp" : "eioe"
                      },
                      "geometryCrop1" : {
                        "type" : "double",
                        "defaultValue" : 0.0,
                        "interp" : "eioe"
                      },
                      "geometryCrop2" : {
                        "type" : "double",
                        "defaultValue" : 0.0,
                        "interp" : "eioe"
                      },
                      "geometryCrop3" : {
                        "type" : "double",
                        "defaultValue" : 0.0,
                        "interp" : "eioe"
                      },
                      "volume" : 1.0,
                      "cursorOpacity" : {
                        "type" : "double",
                        "defaultValue" : 1.0,
                        "interp" : "linr"
                      },
                      "cursorScale" : {
                        "type" : "double",
                        "defaultValue" : 1.0,
                        "interp" : "linr"
                      }
                    },
                    "medias" : [
                        {
                          "id" : 60,
                          "_type" : "UnifiedMedia",
                          "video" : 
                              {
                                "id" : 61,
                                "_type" : "ScreenVMFile",
                                "src" : 3,
                                "trackNumber" : 0,
                                "attributes" : {
                                  "ident" : "Rec 04-11-21_002"
                                },
                                "parameters" : {
                                  "sourceCrop0" : {
                                    "type" : "double",
                                    "defaultValue" : 0.0,
                                    "interp" : "eioe"
                                  },
                                  "sourceCrop1" : {
                                    "type" : "double",
                                    "defaultValue" : 0.0,
                                    "interp" : "eioe"
                                  },
                                  "sourceCrop2" : {
                                    "type" : "double",
                                    "defaultValue" : 0.0,
                                    "interp" : "eioe"
                                  },
                                  "sourceCrop3" : {
                                    "type" : "double",
                                    "defaultValue" : 0.0,
                                    "interp" : "eioe"
                                  },
                                  "geometryCrop0" : {
                                    "type" : "double",
                                    "defaultValue" : 0.0,
                                    "interp" : "eioe"
                                  },
                                  "geometryCrop1" : {
                                    "type" : "double",
                                    "defaultValue" : 0.0,
                                    "interp" : "eioe"
                                  },
                                  "geometryCrop2" : {
                                    "type" : "double",
                                    "defaultValue" : 0.0,
                                    "interp" : "eioe"
                                  },
                                  "geometryCrop3" : {
                                    "type" : "double",
                                    "defaultValue" : 0.0,
                                    "interp" : "eioe"
                                  },
                                  "cursorScale" : {
                                    "type" : "double",
                                    "defaultValue" : 0.0,
                                    "interp" : "linr"
                                  },
                                  "cursorOpacity" : {
                                    "type" : "double",
                                    "defaultValue" : 0.0,
                                    "interp" : "linr"
                                  }
                                },
                                "effects" : [

                                ],
                                "start" : 0,
                                "duration" : 126,
                                "mediaStart" : 0,
                                "mediaDuration" : 126,
                                "scalar" : 1,
                                "animationTracks" : {

                                }
                              },
                          "audio" : 
                              {
                                "id" : 62,
                                "_type" : "AMFile",
                                "src" : 3,
                                "trackNumber" : 2,
                                "attributes" : {
                                  "ident" : "",
                                  "gain" : 1.0,
                                  "mixToMono" : false
                                },
                                  "channelNumber" : "0,1",
                                "effects" : [

                                ],
                                "start" : 0,
                                "duration" : 126,
                                "mediaStart" : 0,
                                "mediaDuration" : 126,
                                "scalar" : 1,
                                "animationTracks" : {

                                }
                              }
,
                          "start" : 0,
                          "duration" : 126,
                          "mediaStart" : 0,
                          "mediaDuration" : 9697,
                          "scalar" : 1,
                          "metadata" : {
                            "AutoAppliedSmartFocus" : "False",
                            "clipSpeedAttribute" : false,
                            "default-height" : 1080.0,
                            "default-scale0" : 1.0,
                            "default-scale1" : 1.0,
                            "default-translation0" : 0.0,
                            "default-translation1" : 0.0,
                            "default-width" : 1920.0
                          }
                        },
                        {
                          "id" : 63,
                          "_type" : "ScreenIMFile",
                          "src" : 3,
                          "trackNumber" : 0,
                          "trimStartSum" : 0,
                          "attributes" : {
                            "ident" : "Rec 04-11-21_002"
                          },
                          "parameters" : {
                            "sourceCrop0" : {
                              "type" : "double",
                              "defaultValue" : 0.0,
                              "interp" : "eioe"
                            },
                            "sourceCrop1" : {
                              "type" : "double",
                              "defaultValue" : 0.0,
                              "interp" : "eioe"
                            },
                            "sourceCrop2" : {
                              "type" : "double",
                              "defaultValue" : 0.0,
                              "interp" : "eioe"
                            },
                            "sourceCrop3" : {
                              "type" : "double",
                              "defaultValue" : 0.0,
                              "interp" : "eioe"
                            },
                            "geometryCrop0" : {
                              "type" : "double",
                              "defaultValue" : 0.0,
                              "interp" : "eioe"
                            },
                            "geometryCrop1" : {
                              "type" : "double",
                              "defaultValue" : 0.0,
                              "interp" : "eioe"
                            },
                            "geometryCrop2" : {
                              "type" : "double",
                              "defaultValue" : 0.0,
                              "interp" : "eioe"
                            },
                            "geometryCrop3" : {
                              "type" : "double",
                              "defaultValue" : 0.0,
                              "interp" : "eioe"
                            },
                            "cursorOpacity" : {
                              "type" : "double",
                              "defaultValue" : 0.0,
                              "interp" : "linr"
                            },
                            "cursorScale" : {
                              "type" : "double",
                              "defaultValue" : 0.0,
                              "interp" : "linr"
                            }
                          },
                          "effects" : [

                          ],
                          "start" : 126,
                          "duration" : 480,
                          "mediaStart" : 125,
                          "mediaDuration" : 1,
                          "scalar" : 1,
                          "metadata" : {
                            "AutoAppliedSmartFocus" : "False"
                          },
                          "animationTracks" : {

                          }
                        },
                        {
                          "id" : 64,
                          "_type" : "UnifiedMedia",
                          "video" : 
                              {
                                "id" : 65,
                                "_type" : "ScreenVMFile",
                                "src" : 3,
                                "trackNumber" : 0,
                                "attributes" : {
                                  "ident" : "Rec 04-11-21_002"
                                },
                                "parameters" : {
                                  "sourceCrop0" : {
                                    "type" : "double",
                                    "defaultValue" : 0.0,
                                    "interp" : "eioe"
                                  },
                                  "sourceCrop1" : {
                                    "type" : "double",
                                    "defaultValue" : 0.0,
                                    "interp" : "eioe"
                                  },
                                  "sourceCrop2" : {
                                    "type" : "double",
                                    "defaultValue" : 0.0,
                                    "interp" : "eioe"
                                  },
                                  "sourceCrop3" : {
                                    "type" : "double",
                                    "defaultValue" : 0.0,
                                    "interp" : "eioe"
                                  },
                                  "geometryCrop0" : {
                                    "type" : "double",
                                    "defaultValue" : 0.0,
                                    "interp" : "eioe"
                                  },
                                  "geometryCrop1" : {
                                    "type" : "double",
                                    "defaultValue" : 0.0,
                                    "interp" : "eioe"
                                  },
                                  "geometryCrop2" : {
                                    "type" : "double",
                                    "defaultValue" : 0.0,
                                    "interp" : "eioe"
                                  },
                                  "geometryCrop3" : {
                                    "type" : "double",
                                    "defaultValue" : 0.0,
                                    "interp" : "eioe"
                                  },
                                  "cursorScale" : {
                                    "type" : "double",
                                    "defaultValue" : 0.0,
                                    "interp" : "linr"
                                  },
                                  "cursorOpacity" : {
                                    "type" : "double",
                                    "defaultValue" : 0.0,
                                    "interp" : "linr"
                                  }
                                },
                                "effects" : [

                                ],
                                "start" : 606,
                                "duration" : 37,
                                "mediaStart" : 126,
                                "mediaDuration" : 37,
                                "scalar" : 1,
                                "animationTracks" : {

                                }
                              },
                          "audio" : 
                              {
                                "id" : 66,
                                "_type" : "AMFile",
                                "src" : 3,
                                "trackNumber" : 2,
                                "attributes" : {
                                  "ident" : "",
                                  "gain" : 1.0,
                                  "mixToMono" : false
                                },
                                  "channelNumber" : "0,1",
                                "effects" : [

                                ],
                                "start" : 606,
                                "duration" : 37,
                                "mediaStart" : 126,
                                "mediaDuration" : 37,
                                "scalar" : 1,
                                "animationTracks" : {

                                }
                              }
,
                          "start" : 606,
                          "duration" : 37,
                          "mediaStart" : 0,
                          "mediaDuration" : 9697,
                          "scalar" : 1,
                          "metadata" : {
                            "AutoAppliedSmartFocus" : "False",
                            "clipSpeedAttribute" : false,
                            "default-height" : 1080.0,
                            "default-scale0" : 1.0,
                            "default-scale1" : 1.0,
                            "default-translation0" : 0.0,
                            "default-translation1" : 0.0,
                            "default-width" : 1920.0
                          }
                        },
                        {
                          "id" : 67,
                          "_type" : "ScreenIMFile",
                          "src" : 3,
                          "trackNumber" : 0,
                          "trimStartSum" : 0,
                          "attributes" : {
                            "ident" : "Rec 04-11-21_002"
                          },
                          "parameters" : {
                            "sourceCrop0" : {
                              "type" : "double",
                              "defaultValue" : 0.0,
                              "interp" : "eioe"
                            },
                            "sourceCrop1" : {
                              "type" : "double",
                              "defaultValue" : 0.0,
                              "interp" : "eioe"
                            },
                            "sourceCrop2" : {
                              "type" : "double",
                              "defaultValue" : 0.0,
                              "interp" : "eioe"
                            },
                            "sourceCrop3" : {
                              "type" : "double",
                              "defaultValue" : 0.0,
                              "interp" : "eioe"
                            },
                            "geometryCrop0" : {
                              "type" : "double",
                              "defaultValue" : 0.0,
                              "interp" : "eioe"
                            },
                            "geometryCrop1" : {
                              "type" : "double",
                              "defaultValue" : 0.0,
                              "interp" : "eioe"
                            },
                            "geometryCrop2" : {
                              "type" : "double",
                              "defaultValue" : 0.0,
                              "interp" : "eioe"
                            },
                            "geometryCrop3" : {
                              "type" : "double",
                              "defaultValue" : 0.0,
                              "interp" : "eioe"
                            },
                            "cursorOpacity" : {
                              "type" : "double",
                              "defaultValue" : 0.0,
                              "interp" : "linr"
                            },
                            "cursorScale" : {
                              "type" : "double",
                              "defaultValue" : 0.0,
                              "interp" : "linr"
                            }
                          },
                          "effects" : [

                          ],
                          "start" : 643,
                          "duration" : 60,
                          "mediaStart" : 163,
                          "mediaDuration" : 1,
                          "scalar" : 1,
                          "metadata" : {
                            "AutoAppliedSmartFocus" : "False"
                          },
                          "animationTracks" : {

                          }
                        },
                        {
                          "id" : 68,
                          "_type" : "UnifiedMedia",
                          "video" : 
                              {
                                "id" : 69,
                                "_type" : "ScreenVMFile",
                                "src" : 3,
                                "trackNumber" : 0,
                                "attributes" : {
                                  "ident" : "Rec 04-11-21_002"
                                },
                                "parameters" : {
                                  "sourceCrop0" : {
                                    "type" : "double",
                                    "defaultValue" : 0.0,
                                    "interp" : "eioe"
                                  },
                                  "sourceCrop1" : {
                                    "type" : "double",
                                    "defaultValue" : 0.0,
                                    "interp" : "eioe"
                                  },
                                  "sourceCrop2" : {
                                    "type" : "double",
                                    "defaultValue" : 0.0,
                                    "interp" : "eioe"
                                  },
                                  "sourceCrop3" : {
                                    "type" : "double",
                                    "defaultValue" : 0.0,
                                    "interp" : "eioe"
                                  },
                                  "geometryCrop0" : {
                                    "type" : "double",
                                    "defaultValue" : 0.0,
                                    "interp" : "eioe"
                                  },
                                  "geometryCrop1" : {
                                    "type" : "double",
                                    "defaultValue" : 0.0,
                                    "interp" : "eioe"
                                  },
                                  "geometryCrop2" : {
                                    "type" : "double",
                                    "defaultValue" : 0.0,
                                    "interp" : "eioe"
                                  },
                                  "geometryCrop3" : {
                                    "type" : "double",
                                    "defaultValue" : 0.0,
                                    "interp" : "eioe"
                                  },
                                  "cursorScale" : {
                                    "type" : "double",
                                    "defaultValue" : 0.0,
                                    "interp" : "linr"
                                  },
                                  "cursorOpacity" : {
                                    "type" : "double",
                                    "defaultValue" : 0.0,
                                    "interp" : "linr"
                                  }
                                },
                                "effects" : [

                                ],
                                "start" : 703,
                                "duration" : 9534,
                                "mediaStart" : 163,
                                "mediaDuration" : 9534,
                                "scalar" : 1,
                                "animationTracks" : {

                                }
                              },
                          "audio" : 
                              {
                                "id" : 70,
                                "_type" : "AMFile",
                                "src" : 3,
                                "trackNumber" : 2,
                                "attributes" : {
                                  "ident" : "",
                                  "gain" : 1.0,
                                  "mixToMono" : false
                                },
                                  "channelNumber" : "0,1",
                                "effects" : [

                                ],
                                "start" : 703,
                                "duration" : 9534,
                                "mediaStart" : 163,
                                "mediaDuration" : 9534,
                                "scalar" : 1,
                                "animationTracks" : {

                                }
                              }
,
                          "start" : 703,
                          "duration" : 9534,
                          "mediaStart" : 0,
                          "mediaDuration" : 9697,
                          "scalar" : 1,
                          "metadata" : {
                            "AutoAppliedSmartFocus" : "False",
                            "clipSpeedAttribute" : false,
                            "default-height" : 1080.0,
                            "default-scale0" : 1.0,
                            "default-scale1" : 1.0,
                            "default-translation0" : 0.0,
                            "default-translation1" : 0.0,
                            "default-width" : 1920.0
                          }
                        }
                    ],
                    "effects" : [

                    ],
                    "start" : 1774,
                    "duration" : 95,
                    "mediaStart" : 1229,
                    "mediaDuration" : 95,
                    "scalar" : 1,
                    "metadata" : {
                      "AutoAppliedSmartFocus" : "False",
                      "clipSpeedAttribute" : false
                    },
                    "animationTracks" : {
                      "visual" : [
                        {
                          "endTime" : 497,
                          "duration" : 20,
                          "range" : [ 477, 20]
                        }
                      ]
                    }
                  },
                  {
                    "id" : 71,
                    "_type" : "StitchedMedia",
                    "minMediaStart" : 0,
                    "attributes" : {
                      "ident" : "Rec 04-11-21_002",
                      "gain" : 1.0,
                      "mixToMono" : false
                    },
                    "parameters" : {
                      "translation0" : {
                        "type" : "double",
                        "defaultValue" : 465.000000000107,
                        "interp" : "eioe",
                        "keyframes" : [
                          {
                            "endTime" : 497,
                            "time" : 477,
                            "value" : -2.8421709430404e-13,
                            "duration" : 20
                          }
                        ]
                      },
                      "translation1" : {
                        "type" : "double",
                        "defaultValue" : 6.9238836886143e-11,
                        "interp" : "eioe"
                      },
                      "scale0" : {
                        "type" : "double",
                        "defaultValue" : 0.748190787382365,
                        "interp" : "eioe",
                        "keyframes" : [
                          {
                            "endTime" : 497,
                            "time" : 477,
                            "value" : 1.0,
                            "duration" : 20
                          }
                        ]
                      },
                      "scale1" : {
                        "type" : "double",
                        "defaultValue" : 0.748190787382366,
                        "interp" : "eioe",
                        "keyframes" : [
                          {
                            "endTime" : 497,
                            "time" : 477,
                            "value" : 1.0,
                            "duration" : 20
                          }
                        ]
                      },
                      "sourceCrop0" : {
                        "type" : "double",
                        "defaultValue" : 0.0,
                        "interp" : "eioe"
                      },
                      "sourceCrop1" : {
                        "type" : "double",
                        "defaultValue" : 0.0,
                        "interp" : "eioe"
                      },
                      "sourceCrop2" : {
                        "type" : "double",
                        "defaultValue" : 0.0,
                        "interp" : "eioe"
                      },
                      "sourceCrop3" : {
                        "type" : "double",
                        "defaultValue" : 0.0,
                        "interp" : "eioe"
                      },
                      "geometryCrop0" : {
                        "type" : "double",
                        "defaultValue" : 0.0,
                        "interp" : "eioe"
                      },
                      "geometryCrop1" : {
                        "type" : "double",
                        "defaultValue" : 0.0,
                        "interp" : "eioe"
                      },
                      "geometryCrop2" : {
                        "type" : "double",
                        "defaultValue" : 0.0,
                        "interp" : "eioe"
                      },
                      "geometryCrop3" : {
                        "type" : "double",
                        "defaultValue" : 0.0,
                        "interp" : "eioe"
                      },
                      "volume" : 1.0,
                      "cursorOpacity" : {
                        "type" : "double",
                        "defaultValue" : 1.0,
                        "interp" : "linr"
                      },
                      "cursorScale" : {
                        "type" : "double",
                        "defaultValue" : 1.0,
                        "interp" : "linr"
                      }
                    },
                    "medias" : [
                        {
                          "id" : 72,
                          "_type" : "UnifiedMedia",
                          "video" : 
                              {
                                "id" : 73,
                                "_type" : "ScreenVMFile",
                                "src" : 3,
                                "trackNumber" : 0,
                                "attributes" : {
                                  "ident" : "Rec 04-11-21_002"
                                },
                                "parameters" : {
                                  "sourceCrop0" : {
                                    "type" : "double",
                                    "defaultValue" : 0.0,
                                    "interp" : "eioe"
                                  },
                                  "sourceCrop1" : {
                                    "type" : "double",
                                    "defaultValue" : 0.0,
                                    "interp" : "eioe"
                                  },
                                  "sourceCrop2" : {
                                    "type" : "double",
                                    "defaultValue" : 0.0,
                                    "interp" : "eioe"
                                  },
                                  "sourceCrop3" : {
                                    "type" : "double",
                                    "defaultValue" : 0.0,
                                    "interp" : "eioe"
                                  },
                                  "geometryCrop0" : {
                                    "type" : "double",
                                    "defaultValue" : 0.0,
                                    "interp" : "eioe"
                                  },
                                  "geometryCrop1" : {
                                    "type" : "double",
                                    "defaultValue" : 0.0,
                                    "interp" : "eioe"
                                  },
                                  "geometryCrop2" : {
                                    "type" : "double",
                                    "defaultValue" : 0.0,
                                    "interp" : "eioe"
                                  },
                                  "geometryCrop3" : {
                                    "type" : "double",
                                    "defaultValue" : 0.0,
                                    "interp" : "eioe"
                                  },
                                  "cursorScale" : {
                                    "type" : "double",
                                    "defaultValue" : 0.0,
                                    "interp" : "linr"
                                  },
                                  "cursorOpacity" : {
                                    "type" : "double",
                                    "defaultValue" : 0.0,
                                    "interp" : "linr"
                                  }
                                },
                                "effects" : [

                                ],
                                "start" : 0,
                                "duration" : 126,
                                "mediaStart" : 0,
                                "mediaDuration" : 126,
                                "scalar" : 1,
                                "animationTracks" : {

                                }
                              },
                          "audio" : 
                              {
                                "id" : 74,
                                "_type" : "AMFile",
                                "src" : 3,
                                "trackNumber" : 2,
                                "attributes" : {
                                  "ident" : "",
                                  "gain" : 1.0,
                                  "mixToMono" : false
                                },
                                  "channelNumber" : "0,1",
                                "effects" : [

                                ],
                                "start" : 0,
                                "duration" : 126,
                                "mediaStart" : 0,
                                "mediaDuration" : 126,
                                "scalar" : 1,
                                "animationTracks" : {

                                }
                              }
,
                          "start" : 0,
                          "duration" : 126,
                          "mediaStart" : 0,
                          "mediaDuration" : 9697,
                          "scalar" : 1,
                          "metadata" : {
                            "AutoAppliedSmartFocus" : "False",
                            "clipSpeedAttribute" : false,
                            "default-height" : 1080.0,
                            "default-scale0" : 1.0,
                            "default-scale1" : 1.0,
                            "default-translation0" : 0.0,
                            "default-translation1" : 0.0,
                            "default-width" : 1920.0
                          }
                        },
                        {
                          "id" : 75,
                          "_type" : "ScreenIMFile",
                          "src" : 3,
                          "trackNumber" : 0,
                          "trimStartSum" : 0,
                          "attributes" : {
                            "ident" : "Rec 04-11-21_002"
                          },
                          "parameters" : {
                            "sourceCrop0" : {
                              "type" : "double",
                              "defaultValue" : 0.0,
                              "interp" : "eioe"
                            },
                            "sourceCrop1" : {
                              "type" : "double",
                              "defaultValue" : 0.0,
                              "interp" : "eioe"
                            },
                            "sourceCrop2" : {
                              "type" : "double",
                              "defaultValue" : 0.0,
                              "interp" : "eioe"
                            },
                            "sourceCrop3" : {
                              "type" : "double",
                              "defaultValue" : 0.0,
                              "interp" : "eioe"
                            },
                            "geometryCrop0" : {
                              "type" : "double",
                              "defaultValue" : 0.0,
                              "interp" : "eioe"
                            },
                            "geometryCrop1" : {
                              "type" : "double",
                              "defaultValue" : 0.0,
                              "interp" : "eioe"
                            },
                            "geometryCrop2" : {
                              "type" : "double",
                              "defaultValue" : 0.0,
                              "interp" : "eioe"
                            },
                            "geometryCrop3" : {
                              "type" : "double",
                              "defaultValue" : 0.0,
                              "interp" : "eioe"
                            },
                            "cursorOpacity" : {
                              "type" : "double",
                              "defaultValue" : 0.0,
                              "interp" : "linr"
                            },
                            "cursorScale" : {
                              "type" : "double",
                              "defaultValue" : 0.0,
                              "interp" : "linr"
                            }
                          },
                          "effects" : [

                          ],
                          "start" : 126,
                          "duration" : 480,
                          "mediaStart" : 125,
                          "mediaDuration" : 1,
                          "scalar" : 1,
                          "metadata" : {
                            "AutoAppliedSmartFocus" : "False"
                          },
                          "animationTracks" : {

                          }
                        },
                        {
                          "id" : 76,
                          "_type" : "UnifiedMedia",
                          "video" : 
                              {
                                "id" : 77,
                                "_type" : "ScreenVMFile",
                                "src" : 3,
                                "trackNumber" : 0,
                                "attributes" : {
                                  "ident" : "Rec 04-11-21_002"
                                },
                                "parameters" : {
                                  "sourceCrop0" : {
                                    "type" : "double",
                                    "defaultValue" : 0.0,
                                    "interp" : "eioe"
                                  },
                                  "sourceCrop1" : {
                                    "type" : "double",
                                    "defaultValue" : 0.0,
                                    "interp" : "eioe"
                                  },
                                  "sourceCrop2" : {
                                    "type" : "double",
                                    "defaultValue" : 0.0,
                                    "interp" : "eioe"
                                  },
                                  "sourceCrop3" : {
                                    "type" : "double",
                                    "defaultValue" : 0.0,
                                    "interp" : "eioe"
                                  },
                                  "geometryCrop0" : {
                                    "type" : "double",
                                    "defaultValue" : 0.0,
                                    "interp" : "eioe"
                                  },
                                  "geometryCrop1" : {
                                    "type" : "double",
                                    "defaultValue" : 0.0,
                                    "interp" : "eioe"
                                  },
                                  "geometryCrop2" : {
                                    "type" : "double",
                                    "defaultValue" : 0.0,
                                    "interp" : "eioe"
                                  },
                                  "geometryCrop3" : {
                                    "type" : "double",
                                    "defaultValue" : 0.0,
                                    "interp" : "eioe"
                                  },
                                  "cursorScale" : {
                                    "type" : "double",
                                    "defaultValue" : 0.0,
                                    "interp" : "linr"
                                  },
                                  "cursorOpacity" : {
                                    "type" : "double",
                                    "defaultValue" : 0.0,
                                    "interp" : "linr"
                                  }
                                },
                                "effects" : [

                                ],
                                "start" : 606,
                                "duration" : 37,
                                "mediaStart" : 126,
                                "mediaDuration" : 37,
                                "scalar" : 1,
                                "animationTracks" : {

                                }
                              },
                          "audio" : 
                              {
                                "id" : 78,
                                "_type" : "AMFile",
                                "src" : 3,
                                "trackNumber" : 2,
                                "attributes" : {
                                  "ident" : "",
                                  "gain" : 1.0,
                                  "mixToMono" : false
                                },
                                  "channelNumber" : "0,1",
                                "effects" : [

                                ],
                                "start" : 606,
                                "duration" : 37,
                                "mediaStart" : 126,
                                "mediaDuration" : 37,
                                "scalar" : 1,
                                "animationTracks" : {

                                }
                              }
,
                          "start" : 606,
                          "duration" : 37,
                          "mediaStart" : 0,
                          "mediaDuration" : 9697,
                          "scalar" : 1,
                          "metadata" : {
                            "AutoAppliedSmartFocus" : "False",
                            "clipSpeedAttribute" : false,
                            "default-height" : 1080.0,
                            "default-scale0" : 1.0,
                            "default-scale1" : 1.0,
                            "default-translation0" : 0.0,
                            "default-translation1" : 0.0,
                            "default-width" : 1920.0
                          }
                        },
                        {
                          "id" : 79,
                          "_type" : "ScreenIMFile",
                          "src" : 3,
                          "trackNumber" : 0,
                          "trimStartSum" : 0,
                          "attributes" : {
                            "ident" : "Rec 04-11-21_002"
                          },
                          "parameters" : {
                            "sourceCrop0" : {
                              "type" : "double",
                              "defaultValue" : 0.0,
                              "interp" : "eioe"
                            },
                            "sourceCrop1" : {
                              "type" : "double",
                              "defaultValue" : 0.0,
                              "interp" : "eioe"
                            },
                            "sourceCrop2" : {
                              "type" : "double",
                              "defaultValue" : 0.0,
                              "interp" : "eioe"
                            },
                            "sourceCrop3" : {
                              "type" : "double",
                              "defaultValue" : 0.0,
                              "interp" : "eioe"
                            },
                            "geometryCrop0" : {
                              "type" : "double",
                              "defaultValue" : 0.0,
                              "interp" : "eioe"
                            },
                            "geometryCrop1" : {
                              "type" : "double",
                              "defaultValue" : 0.0,
                              "interp" : "eioe"
                            },
                            "geometryCrop2" : {
                              "type" : "double",
                              "defaultValue" : 0.0,
                              "interp" : "eioe"
                            },
                            "geometryCrop3" : {
                              "type" : "double",
                              "defaultValue" : 0.0,
                              "interp" : "eioe"
                            },
                            "cursorOpacity" : {
                              "type" : "double",
                              "defaultValue" : 0.0,
                              "interp" : "linr"
                            },
                            "cursorScale" : {
                              "type" : "double",
                              "defaultValue" : 0.0,
                              "interp" : "linr"
                            }
                          },
                          "effects" : [

                          ],
                          "start" : 643,
                          "duration" : 60,
                          "mediaStart" : 163,
                          "mediaDuration" : 1,
                          "scalar" : 1,
                          "metadata" : {
                            "AutoAppliedSmartFocus" : "False"
                          },
                          "animationTracks" : {

                          }
                        },
                        {
                          "id" : 80,
                          "_type" : "UnifiedMedia",
                          "video" : 
                              {
                                "id" : 81,
                                "_type" : "ScreenVMFile",
                                "src" : 3,
                                "trackNumber" : 0,
                                "attributes" : {
                                  "ident" : "Rec 04-11-21_002"
                                },
                                "parameters" : {
                                  "sourceCrop0" : {
                                    "type" : "double",
                                    "defaultValue" : 0.0,
                                    "interp" : "eioe"
                                  },
                                  "sourceCrop1" : {
                                    "type" : "double",
                                    "defaultValue" : 0.0,
                                    "interp" : "eioe"
                                  },
                                  "sourceCrop2" : {
                                    "type" : "double",
                                    "defaultValue" : 0.0,
                                    "interp" : "eioe"
                                  },
                                  "sourceCrop3" : {
                                    "type" : "double",
                                    "defaultValue" : 0.0,
                                    "interp" : "eioe"
                                  },
                                  "geometryCrop0" : {
                                    "type" : "double",
                                    "defaultValue" : 0.0,
                                    "interp" : "eioe"
                                  },
                                  "geometryCrop1" : {
                                    "type" : "double",
                                    "defaultValue" : 0.0,
                                    "interp" : "eioe"
                                  },
                                  "geometryCrop2" : {
                                    "type" : "double",
                                    "defaultValue" : 0.0,
                                    "interp" : "eioe"
                                  },
                                  "geometryCrop3" : {
                                    "type" : "double",
                                    "defaultValue" : 0.0,
                                    "interp" : "eioe"
                                  },
                                  "cursorScale" : {
                                    "type" : "double",
                                    "defaultValue" : 0.0,
                                    "interp" : "linr"
                                  },
                                  "cursorOpacity" : {
                                    "type" : "double",
                                    "defaultValue" : 0.0,
                                    "interp" : "linr"
                                  }
                                },
                                "effects" : [

                                ],
                                "start" : 703,
                                "duration" : 9534,
                                "mediaStart" : 163,
                                "mediaDuration" : 9534,
                                "scalar" : 1,
                                "animationTracks" : {

                                }
                              },
                          "audio" : 
                              {
                                "id" : 82,
                                "_type" : "AMFile",
                                "src" : 3,
                                "trackNumber" : 2,
                                "attributes" : {
                                  "ident" : "",
                                  "gain" : 1.0,
                                  "mixToMono" : false
                                },
                                  "channelNumber" : "0,1",
                                "effects" : [

                                ],
                                "start" : 703,
                                "duration" : 9534,
                                "mediaStart" : 163,
                                "mediaDuration" : 9534,
                                "scalar" : 1,
                                "animationTracks" : {

                                }
                              }
,
                          "start" : 703,
                          "duration" : 9534,
                          "mediaStart" : 0,
                          "mediaDuration" : 9697,
                          "scalar" : 1,
                          "metadata" : {
                            "AutoAppliedSmartFocus" : "False",
                            "clipSpeedAttribute" : false,
                            "default-height" : 1080.0,
                            "default-scale0" : 1.0,
                            "default-scale1" : 1.0,
                            "default-translation0" : 0.0,
                            "default-translation1" : 0.0,
                            "default-width" : 1920.0
                          }
                        }
                    ],
                    "effects" : [

                    ],
                    "start" : 1869,
                    "duration" : 3,
                    "mediaStart" : 1340,
                    "mediaDuration" : 3,
                    "scalar" : 1,
                    "metadata" : {
                      "AutoAppliedSmartFocus" : "False",
                      "clipSpeedAttribute" : false
                    },
                    "animationTracks" : {
                      "visual" : [
                        {
                          "endTime" : 497,
                          "duration" : 20,
                          "range" : [ 477, 20]
                        }
                      ]
                    }
                  },
                  {
                    "id" : 83,
                    "_type" : "StitchedMedia",
                    "minMediaStart" : 0,
                    "attributes" : {
                      "ident" : "Rec 04-11-21_002",
                      "gain" : 1.0,
                      "mixToMono" : false
                    },
                    "parameters" : {
                      "translation0" : {
                        "type" : "double",
                        "defaultValue" : 465.000000000107,
                        "interp" : "eioe",
                        "keyframes" : [
                          {
                            "endTime" : 621,
                            "time" : 601,
                            "value" : -2.8421709430404e-13,
                            "duration" : 20
                          }
                        ]
                      },
                      "translation1" : {
                        "type" : "double",
                        "defaultValue" : 6.9238836886143e-11,
                        "interp" : "eioe"
                      },
                      "scale0" : {
                        "type" : "double",
                        "defaultValue" : 0.748190787382365,
                        "interp" : "eioe",
                        "keyframes" : [
                          {
                            "endTime" : 621,
                            "time" : 601,
                            "value" : 1.0,
                            "duration" : 20
                          }
                        ]
                      },
                      "scale1" : {
                        "type" : "double",
                        "defaultValue" : 0.748190787382366,
                        "interp" : "eioe",
                        "keyframes" : [
                          {
                            "endTime" : 621,
                            "time" : 601,
                            "value" : 1.0,
                            "duration" : 20
                          }
                        ]
                      },
                      "sourceCrop0" : {
                        "type" : "double",
                        "defaultValue" : 0.0,
                        "interp" : "eioe"
                      },
                      "sourceCrop1" : {
                        "type" : "double",
                        "defaultValue" : 0.0,
                        "interp" : "eioe"
                      },
                      "sourceCrop2" : {
                        "type" : "double",
                        "defaultValue" : 0.0,
                        "interp" : "eioe"
                      },
                      "sourceCrop3" : {
                        "type" : "double",
                        "defaultValue" : 0.0,
                        "interp" : "eioe"
                      },
                      "geometryCrop0" : {
                        "type" : "double",
                        "defaultValue" : 0.0,
                        "interp" : "eioe"
                      },
                      "geometryCrop1" : {
                        "type" : "double",
                        "defaultValue" : 0.0,
                        "interp" : "eioe"
                      },
                      "geometryCrop2" : {
                        "type" : "double",
                        "defaultValue" : 0.0,
                        "interp" : "eioe"
                      },
                      "geometryCrop3" : {
                        "type" : "double",
                        "defaultValue" : 0.0,
                        "interp" : "eioe"
                      },
                      "volume" : 1.0,
                      "cursorOpacity" : {
                        "type" : "double",
                        "defaultValue" : 1.0,
                        "interp" : "linr"
                      },
                      "cursorScale" : {
                        "type" : "double",
                        "defaultValue" : 1.0,
                        "interp" : "linr"
                      }
                    },
                    "medias" : [
                        {
                          "id" : 84,
                          "_type" : "UnifiedMedia",
                          "video" : 
                              {
                                "id" : 85,
                                "_type" : "ScreenVMFile",
                                "src" : 3,
                                "trackNumber" : 0,
                                "attributes" : {
                                  "ident" : "Rec 04-11-21_002"
                                },
                                "parameters" : {
                                  "sourceCrop0" : {
                                    "type" : "double",
                                    "defaultValue" : 0.0,
                                    "interp" : "eioe"
                                  },
                                  "sourceCrop1" : {
                                    "type" : "double",
                                    "defaultValue" : 0.0,
                                    "interp" : "eioe"
                                  },
                                  "sourceCrop2" : {
                                    "type" : "double",
                                    "defaultValue" : 0.0,
                                    "interp" : "eioe"
                                  },
                                  "sourceCrop3" : {
                                    "type" : "double",
                                    "defaultValue" : 0.0,
                                    "interp" : "eioe"
                                  },
                                  "geometryCrop0" : {
                                    "type" : "double",
                                    "defaultValue" : 0.0,
                                    "interp" : "eioe"
                                  },
                                  "geometryCrop1" : {
                                    "type" : "double",
                                    "defaultValue" : 0.0,
                                    "interp" : "eioe"
                                  },
                                  "geometryCrop2" : {
                                    "type" : "double",
                                    "defaultValue" : 0.0,
                                    "interp" : "eioe"
                                  },
                                  "geometryCrop3" : {
                                    "type" : "double",
                                    "defaultValue" : 0.0,
                                    "interp" : "eioe"
                                  },
                                  "cursorScale" : {
                                    "type" : "double",
                                    "defaultValue" : 0.0,
                                    "interp" : "linr"
                                  },
                                  "cursorOpacity" : {
                                    "type" : "double",
                                    "defaultValue" : 0.0,
                                    "interp" : "linr"
                                  }
                                },
                                "effects" : [

                                ],
                                "start" : 0,
                                "duration" : 126,
                                "mediaStart" : 0,
                                "mediaDuration" : 126,
                                "scalar" : 1,
                                "animationTracks" : {

                                }
                              },
                          "audio" : 
                              {
                                "id" : 86,
                                "_type" : "AMFile",
                                "src" : 3,
                                "trackNumber" : 2,
                                "attributes" : {
                                  "ident" : "",
                                  "gain" : 1.0,
                                  "mixToMono" : false
                                },
                                  "channelNumber" : "0,1",
                                "effects" : [

                                ],
                                "start" : 0,
                                "duration" : 126,
                                "mediaStart" : 0,
                                "mediaDuration" : 126,
                                "scalar" : 1,
                                "animationTracks" : {

                                }
                              }
,
                          "start" : 0,
                          "duration" : 126,
                          "mediaStart" : 0,
                          "mediaDuration" : 9697,
                          "scalar" : 1,
                          "metadata" : {
                            "AutoAppliedSmartFocus" : "False",
                            "clipSpeedAttribute" : false,
                            "default-height" : 1080.0,
                            "default-scale0" : 1.0,
                            "default-scale1" : 1.0,
                            "default-translation0" : 0.0,
                            "default-translation1" : 0.0,
                            "default-width" : 1920.0
                          }
                        },
                        {
                          "id" : 87,
                          "_type" : "ScreenIMFile",
                          "src" : 3,
                          "trackNumber" : 0,
                          "trimStartSum" : 0,
                          "attributes" : {
                            "ident" : "Rec 04-11-21_002"
                          },
                          "parameters" : {
                            "sourceCrop0" : {
                              "type" : "double",
                              "defaultValue" : 0.0,
                              "interp" : "eioe"
                            },
                            "sourceCrop1" : {
                              "type" : "double",
                              "defaultValue" : 0.0,
                              "interp" : "eioe"
                            },
                            "sourceCrop2" : {
                              "type" : "double",
                              "defaultValue" : 0.0,
                              "interp" : "eioe"
                            },
                            "sourceCrop3" : {
                              "type" : "double",
                              "defaultValue" : 0.0,
                              "interp" : "eioe"
                            },
                            "geometryCrop0" : {
                              "type" : "double",
                              "defaultValue" : 0.0,
                              "interp" : "eioe"
                            },
                            "geometryCrop1" : {
                              "type" : "double",
                              "defaultValue" : 0.0,
                              "interp" : "eioe"
                            },
                            "geometryCrop2" : {
                              "type" : "double",
                              "defaultValue" : 0.0,
                              "interp" : "eioe"
                            },
                            "geometryCrop3" : {
                              "type" : "double",
                              "defaultValue" : 0.0,
                              "interp" : "eioe"
                            },
                            "cursorOpacity" : {
                              "type" : "double",
                              "defaultValue" : 0.0,
                              "interp" : "linr"
                            },
                            "cursorScale" : {
                              "type" : "double",
                              "defaultValue" : 0.0,
                              "interp" : "linr"
                            }
                          },
                          "effects" : [

                          ],
                          "start" : 126,
                          "duration" : 480,
                          "mediaStart" : 125,
                          "mediaDuration" : 1,
                          "scalar" : 1,
                          "metadata" : {
                            "AutoAppliedSmartFocus" : "False"
                          },
                          "animationTracks" : {

                          }
                        },
                        {
                          "id" : 88,
                          "_type" : "UnifiedMedia",
                          "video" : 
                              {
                                "id" : 89,
                                "_type" : "ScreenVMFile",
                                "src" : 3,
                                "trackNumber" : 0,
                                "attributes" : {
                                  "ident" : "Rec 04-11-21_002"
                                },
                                "parameters" : {
                                  "sourceCrop0" : {
                                    "type" : "double",
                                    "defaultValue" : 0.0,
                                    "interp" : "eioe"
                                  },
                                  "sourceCrop1" : {
                                    "type" : "double",
                                    "defaultValue" : 0.0,
                                    "interp" : "eioe"
                                  },
                                  "sourceCrop2" : {
                                    "type" : "double",
                                    "defaultValue" : 0.0,
                                    "interp" : "eioe"
                                  },
                                  "sourceCrop3" : {
                                    "type" : "double",
                                    "defaultValue" : 0.0,
                                    "interp" : "eioe"
                                  },
                                  "geometryCrop0" : {
                                    "type" : "double",
                                    "defaultValue" : 0.0,
                                    "interp" : "eioe"
                                  },
                                  "geometryCrop1" : {
                                    "type" : "double",
                                    "defaultValue" : 0.0,
                                    "interp" : "eioe"
                                  },
                                  "geometryCrop2" : {
                                    "type" : "double",
                                    "defaultValue" : 0.0,
                                    "interp" : "eioe"
                                  },
                                  "geometryCrop3" : {
                                    "type" : "double",
                                    "defaultValue" : 0.0,
                                    "interp" : "eioe"
                                  },
                                  "cursorScale" : {
                                    "type" : "double",
                                    "defaultValue" : 0.0,
                                    "interp" : "linr"
                                  },
                                  "cursorOpacity" : {
                                    "type" : "double",
                                    "defaultValue" : 0.0,
                                    "interp" : "linr"
                                  }
                                },
                                "effects" : [

                                ],
                                "start" : 606,
                                "duration" : 37,
                                "mediaStart" : 126,
                                "mediaDuration" : 37,
                                "scalar" : 1,
                                "animationTracks" : {

                                }
                              },
                          "audio" : 
                              {
                                "id" : 90,
                                "_type" : "AMFile",
                                "src" : 3,
                                "trackNumber" : 2,
                                "attributes" : {
                                  "ident" : "",
                                  "gain" : 1.0,
                                  "mixToMono" : false
                                },
                                  "channelNumber" : "0,1",
                                "effects" : [

                                ],
                                "start" : 606,
                                "duration" : 37,
                                "mediaStart" : 126,
                                "mediaDuration" : 37,
                                "scalar" : 1,
                                "animationTracks" : {

                                }
                              }
,
                          "start" : 606,
                          "duration" : 37,
                          "mediaStart" : 0,
                          "mediaDuration" : 9697,
                          "scalar" : 1,
                          "metadata" : {
                            "AutoAppliedSmartFocus" : "False",
                            "clipSpeedAttribute" : false,
                            "default-height" : 1080.0,
                            "default-scale0" : 1.0,
                            "default-scale1" : 1.0,
                            "default-translation0" : 0.0,
                            "default-translation1" : 0.0,
                            "default-width" : 1920.0
                          }
                        },
                        {
                          "id" : 91,
                          "_type" : "ScreenIMFile",
                          "src" : 3,
                          "trackNumber" : 0,
                          "trimStartSum" : 0,
                          "attributes" : {
                            "ident" : "Rec 04-11-21_002"
                          },
                          "parameters" : {
                            "sourceCrop0" : {
                              "type" : "double",
                              "defaultValue" : 0.0,
                              "interp" : "eioe"
                            },
                            "sourceCrop1" : {
                              "type" : "double",
                              "defaultValue" : 0.0,
                              "interp" : "eioe"
                            },
                            "sourceCrop2" : {
                              "type" : "double",
                              "defaultValue" : 0.0,
                              "interp" : "eioe"
                            },
                            "sourceCrop3" : {
                              "type" : "double",
                              "defaultValue" : 0.0,
                              "interp" : "eioe"
                            },
                            "geometryCrop0" : {
                              "type" : "double",
                              "defaultValue" : 0.0,
                              "interp" : "eioe"
                            },
                            "geometryCrop1" : {
                              "type" : "double",
                              "defaultValue" : 0.0,
                              "interp" : "eioe"
                            },
                            "geometryCrop2" : {
                              "type" : "double",
                              "defaultValue" : 0.0,
                              "interp" : "eioe"
                            },
                            "geometryCrop3" : {
                              "type" : "double",
                              "defaultValue" : 0.0,
                              "interp" : "eioe"
                            },
                            "cursorOpacity" : {
                              "type" : "double",
                              "defaultValue" : 0.0,
                              "interp" : "linr"
                            },
                            "cursorScale" : {
                              "type" : "double",
                              "defaultValue" : 0.0,
                              "interp" : "linr"
                            }
                          },
                          "effects" : [

                          ],
                          "start" : 643,
                          "duration" : 60,
                          "mediaStart" : 163,
                          "mediaDuration" : 1,
                          "scalar" : 1,
                          "metadata" : {
                            "AutoAppliedSmartFocus" : "False"
                          },
                          "animationTracks" : {

                          }
                        },
                        {
                          "id" : 92,
                          "_type" : "UnifiedMedia",
                          "video" : 
                              {
                                "id" : 93,
                                "_type" : "ScreenVMFile",
                                "src" : 3,
                                "trackNumber" : 0,
                                "attributes" : {
                                  "ident" : "Rec 04-11-21_002"
                                },
                                "parameters" : {
                                  "sourceCrop0" : {
                                    "type" : "double",
                                    "defaultValue" : 0.0,
                                    "interp" : "eioe"
                                  },
                                  "sourceCrop1" : {
                                    "type" : "double",
                                    "defaultValue" : 0.0,
                                    "interp" : "eioe"
                                  },
                                  "sourceCrop2" : {
                                    "type" : "double",
                                    "defaultValue" : 0.0,
                                    "interp" : "eioe"
                                  },
                                  "sourceCrop3" : {
                                    "type" : "double",
                                    "defaultValue" : 0.0,
                                    "interp" : "eioe"
                                  },
                                  "geometryCrop0" : {
                                    "type" : "double",
                                    "defaultValue" : 0.0,
                                    "interp" : "eioe"
                                  },
                                  "geometryCrop1" : {
                                    "type" : "double",
                                    "defaultValue" : 0.0,
                                    "interp" : "eioe"
                                  },
                                  "geometryCrop2" : {
                                    "type" : "double",
                                    "defaultValue" : 0.0,
                                    "interp" : "eioe"
                                  },
                                  "geometryCrop3" : {
                                    "type" : "double",
                                    "defaultValue" : 0.0,
                                    "interp" : "eioe"
                                  },
                                  "cursorScale" : {
                                    "type" : "double",
                                    "defaultValue" : 0.0,
                                    "interp" : "linr"
                                  },
                                  "cursorOpacity" : {
                                    "type" : "double",
                                    "defaultValue" : 0.0,
                                    "interp" : "linr"
                                  }
                                },
                                "effects" : [

                                ],
                                "start" : 703,
                                "duration" : 9534,
                                "mediaStart" : 163,
                                "mediaDuration" : 9534,
                                "scalar" : 1,
                                "animationTracks" : {

                                }
                              },
                          "audio" : 
                              {
                                "id" : 94,
                                "_type" : "AMFile",
                                "src" : 3,
                                "trackNumber" : 2,
                                "attributes" : {
                                  "ident" : "",
                                  "gain" : 1.0,
                                  "mixToMono" : false
                                },
                                  "channelNumber" : "0,1",
                                "effects" : [

                                ],
                                "start" : 703,
                                "duration" : 9534,
                                "mediaStart" : 163,
                                "mediaDuration" : 9534,
                                "scalar" : 1,
                                "animationTracks" : {

                                }
                              }
,
                          "start" : 703,
                          "duration" : 9534,
                          "mediaStart" : 0,
                          "mediaDuration" : 9697,
                          "scalar" : 1,
                          "metadata" : {
                            "AutoAppliedSmartFocus" : "False",
                            "clipSpeedAttribute" : false,
                            "default-height" : 1080.0,
                            "default-scale0" : 1.0,
                            "default-scale1" : 1.0,
                            "default-translation0" : 0.0,
                            "default-translation1" : 0.0,
                            "default-width" : 1920.0
                          }
                        }
                    ],
                    "effects" : [

                    ],
                    "start" : 1872,
                    "duration" : 113,
                    "mediaStart" : 1596,
                    "mediaDuration" : 113,
                    "scalar" : 1,
                    "metadata" : {
                      "AutoAppliedSmartFocus" : "False",
                      "clipSpeedAttribute" : false
                    },
                    "animationTracks" : {
                      "visual" : [
                        {
                          "endTime" : 621,
                          "duration" : 20,
                          "range" : [ 601, 20]
                        }
                      ]
                    }
                  },
                  {
                    "id" : 95,
                    "_type" : "StitchedMedia",
                    "minMediaStart" : 0,
                    "attributes" : {
                      "ident" : "Rec 04-11-21_002",
                      "gain" : 1.0,
                      "mixToMono" : false
                    },
                    "parameters" : {
                      "translation0" : {
                        "type" : "double",
                        "defaultValue" : 465.000000000107,
                        "interp" : "eioe",
                        "keyframes" : [
                          {
                            "endTime" : 621,
                            "time" : 601,
                            "value" : -2.8421709430404e-13,
                            "duration" : 20
                          }
                        ]
                      },
                      "translation1" : {
                        "type" : "double",
                        "defaultValue" : 6.9238836886143e-11,
                        "interp" : "eioe"
                      },
                      "scale0" : {
                        "type" : "double",
                        "defaultValue" : 0.748190787382365,
                        "interp" : "eioe",
                        "keyframes" : [
                          {
                            "endTime" : 621,
                            "time" : 601,
                            "value" : 1.0,
                            "duration" : 20
                          }
                        ]
                      },
                      "scale1" : {
                        "type" : "double",
                        "defaultValue" : 0.748190787382366,
                        "interp" : "eioe",
                        "keyframes" : [
                          {
                            "endTime" : 621,
                            "time" : 601,
                            "value" : 1.0,
                            "duration" : 20
                          }
                        ]
                      },
                      "sourceCrop0" : {
                        "type" : "double",
                        "defaultValue" : 0.0,
                        "interp" : "eioe"
                      },
                      "sourceCrop1" : {
                        "type" : "double",
                        "defaultValue" : 0.0,
                        "interp" : "eioe"
                      },
                      "sourceCrop2" : {
                        "type" : "double",
                        "defaultValue" : 0.0,
                        "interp" : "eioe"
                      },
                      "sourceCrop3" : {
                        "type" : "double",
                        "defaultValue" : 0.0,
                        "interp" : "eioe"
                      },
                      "geometryCrop0" : {
                        "type" : "double",
                        "defaultValue" : 0.0,
                        "interp" : "eioe"
                      },
                      "geometryCrop1" : {
                        "type" : "double",
                        "defaultValue" : 0.0,
                        "interp" : "eioe"
                      },
                      "geometryCrop2" : {
                        "type" : "double",
                        "defaultValue" : 0.0,
                        "interp" : "eioe"
                      },
                      "geometryCrop3" : {
                        "type" : "double",
                        "defaultValue" : 0.0,
                        "interp" : "eioe"
                      },
                      "volume" : 1.0,
                      "cursorOpacity" : {
                        "type" : "double",
                        "defaultValue" : 1.0,
                        "interp" : "linr"
                      },
                      "cursorScale" : {
                        "type" : "double",
                        "defaultValue" : 1.0,
                        "interp" : "linr"
                      }
                    },
                    "medias" : [
                        {
                          "id" : 96,
                          "_type" : "UnifiedMedia",
                          "video" : 
                              {
                                "id" : 97,
                                "_type" : "ScreenVMFile",
                                "src" : 3,
                                "trackNumber" : 0,
                                "attributes" : {
                                  "ident" : "Rec 04-11-21_002"
                                },
                                "parameters" : {
                                  "sourceCrop0" : {
                                    "type" : "double",
                                    "defaultValue" : 0.0,
                                    "interp" : "eioe"
                                  },
                                  "sourceCrop1" : {
                                    "type" : "double",
                                    "defaultValue" : 0.0,
                                    "interp" : "eioe"
                                  },
                                  "sourceCrop2" : {
                                    "type" : "double",
                                    "defaultValue" : 0.0,
                                    "interp" : "eioe"
                                  },
                                  "sourceCrop3" : {
                                    "type" : "double",
                                    "defaultValue" : 0.0,
                                    "interp" : "eioe"
                                  },
                                  "geometryCrop0" : {
                                    "type" : "double",
                                    "defaultValue" : 0.0,
                                    "interp" : "eioe"
                                  },
                                  "geometryCrop1" : {
                                    "type" : "double",
                                    "defaultValue" : 0.0,
                                    "interp" : "eioe"
                                  },
                                  "geometryCrop2" : {
                                    "type" : "double",
                                    "defaultValue" : 0.0,
                                    "interp" : "eioe"
                                  },
                                  "geometryCrop3" : {
                                    "type" : "double",
                                    "defaultValue" : 0.0,
                                    "interp" : "eioe"
                                  },
                                  "cursorScale" : {
                                    "type" : "double",
                                    "defaultValue" : 0.0,
                                    "interp" : "linr"
                                  },
                                  "cursorOpacity" : {
                                    "type" : "double",
                                    "defaultValue" : 0.0,
                                    "interp" : "linr"
                                  }
                                },
                                "effects" : [

                                ],
                                "start" : 0,
                                "duration" : 126,
                                "mediaStart" : 0,
                                "mediaDuration" : 126,
                                "scalar" : 1,
                                "animationTracks" : {

                                }
                              },
                          "audio" : 
                              {
                                "id" : 98,
                                "_type" : "AMFile",
                                "src" : 3,
                                "trackNumber" : 2,
                                "attributes" : {
                                  "ident" : "",
                                  "gain" : 1.0,
                                  "mixToMono" : false
                                },
                                  "channelNumber" : "0,1",
                                "effects" : [

                                ],
                                "start" : 0,
                                "duration" : 126,
                                "mediaStart" : 0,
                                "mediaDuration" : 126,
                                "scalar" : 1,
                                "animationTracks" : {

                                }
                              }
,
                          "start" : 0,
                          "duration" : 126,
                          "mediaStart" : 0,
                          "mediaDuration" : 9697,
                          "scalar" : 1,
                          "metadata" : {
                            "AutoAppliedSmartFocus" : "False",
                            "clipSpeedAttribute" : false,
                            "default-height" : 1080.0,
                            "default-scale0" : 1.0,
                            "default-scale1" : 1.0,
                            "default-translation0" : 0.0,
                            "default-translation1" : 0.0,
                            "default-width" : 1920.0
                          }
                        },
                        {
                          "id" : 99,
                          "_type" : "ScreenIMFile",
                          "src" : 3,
                          "trackNumber" : 0,
                          "trimStartSum" : 0,
                          "attributes" : {
                            "ident" : "Rec 04-11-21_002"
                          },
                          "parameters" : {
                            "sourceCrop0" : {
                              "type" : "double",
                              "defaultValue" : 0.0,
                              "interp" : "eioe"
                            },
                            "sourceCrop1" : {
                              "type" : "double",
                              "defaultValue" : 0.0,
                              "interp" : "eioe"
                            },
                            "sourceCrop2" : {
                              "type" : "double",
                              "defaultValue" : 0.0,
                              "interp" : "eioe"
                            },
                            "sourceCrop3" : {
                              "type" : "double",
                              "defaultValue" : 0.0,
                              "interp" : "eioe"
                            },
                            "geometryCrop0" : {
                              "type" : "double",
                              "defaultValue" : 0.0,
                              "interp" : "eioe"
                            },
                            "geometryCrop1" : {
                              "type" : "double",
                              "defaultValue" : 0.0,
                              "interp" : "eioe"
                            },
                            "geometryCrop2" : {
                              "type" : "double",
                              "defaultValue" : 0.0,
                              "interp" : "eioe"
                            },
                            "geometryCrop3" : {
                              "type" : "double",
                              "defaultValue" : 0.0,
                              "interp" : "eioe"
                            },
                            "cursorOpacity" : {
                              "type" : "double",
                              "defaultValue" : 0.0,
                              "interp" : "linr"
                            },
                            "cursorScale" : {
                              "type" : "double",
                              "defaultValue" : 0.0,
                              "interp" : "linr"
                            }
                          },
                          "effects" : [

                          ],
                          "start" : 126,
                          "duration" : 480,
                          "mediaStart" : 125,
                          "mediaDuration" : 1,
                          "scalar" : 1,
                          "metadata" : {
                            "AutoAppliedSmartFocus" : "False"
                          },
                          "animationTracks" : {

                          }
                        },
                        {
                          "id" : 100,
                          "_type" : "UnifiedMedia",
                          "video" : 
                              {
                                "id" : 101,
                                "_type" : "ScreenVMFile",
                                "src" : 3,
                                "trackNumber" : 0,
                                "attributes" : {
                                  "ident" : "Rec 04-11-21_002"
                                },
                                "parameters" : {
                                  "sourceCrop0" : {
                                    "type" : "double",
                                    "defaultValue" : 0.0,
                                    "interp" : "eioe"
                                  },
                                  "sourceCrop1" : {
                                    "type" : "double",
                                    "defaultValue" : 0.0,
                                    "interp" : "eioe"
                                  },
                                  "sourceCrop2" : {
                                    "type" : "double",
                                    "defaultValue" : 0.0,
                                    "interp" : "eioe"
                                  },
                                  "sourceCrop3" : {
                                    "type" : "double",
                                    "defaultValue" : 0.0,
                                    "interp" : "eioe"
                                  },
                                  "geometryCrop0" : {
                                    "type" : "double",
                                    "defaultValue" : 0.0,
                                    "interp" : "eioe"
                                  },
                                  "geometryCrop1" : {
                                    "type" : "double",
                                    "defaultValue" : 0.0,
                                    "interp" : "eioe"
                                  },
                                  "geometryCrop2" : {
                                    "type" : "double",
                                    "defaultValue" : 0.0,
                                    "interp" : "eioe"
                                  },
                                  "geometryCrop3" : {
                                    "type" : "double",
                                    "defaultValue" : 0.0,
                                    "interp" : "eioe"
                                  },
                                  "cursorScale" : {
                                    "type" : "double",
                                    "defaultValue" : 0.0,
                                    "interp" : "linr"
                                  },
                                  "cursorOpacity" : {
                                    "type" : "double",
                                    "defaultValue" : 0.0,
                                    "interp" : "linr"
                                  }
                                },
                                "effects" : [

                                ],
                                "start" : 606,
                                "duration" : 37,
                                "mediaStart" : 126,
                                "mediaDuration" : 37,
                                "scalar" : 1,
                                "animationTracks" : {

                                }
                              },
                          "audio" : 
                              {
                                "id" : 102,
                                "_type" : "AMFile",
                                "src" : 3,
                                "trackNumber" : 2,
                                "attributes" : {
                                  "ident" : "",
                                  "gain" : 1.0,
                                  "mixToMono" : false
                                },
                                  "channelNumber" : "0,1",
                                "effects" : [

                                ],
                                "start" : 606,
                                "duration" : 37,
                                "mediaStart" : 126,
                                "mediaDuration" : 37,
                                "scalar" : 1,
                                "animationTracks" : {

                                }
                              }
,
                          "start" : 606,
                          "duration" : 37,
                          "mediaStart" : 0,
                          "mediaDuration" : 9697,
                          "scalar" : 1,
                          "metadata" : {
                            "AutoAppliedSmartFocus" : "False",
                            "clipSpeedAttribute" : false,
                            "default-height" : 1080.0,
                            "default-scale0" : 1.0,
                            "default-scale1" : 1.0,
                            "default-translation0" : 0.0,
                            "default-translation1" : 0.0,
                            "default-width" : 1920.0
                          }
                        },
                        {
                          "id" : 103,
                          "_type" : "ScreenIMFile",
                          "src" : 3,
                          "trackNumber" : 0,
                          "trimStartSum" : 0,
                          "attributes" : {
                            "ident" : "Rec 04-11-21_002"
                          },
                          "parameters" : {
                            "sourceCrop0" : {
                              "type" : "double",
                              "defaultValue" : 0.0,
                              "interp" : "eioe"
                            },
                            "sourceCrop1" : {
                              "type" : "double",
                              "defaultValue" : 0.0,
                              "interp" : "eioe"
                            },
                            "sourceCrop2" : {
                              "type" : "double",
                              "defaultValue" : 0.0,
                              "interp" : "eioe"
                            },
                            "sourceCrop3" : {
                              "type" : "double",
                              "defaultValue" : 0.0,
                              "interp" : "eioe"
                            },
                            "geometryCrop0" : {
                              "type" : "double",
                              "defaultValue" : 0.0,
                              "interp" : "eioe"
                            },
                            "geometryCrop1" : {
                              "type" : "double",
                              "defaultValue" : 0.0,
                              "interp" : "eioe"
                            },
                            "geometryCrop2" : {
                              "type" : "double",
                              "defaultValue" : 0.0,
                              "interp" : "eioe"
                            },
                            "geometryCrop3" : {
                              "type" : "double",
                              "defaultValue" : 0.0,
                              "interp" : "eioe"
                            },
                            "cursorOpacity" : {
                              "type" : "double",
                              "defaultValue" : 0.0,
                              "interp" : "linr"
                            },
                            "cursorScale" : {
                              "type" : "double",
                              "defaultValue" : 0.0,
                              "interp" : "linr"
                            }
                          },
                          "effects" : [

                          ],
                          "start" : 643,
                          "duration" : 60,
                          "mediaStart" : 163,
                          "mediaDuration" : 1,
                          "scalar" : 1,
                          "metadata" : {
                            "AutoAppliedSmartFocus" : "False"
                          },
                          "animationTracks" : {

                          }
                        },
                        {
                          "id" : 104,
                          "_type" : "UnifiedMedia",
                          "video" : 
                              {
                                "id" : 105,
                                "_type" : "ScreenVMFile",
                                "src" : 3,
                                "trackNumber" : 0,
                                "attributes" : {
                                  "ident" : "Rec 04-11-21_002"
                                },
                                "parameters" : {
                                  "sourceCrop0" : {
                                    "type" : "double",
                                    "defaultValue" : 0.0,
                                    "interp" : "eioe"
                                  },
                                  "sourceCrop1" : {
                                    "type" : "double",
                                    "defaultValue" : 0.0,
                                    "interp" : "eioe"
                                  },
                                  "sourceCrop2" : {
                                    "type" : "double",
                                    "defaultValue" : 0.0,
                                    "interp" : "eioe"
                                  },
                                  "sourceCrop3" : {
                                    "type" : "double",
                                    "defaultValue" : 0.0,
                                    "interp" : "eioe"
                                  },
                                  "geometryCrop0" : {
                                    "type" : "double",
                                    "defaultValue" : 0.0,
                                    "interp" : "eioe"
                                  },
                                  "geometryCrop1" : {
                                    "type" : "double",
                                    "defaultValue" : 0.0,
                                    "interp" : "eioe"
                                  },
                                  "geometryCrop2" : {
                                    "type" : "double",
                                    "defaultValue" : 0.0,
                                    "interp" : "eioe"
                                  },
                                  "geometryCrop3" : {
                                    "type" : "double",
                                    "defaultValue" : 0.0,
                                    "interp" : "eioe"
                                  },
                                  "cursorScale" : {
                                    "type" : "double",
                                    "defaultValue" : 0.0,
                                    "interp" : "linr"
                                  },
                                  "cursorOpacity" : {
                                    "type" : "double",
                                    "defaultValue" : 0.0,
                                    "interp" : "linr"
                                  }
                                },
                                "effects" : [

                                ],
                                "start" : 703,
                                "duration" : 9534,
                                "mediaStart" : 163,
                                "mediaDuration" : 9534,
                                "scalar" : 1,
                                "animationTracks" : {

                                }
                              },
                          "audio" : 
                              {
                                "id" : 106,
                                "_type" : "AMFile",
                                "src" : 3,
                                "trackNumber" : 2,
                                "attributes" : {
                                  "ident" : "",
                                  "gain" : 1.0,
                                  "mixToMono" : false
                                },
                                  "channelNumber" : "0,1",
                                "effects" : [

                                ],
                                "start" : 703,
                                "duration" : 9534,
                                "mediaStart" : 163,
                                "mediaDuration" : 9534,
                                "scalar" : 1,
                                "animationTracks" : {

                                }
                              }
,
                          "start" : 703,
                          "duration" : 9534,
                          "mediaStart" : 0,
                          "mediaDuration" : 9697,
                          "scalar" : 1,
                          "metadata" : {
                            "AutoAppliedSmartFocus" : "False",
                            "clipSpeedAttribute" : false,
                            "default-height" : 1080.0,
                            "default-scale0" : 1.0,
                            "default-scale1" : 1.0,
                            "default-translation0" : 0.0,
                            "default-translation1" : 0.0,
                            "default-width" : 1920.0
                          }
                        }
                    ],
                    "effects" : [

                    ],
                    "start" : 1985,
                    "duration" : 362,
                    "mediaStart" : 2006,
                    "mediaDuration" : 362,
                    "scalar" : 1,
                    "metadata" : {
                      "AutoAppliedSmartFocus" : "False",
                      "clipSpeedAttribute" : false
                    },
                    "animationTracks" : {
                      "visual" : [
                        {
                          "endTime" : 621,
                          "duration" : 20,
                          "range" : [ 601, 20]
                        }
                      ]
                    }
                  },
                  {
                    "id" : 107,
                    "_type" : "StitchedMedia",
                    "minMediaStart" : 0,
                    "attributes" : {
                      "ident" : "Rec 04-11-21_002",
                      "gain" : 1.0,
                      "mixToMono" : false
                    },
                    "parameters" : {
                      "translation0" : {
                        "type" : "double",
                        "defaultValue" : 465.000000000107,
                        "interp" : "eioe",
                        "keyframes" : [
                          {
                            "endTime" : 621,
                            "time" : 601,
                            "value" : -2.8421709430404e-13,
                            "duration" : 20
                          }
                        ]
                      },
                      "translation1" : {
                        "type" : "double",
                        "defaultValue" : 6.9238836886143e-11,
                        "interp" : "eioe"
                      },
                      "scale0" : {
                        "type" : "double",
                        "defaultValue" : 0.748190787382365,
                        "interp" : "eioe",
                        "keyframes" : [
                          {
                            "endTime" : 621,
                            "time" : 601,
                            "value" : 1.0,
                            "duration" : 20
                          }
                        ]
                      },
                      "scale1" : {
                        "type" : "double",
                        "defaultValue" : 0.748190787382366,
                        "interp" : "eioe",
                        "keyframes" : [
                          {
                            "endTime" : 621,
                            "time" : 601,
                            "value" : 1.0,
                            "duration" : 20
                          }
                        ]
                      },
                      "sourceCrop0" : {
                        "type" : "double",
                        "defaultValue" : 0.0,
                        "interp" : "eioe"
                      },
                      "sourceCrop1" : {
                        "type" : "double",
                        "defaultValue" : 0.0,
                        "interp" : "eioe"
                      },
                      "sourceCrop2" : {
                        "type" : "double",
                        "defaultValue" : 0.0,
                        "interp" : "eioe"
                      },
                      "sourceCrop3" : {
                        "type" : "double",
                        "defaultValue" : 0.0,
                        "interp" : "eioe"
                      },
                      "geometryCrop0" : {
                        "type" : "double",
                        "defaultValue" : 0.0,
                        "interp" : "eioe"
                      },
                      "geometryCrop1" : {
                        "type" : "double",
                        "defaultValue" : 0.0,
                        "interp" : "eioe"
                      },
                      "geometryCrop2" : {
                        "type" : "double",
                        "defaultValue" : 0.0,
                        "interp" : "eioe"
                      },
                      "geometryCrop3" : {
                        "type" : "double",
                        "defaultValue" : 0.0,
                        "interp" : "eioe"
                      },
                      "volume" : 1.0,
                      "cursorOpacity" : {
                        "type" : "double",
                        "defaultValue" : 1.0,
                        "interp" : "linr"
                      },
                      "cursorScale" : {
                        "type" : "double",
                        "defaultValue" : 1.0,
                        "interp" : "linr"
                      }
                    },
                    "medias" : [
                        {
                          "id" : 108,
                          "_type" : "UnifiedMedia",
                          "video" : 
                              {
                                "id" : 109,
                                "_type" : "ScreenVMFile",
                                "src" : 3,
                                "trackNumber" : 0,
                                "attributes" : {
                                  "ident" : "Rec 04-11-21_002"
                                },
                                "parameters" : {
                                  "sourceCrop0" : {
                                    "type" : "double",
                                    "defaultValue" : 0.0,
                                    "interp" : "eioe"
                                  },
                                  "sourceCrop1" : {
                                    "type" : "double",
                                    "defaultValue" : 0.0,
                                    "interp" : "eioe"
                                  },
                                  "sourceCrop2" : {
                                    "type" : "double",
                                    "defaultValue" : 0.0,
                                    "interp" : "eioe"
                                  },
                                  "sourceCrop3" : {
                                    "type" : "double",
                                    "defaultValue" : 0.0,
                                    "interp" : "eioe"
                                  },
                                  "geometryCrop0" : {
                                    "type" : "double",
                                    "defaultValue" : 0.0,
                                    "interp" : "eioe"
                                  },
                                  "geometryCrop1" : {
                                    "type" : "double",
                                    "defaultValue" : 0.0,
                                    "interp" : "eioe"
                                  },
                                  "geometryCrop2" : {
                                    "type" : "double",
                                    "defaultValue" : 0.0,
                                    "interp" : "eioe"
                                  },
                                  "geometryCrop3" : {
                                    "type" : "double",
                                    "defaultValue" : 0.0,
                                    "interp" : "eioe"
                                  },
                                  "cursorScale" : {
                                    "type" : "double",
                                    "defaultValue" : 0.0,
                                    "interp" : "linr"
                                  },
                                  "cursorOpacity" : {
                                    "type" : "double",
                                    "defaultValue" : 0.0,
                                    "interp" : "linr"
                                  }
                                },
                                "effects" : [

                                ],
                                "start" : 0,
                                "duration" : 126,
                                "mediaStart" : 0,
                                "mediaDuration" : 126,
                                "scalar" : 1,
                                "animationTracks" : {

                                }
                              },
                          "audio" : 
                              {
                                "id" : 110,
                                "_type" : "AMFile",
                                "src" : 3,
                                "trackNumber" : 2,
                                "attributes" : {
                                  "ident" : "",
                                  "gain" : 1.0,
                                  "mixToMono" : false
                                },
                                  "channelNumber" : "0,1",
                                "effects" : [

                                ],
                                "start" : 0,
                                "duration" : 126,
                                "mediaStart" : 0,
                                "mediaDuration" : 126,
                                "scalar" : 1,
                                "animationTracks" : {

                                }
                              }
,
                          "start" : 0,
                          "duration" : 126,
                          "mediaStart" : 0,
                          "mediaDuration" : 9697,
                          "scalar" : 1,
                          "metadata" : {
                            "AutoAppliedSmartFocus" : "False",
                            "clipSpeedAttribute" : false,
                            "default-height" : 1080.0,
                            "default-scale0" : 1.0,
                            "default-scale1" : 1.0,
                            "default-translation0" : 0.0,
                            "default-translation1" : 0.0,
                            "default-width" : 1920.0
                          }
                        },
                        {
                          "id" : 111,
                          "_type" : "ScreenIMFile",
                          "src" : 3,
                          "trackNumber" : 0,
                          "trimStartSum" : 0,
                          "attributes" : {
                            "ident" : "Rec 04-11-21_002"
                          },
                          "parameters" : {
                            "sourceCrop0" : {
                              "type" : "double",
                              "defaultValue" : 0.0,
                              "interp" : "eioe"
                            },
                            "sourceCrop1" : {
                              "type" : "double",
                              "defaultValue" : 0.0,
                              "interp" : "eioe"
                            },
                            "sourceCrop2" : {
                              "type" : "double",
                              "defaultValue" : 0.0,
                              "interp" : "eioe"
                            },
                            "sourceCrop3" : {
                              "type" : "double",
                              "defaultValue" : 0.0,
                              "interp" : "eioe"
                            },
                            "geometryCrop0" : {
                              "type" : "double",
                              "defaultValue" : 0.0,
                              "interp" : "eioe"
                            },
                            "geometryCrop1" : {
                              "type" : "double",
                              "defaultValue" : 0.0,
                              "interp" : "eioe"
                            },
                            "geometryCrop2" : {
                              "type" : "double",
                              "defaultValue" : 0.0,
                              "interp" : "eioe"
                            },
                            "geometryCrop3" : {
                              "type" : "double",
                              "defaultValue" : 0.0,
                              "interp" : "eioe"
                            },
                            "cursorOpacity" : {
                              "type" : "double",
                              "defaultValue" : 0.0,
                              "interp" : "linr"
                            },
                            "cursorScale" : {
                              "type" : "double",
                              "defaultValue" : 0.0,
                              "interp" : "linr"
                            }
                          },
                          "effects" : [

                          ],
                          "start" : 126,
                          "duration" : 480,
                          "mediaStart" : 125,
                          "mediaDuration" : 1,
                          "scalar" : 1,
                          "metadata" : {
                            "AutoAppliedSmartFocus" : "False"
                          },
                          "animationTracks" : {

                          }
                        },
                        {
                          "id" : 112,
                          "_type" : "UnifiedMedia",
                          "video" : 
                              {
                                "id" : 113,
                                "_type" : "ScreenVMFile",
                                "src" : 3,
                                "trackNumber" : 0,
                                "attributes" : {
                                  "ident" : "Rec 04-11-21_002"
                                },
                                "parameters" : {
                                  "sourceCrop0" : {
                                    "type" : "double",
                                    "defaultValue" : 0.0,
                                    "interp" : "eioe"
                                  },
                                  "sourceCrop1" : {
                                    "type" : "double",
                                    "defaultValue" : 0.0,
                                    "interp" : "eioe"
                                  },
                                  "sourceCrop2" : {
                                    "type" : "double",
                                    "defaultValue" : 0.0,
                                    "interp" : "eioe"
                                  },
                                  "sourceCrop3" : {
                                    "type" : "double",
                                    "defaultValue" : 0.0,
                                    "interp" : "eioe"
                                  },
                                  "geometryCrop0" : {
                                    "type" : "double",
                                    "defaultValue" : 0.0,
                                    "interp" : "eioe"
                                  },
                                  "geometryCrop1" : {
                                    "type" : "double",
                                    "defaultValue" : 0.0,
                                    "interp" : "eioe"
                                  },
                                  "geometryCrop2" : {
                                    "type" : "double",
                                    "defaultValue" : 0.0,
                                    "interp" : "eioe"
                                  },
                                  "geometryCrop3" : {
                                    "type" : "double",
                                    "defaultValue" : 0.0,
                                    "interp" : "eioe"
                                  },
                                  "cursorScale" : {
                                    "type" : "double",
                                    "defaultValue" : 0.0,
                                    "interp" : "linr"
                                  },
                                  "cursorOpacity" : {
                                    "type" : "double",
                                    "defaultValue" : 0.0,
                                    "interp" : "linr"
                                  }
                                },
                                "effects" : [

                                ],
                                "start" : 606,
                                "duration" : 37,
                                "mediaStart" : 126,
                                "mediaDuration" : 37,
                                "scalar" : 1,
                                "animationTracks" : {

                                }
                              },
                          "audio" : 
                              {
                                "id" : 114,
                                "_type" : "AMFile",
                                "src" : 3,
                                "trackNumber" : 2,
                                "attributes" : {
                                  "ident" : "",
                                  "gain" : 1.0,
                                  "mixToMono" : false
                                },
                                  "channelNumber" : "0,1",
                                "effects" : [

                                ],
                                "start" : 606,
                                "duration" : 37,
                                "mediaStart" : 126,
                                "mediaDuration" : 37,
                                "scalar" : 1,
                                "animationTracks" : {

                                }
                              }
,
                          "start" : 606,
                          "duration" : 37,
                          "mediaStart" : 0,
                          "mediaDuration" : 9697,
                          "scalar" : 1,
                          "metadata" : {
                            "AutoAppliedSmartFocus" : "False",
                            "clipSpeedAttribute" : false,
                            "default-height" : 1080.0,
                            "default-scale0" : 1.0,
                            "default-scale1" : 1.0,
                            "default-translation0" : 0.0,
                            "default-translation1" : 0.0,
                            "default-width" : 1920.0
                          }
                        },
                        {
                          "id" : 115,
                          "_type" : "ScreenIMFile",
                          "src" : 3,
                          "trackNumber" : 0,
                          "trimStartSum" : 0,
                          "attributes" : {
                            "ident" : "Rec 04-11-21_002"
                          },
                          "parameters" : {
                            "sourceCrop0" : {
                              "type" : "double",
                              "defaultValue" : 0.0,
                              "interp" : "eioe"
                            },
                            "sourceCrop1" : {
                              "type" : "double",
                              "defaultValue" : 0.0,
                              "interp" : "eioe"
                            },
                            "sourceCrop2" : {
                              "type" : "double",
                              "defaultValue" : 0.0,
                              "interp" : "eioe"
                            },
                            "sourceCrop3" : {
                              "type" : "double",
                              "defaultValue" : 0.0,
                              "interp" : "eioe"
                            },
                            "geometryCrop0" : {
                              "type" : "double",
                              "defaultValue" : 0.0,
                              "interp" : "eioe"
                            },
                            "geometryCrop1" : {
                              "type" : "double",
                              "defaultValue" : 0.0,
                              "interp" : "eioe"
                            },
                            "geometryCrop2" : {
                              "type" : "double",
                              "defaultValue" : 0.0,
                              "interp" : "eioe"
                            },
                            "geometryCrop3" : {
                              "type" : "double",
                              "defaultValue" : 0.0,
                              "interp" : "eioe"
                            },
                            "cursorOpacity" : {
                              "type" : "double",
                              "defaultValue" : 0.0,
                              "interp" : "linr"
                            },
                            "cursorScale" : {
                              "type" : "double",
                              "defaultValue" : 0.0,
                              "interp" : "linr"
                            }
                          },
                          "effects" : [

                          ],
                          "start" : 643,
                          "duration" : 60,
                          "mediaStart" : 163,
                          "mediaDuration" : 1,
                          "scalar" : 1,
                          "metadata" : {
                            "AutoAppliedSmartFocus" : "False"
                          },
                          "animationTracks" : {

                          }
                        },
                        {
                          "id" : 116,
                          "_type" : "UnifiedMedia",
                          "video" : 
                              {
                                "id" : 117,
                                "_type" : "ScreenVMFile",
                                "src" : 3,
                                "trackNumber" : 0,
                                "attributes" : {
                                  "ident" : "Rec 04-11-21_002"
                                },
                                "parameters" : {
                                  "sourceCrop0" : {
                                    "type" : "double",
                                    "defaultValue" : 0.0,
                                    "interp" : "eioe"
                                  },
                                  "sourceCrop1" : {
                                    "type" : "double",
                                    "defaultValue" : 0.0,
                                    "interp" : "eioe"
                                  },
                                  "sourceCrop2" : {
                                    "type" : "double",
                                    "defaultValue" : 0.0,
                                    "interp" : "eioe"
                                  },
                                  "sourceCrop3" : {
                                    "type" : "double",
                                    "defaultValue" : 0.0,
                                    "interp" : "eioe"
                                  },
                                  "geometryCrop0" : {
                                    "type" : "double",
                                    "defaultValue" : 0.0,
                                    "interp" : "eioe"
                                  },
                                  "geometryCrop1" : {
                                    "type" : "double",
                                    "defaultValue" : 0.0,
                                    "interp" : "eioe"
                                  },
                                  "geometryCrop2" : {
                                    "type" : "double",
                                    "defaultValue" : 0.0,
                                    "interp" : "eioe"
                                  },
                                  "geometryCrop3" : {
                                    "type" : "double",
                                    "defaultValue" : 0.0,
                                    "interp" : "eioe"
                                  },
                                  "cursorScale" : {
                                    "type" : "double",
                                    "defaultValue" : 0.0,
                                    "interp" : "linr"
                                  },
                                  "cursorOpacity" : {
                                    "type" : "double",
                                    "defaultValue" : 0.0,
                                    "interp" : "linr"
                                  }
                                },
                                "effects" : [

                                ],
                                "start" : 703,
                                "duration" : 9534,
                                "mediaStart" : 163,
                                "mediaDuration" : 9534,
                                "scalar" : 1,
                                "animationTracks" : {

                                }
                              },
                          "audio" : 
                              {
                                "id" : 118,
                                "_type" : "AMFile",
                                "src" : 3,
                                "trackNumber" : 2,
                                "attributes" : {
                                  "ident" : "",
                                  "gain" : 1.0,
                                  "mixToMono" : false
                                },
                                  "channelNumber" : "0,1",
                                "effects" : [

                                ],
                                "start" : 703,
                                "duration" : 9534,
                                "mediaStart" : 163,
                                "mediaDuration" : 9534,
                                "scalar" : 1,
                                "animationTracks" : {

                                }
                              }
,
                          "start" : 703,
                          "duration" : 9534,
                          "mediaStart" : 0,
                          "mediaDuration" : 9697,
                          "scalar" : 1,
                          "metadata" : {
                            "AutoAppliedSmartFocus" : "False",
                            "clipSpeedAttribute" : false,
                            "default-height" : 1080.0,
                            "default-scale0" : 1.0,
                            "default-scale1" : 1.0,
                            "default-translation0" : 0.0,
                            "default-translation1" : 0.0,
                            "default-width" : 1920.0
                          }
                        }
                    ],
                    "effects" : [

                    ],
                    "start" : 2347,
                    "duration" : 76,
                    "mediaStart" : 4617,
                    "mediaDuration" : "26334/347",
                    "scalar" : "694/693",
                    "metadata" : {
                      "AutoAppliedSmartFocus" : "False",
                      "clipSpeedAttribute" : true
                    },
                    "animationTracks" : {
                      "visual" : [
                        {
                          "endTime" : 621,
                          "duration" : 20,
                          "range" : [ 601, 20]
                        }
                      ]
                    }
                  },
                  {
                    "id" : 119,
                    "_type" : "StitchedMedia",
                    "minMediaStart" : 0,
                    "attributes" : {
                      "ident" : "Rec 04-11-21_002",
                      "gain" : 1.0,
                      "mixToMono" : false
                    },
                    "parameters" : {
                      "translation0" : {
                        "type" : "double",
                        "defaultValue" : 465.000000000107,
                        "interp" : "eioe",
                        "keyframes" : [
                          {
                            "endTime" : 621,
                            "time" : 601,
                            "value" : -2.8421709430404e-13,
                            "duration" : 20
                          }
                        ]
                      },
                      "translation1" : {
                        "type" : "double",
                        "defaultValue" : 6.9238836886143e-11,
                        "interp" : "eioe"
                      },
                      "scale0" : {
                        "type" : "double",
                        "defaultValue" : 0.748190787382365,
                        "interp" : "eioe",
                        "keyframes" : [
                          {
                            "endTime" : 621,
                            "time" : 601,
                            "value" : 1.0,
                            "duration" : 20
                          }
                        ]
                      },
                      "scale1" : {
                        "type" : "double",
                        "defaultValue" : 0.748190787382366,
                        "interp" : "eioe",
                        "keyframes" : [
                          {
                            "endTime" : 621,
                            "time" : 601,
                            "value" : 1.0,
                            "duration" : 20
                          }
                        ]
                      },
                      "sourceCrop0" : {
                        "type" : "double",
                        "defaultValue" : 0.0,
                        "interp" : "eioe"
                      },
                      "sourceCrop1" : {
                        "type" : "double",
                        "defaultValue" : 0.0,
                        "interp" : "eioe"
                      },
                      "sourceCrop2" : {
                        "type" : "double",
                        "defaultValue" : 0.0,
                        "interp" : "eioe"
                      },
                      "sourceCrop3" : {
                        "type" : "double",
                        "defaultValue" : 0.0,
                        "interp" : "eioe"
                      },
                      "geometryCrop0" : {
                        "type" : "double",
                        "defaultValue" : 0.0,
                        "interp" : "eioe"
                      },
                      "geometryCrop1" : {
                        "type" : "double",
                        "defaultValue" : 0.0,
                        "interp" : "eioe"
                      },
                      "geometryCrop2" : {
                        "type" : "double",
                        "defaultValue" : 0.0,
                        "interp" : "eioe"
                      },
                      "geometryCrop3" : {
                        "type" : "double",
                        "defaultValue" : 0.0,
                        "interp" : "eioe"
                      },
                      "volume" : 1.0,
                      "cursorOpacity" : {
                        "type" : "double",
                        "defaultValue" : 1.0,
                        "interp" : "linr"
                      },
                      "cursorScale" : {
                        "type" : "double",
                        "defaultValue" : 1.0,
                        "interp" : "linr"
                      }
                    },
                    "medias" : [
                        {
                          "id" : 120,
                          "_type" : "UnifiedMedia",
                          "video" : 
                              {
                                "id" : 121,
                                "_type" : "ScreenVMFile",
                                "src" : 3,
                                "trackNumber" : 0,
                                "attributes" : {
                                  "ident" : "Rec 04-11-21_002"
                                },
                                "parameters" : {
                                  "sourceCrop0" : {
                                    "type" : "double",
                                    "defaultValue" : 0.0,
                                    "interp" : "eioe"
                                  },
                                  "sourceCrop1" : {
                                    "type" : "double",
                                    "defaultValue" : 0.0,
                                    "interp" : "eioe"
                                  },
                                  "sourceCrop2" : {
                                    "type" : "double",
                                    "defaultValue" : 0.0,
                                    "interp" : "eioe"
                                  },
                                  "sourceCrop3" : {
                                    "type" : "double",
                                    "defaultValue" : 0.0,
                                    "interp" : "eioe"
                                  },
                                  "geometryCrop0" : {
                                    "type" : "double",
                                    "defaultValue" : 0.0,
                                    "interp" : "eioe"
                                  },
                                  "geometryCrop1" : {
                                    "type" : "double",
                                    "defaultValue" : 0.0,
                                    "interp" : "eioe"
                                  },
                                  "geometryCrop2" : {
                                    "type" : "double",
                                    "defaultValue" : 0.0,
                                    "interp" : "eioe"
                                  },
                                  "geometryCrop3" : {
                                    "type" : "double",
                                    "defaultValue" : 0.0,
                                    "interp" : "eioe"
                                  },
                                  "cursorScale" : {
                                    "type" : "double",
                                    "defaultValue" : 0.0,
                                    "interp" : "linr"
                                  },
                                  "cursorOpacity" : {
                                    "type" : "double",
                                    "defaultValue" : 0.0,
                                    "interp" : "linr"
                                  }
                                },
                                "effects" : [

                                ],
                                "start" : 0,
                                "duration" : 126,
                                "mediaStart" : 0,
                                "mediaDuration" : 126,
                                "scalar" : 1,
                                "animationTracks" : {

                                }
                              },
                          "audio" : 
                              {
                                "id" : 122,
                                "_type" : "AMFile",
                                "src" : 3,
                                "trackNumber" : 2,
                                "attributes" : {
                                  "ident" : "",
                                  "gain" : 1.0,
                                  "mixToMono" : false
                                },
                                  "channelNumber" : "0,1",
                                "effects" : [

                                ],
                                "start" : 0,
                                "duration" : 126,
                                "mediaStart" : 0,
                                "mediaDuration" : 126,
                                "scalar" : 1,
                                "animationTracks" : {

                                }
                              }
,
                          "start" : 0,
                          "duration" : 126,
                          "mediaStart" : 0,
                          "mediaDuration" : 9697,
                          "scalar" : 1,
                          "metadata" : {
                            "AutoAppliedSmartFocus" : "False",
                            "clipSpeedAttribute" : false,
                            "default-height" : 1080.0,
                            "default-scale0" : 1.0,
                            "default-scale1" : 1.0,
                            "default-translation0" : 0.0,
                            "default-translation1" : 0.0,
                            "default-width" : 1920.0
                          }
                        },
                        {
                          "id" : 123,
                          "_type" : "ScreenIMFile",
                          "src" : 3,
                          "trackNumber" : 0,
                          "trimStartSum" : 0,
                          "attributes" : {
                            "ident" : "Rec 04-11-21_002"
                          },
                          "parameters" : {
                            "sourceCrop0" : {
                              "type" : "double",
                              "defaultValue" : 0.0,
                              "interp" : "eioe"
                            },
                            "sourceCrop1" : {
                              "type" : "double",
                              "defaultValue" : 0.0,
                              "interp" : "eioe"
                            },
                            "sourceCrop2" : {
                              "type" : "double",
                              "defaultValue" : 0.0,
                              "interp" : "eioe"
                            },
                            "sourceCrop3" : {
                              "type" : "double",
                              "defaultValue" : 0.0,
                              "interp" : "eioe"
                            },
                            "geometryCrop0" : {
                              "type" : "double",
                              "defaultValue" : 0.0,
                              "interp" : "eioe"
                            },
                            "geometryCrop1" : {
                              "type" : "double",
                              "defaultValue" : 0.0,
                              "interp" : "eioe"
                            },
                            "geometryCrop2" : {
                              "type" : "double",
                              "defaultValue" : 0.0,
                              "interp" : "eioe"
                            },
                            "geometryCrop3" : {
                              "type" : "double",
                              "defaultValue" : 0.0,
                              "interp" : "eioe"
                            },
                            "cursorOpacity" : {
                              "type" : "double",
                              "defaultValue" : 0.0,
                              "interp" : "linr"
                            },
                            "cursorScale" : {
                              "type" : "double",
                              "defaultValue" : 0.0,
                              "interp" : "linr"
                            }
                          },
                          "effects" : [

                          ],
                          "start" : 126,
                          "duration" : 480,
                          "mediaStart" : 125,
                          "mediaDuration" : 1,
                          "scalar" : 1,
                          "metadata" : {
                            "AutoAppliedSmartFocus" : "False"
                          },
                          "animationTracks" : {

                          }
                        },
                        {
                          "id" : 124,
                          "_type" : "UnifiedMedia",
                          "video" : 
                              {
                                "id" : 125,
                                "_type" : "ScreenVMFile",
                                "src" : 3,
                                "trackNumber" : 0,
                                "attributes" : {
                                  "ident" : "Rec 04-11-21_002"
                                },
                                "parameters" : {
                                  "sourceCrop0" : {
                                    "type" : "double",
                                    "defaultValue" : 0.0,
                                    "interp" : "eioe"
                                  },
                                  "sourceCrop1" : {
                                    "type" : "double",
                                    "defaultValue" : 0.0,
                                    "interp" : "eioe"
                                  },
                                  "sourceCrop2" : {
                                    "type" : "double",
                                    "defaultValue" : 0.0,
                                    "interp" : "eioe"
                                  },
                                  "sourceCrop3" : {
                                    "type" : "double",
                                    "defaultValue" : 0.0,
                                    "interp" : "eioe"
                                  },
                                  "geometryCrop0" : {
                                    "type" : "double",
                                    "defaultValue" : 0.0,
                                    "interp" : "eioe"
                                  },
                                  "geometryCrop1" : {
                                    "type" : "double",
                                    "defaultValue" : 0.0,
                                    "interp" : "eioe"
                                  },
                                  "geometryCrop2" : {
                                    "type" : "double",
                                    "defaultValue" : 0.0,
                                    "interp" : "eioe"
                                  },
                                  "geometryCrop3" : {
                                    "type" : "double",
                                    "defaultValue" : 0.0,
                                    "interp" : "eioe"
                                  },
                                  "cursorScale" : {
                                    "type" : "double",
                                    "defaultValue" : 0.0,
                                    "interp" : "linr"
                                  },
                                  "cursorOpacity" : {
                                    "type" : "double",
                                    "defaultValue" : 0.0,
                                    "interp" : "linr"
                                  }
                                },
                                "effects" : [

                                ],
                                "start" : 606,
                                "duration" : 37,
                                "mediaStart" : 126,
                                "mediaDuration" : 37,
                                "scalar" : 1,
                                "animationTracks" : {

                                }
                              },
                          "audio" : 
                              {
                                "id" : 126,
                                "_type" : "AMFile",
                                "src" : 3,
                                "trackNumber" : 2,
                                "attributes" : {
                                  "ident" : "",
                                  "gain" : 1.0,
                                  "mixToMono" : false
                                },
                                  "channelNumber" : "0,1",
                                "effects" : [

                                ],
                                "start" : 606,
                                "duration" : 37,
                                "mediaStart" : 126,
                                "mediaDuration" : 37,
                                "scalar" : 1,
                                "animationTracks" : {

                                }
                              }
,
                          "start" : 606,
                          "duration" : 37,
                          "mediaStart" : 0,
                          "mediaDuration" : 9697,
                          "scalar" : 1,
                          "metadata" : {
                            "AutoAppliedSmartFocus" : "False",
                            "clipSpeedAttribute" : false,
                            "default-height" : 1080.0,
                            "default-scale0" : 1.0,
                            "default-scale1" : 1.0,
                            "default-translation0" : 0.0,
                            "default-translation1" : 0.0,
                            "default-width" : 1920.0
                          }
                        },
                        {
                          "id" : 127,
                          "_type" : "ScreenIMFile",
                          "src" : 3,
                          "trackNumber" : 0,
                          "trimStartSum" : 0,
                          "attributes" : {
                            "ident" : "Rec 04-11-21_002"
                          },
                          "parameters" : {
                            "sourceCrop0" : {
                              "type" : "double",
                              "defaultValue" : 0.0,
                              "interp" : "eioe"
                            },
                            "sourceCrop1" : {
                              "type" : "double",
                              "defaultValue" : 0.0,
                              "interp" : "eioe"
                            },
                            "sourceCrop2" : {
                              "type" : "double",
                              "defaultValue" : 0.0,
                              "interp" : "eioe"
                            },
                            "sourceCrop3" : {
                              "type" : "double",
                              "defaultValue" : 0.0,
                              "interp" : "eioe"
                            },
                            "geometryCrop0" : {
                              "type" : "double",
                              "defaultValue" : 0.0,
                              "interp" : "eioe"
                            },
                            "geometryCrop1" : {
                              "type" : "double",
                              "defaultValue" : 0.0,
                              "interp" : "eioe"
                            },
                            "geometryCrop2" : {
                              "type" : "double",
                              "defaultValue" : 0.0,
                              "interp" : "eioe"
                            },
                            "geometryCrop3" : {
                              "type" : "double",
                              "defaultValue" : 0.0,
                              "interp" : "eioe"
                            },
                            "cursorOpacity" : {
                              "type" : "double",
                              "defaultValue" : 0.0,
                              "interp" : "linr"
                            },
                            "cursorScale" : {
                              "type" : "double",
                              "defaultValue" : 0.0,
                              "interp" : "linr"
                            }
                          },
                          "effects" : [

                          ],
                          "start" : 643,
                          "duration" : 60,
                          "mediaStart" : 163,
                          "mediaDuration" : 1,
                          "scalar" : 1,
                          "metadata" : {
                            "AutoAppliedSmartFocus" : "False"
                          },
                          "animationTracks" : {

                          }
                        },
                        {
                          "id" : 128,
                          "_type" : "UnifiedMedia",
                          "video" : 
                              {
                                "id" : 129,
                                "_type" : "ScreenVMFile",
                                "src" : 3,
                                "trackNumber" : 0,
                                "attributes" : {
                                  "ident" : "Rec 04-11-21_002"
                                },
                                "parameters" : {
                                  "sourceCrop0" : {
                                    "type" : "double",
                                    "defaultValue" : 0.0,
                                    "interp" : "eioe"
                                  },
                                  "sourceCrop1" : {
                                    "type" : "double",
                                    "defaultValue" : 0.0,
                                    "interp" : "eioe"
                                  },
                                  "sourceCrop2" : {
                                    "type" : "double",
                                    "defaultValue" : 0.0,
                                    "interp" : "eioe"
                                  },
                                  "sourceCrop3" : {
                                    "type" : "double",
                                    "defaultValue" : 0.0,
                                    "interp" : "eioe"
                                  },
                                  "geometryCrop0" : {
                                    "type" : "double",
                                    "defaultValue" : 0.0,
                                    "interp" : "eioe"
                                  },
                                  "geometryCrop1" : {
                                    "type" : "double",
                                    "defaultValue" : 0.0,
                                    "interp" : "eioe"
                                  },
                                  "geometryCrop2" : {
                                    "type" : "double",
                                    "defaultValue" : 0.0,
                                    "interp" : "eioe"
                                  },
                                  "geometryCrop3" : {
                                    "type" : "double",
                                    "defaultValue" : 0.0,
                                    "interp" : "eioe"
                                  },
                                  "cursorScale" : {
                                    "type" : "double",
                                    "defaultValue" : 0.0,
                                    "interp" : "linr"
                                  },
                                  "cursorOpacity" : {
                                    "type" : "double",
                                    "defaultValue" : 0.0,
                                    "interp" : "linr"
                                  }
                                },
                                "effects" : [

                                ],
                                "start" : 703,
                                "duration" : 9534,
                                "mediaStart" : 163,
                                "mediaDuration" : 9534,
                                "scalar" : 1,
                                "animationTracks" : {

                                }
                              },
                          "audio" : 
                              {
                                "id" : 130,
                                "_type" : "AMFile",
                                "src" : 3,
                                "trackNumber" : 2,
                                "attributes" : {
                                  "ident" : "",
                                  "gain" : 1.0,
                                  "mixToMono" : false
                                },
                                  "channelNumber" : "0,1",
                                "effects" : [

                                ],
                                "start" : 703,
                                "duration" : 9534,
                                "mediaStart" : 163,
                                "mediaDuration" : 9534,
                                "scalar" : 1,
                                "animationTracks" : {

                                }
                              }
,
                          "start" : 703,
                          "duration" : 9534,
                          "mediaStart" : 0,
                          "mediaDuration" : 9697,
                          "scalar" : 1,
                          "metadata" : {
                            "AutoAppliedSmartFocus" : "False",
                            "clipSpeedAttribute" : false,
                            "default-height" : 1080.0,
                            "default-scale0" : 1.0,
                            "default-scale1" : 1.0,
                            "default-translation0" : 0.0,
                            "default-translation1" : 0.0,
                            "default-width" : 1920.0
                          }
                        }
                    ],
                    "effects" : [

                    ],
                    "start" : 2423,
                    "duration" : 247,
                    "mediaStart" : "1705356/347",
                    "mediaDuration" : "137214/347",
                    "scalar" : "85709/137214",
                    "metadata" : {
                      "AutoAppliedSmartFocus" : "False",
                      "clipSpeedAttribute" : true
                    },
                    "animationTracks" : {
                      "visual" : [
                        {
                          "endTime" : 621,
                          "duration" : 20,
                          "range" : [ 601, 20]
                        }
                      ]
                    }
                  },
                  {
                    "id" : 131,
                    "_type" : "StitchedMedia",
                    "minMediaStart" : 0,
                    "attributes" : {
                      "ident" : "Rec 04-11-21_002",
                      "gain" : 1.0,
                      "mixToMono" : false
                    },
                    "parameters" : {
                      "translation0" : {
                        "type" : "double",
                        "defaultValue" : 465.000000000107,
                        "interp" : "eioe",
                        "keyframes" : [
                          {
                            "endTime" : 621,
                            "time" : 601,
                            "value" : -2.8421709430404e-13,
                            "duration" : 20
                          }
                        ]
                      },
                      "translation1" : {
                        "type" : "double",
                        "defaultValue" : 6.9238836886143e-11,
                        "interp" : "eioe"
                      },
                      "scale0" : {
                        "type" : "double",
                        "defaultValue" : 0.748190787382365,
                        "interp" : "eioe",
                        "keyframes" : [
                          {
                            "endTime" : 621,
                            "time" : 601,
                            "value" : 1.0,
                            "duration" : 20
                          }
                        ]
                      },
                      "scale1" : {
                        "type" : "double",
                        "defaultValue" : 0.748190787382366,
                        "interp" : "eioe",
                        "keyframes" : [
                          {
                            "endTime" : 621,
                            "time" : 601,
                            "value" : 1.0,
                            "duration" : 20
                          }
                        ]
                      },
                      "sourceCrop0" : {
                        "type" : "double",
                        "defaultValue" : 0.0,
                        "interp" : "eioe"
                      },
                      "sourceCrop1" : {
                        "type" : "double",
                        "defaultValue" : 0.0,
                        "interp" : "eioe"
                      },
                      "sourceCrop2" : {
                        "type" : "double",
                        "defaultValue" : 0.0,
                        "interp" : "eioe"
                      },
                      "sourceCrop3" : {
                        "type" : "double",
                        "defaultValue" : 0.0,
                        "interp" : "eioe"
                      },
                      "geometryCrop0" : {
                        "type" : "double",
                        "defaultValue" : 0.0,
                        "interp" : "eioe"
                      },
                      "geometryCrop1" : {
                        "type" : "double",
                        "defaultValue" : 0.0,
                        "interp" : "eioe"
                      },
                      "geometryCrop2" : {
                        "type" : "double",
                        "defaultValue" : 0.0,
                        "interp" : "eioe"
                      },
                      "geometryCrop3" : {
                        "type" : "double",
                        "defaultValue" : 0.0,
                        "interp" : "eioe"
                      },
                      "volume" : 1.0,
                      "cursorOpacity" : {
                        "type" : "double",
                        "defaultValue" : 1.0,
                        "interp" : "linr"
                      },
                      "cursorScale" : {
                        "type" : "double",
                        "defaultValue" : 1.0,
                        "interp" : "linr"
                      }
                    },
                    "medias" : [
                        {
                          "id" : 132,
                          "_type" : "UnifiedMedia",
                          "video" : 
                              {
                                "id" : 133,
                                "_type" : "ScreenVMFile",
                                "src" : 3,
                                "trackNumber" : 0,
                                "attributes" : {
                                  "ident" : "Rec 04-11-21_002"
                                },
                                "parameters" : {
                                  "sourceCrop0" : {
                                    "type" : "double",
                                    "defaultValue" : 0.0,
                                    "interp" : "eioe"
                                  },
                                  "sourceCrop1" : {
                                    "type" : "double",
                                    "defaultValue" : 0.0,
                                    "interp" : "eioe"
                                  },
                                  "sourceCrop2" : {
                                    "type" : "double",
                                    "defaultValue" : 0.0,
                                    "interp" : "eioe"
                                  },
                                  "sourceCrop3" : {
                                    "type" : "double",
                                    "defaultValue" : 0.0,
                                    "interp" : "eioe"
                                  },
                                  "geometryCrop0" : {
                                    "type" : "double",
                                    "defaultValue" : 0.0,
                                    "interp" : "eioe"
                                  },
                                  "geometryCrop1" : {
                                    "type" : "double",
                                    "defaultValue" : 0.0,
                                    "interp" : "eioe"
                                  },
                                  "geometryCrop2" : {
                                    "type" : "double",
                                    "defaultValue" : 0.0,
                                    "interp" : "eioe"
                                  },
                                  "geometryCrop3" : {
                                    "type" : "double",
                                    "defaultValue" : 0.0,
                                    "interp" : "eioe"
                                  },
                                  "cursorScale" : {
                                    "type" : "double",
                                    "defaultValue" : 0.0,
                                    "interp" : "linr"
                                  },
                                  "cursorOpacity" : {
                                    "type" : "double",
                                    "defaultValue" : 0.0,
                                    "interp" : "linr"
                                  }
                                },
                                "effects" : [

                                ],
                                "start" : 0,
                                "duration" : 126,
                                "mediaStart" : 0,
                                "mediaDuration" : 126,
                                "scalar" : 1,
                                "animationTracks" : {

                                }
                              },
                          "audio" : 
                              {
                                "id" : 134,
                                "_type" : "AMFile",
                                "src" : 3,
                                "trackNumber" : 2,
                                "attributes" : {
                                  "ident" : "",
                                  "gain" : 1.0,
                                  "mixToMono" : false
                                },
                                  "channelNumber" : "0,1",
                                "effects" : [

                                ],
                                "start" : 0,
                                "duration" : 126,
                                "mediaStart" : 0,
                                "mediaDuration" : 126,
                                "scalar" : 1,
                                "animationTracks" : {

                                }
                              }
,
                          "start" : 0,
                          "duration" : 126,
                          "mediaStart" : 0,
                          "mediaDuration" : 9697,
                          "scalar" : 1,
                          "metadata" : {
                            "AutoAppliedSmartFocus" : "False",
                            "clipSpeedAttribute" : false,
                            "default-height" : 1080.0,
                            "default-scale0" : 1.0,
                            "default-scale1" : 1.0,
                            "default-translation0" : 0.0,
                            "default-translation1" : 0.0,
                            "default-width" : 1920.0
                          }
                        },
                        {
                          "id" : 135,
                          "_type" : "ScreenIMFile",
                          "src" : 3,
                          "trackNumber" : 0,
                          "trimStartSum" : 0,
                          "attributes" : {
                            "ident" : "Rec 04-11-21_002"
                          },
                          "parameters" : {
                            "sourceCrop0" : {
                              "type" : "double",
                              "defaultValue" : 0.0,
                              "interp" : "eioe"
                            },
                            "sourceCrop1" : {
                              "type" : "double",
                              "defaultValue" : 0.0,
                              "interp" : "eioe"
                            },
                            "sourceCrop2" : {
                              "type" : "double",
                              "defaultValue" : 0.0,
                              "interp" : "eioe"
                            },
                            "sourceCrop3" : {
                              "type" : "double",
                              "defaultValue" : 0.0,
                              "interp" : "eioe"
                            },
                            "geometryCrop0" : {
                              "type" : "double",
                              "defaultValue" : 0.0,
                              "interp" : "eioe"
                            },
                            "geometryCrop1" : {
                              "type" : "double",
                              "defaultValue" : 0.0,
                              "interp" : "eioe"
                            },
                            "geometryCrop2" : {
                              "type" : "double",
                              "defaultValue" : 0.0,
                              "interp" : "eioe"
                            },
                            "geometryCrop3" : {
                              "type" : "double",
                              "defaultValue" : 0.0,
                              "interp" : "eioe"
                            },
                            "cursorOpacity" : {
                              "type" : "double",
                              "defaultValue" : 0.0,
                              "interp" : "linr"
                            },
                            "cursorScale" : {
                              "type" : "double",
                              "defaultValue" : 0.0,
                              "interp" : "linr"
                            }
                          },
                          "effects" : [

                          ],
                          "start" : 126,
                          "duration" : 480,
                          "mediaStart" : 125,
                          "mediaDuration" : 1,
                          "scalar" : 1,
                          "metadata" : {
                            "AutoAppliedSmartFocus" : "False"
                          },
                          "animationTracks" : {

                          }
                        },
                        {
                          "id" : 136,
                          "_type" : "UnifiedMedia",
                          "video" : 
                              {
                                "id" : 137,
                                "_type" : "ScreenVMFile",
                                "src" : 3,
                                "trackNumber" : 0,
                                "attributes" : {
                                  "ident" : "Rec 04-11-21_002"
                                },
                                "parameters" : {
                                  "sourceCrop0" : {
                                    "type" : "double",
                                    "defaultValue" : 0.0,
                                    "interp" : "eioe"
                                  },
                                  "sourceCrop1" : {
                                    "type" : "double",
                                    "defaultValue" : 0.0,
                                    "interp" : "eioe"
                                  },
                                  "sourceCrop2" : {
                                    "type" : "double",
                                    "defaultValue" : 0.0,
                                    "interp" : "eioe"
                                  },
                                  "sourceCrop3" : {
                                    "type" : "double",
                                    "defaultValue" : 0.0,
                                    "interp" : "eioe"
                                  },
                                  "geometryCrop0" : {
                                    "type" : "double",
                                    "defaultValue" : 0.0,
                                    "interp" : "eioe"
                                  },
                                  "geometryCrop1" : {
                                    "type" : "double",
                                    "defaultValue" : 0.0,
                                    "interp" : "eioe"
                                  },
                                  "geometryCrop2" : {
                                    "type" : "double",
                                    "defaultValue" : 0.0,
                                    "interp" : "eioe"
                                  },
                                  "geometryCrop3" : {
                                    "type" : "double",
                                    "defaultValue" : 0.0,
                                    "interp" : "eioe"
                                  },
                                  "cursorScale" : {
                                    "type" : "double",
                                    "defaultValue" : 0.0,
                                    "interp" : "linr"
                                  },
                                  "cursorOpacity" : {
                                    "type" : "double",
                                    "defaultValue" : 0.0,
                                    "interp" : "linr"
                                  }
                                },
                                "effects" : [

                                ],
                                "start" : 606,
                                "duration" : 37,
                                "mediaStart" : 126,
                                "mediaDuration" : 37,
                                "scalar" : 1,
                                "animationTracks" : {

                                }
                              },
                          "audio" : 
                              {
                                "id" : 138,
                                "_type" : "AMFile",
                                "src" : 3,
                                "trackNumber" : 2,
                                "attributes" : {
                                  "ident" : "",
                                  "gain" : 1.0,
                                  "mixToMono" : false
                                },
                                  "channelNumber" : "0,1",
                                "effects" : [

                                ],
                                "start" : 606,
                                "duration" : 37,
                                "mediaStart" : 126,
                                "mediaDuration" : 37,
                                "scalar" : 1,
                                "animationTracks" : {

                                }
                              }
,
                          "start" : 606,
                          "duration" : 37,
                          "mediaStart" : 0,
                          "mediaDuration" : 9697,
                          "scalar" : 1,
                          "metadata" : {
                            "AutoAppliedSmartFocus" : "False",
                            "clipSpeedAttribute" : false,
                            "default-height" : 1080.0,
                            "default-scale0" : 1.0,
                            "default-scale1" : 1.0,
                            "default-translation0" : 0.0,
                            "default-translation1" : 0.0,
                            "default-width" : 1920.0
                          }
                        },
                        {
                          "id" : 139,
                          "_type" : "ScreenIMFile",
                          "src" : 3,
                          "trackNumber" : 0,
                          "trimStartSum" : 0,
                          "attributes" : {
                            "ident" : "Rec 04-11-21_002"
                          },
                          "parameters" : {
                            "sourceCrop0" : {
                              "type" : "double",
                              "defaultValue" : 0.0,
                              "interp" : "eioe"
                            },
                            "sourceCrop1" : {
                              "type" : "double",
                              "defaultValue" : 0.0,
                              "interp" : "eioe"
                            },
                            "sourceCrop2" : {
                              "type" : "double",
                              "defaultValue" : 0.0,
                              "interp" : "eioe"
                            },
                            "sourceCrop3" : {
                              "type" : "double",
                              "defaultValue" : 0.0,
                              "interp" : "eioe"
                            },
                            "geometryCrop0" : {
                              "type" : "double",
                              "defaultValue" : 0.0,
                              "interp" : "eioe"
                            },
                            "geometryCrop1" : {
                              "type" : "double",
                              "defaultValue" : 0.0,
                              "interp" : "eioe"
                            },
                            "geometryCrop2" : {
                              "type" : "double",
                              "defaultValue" : 0.0,
                              "interp" : "eioe"
                            },
                            "geometryCrop3" : {
                              "type" : "double",
                              "defaultValue" : 0.0,
                              "interp" : "eioe"
                            },
                            "cursorOpacity" : {
                              "type" : "double",
                              "defaultValue" : 0.0,
                              "interp" : "linr"
                            },
                            "cursorScale" : {
                              "type" : "double",
                              "defaultValue" : 0.0,
                              "interp" : "linr"
                            }
                          },
                          "effects" : [

                          ],
                          "start" : 643,
                          "duration" : 60,
                          "mediaStart" : 163,
                          "mediaDuration" : 1,
                          "scalar" : 1,
                          "metadata" : {
                            "AutoAppliedSmartFocus" : "False"
                          },
                          "animationTracks" : {

                          }
                        },
                        {
                          "id" : 140,
                          "_type" : "UnifiedMedia",
                          "video" : 
                              {
                                "id" : 141,
                                "_type" : "ScreenVMFile",
                                "src" : 3,
                                "trackNumber" : 0,
                                "attributes" : {
                                  "ident" : "Rec 04-11-21_002"
                                },
                                "parameters" : {
                                  "sourceCrop0" : {
                                    "type" : "double",
                                    "defaultValue" : 0.0,
                                    "interp" : "eioe"
                                  },
                                  "sourceCrop1" : {
                                    "type" : "double",
                                    "defaultValue" : 0.0,
                                    "interp" : "eioe"
                                  },
                                  "sourceCrop2" : {
                                    "type" : "double",
                                    "defaultValue" : 0.0,
                                    "interp" : "eioe"
                                  },
                                  "sourceCrop3" : {
                                    "type" : "double",
                                    "defaultValue" : 0.0,
                                    "interp" : "eioe"
                                  },
                                  "geometryCrop0" : {
                                    "type" : "double",
                                    "defaultValue" : 0.0,
                                    "interp" : "eioe"
                                  },
                                  "geometryCrop1" : {
                                    "type" : "double",
                                    "defaultValue" : 0.0,
                                    "interp" : "eioe"
                                  },
                                  "geometryCrop2" : {
                                    "type" : "double",
                                    "defaultValue" : 0.0,
                                    "interp" : "eioe"
                                  },
                                  "geometryCrop3" : {
                                    "type" : "double",
                                    "defaultValue" : 0.0,
                                    "interp" : "eioe"
                                  },
                                  "cursorScale" : {
                                    "type" : "double",
                                    "defaultValue" : 0.0,
                                    "interp" : "linr"
                                  },
                                  "cursorOpacity" : {
                                    "type" : "double",
                                    "defaultValue" : 0.0,
                                    "interp" : "linr"
                                  }
                                },
                                "effects" : [

                                ],
                                "start" : 703,
                                "duration" : 9534,
                                "mediaStart" : 163,
                                "mediaDuration" : 9534,
                                "scalar" : 1,
                                "animationTracks" : {

                                }
                              },
                          "audio" : 
                              {
                                "id" : 142,
                                "_type" : "AMFile",
                                "src" : 3,
                                "trackNumber" : 2,
                                "attributes" : {
                                  "ident" : "",
                                  "gain" : 1.0,
                                  "mixToMono" : false
                                },
                                  "channelNumber" : "0,1",
                                "effects" : [

                                ],
                                "start" : 703,
                                "duration" : 9534,
                                "mediaStart" : 163,
                                "mediaDuration" : 9534,
                                "scalar" : 1,
                                "animationTracks" : {

                                }
                              }
,
                          "start" : 703,
                          "duration" : 9534,
                          "mediaStart" : 0,
                          "mediaDuration" : 9697,
                          "scalar" : 1,
                          "metadata" : {
                            "AutoAppliedSmartFocus" : "False",
                            "clipSpeedAttribute" : false,
                            "default-height" : 1080.0,
                            "default-scale0" : 1.0,
                            "default-scale1" : 1.0,
                            "default-translation0" : 0.0,
                            "default-translation1" : 0.0,
                            "default-width" : 1920.0
                          }
                        }
                    ],
                    "effects" : [

                    ],
                    "start" : 2670,
                    "duration" : 64,
                    "mediaStart" : 5310,
                    "mediaDuration" : 64,
                    "scalar" : 1,
                    "metadata" : {
                      "AutoAppliedSmartFocus" : "False",
                      "clipSpeedAttribute" : false
                    },
                    "animationTracks" : {
                      "visual" : [
                        {
                          "endTime" : 621,
                          "duration" : 20,
                          "range" : [ 601, 20]
                        }
                      ]
                    }
                  },
                  {
                    "id" : 143,
                    "_type" : "StitchedMedia",
                    "minMediaStart" : 0,
                    "attributes" : {
                      "ident" : "Rec 04-11-21_002",
                      "gain" : 1.0,
                      "mixToMono" : false
                    },
                    "parameters" : {
                      "translation0" : {
                        "type" : "double",
                        "defaultValue" : 465.000000000107,
                        "interp" : "eioe",
                        "keyframes" : [
                          {
                            "endTime" : 621,
                            "time" : 601,
                            "value" : -2.8421709430404e-13,
                            "duration" : 20
                          }
                        ]
                      },
                      "translation1" : {
                        "type" : "double",
                        "defaultValue" : 6.9238836886143e-11,
                        "interp" : "eioe"
                      },
                      "scale0" : {
                        "type" : "double",
                        "defaultValue" : 0.748190787382365,
                        "interp" : "eioe",
                        "keyframes" : [
                          {
                            "endTime" : 621,
                            "time" : 601,
                            "value" : 1.0,
                            "duration" : 20
                          }
                        ]
                      },
                      "scale1" : {
                        "type" : "double",
                        "defaultValue" : 0.748190787382366,
                        "interp" : "eioe",
                        "keyframes" : [
                          {
                            "endTime" : 621,
                            "time" : 601,
                            "value" : 1.0,
                            "duration" : 20
                          }
                        ]
                      },
                      "sourceCrop0" : {
                        "type" : "double",
                        "defaultValue" : 0.0,
                        "interp" : "eioe"
                      },
                      "sourceCrop1" : {
                        "type" : "double",
                        "defaultValue" : 0.0,
                        "interp" : "eioe"
                      },
                      "sourceCrop2" : {
                        "type" : "double",
                        "defaultValue" : 0.0,
                        "interp" : "eioe"
                      },
                      "sourceCrop3" : {
                        "type" : "double",
                        "defaultValue" : 0.0,
                        "interp" : "eioe"
                      },
                      "geometryCrop0" : {
                        "type" : "double",
                        "defaultValue" : 0.0,
                        "interp" : "eioe"
                      },
                      "geometryCrop1" : {
                        "type" : "double",
                        "defaultValue" : 0.0,
                        "interp" : "eioe"
                      },
                      "geometryCrop2" : {
                        "type" : "double",
                        "defaultValue" : 0.0,
                        "interp" : "eioe"
                      },
                      "geometryCrop3" : {
                        "type" : "double",
                        "defaultValue" : 0.0,
                        "interp" : "eioe"
                      },
                      "volume" : 1.0,
                      "cursorOpacity" : {
                        "type" : "double",
                        "defaultValue" : 1.0,
                        "interp" : "linr"
                      },
                      "cursorScale" : {
                        "type" : "double",
                        "defaultValue" : 1.0,
                        "interp" : "linr"
                      }
                    },
                    "medias" : [
                        {
                          "id" : 144,
                          "_type" : "UnifiedMedia",
                          "video" : 
                              {
                                "id" : 145,
                                "_type" : "ScreenVMFile",
                                "src" : 3,
                                "trackNumber" : 0,
                                "attributes" : {
                                  "ident" : "Rec 04-11-21_002"
                                },
                                "parameters" : {
                                  "sourceCrop0" : {
                                    "type" : "double",
                                    "defaultValue" : 0.0,
                                    "interp" : "eioe"
                                  },
                                  "sourceCrop1" : {
                                    "type" : "double",
                                    "defaultValue" : 0.0,
                                    "interp" : "eioe"
                                  },
                                  "sourceCrop2" : {
                                    "type" : "double",
                                    "defaultValue" : 0.0,
                                    "interp" : "eioe"
                                  },
                                  "sourceCrop3" : {
                                    "type" : "double",
                                    "defaultValue" : 0.0,
                                    "interp" : "eioe"
                                  },
                                  "geometryCrop0" : {
                                    "type" : "double",
                                    "defaultValue" : 0.0,
                                    "interp" : "eioe"
                                  },
                                  "geometryCrop1" : {
                                    "type" : "double",
                                    "defaultValue" : 0.0,
                                    "interp" : "eioe"
                                  },
                                  "geometryCrop2" : {
                                    "type" : "double",
                                    "defaultValue" : 0.0,
                                    "interp" : "eioe"
                                  },
                                  "geometryCrop3" : {
                                    "type" : "double",
                                    "defaultValue" : 0.0,
                                    "interp" : "eioe"
                                  },
                                  "cursorScale" : {
                                    "type" : "double",
                                    "defaultValue" : 0.0,
                                    "interp" : "linr"
                                  },
                                  "cursorOpacity" : {
                                    "type" : "double",
                                    "defaultValue" : 0.0,
                                    "interp" : "linr"
                                  }
                                },
                                "effects" : [

                                ],
                                "start" : 0,
                                "duration" : 126,
                                "mediaStart" : 0,
                                "mediaDuration" : 126,
                                "scalar" : 1,
                                "animationTracks" : {

                                }
                              },
                          "audio" : 
                              {
                                "id" : 146,
                                "_type" : "AMFile",
                                "src" : 3,
                                "trackNumber" : 2,
                                "attributes" : {
                                  "ident" : "",
                                  "gain" : 1.0,
                                  "mixToMono" : false
                                },
                                  "channelNumber" : "0,1",
                                "effects" : [

                                ],
                                "start" : 0,
                                "duration" : 126,
                                "mediaStart" : 0,
                                "mediaDuration" : 126,
                                "scalar" : 1,
                                "animationTracks" : {

                                }
                              }
,
                          "start" : 0,
                          "duration" : 126,
                          "mediaStart" : 0,
                          "mediaDuration" : 9697,
                          "scalar" : 1,
                          "metadata" : {
                            "AutoAppliedSmartFocus" : "False",
                            "clipSpeedAttribute" : false,
                            "default-height" : 1080.0,
                            "default-scale0" : 1.0,
                            "default-scale1" : 1.0,
                            "default-translation0" : 0.0,
                            "default-translation1" : 0.0,
                            "default-width" : 1920.0
                          }
                        },
                        {
                          "id" : 147,
                          "_type" : "ScreenIMFile",
                          "src" : 3,
                          "trackNumber" : 0,
                          "trimStartSum" : 0,
                          "attributes" : {
                            "ident" : "Rec 04-11-21_002"
                          },
                          "parameters" : {
                            "sourceCrop0" : {
                              "type" : "double",
                              "defaultValue" : 0.0,
                              "interp" : "eioe"
                            },
                            "sourceCrop1" : {
                              "type" : "double",
                              "defaultValue" : 0.0,
                              "interp" : "eioe"
                            },
                            "sourceCrop2" : {
                              "type" : "double",
                              "defaultValue" : 0.0,
                              "interp" : "eioe"
                            },
                            "sourceCrop3" : {
                              "type" : "double",
                              "defaultValue" : 0.0,
                              "interp" : "eioe"
                            },
                            "geometryCrop0" : {
                              "type" : "double",
                              "defaultValue" : 0.0,
                              "interp" : "eioe"
                            },
                            "geometryCrop1" : {
                              "type" : "double",
                              "defaultValue" : 0.0,
                              "interp" : "eioe"
                            },
                            "geometryCrop2" : {
                              "type" : "double",
                              "defaultValue" : 0.0,
                              "interp" : "eioe"
                            },
                            "geometryCrop3" : {
                              "type" : "double",
                              "defaultValue" : 0.0,
                              "interp" : "eioe"
                            },
                            "cursorOpacity" : {
                              "type" : "double",
                              "defaultValue" : 0.0,
                              "interp" : "linr"
                            },
                            "cursorScale" : {
                              "type" : "double",
                              "defaultValue" : 0.0,
                              "interp" : "linr"
                            }
                          },
                          "effects" : [

                          ],
                          "start" : 126,
                          "duration" : 480,
                          "mediaStart" : 125,
                          "mediaDuration" : 1,
                          "scalar" : 1,
                          "metadata" : {
                            "AutoAppliedSmartFocus" : "False"
                          },
                          "animationTracks" : {

                          }
                        },
                        {
                          "id" : 148,
                          "_type" : "UnifiedMedia",
                          "video" : 
                              {
                                "id" : 149,
                                "_type" : "ScreenVMFile",
                                "src" : 3,
                                "trackNumber" : 0,
                                "attributes" : {
                                  "ident" : "Rec 04-11-21_002"
                                },
                                "parameters" : {
                                  "sourceCrop0" : {
                                    "type" : "double",
                                    "defaultValue" : 0.0,
                                    "interp" : "eioe"
                                  },
                                  "sourceCrop1" : {
                                    "type" : "double",
                                    "defaultValue" : 0.0,
                                    "interp" : "eioe"
                                  },
                                  "sourceCrop2" : {
                                    "type" : "double",
                                    "defaultValue" : 0.0,
                                    "interp" : "eioe"
                                  },
                                  "sourceCrop3" : {
                                    "type" : "double",
                                    "defaultValue" : 0.0,
                                    "interp" : "eioe"
                                  },
                                  "geometryCrop0" : {
                                    "type" : "double",
                                    "defaultValue" : 0.0,
                                    "interp" : "eioe"
                                  },
                                  "geometryCrop1" : {
                                    "type" : "double",
                                    "defaultValue" : 0.0,
                                    "interp" : "eioe"
                                  },
                                  "geometryCrop2" : {
                                    "type" : "double",
                                    "defaultValue" : 0.0,
                                    "interp" : "eioe"
                                  },
                                  "geometryCrop3" : {
                                    "type" : "double",
                                    "defaultValue" : 0.0,
                                    "interp" : "eioe"
                                  },
                                  "cursorScale" : {
                                    "type" : "double",
                                    "defaultValue" : 0.0,
                                    "interp" : "linr"
                                  },
                                  "cursorOpacity" : {
                                    "type" : "double",
                                    "defaultValue" : 0.0,
                                    "interp" : "linr"
                                  }
                                },
                                "effects" : [

                                ],
                                "start" : 606,
                                "duration" : 37,
                                "mediaStart" : 126,
                                "mediaDuration" : 37,
                                "scalar" : 1,
                                "animationTracks" : {

                                }
                              },
                          "audio" : 
                              {
                                "id" : 150,
                                "_type" : "AMFile",
                                "src" : 3,
                                "trackNumber" : 2,
                                "attributes" : {
                                  "ident" : "",
                                  "gain" : 1.0,
                                  "mixToMono" : false
                                },
                                  "channelNumber" : "0,1",
                                "effects" : [

                                ],
                                "start" : 606,
                                "duration" : 37,
                                "mediaStart" : 126,
                                "mediaDuration" : 37,
                                "scalar" : 1,
                                "animationTracks" : {

                                }
                              }
,
                          "start" : 606,
                          "duration" : 37,
                          "mediaStart" : 0,
                          "mediaDuration" : 9697,
                          "scalar" : 1,
                          "metadata" : {
                            "AutoAppliedSmartFocus" : "False",
                            "clipSpeedAttribute" : false,
                            "default-height" : 1080.0,
                            "default-scale0" : 1.0,
                            "default-scale1" : 1.0,
                            "default-translation0" : 0.0,
                            "default-translation1" : 0.0,
                            "default-width" : 1920.0
                          }
                        },
                        {
                          "id" : 151,
                          "_type" : "ScreenIMFile",
                          "src" : 3,
                          "trackNumber" : 0,
                          "trimStartSum" : 0,
                          "attributes" : {
                            "ident" : "Rec 04-11-21_002"
                          },
                          "parameters" : {
                            "sourceCrop0" : {
                              "type" : "double",
                              "defaultValue" : 0.0,
                              "interp" : "eioe"
                            },
                            "sourceCrop1" : {
                              "type" : "double",
                              "defaultValue" : 0.0,
                              "interp" : "eioe"
                            },
                            "sourceCrop2" : {
                              "type" : "double",
                              "defaultValue" : 0.0,
                              "interp" : "eioe"
                            },
                            "sourceCrop3" : {
                              "type" : "double",
                              "defaultValue" : 0.0,
                              "interp" : "eioe"
                            },
                            "geometryCrop0" : {
                              "type" : "double",
                              "defaultValue" : 0.0,
                              "interp" : "eioe"
                            },
                            "geometryCrop1" : {
                              "type" : "double",
                              "defaultValue" : 0.0,
                              "interp" : "eioe"
                            },
                            "geometryCrop2" : {
                              "type" : "double",
                              "defaultValue" : 0.0,
                              "interp" : "eioe"
                            },
                            "geometryCrop3" : {
                              "type" : "double",
                              "defaultValue" : 0.0,
                              "interp" : "eioe"
                            },
                            "cursorOpacity" : {
                              "type" : "double",
                              "defaultValue" : 0.0,
                              "interp" : "linr"
                            },
                            "cursorScale" : {
                              "type" : "double",
                              "defaultValue" : 0.0,
                              "interp" : "linr"
                            }
                          },
                          "effects" : [

                          ],
                          "start" : 643,
                          "duration" : 60,
                          "mediaStart" : 163,
                          "mediaDuration" : 1,
                          "scalar" : 1,
                          "metadata" : {
                            "AutoAppliedSmartFocus" : "False"
                          },
                          "animationTracks" : {

                          }
                        },
                        {
                          "id" : 152,
                          "_type" : "UnifiedMedia",
                          "video" : 
                              {
                                "id" : 153,
                                "_type" : "ScreenVMFile",
                                "src" : 3,
                                "trackNumber" : 0,
                                "attributes" : {
                                  "ident" : "Rec 04-11-21_002"
                                },
                                "parameters" : {
                                  "sourceCrop0" : {
                                    "type" : "double",
                                    "defaultValue" : 0.0,
                                    "interp" : "eioe"
                                  },
                                  "sourceCrop1" : {
                                    "type" : "double",
                                    "defaultValue" : 0.0,
                                    "interp" : "eioe"
                                  },
                                  "sourceCrop2" : {
                                    "type" : "double",
                                    "defaultValue" : 0.0,
                                    "interp" : "eioe"
                                  },
                                  "sourceCrop3" : {
                                    "type" : "double",
                                    "defaultValue" : 0.0,
                                    "interp" : "eioe"
                                  },
                                  "geometryCrop0" : {
                                    "type" : "double",
                                    "defaultValue" : 0.0,
                                    "interp" : "eioe"
                                  },
                                  "geometryCrop1" : {
                                    "type" : "double",
                                    "defaultValue" : 0.0,
                                    "interp" : "eioe"
                                  },
                                  "geometryCrop2" : {
                                    "type" : "double",
                                    "defaultValue" : 0.0,
                                    "interp" : "eioe"
                                  },
                                  "geometryCrop3" : {
                                    "type" : "double",
                                    "defaultValue" : 0.0,
                                    "interp" : "eioe"
                                  },
                                  "cursorScale" : {
                                    "type" : "double",
                                    "defaultValue" : 0.0,
                                    "interp" : "linr"
                                  },
                                  "cursorOpacity" : {
                                    "type" : "double",
                                    "defaultValue" : 0.0,
                                    "interp" : "linr"
                                  }
                                },
                                "effects" : [

                                ],
                                "start" : 703,
                                "duration" : 9534,
                                "mediaStart" : 163,
                                "mediaDuration" : 9534,
                                "scalar" : 1,
                                "animationTracks" : {

                                }
                              },
                          "audio" : 
                              {
                                "id" : 154,
                                "_type" : "AMFile",
                                "src" : 3,
                                "trackNumber" : 2,
                                "attributes" : {
                                  "ident" : "",
                                  "gain" : 1.0,
                                  "mixToMono" : false
                                },
                                  "channelNumber" : "0,1",
                                "effects" : [

                                ],
                                "start" : 703,
                                "duration" : 9534,
                                "mediaStart" : 163,
                                "mediaDuration" : 9534,
                                "scalar" : 1,
                                "animationTracks" : {

                                }
                              }
,
                          "start" : 703,
                          "duration" : 9534,
                          "mediaStart" : 0,
                          "mediaDuration" : 9697,
                          "scalar" : 1,
                          "metadata" : {
                            "AutoAppliedSmartFocus" : "False",
                            "clipSpeedAttribute" : false,
                            "default-height" : 1080.0,
                            "default-scale0" : 1.0,
                            "default-scale1" : 1.0,
                            "default-translation0" : 0.0,
                            "default-translation1" : 0.0,
                            "default-width" : 1920.0
                          }
                        }
                    ],
                    "effects" : [

                    ],
                    "start" : 2734,
                    "duration" : 97,
                    "mediaStart" : 5812,
                    "mediaDuration" : 194,
                    "scalar" : "1/2",
                    "metadata" : {
                      "AutoAppliedSmartFocus" : "False",
                      "clipSpeedAttribute" : true
                    },
                    "animationTracks" : {
                      "visual" : [
                        {
                          "endTime" : 621,
                          "duration" : 20,
                          "range" : [ 601, 20]
                        }
                      ]
                    }
                  },
                  {
                    "id" : 155,
                    "_type" : "StitchedMedia",
                    "minMediaStart" : 0,
                    "attributes" : {
                      "ident" : "Rec 04-11-21_002",
                      "gain" : 1.0,
                      "mixToMono" : false
                    },
                    "parameters" : {
                      "translation0" : {
                        "type" : "double",
                        "defaultValue" : 465.000000000107,
                        "interp" : "eioe",
                        "keyframes" : [
                          {
                            "endTime" : 621,
                            "time" : 601,
                            "value" : -2.8421709430404e-13,
                            "duration" : 20
                          }
                        ]
                      },
                      "translation1" : {
                        "type" : "double",
                        "defaultValue" : 6.9238836886143e-11,
                        "interp" : "eioe"
                      },
                      "scale0" : {
                        "type" : "double",
                        "defaultValue" : 0.748190787382365,
                        "interp" : "eioe",
                        "keyframes" : [
                          {
                            "endTime" : 621,
                            "time" : 601,
                            "value" : 1.0,
                            "duration" : 20
                          }
                        ]
                      },
                      "scale1" : {
                        "type" : "double",
                        "defaultValue" : 0.748190787382366,
                        "interp" : "eioe",
                        "keyframes" : [
                          {
                            "endTime" : 621,
                            "time" : 601,
                            "value" : 1.0,
                            "duration" : 20
                          }
                        ]
                      },
                      "sourceCrop0" : {
                        "type" : "double",
                        "defaultValue" : 0.0,
                        "interp" : "eioe"
                      },
                      "sourceCrop1" : {
                        "type" : "double",
                        "defaultValue" : 0.0,
                        "interp" : "eioe"
                      },
                      "sourceCrop2" : {
                        "type" : "double",
                        "defaultValue" : 0.0,
                        "interp" : "eioe"
                      },
                      "sourceCrop3" : {
                        "type" : "double",
                        "defaultValue" : 0.0,
                        "interp" : "eioe"
                      },
                      "geometryCrop0" : {
                        "type" : "double",
                        "defaultValue" : 0.0,
                        "interp" : "eioe"
                      },
                      "geometryCrop1" : {
                        "type" : "double",
                        "defaultValue" : 0.0,
                        "interp" : "eioe"
                      },
                      "geometryCrop2" : {
                        "type" : "double",
                        "defaultValue" : 0.0,
                        "interp" : "eioe"
                      },
                      "geometryCrop3" : {
                        "type" : "double",
                        "defaultValue" : 0.0,
                        "interp" : "eioe"
                      },
                      "volume" : 1.0,
                      "cursorOpacity" : {
                        "type" : "double",
                        "defaultValue" : 1.0,
                        "interp" : "linr"
                      },
                      "cursorScale" : {
                        "type" : "double",
                        "defaultValue" : 1.0,
                        "interp" : "linr"
                      }
                    },
                    "medias" : [
                        {
                          "id" : 156,
                          "_type" : "UnifiedMedia",
                          "video" : 
                              {
                                "id" : 157,
                                "_type" : "ScreenVMFile",
                                "src" : 3,
                                "trackNumber" : 0,
                                "attributes" : {
                                  "ident" : "Rec 04-11-21_002"
                                },
                                "parameters" : {
                                  "sourceCrop0" : {
                                    "type" : "double",
                                    "defaultValue" : 0.0,
                                    "interp" : "eioe"
                                  },
                                  "sourceCrop1" : {
                                    "type" : "double",
                                    "defaultValue" : 0.0,
                                    "interp" : "eioe"
                                  },
                                  "sourceCrop2" : {
                                    "type" : "double",
                                    "defaultValue" : 0.0,
                                    "interp" : "eioe"
                                  },
                                  "sourceCrop3" : {
                                    "type" : "double",
                                    "defaultValue" : 0.0,
                                    "interp" : "eioe"
                                  },
                                  "geometryCrop0" : {
                                    "type" : "double",
                                    "defaultValue" : 0.0,
                                    "interp" : "eioe"
                                  },
                                  "geometryCrop1" : {
                                    "type" : "double",
                                    "defaultValue" : 0.0,
                                    "interp" : "eioe"
                                  },
                                  "geometryCrop2" : {
                                    "type" : "double",
                                    "defaultValue" : 0.0,
                                    "interp" : "eioe"
                                  },
                                  "geometryCrop3" : {
                                    "type" : "double",
                                    "defaultValue" : 0.0,
                                    "interp" : "eioe"
                                  },
                                  "cursorScale" : {
                                    "type" : "double",
                                    "defaultValue" : 0.0,
                                    "interp" : "linr"
                                  },
                                  "cursorOpacity" : {
                                    "type" : "double",
                                    "defaultValue" : 0.0,
                                    "interp" : "linr"
                                  }
                                },
                                "effects" : [

                                ],
                                "start" : 0,
                                "duration" : 126,
                                "mediaStart" : 0,
                                "mediaDuration" : 126,
                                "scalar" : 1,
                                "animationTracks" : {

                                }
                              },
                          "audio" : 
                              {
                                "id" : 158,
                                "_type" : "AMFile",
                                "src" : 3,
                                "trackNumber" : 2,
                                "attributes" : {
                                  "ident" : "",
                                  "gain" : 1.0,
                                  "mixToMono" : false
                                },
                                  "channelNumber" : "0,1",
                                "effects" : [

                                ],
                                "start" : 0,
                                "duration" : 126,
                                "mediaStart" : 0,
                                "mediaDuration" : 126,
                                "scalar" : 1,
                                "animationTracks" : {

                                }
                              }
,
                          "start" : 0,
                          "duration" : 126,
                          "mediaStart" : 0,
                          "mediaDuration" : 9697,
                          "scalar" : 1,
                          "metadata" : {
                            "AutoAppliedSmartFocus" : "False",
                            "clipSpeedAttribute" : false,
                            "default-height" : 1080.0,
                            "default-scale0" : 1.0,
                            "default-scale1" : 1.0,
                            "default-translation0" : 0.0,
                            "default-translation1" : 0.0,
                            "default-width" : 1920.0
                          }
                        },
                        {
                          "id" : 159,
                          "_type" : "ScreenIMFile",
                          "src" : 3,
                          "trackNumber" : 0,
                          "trimStartSum" : 0,
                          "attributes" : {
                            "ident" : "Rec 04-11-21_002"
                          },
                          "parameters" : {
                            "sourceCrop0" : {
                              "type" : "double",
                              "defaultValue" : 0.0,
                              "interp" : "eioe"
                            },
                            "sourceCrop1" : {
                              "type" : "double",
                              "defaultValue" : 0.0,
                              "interp" : "eioe"
                            },
                            "sourceCrop2" : {
                              "type" : "double",
                              "defaultValue" : 0.0,
                              "interp" : "eioe"
                            },
                            "sourceCrop3" : {
                              "type" : "double",
                              "defaultValue" : 0.0,
                              "interp" : "eioe"
                            },
                            "geometryCrop0" : {
                              "type" : "double",
                              "defaultValue" : 0.0,
                              "interp" : "eioe"
                            },
                            "geometryCrop1" : {
                              "type" : "double",
                              "defaultValue" : 0.0,
                              "interp" : "eioe"
                            },
                            "geometryCrop2" : {
                              "type" : "double",
                              "defaultValue" : 0.0,
                              "interp" : "eioe"
                            },
                            "geometryCrop3" : {
                              "type" : "double",
                              "defaultValue" : 0.0,
                              "interp" : "eioe"
                            },
                            "cursorOpacity" : {
                              "type" : "double",
                              "defaultValue" : 0.0,
                              "interp" : "linr"
                            },
                            "cursorScale" : {
                              "type" : "double",
                              "defaultValue" : 0.0,
                              "interp" : "linr"
                            }
                          },
                          "effects" : [

                          ],
                          "start" : 126,
                          "duration" : 480,
                          "mediaStart" : 125,
                          "mediaDuration" : 1,
                          "scalar" : 1,
                          "metadata" : {
                            "AutoAppliedSmartFocus" : "False"
                          },
                          "animationTracks" : {

                          }
                        },
                        {
                          "id" : 160,
                          "_type" : "UnifiedMedia",
                          "video" : 
                              {
                                "id" : 161,
                                "_type" : "ScreenVMFile",
                                "src" : 3,
                                "trackNumber" : 0,
                                "attributes" : {
                                  "ident" : "Rec 04-11-21_002"
                                },
                                "parameters" : {
                                  "sourceCrop0" : {
                                    "type" : "double",
                                    "defaultValue" : 0.0,
                                    "interp" : "eioe"
                                  },
                                  "sourceCrop1" : {
                                    "type" : "double",
                                    "defaultValue" : 0.0,
                                    "interp" : "eioe"
                                  },
                                  "sourceCrop2" : {
                                    "type" : "double",
                                    "defaultValue" : 0.0,
                                    "interp" : "eioe"
                                  },
                                  "sourceCrop3" : {
                                    "type" : "double",
                                    "defaultValue" : 0.0,
                                    "interp" : "eioe"
                                  },
                                  "geometryCrop0" : {
                                    "type" : "double",
                                    "defaultValue" : 0.0,
                                    "interp" : "eioe"
                                  },
                                  "geometryCrop1" : {
                                    "type" : "double",
                                    "defaultValue" : 0.0,
                                    "interp" : "eioe"
                                  },
                                  "geometryCrop2" : {
                                    "type" : "double",
                                    "defaultValue" : 0.0,
                                    "interp" : "eioe"
                                  },
                                  "geometryCrop3" : {
                                    "type" : "double",
                                    "defaultValue" : 0.0,
                                    "interp" : "eioe"
                                  },
                                  "cursorScale" : {
                                    "type" : "double",
                                    "defaultValue" : 0.0,
                                    "interp" : "linr"
                                  },
                                  "cursorOpacity" : {
                                    "type" : "double",
                                    "defaultValue" : 0.0,
                                    "interp" : "linr"
                                  }
                                },
                                "effects" : [

                                ],
                                "start" : 606,
                                "duration" : 37,
                                "mediaStart" : 126,
                                "mediaDuration" : 37,
                                "scalar" : 1,
                                "animationTracks" : {

                                }
                              },
                          "audio" : 
                              {
                                "id" : 162,
                                "_type" : "AMFile",
                                "src" : 3,
                                "trackNumber" : 2,
                                "attributes" : {
                                  "ident" : "",
                                  "gain" : 1.0,
                                  "mixToMono" : false
                                },
                                  "channelNumber" : "0,1",
                                "effects" : [

                                ],
                                "start" : 606,
                                "duration" : 37,
                                "mediaStart" : 126,
                                "mediaDuration" : 37,
                                "scalar" : 1,
                                "animationTracks" : {

                                }
                              }
,
                          "start" : 606,
                          "duration" : 37,
                          "mediaStart" : 0,
                          "mediaDuration" : 9697,
                          "scalar" : 1,
                          "metadata" : {
                            "AutoAppliedSmartFocus" : "False",
                            "clipSpeedAttribute" : false,
                            "default-height" : 1080.0,
                            "default-scale0" : 1.0,
                            "default-scale1" : 1.0,
                            "default-translation0" : 0.0,
                            "default-translation1" : 0.0,
                            "default-width" : 1920.0
                          }
                        },
                        {
                          "id" : 163,
                          "_type" : "ScreenIMFile",
                          "src" : 3,
                          "trackNumber" : 0,
                          "trimStartSum" : 0,
                          "attributes" : {
                            "ident" : "Rec 04-11-21_002"
                          },
                          "parameters" : {
                            "sourceCrop0" : {
                              "type" : "double",
                              "defaultValue" : 0.0,
                              "interp" : "eioe"
                            },
                            "sourceCrop1" : {
                              "type" : "double",
                              "defaultValue" : 0.0,
                              "interp" : "eioe"
                            },
                            "sourceCrop2" : {
                              "type" : "double",
                              "defaultValue" : 0.0,
                              "interp" : "eioe"
                            },
                            "sourceCrop3" : {
                              "type" : "double",
                              "defaultValue" : 0.0,
                              "interp" : "eioe"
                            },
                            "geometryCrop0" : {
                              "type" : "double",
                              "defaultValue" : 0.0,
                              "interp" : "eioe"
                            },
                            "geometryCrop1" : {
                              "type" : "double",
                              "defaultValue" : 0.0,
                              "interp" : "eioe"
                            },
                            "geometryCrop2" : {
                              "type" : "double",
                              "defaultValue" : 0.0,
                              "interp" : "eioe"
                            },
                            "geometryCrop3" : {
                              "type" : "double",
                              "defaultValue" : 0.0,
                              "interp" : "eioe"
                            },
                            "cursorOpacity" : {
                              "type" : "double",
                              "defaultValue" : 0.0,
                              "interp" : "linr"
                            },
                            "cursorScale" : {
                              "type" : "double",
                              "defaultValue" : 0.0,
                              "interp" : "linr"
                            }
                          },
                          "effects" : [

                          ],
                          "start" : 643,
                          "duration" : 60,
                          "mediaStart" : 163,
                          "mediaDuration" : 1,
                          "scalar" : 1,
                          "metadata" : {
                            "AutoAppliedSmartFocus" : "False"
                          },
                          "animationTracks" : {

                          }
                        },
                        {
                          "id" : 164,
                          "_type" : "UnifiedMedia",
                          "video" : 
                              {
                                "id" : 165,
                                "_type" : "ScreenVMFile",
                                "src" : 3,
                                "trackNumber" : 0,
                                "attributes" : {
                                  "ident" : "Rec 04-11-21_002"
                                },
                                "parameters" : {
                                  "sourceCrop0" : {
                                    "type" : "double",
                                    "defaultValue" : 0.0,
                                    "interp" : "eioe"
                                  },
                                  "sourceCrop1" : {
                                    "type" : "double",
                                    "defaultValue" : 0.0,
                                    "interp" : "eioe"
                                  },
                                  "sourceCrop2" : {
                                    "type" : "double",
                                    "defaultValue" : 0.0,
                                    "interp" : "eioe"
                                  },
                                  "sourceCrop3" : {
                                    "type" : "double",
                                    "defaultValue" : 0.0,
                                    "interp" : "eioe"
                                  },
                                  "geometryCrop0" : {
                                    "type" : "double",
                                    "defaultValue" : 0.0,
                                    "interp" : "eioe"
                                  },
                                  "geometryCrop1" : {
                                    "type" : "double",
                                    "defaultValue" : 0.0,
                                    "interp" : "eioe"
                                  },
                                  "geometryCrop2" : {
                                    "type" : "double",
                                    "defaultValue" : 0.0,
                                    "interp" : "eioe"
                                  },
                                  "geometryCrop3" : {
                                    "type" : "double",
                                    "defaultValue" : 0.0,
                                    "interp" : "eioe"
                                  },
                                  "cursorScale" : {
                                    "type" : "double",
                                    "defaultValue" : 0.0,
                                    "interp" : "linr"
                                  },
                                  "cursorOpacity" : {
                                    "type" : "double",
                                    "defaultValue" : 0.0,
                                    "interp" : "linr"
                                  }
                                },
                                "effects" : [

                                ],
                                "start" : 703,
                                "duration" : 9534,
                                "mediaStart" : 163,
                                "mediaDuration" : 9534,
                                "scalar" : 1,
                                "animationTracks" : {

                                }
                              },
                          "audio" : 
                              {
                                "id" : 166,
                                "_type" : "AMFile",
                                "src" : 3,
                                "trackNumber" : 2,
                                "attributes" : {
                                  "ident" : "",
                                  "gain" : 1.0,
                                  "mixToMono" : false
                                },
                                  "channelNumber" : "0,1",
                                "effects" : [

                                ],
                                "start" : 703,
                                "duration" : 9534,
                                "mediaStart" : 163,
                                "mediaDuration" : 9534,
                                "scalar" : 1,
                                "animationTracks" : {

                                }
                              }
,
                          "start" : 703,
                          "duration" : 9534,
                          "mediaStart" : 0,
                          "mediaDuration" : 9697,
                          "scalar" : 1,
                          "metadata" : {
                            "AutoAppliedSmartFocus" : "False",
                            "clipSpeedAttribute" : false,
                            "default-height" : 1080.0,
                            "default-scale0" : 1.0,
                            "default-scale1" : 1.0,
                            "default-translation0" : 0.0,
                            "default-translation1" : 0.0,
                            "default-width" : 1920.0
                          }
                        }
                    ],
                    "effects" : [

                    ],
                    "start" : 2831,
                    "duration" : 43,
                    "mediaStart" : 6053,
                    "mediaDuration" : 85,
                    "scalar" : "43/85",
                    "metadata" : {
                      "AutoAppliedSmartFocus" : "False",
                      "clipSpeedAttribute" : true
                    },
                    "animationTracks" : {
                      "visual" : [
                        {
                          "endTime" : 621,
                          "duration" : 20,
                          "range" : [ 601, 20]
                        }
                      ]
                    }
                  },
                  {
                    "id" : 167,
                    "_type" : "StitchedMedia",
                    "minMediaStart" : 0,
                    "attributes" : {
                      "ident" : "Rec 04-11-21_002",
                      "gain" : 1.0,
                      "mixToMono" : false
                    },
                    "parameters" : {
                      "translation0" : {
                        "type" : "double",
                        "defaultValue" : 465.000000000107,
                        "interp" : "eioe",
                        "keyframes" : [
                          {
                            "endTime" : 621,
                            "time" : 601,
                            "value" : -2.8421709430404e-13,
                            "duration" : 20
                          }
                        ]
                      },
                      "translation1" : {
                        "type" : "double",
                        "defaultValue" : 6.9238836886143e-11,
                        "interp" : "eioe"
                      },
                      "scale0" : {
                        "type" : "double",
                        "defaultValue" : 0.748190787382365,
                        "interp" : "eioe",
                        "keyframes" : [
                          {
                            "endTime" : 621,
                            "time" : 601,
                            "value" : 1.0,
                            "duration" : 20
                          }
                        ]
                      },
                      "scale1" : {
                        "type" : "double",
                        "defaultValue" : 0.748190787382366,
                        "interp" : "eioe",
                        "keyframes" : [
                          {
                            "endTime" : 621,
                            "time" : 601,
                            "value" : 1.0,
                            "duration" : 20
                          }
                        ]
                      },
                      "sourceCrop0" : {
                        "type" : "double",
                        "defaultValue" : 0.0,
                        "interp" : "eioe"
                      },
                      "sourceCrop1" : {
                        "type" : "double",
                        "defaultValue" : 0.0,
                        "interp" : "eioe"
                      },
                      "sourceCrop2" : {
                        "type" : "double",
                        "defaultValue" : 0.0,
                        "interp" : "eioe"
                      },
                      "sourceCrop3" : {
                        "type" : "double",
                        "defaultValue" : 0.0,
                        "interp" : "eioe"
                      },
                      "geometryCrop0" : {
                        "type" : "double",
                        "defaultValue" : 0.0,
                        "interp" : "eioe"
                      },
                      "geometryCrop1" : {
                        "type" : "double",
                        "defaultValue" : 0.0,
                        "interp" : "eioe"
                      },
                      "geometryCrop2" : {
                        "type" : "double",
                        "defaultValue" : 0.0,
                        "interp" : "eioe"
                      },
                      "geometryCrop3" : {
                        "type" : "double",
                        "defaultValue" : 0.0,
                        "interp" : "eioe"
                      },
                      "volume" : 1.0,
                      "cursorOpacity" : {
                        "type" : "double",
                        "defaultValue" : 1.0,
                        "interp" : "linr"
                      },
                      "cursorScale" : {
                        "type" : "double",
                        "defaultValue" : 1.0,
                        "interp" : "linr"
                      }
                    },
                    "medias" : [
                        {
                          "id" : 168,
                          "_type" : "UnifiedMedia",
                          "video" : 
                              {
                                "id" : 169,
                                "_type" : "ScreenVMFile",
                                "src" : 3,
                                "trackNumber" : 0,
                                "attributes" : {
                                  "ident" : "Rec 04-11-21_002"
                                },
                                "parameters" : {
                                  "sourceCrop0" : {
                                    "type" : "double",
                                    "defaultValue" : 0.0,
                                    "interp" : "eioe"
                                  },
                                  "sourceCrop1" : {
                                    "type" : "double",
                                    "defaultValue" : 0.0,
                                    "interp" : "eioe"
                                  },
                                  "sourceCrop2" : {
                                    "type" : "double",
                                    "defaultValue" : 0.0,
                                    "interp" : "eioe"
                                  },
                                  "sourceCrop3" : {
                                    "type" : "double",
                                    "defaultValue" : 0.0,
                                    "interp" : "eioe"
                                  },
                                  "geometryCrop0" : {
                                    "type" : "double",
                                    "defaultValue" : 0.0,
                                    "interp" : "eioe"
                                  },
                                  "geometryCrop1" : {
                                    "type" : "double",
                                    "defaultValue" : 0.0,
                                    "interp" : "eioe"
                                  },
                                  "geometryCrop2" : {
                                    "type" : "double",
                                    "defaultValue" : 0.0,
                                    "interp" : "eioe"
                                  },
                                  "geometryCrop3" : {
                                    "type" : "double",
                                    "defaultValue" : 0.0,
                                    "interp" : "eioe"
                                  },
                                  "cursorScale" : {
                                    "type" : "double",
                                    "defaultValue" : 0.0,
                                    "interp" : "linr"
                                  },
                                  "cursorOpacity" : {
                                    "type" : "double",
                                    "defaultValue" : 0.0,
                                    "interp" : "linr"
                                  }
                                },
                                "effects" : [

                                ],
                                "start" : 0,
                                "duration" : 126,
                                "mediaStart" : 0,
                                "mediaDuration" : 126,
                                "scalar" : 1,
                                "animationTracks" : {

                                }
                              },
                          "audio" : 
                              {
                                "id" : 170,
                                "_type" : "AMFile",
                                "src" : 3,
                                "trackNumber" : 2,
                                "attributes" : {
                                  "ident" : "",
                                  "gain" : 1.0,
                                  "mixToMono" : false
                                },
                                  "channelNumber" : "0,1",
                                "effects" : [

                                ],
                                "start" : 0,
                                "duration" : 126,
                                "mediaStart" : 0,
                                "mediaDuration" : 126,
                                "scalar" : 1,
                                "animationTracks" : {

                                }
                              }
,
                          "start" : 0,
                          "duration" : 126,
                          "mediaStart" : 0,
                          "mediaDuration" : 9697,
                          "scalar" : 1,
                          "metadata" : {
                            "AutoAppliedSmartFocus" : "False",
                            "clipSpeedAttribute" : false,
                            "default-height" : 1080.0,
                            "default-scale0" : 1.0,
                            "default-scale1" : 1.0,
                            "default-translation0" : 0.0,
                            "default-translation1" : 0.0,
                            "default-width" : 1920.0
                          }
                        },
                        {
                          "id" : 171,
                          "_type" : "ScreenIMFile",
                          "src" : 3,
                          "trackNumber" : 0,
                          "trimStartSum" : 0,
                          "attributes" : {
                            "ident" : "Rec 04-11-21_002"
                          },
                          "parameters" : {
                            "sourceCrop0" : {
                              "type" : "double",
                              "defaultValue" : 0.0,
                              "interp" : "eioe"
                            },
                            "sourceCrop1" : {
                              "type" : "double",
                              "defaultValue" : 0.0,
                              "interp" : "eioe"
                            },
                            "sourceCrop2" : {
                              "type" : "double",
                              "defaultValue" : 0.0,
                              "interp" : "eioe"
                            },
                            "sourceCrop3" : {
                              "type" : "double",
                              "defaultValue" : 0.0,
                              "interp" : "eioe"
                            },
                            "geometryCrop0" : {
                              "type" : "double",
                              "defaultValue" : 0.0,
                              "interp" : "eioe"
                            },
                            "geometryCrop1" : {
                              "type" : "double",
                              "defaultValue" : 0.0,
                              "interp" : "eioe"
                            },
                            "geometryCrop2" : {
                              "type" : "double",
                              "defaultValue" : 0.0,
                              "interp" : "eioe"
                            },
                            "geometryCrop3" : {
                              "type" : "double",
                              "defaultValue" : 0.0,
                              "interp" : "eioe"
                            },
                            "cursorOpacity" : {
                              "type" : "double",
                              "defaultValue" : 0.0,
                              "interp" : "linr"
                            },
                            "cursorScale" : {
                              "type" : "double",
                              "defaultValue" : 0.0,
                              "interp" : "linr"
                            }
                          },
                          "effects" : [

                          ],
                          "start" : 126,
                          "duration" : 480,
                          "mediaStart" : 125,
                          "mediaDuration" : 1,
                          "scalar" : 1,
                          "metadata" : {
                            "AutoAppliedSmartFocus" : "False"
                          },
                          "animationTracks" : {

                          }
                        },
                        {
                          "id" : 172,
                          "_type" : "UnifiedMedia",
                          "video" : 
                              {
                                "id" : 173,
                                "_type" : "ScreenVMFile",
                                "src" : 3,
                                "trackNumber" : 0,
                                "attributes" : {
                                  "ident" : "Rec 04-11-21_002"
                                },
                                "parameters" : {
                                  "sourceCrop0" : {
                                    "type" : "double",
                                    "defaultValue" : 0.0,
                                    "interp" : "eioe"
                                  },
                                  "sourceCrop1" : {
                                    "type" : "double",
                                    "defaultValue" : 0.0,
                                    "interp" : "eioe"
                                  },
                                  "sourceCrop2" : {
                                    "type" : "double",
                                    "defaultValue" : 0.0,
                                    "interp" : "eioe"
                                  },
                                  "sourceCrop3" : {
                                    "type" : "double",
                                    "defaultValue" : 0.0,
                                    "interp" : "eioe"
                                  },
                                  "geometryCrop0" : {
                                    "type" : "double",
                                    "defaultValue" : 0.0,
                                    "interp" : "eioe"
                                  },
                                  "geometryCrop1" : {
                                    "type" : "double",
                                    "defaultValue" : 0.0,
                                    "interp" : "eioe"
                                  },
                                  "geometryCrop2" : {
                                    "type" : "double",
                                    "defaultValue" : 0.0,
                                    "interp" : "eioe"
                                  },
                                  "geometryCrop3" : {
                                    "type" : "double",
                                    "defaultValue" : 0.0,
                                    "interp" : "eioe"
                                  },
                                  "cursorScale" : {
                                    "type" : "double",
                                    "defaultValue" : 0.0,
                                    "interp" : "linr"
                                  },
                                  "cursorOpacity" : {
                                    "type" : "double",
                                    "defaultValue" : 0.0,
                                    "interp" : "linr"
                                  }
                                },
                                "effects" : [

                                ],
                                "start" : 606,
                                "duration" : 37,
                                "mediaStart" : 126,
                                "mediaDuration" : 37,
                                "scalar" : 1,
                                "animationTracks" : {

                                }
                              },
                          "audio" : 
                              {
                                "id" : 174,
                                "_type" : "AMFile",
                                "src" : 3,
                                "trackNumber" : 2,
                                "attributes" : {
                                  "ident" : "",
                                  "gain" : 1.0,
                                  "mixToMono" : false
                                },
                                  "channelNumber" : "0,1",
                                "effects" : [

                                ],
                                "start" : 606,
                                "duration" : 37,
                                "mediaStart" : 126,
                                "mediaDuration" : 37,
                                "scalar" : 1,
                                "animationTracks" : {

                                }
                              }
,
                          "start" : 606,
                          "duration" : 37,
                          "mediaStart" : 0,
                          "mediaDuration" : 9697,
                          "scalar" : 1,
                          "metadata" : {
                            "AutoAppliedSmartFocus" : "False",
                            "clipSpeedAttribute" : false,
                            "default-height" : 1080.0,
                            "default-scale0" : 1.0,
                            "default-scale1" : 1.0,
                            "default-translation0" : 0.0,
                            "default-translation1" : 0.0,
                            "default-width" : 1920.0
                          }
                        },
                        {
                          "id" : 175,
                          "_type" : "ScreenIMFile",
                          "src" : 3,
                          "trackNumber" : 0,
                          "trimStartSum" : 0,
                          "attributes" : {
                            "ident" : "Rec 04-11-21_002"
                          },
                          "parameters" : {
                            "sourceCrop0" : {
                              "type" : "double",
                              "defaultValue" : 0.0,
                              "interp" : "eioe"
                            },
                            "sourceCrop1" : {
                              "type" : "double",
                              "defaultValue" : 0.0,
                              "interp" : "eioe"
                            },
                            "sourceCrop2" : {
                              "type" : "double",
                              "defaultValue" : 0.0,
                              "interp" : "eioe"
                            },
                            "sourceCrop3" : {
                              "type" : "double",
                              "defaultValue" : 0.0,
                              "interp" : "eioe"
                            },
                            "geometryCrop0" : {
                              "type" : "double",
                              "defaultValue" : 0.0,
                              "interp" : "eioe"
                            },
                            "geometryCrop1" : {
                              "type" : "double",
                              "defaultValue" : 0.0,
                              "interp" : "eioe"
                            },
                            "geometryCrop2" : {
                              "type" : "double",
                              "defaultValue" : 0.0,
                              "interp" : "eioe"
                            },
                            "geometryCrop3" : {
                              "type" : "double",
                              "defaultValue" : 0.0,
                              "interp" : "eioe"
                            },
                            "cursorOpacity" : {
                              "type" : "double",
                              "defaultValue" : 0.0,
                              "interp" : "linr"
                            },
                            "cursorScale" : {
                              "type" : "double",
                              "defaultValue" : 0.0,
                              "interp" : "linr"
                            }
                          },
                          "effects" : [

                          ],
                          "start" : 643,
                          "duration" : 60,
                          "mediaStart" : 163,
                          "mediaDuration" : 1,
                          "scalar" : 1,
                          "metadata" : {
                            "AutoAppliedSmartFocus" : "False"
                          },
                          "animationTracks" : {

                          }
                        },
                        {
                          "id" : 176,
                          "_type" : "UnifiedMedia",
                          "video" : 
                              {
                                "id" : 177,
                                "_type" : "ScreenVMFile",
                                "src" : 3,
                                "trackNumber" : 0,
                                "attributes" : {
                                  "ident" : "Rec 04-11-21_002"
                                },
                                "parameters" : {
                                  "sourceCrop0" : {
                                    "type" : "double",
                                    "defaultValue" : 0.0,
                                    "interp" : "eioe"
                                  },
                                  "sourceCrop1" : {
                                    "type" : "double",
                                    "defaultValue" : 0.0,
                                    "interp" : "eioe"
                                  },
                                  "sourceCrop2" : {
                                    "type" : "double",
                                    "defaultValue" : 0.0,
                                    "interp" : "eioe"
                                  },
                                  "sourceCrop3" : {
                                    "type" : "double",
                                    "defaultValue" : 0.0,
                                    "interp" : "eioe"
                                  },
                                  "geometryCrop0" : {
                                    "type" : "double",
                                    "defaultValue" : 0.0,
                                    "interp" : "eioe"
                                  },
                                  "geometryCrop1" : {
                                    "type" : "double",
                                    "defaultValue" : 0.0,
                                    "interp" : "eioe"
                                  },
                                  "geometryCrop2" : {
                                    "type" : "double",
                                    "defaultValue" : 0.0,
                                    "interp" : "eioe"
                                  },
                                  "geometryCrop3" : {
                                    "type" : "double",
                                    "defaultValue" : 0.0,
                                    "interp" : "eioe"
                                  },
                                  "cursorScale" : {
                                    "type" : "double",
                                    "defaultValue" : 0.0,
                                    "interp" : "linr"
                                  },
                                  "cursorOpacity" : {
                                    "type" : "double",
                                    "defaultValue" : 0.0,
                                    "interp" : "linr"
                                  }
                                },
                                "effects" : [

                                ],
                                "start" : 703,
                                "duration" : 9534,
                                "mediaStart" : 163,
                                "mediaDuration" : 9534,
                                "scalar" : 1,
                                "animationTracks" : {

                                }
                              },
                          "audio" : 
                              {
                                "id" : 178,
                                "_type" : "AMFile",
                                "src" : 3,
                                "trackNumber" : 2,
                                "attributes" : {
                                  "ident" : "",
                                  "gain" : 1.0,
                                  "mixToMono" : false
                                },
                                  "channelNumber" : "0,1",
                                "effects" : [

                                ],
                                "start" : 703,
                                "duration" : 9534,
                                "mediaStart" : 163,
                                "mediaDuration" : 9534,
                                "scalar" : 1,
                                "animationTracks" : {

                                }
                              }
,
                          "start" : 703,
                          "duration" : 9534,
                          "mediaStart" : 0,
                          "mediaDuration" : 9697,
                          "scalar" : 1,
                          "metadata" : {
                            "AutoAppliedSmartFocus" : "False",
                            "clipSpeedAttribute" : false,
                            "default-height" : 1080.0,
                            "default-scale0" : 1.0,
                            "default-scale1" : 1.0,
                            "default-translation0" : 0.0,
                            "default-translation1" : 0.0,
                            "default-width" : 1920.0
                          }
                        }
                    ],
                    "effects" : [

                    ],
                    "start" : 2874,
                    "duration" : 82,
                    "mediaStart" : 6237,
                    "mediaDuration" : 163,
                    "scalar" : "82/163",
                    "metadata" : {
                      "AutoAppliedSmartFocus" : "False",
                      "clipSpeedAttribute" : true
                    },
                    "animationTracks" : {
                      "visual" : [
                        {
                          "endTime" : 621,
                          "duration" : 20,
                          "range" : [ 601, 20]
                        }
                      ]
                    }
                  },
                  {
                    "id" : 179,
                    "_type" : "StitchedMedia",
                    "minMediaStart" : 0,
                    "attributes" : {
                      "ident" : "Rec 04-11-21_002",
                      "gain" : 1.0,
                      "mixToMono" : false
                    },
                    "parameters" : {
                      "translation0" : {
                        "type" : "double",
                        "defaultValue" : 465.000000000107,
                        "interp" : "eioe",
                        "keyframes" : [
                          {
                            "endTime" : 621,
                            "time" : 601,
                            "value" : -2.8421709430404e-13,
                            "duration" : 20
                          }
                        ]
                      },
                      "translation1" : {
                        "type" : "double",
                        "defaultValue" : 6.9238836886143e-11,
                        "interp" : "eioe"
                      },
                      "scale0" : {
                        "type" : "double",
                        "defaultValue" : 0.748190787382365,
                        "interp" : "eioe",
                        "keyframes" : [
                          {
                            "endTime" : 621,
                            "time" : 601,
                            "value" : 1.0,
                            "duration" : 20
                          }
                        ]
                      },
                      "scale1" : {
                        "type" : "double",
                        "defaultValue" : 0.748190787382366,
                        "interp" : "eioe",
                        "keyframes" : [
                          {
                            "endTime" : 621,
                            "time" : 601,
                            "value" : 1.0,
                            "duration" : 20
                          }
                        ]
                      },
                      "sourceCrop0" : {
                        "type" : "double",
                        "defaultValue" : 0.0,
                        "interp" : "eioe"
                      },
                      "sourceCrop1" : {
                        "type" : "double",
                        "defaultValue" : 0.0,
                        "interp" : "eioe"
                      },
                      "sourceCrop2" : {
                        "type" : "double",
                        "defaultValue" : 0.0,
                        "interp" : "eioe"
                      },
                      "sourceCrop3" : {
                        "type" : "double",
                        "defaultValue" : 0.0,
                        "interp" : "eioe"
                      },
                      "geometryCrop0" : {
                        "type" : "double",
                        "defaultValue" : 0.0,
                        "interp" : "eioe"
                      },
                      "geometryCrop1" : {
                        "type" : "double",
                        "defaultValue" : 0.0,
                        "interp" : "eioe"
                      },
                      "geometryCrop2" : {
                        "type" : "double",
                        "defaultValue" : 0.0,
                        "interp" : "eioe"
                      },
                      "geometryCrop3" : {
                        "type" : "double",
                        "defaultValue" : 0.0,
                        "interp" : "eioe"
                      },
                      "volume" : 1.0,
                      "cursorOpacity" : {
                        "type" : "double",
                        "defaultValue" : 1.0,
                        "interp" : "linr"
                      },
                      "cursorScale" : {
                        "type" : "double",
                        "defaultValue" : 1.0,
                        "interp" : "linr"
                      }
                    },
                    "medias" : [
                        {
                          "id" : 180,
                          "_type" : "UnifiedMedia",
                          "video" : 
                              {
                                "id" : 181,
                                "_type" : "ScreenVMFile",
                                "src" : 3,
                                "trackNumber" : 0,
                                "attributes" : {
                                  "ident" : "Rec 04-11-21_002"
                                },
                                "parameters" : {
                                  "sourceCrop0" : {
                                    "type" : "double",
                                    "defaultValue" : 0.0,
                                    "interp" : "eioe"
                                  },
                                  "sourceCrop1" : {
                                    "type" : "double",
                                    "defaultValue" : 0.0,
                                    "interp" : "eioe"
                                  },
                                  "sourceCrop2" : {
                                    "type" : "double",
                                    "defaultValue" : 0.0,
                                    "interp" : "eioe"
                                  },
                                  "sourceCrop3" : {
                                    "type" : "double",
                                    "defaultValue" : 0.0,
                                    "interp" : "eioe"
                                  },
                                  "geometryCrop0" : {
                                    "type" : "double",
                                    "defaultValue" : 0.0,
                                    "interp" : "eioe"
                                  },
                                  "geometryCrop1" : {
                                    "type" : "double",
                                    "defaultValue" : 0.0,
                                    "interp" : "eioe"
                                  },
                                  "geometryCrop2" : {
                                    "type" : "double",
                                    "defaultValue" : 0.0,
                                    "interp" : "eioe"
                                  },
                                  "geometryCrop3" : {
                                    "type" : "double",
                                    "defaultValue" : 0.0,
                                    "interp" : "eioe"
                                  },
                                  "cursorScale" : {
                                    "type" : "double",
                                    "defaultValue" : 0.0,
                                    "interp" : "linr"
                                  },
                                  "cursorOpacity" : {
                                    "type" : "double",
                                    "defaultValue" : 0.0,
                                    "interp" : "linr"
                                  }
                                },
                                "effects" : [

                                ],
                                "start" : 0,
                                "duration" : 126,
                                "mediaStart" : 0,
                                "mediaDuration" : 126,
                                "scalar" : 1,
                                "animationTracks" : {

                                }
                              },
                          "audio" : 
                              {
                                "id" : 182,
                                "_type" : "AMFile",
                                "src" : 3,
                                "trackNumber" : 2,
                                "attributes" : {
                                  "ident" : "",
                                  "gain" : 1.0,
                                  "mixToMono" : false
                                },
                                  "channelNumber" : "0,1",
                                "effects" : [

                                ],
                                "start" : 0,
                                "duration" : 126,
                                "mediaStart" : 0,
                                "mediaDuration" : 126,
                                "scalar" : 1,
                                "animationTracks" : {

                                }
                              }
,
                          "start" : 0,
                          "duration" : 126,
                          "mediaStart" : 0,
                          "mediaDuration" : 9697,
                          "scalar" : 1,
                          "metadata" : {
                            "AutoAppliedSmartFocus" : "False",
                            "clipSpeedAttribute" : false,
                            "default-height" : 1080.0,
                            "default-scale0" : 1.0,
                            "default-scale1" : 1.0,
                            "default-translation0" : 0.0,
                            "default-translation1" : 0.0,
                            "default-width" : 1920.0
                          }
                        },
                        {
                          "id" : 183,
                          "_type" : "ScreenIMFile",
                          "src" : 3,
                          "trackNumber" : 0,
                          "trimStartSum" : 0,
                          "attributes" : {
                            "ident" : "Rec 04-11-21_002"
                          },
                          "parameters" : {
                            "sourceCrop0" : {
                              "type" : "double",
                              "defaultValue" : 0.0,
                              "interp" : "eioe"
                            },
                            "sourceCrop1" : {
                              "type" : "double",
                              "defaultValue" : 0.0,
                              "interp" : "eioe"
                            },
                            "sourceCrop2" : {
                              "type" : "double",
                              "defaultValue" : 0.0,
                              "interp" : "eioe"
                            },
                            "sourceCrop3" : {
                              "type" : "double",
                              "defaultValue" : 0.0,
                              "interp" : "eioe"
                            },
                            "geometryCrop0" : {
                              "type" : "double",
                              "defaultValue" : 0.0,
                              "interp" : "eioe"
                            },
                            "geometryCrop1" : {
                              "type" : "double",
                              "defaultValue" : 0.0,
                              "interp" : "eioe"
                            },
                            "geometryCrop2" : {
                              "type" : "double",
                              "defaultValue" : 0.0,
                              "interp" : "eioe"
                            },
                            "geometryCrop3" : {
                              "type" : "double",
                              "defaultValue" : 0.0,
                              "interp" : "eioe"
                            },
                            "cursorOpacity" : {
                              "type" : "double",
                              "defaultValue" : 0.0,
                              "interp" : "linr"
                            },
                            "cursorScale" : {
                              "type" : "double",
                              "defaultValue" : 0.0,
                              "interp" : "linr"
                            }
                          },
                          "effects" : [

                          ],
                          "start" : 126,
                          "duration" : 480,
                          "mediaStart" : 125,
                          "mediaDuration" : 1,
                          "scalar" : 1,
                          "metadata" : {
                            "AutoAppliedSmartFocus" : "False"
                          },
                          "animationTracks" : {

                          }
                        },
                        {
                          "id" : 184,
                          "_type" : "UnifiedMedia",
                          "video" : 
                              {
                                "id" : 185,
                                "_type" : "ScreenVMFile",
                                "src" : 3,
                                "trackNumber" : 0,
                                "attributes" : {
                                  "ident" : "Rec 04-11-21_002"
                                },
                                "parameters" : {
                                  "sourceCrop0" : {
                                    "type" : "double",
                                    "defaultValue" : 0.0,
                                    "interp" : "eioe"
                                  },
                                  "sourceCrop1" : {
                                    "type" : "double",
                                    "defaultValue" : 0.0,
                                    "interp" : "eioe"
                                  },
                                  "sourceCrop2" : {
                                    "type" : "double",
                                    "defaultValue" : 0.0,
                                    "interp" : "eioe"
                                  },
                                  "sourceCrop3" : {
                                    "type" : "double",
                                    "defaultValue" : 0.0,
                                    "interp" : "eioe"
                                  },
                                  "geometryCrop0" : {
                                    "type" : "double",
                                    "defaultValue" : 0.0,
                                    "interp" : "eioe"
                                  },
                                  "geometryCrop1" : {
                                    "type" : "double",
                                    "defaultValue" : 0.0,
                                    "interp" : "eioe"
                                  },
                                  "geometryCrop2" : {
                                    "type" : "double",
                                    "defaultValue" : 0.0,
                                    "interp" : "eioe"
                                  },
                                  "geometryCrop3" : {
                                    "type" : "double",
                                    "defaultValue" : 0.0,
                                    "interp" : "eioe"
                                  },
                                  "cursorScale" : {
                                    "type" : "double",
                                    "defaultValue" : 0.0,
                                    "interp" : "linr"
                                  },
                                  "cursorOpacity" : {
                                    "type" : "double",
                                    "defaultValue" : 0.0,
                                    "interp" : "linr"
                                  }
                                },
                                "effects" : [

                                ],
                                "start" : 606,
                                "duration" : 37,
                                "mediaStart" : 126,
                                "mediaDuration" : 37,
                                "scalar" : 1,
                                "animationTracks" : {

                                }
                              },
                          "audio" : 
                              {
                                "id" : 186,
                                "_type" : "AMFile",
                                "src" : 3,
                                "trackNumber" : 2,
                                "attributes" : {
                                  "ident" : "",
                                  "gain" : 1.0,
                                  "mixToMono" : false
                                },
                                  "channelNumber" : "0,1",
                                "effects" : [

                                ],
                                "start" : 606,
                                "duration" : 37,
                                "mediaStart" : 126,
                                "mediaDuration" : 37,
                                "scalar" : 1,
                                "animationTracks" : {

                                }
                              }
,
                          "start" : 606,
                          "duration" : 37,
                          "mediaStart" : 0,
                          "mediaDuration" : 9697,
                          "scalar" : 1,
                          "metadata" : {
                            "AutoAppliedSmartFocus" : "False",
                            "clipSpeedAttribute" : false,
                            "default-height" : 1080.0,
                            "default-scale0" : 1.0,
                            "default-scale1" : 1.0,
                            "default-translation0" : 0.0,
                            "default-translation1" : 0.0,
                            "default-width" : 1920.0
                          }
                        },
                        {
                          "id" : 187,
                          "_type" : "ScreenIMFile",
                          "src" : 3,
                          "trackNumber" : 0,
                          "trimStartSum" : 0,
                          "attributes" : {
                            "ident" : "Rec 04-11-21_002"
                          },
                          "parameters" : {
                            "sourceCrop0" : {
                              "type" : "double",
                              "defaultValue" : 0.0,
                              "interp" : "eioe"
                            },
                            "sourceCrop1" : {
                              "type" : "double",
                              "defaultValue" : 0.0,
                              "interp" : "eioe"
                            },
                            "sourceCrop2" : {
                              "type" : "double",
                              "defaultValue" : 0.0,
                              "interp" : "eioe"
                            },
                            "sourceCrop3" : {
                              "type" : "double",
                              "defaultValue" : 0.0,
                              "interp" : "eioe"
                            },
                            "geometryCrop0" : {
                              "type" : "double",
                              "defaultValue" : 0.0,
                              "interp" : "eioe"
                            },
                            "geometryCrop1" : {
                              "type" : "double",
                              "defaultValue" : 0.0,
                              "interp" : "eioe"
                            },
                            "geometryCrop2" : {
                              "type" : "double",
                              "defaultValue" : 0.0,
                              "interp" : "eioe"
                            },
                            "geometryCrop3" : {
                              "type" : "double",
                              "defaultValue" : 0.0,
                              "interp" : "eioe"
                            },
                            "cursorOpacity" : {
                              "type" : "double",
                              "defaultValue" : 0.0,
                              "interp" : "linr"
                            },
                            "cursorScale" : {
                              "type" : "double",
                              "defaultValue" : 0.0,
                              "interp" : "linr"
                            }
                          },
                          "effects" : [

                          ],
                          "start" : 643,
                          "duration" : 60,
                          "mediaStart" : 163,
                          "mediaDuration" : 1,
                          "scalar" : 1,
                          "metadata" : {
                            "AutoAppliedSmartFocus" : "False"
                          },
                          "animationTracks" : {

                          }
                        },
                        {
                          "id" : 188,
                          "_type" : "UnifiedMedia",
                          "video" : 
                              {
                                "id" : 189,
                                "_type" : "ScreenVMFile",
                                "src" : 3,
                                "trackNumber" : 0,
                                "attributes" : {
                                  "ident" : "Rec 04-11-21_002"
                                },
                                "parameters" : {
                                  "sourceCrop0" : {
                                    "type" : "double",
                                    "defaultValue" : 0.0,
                                    "interp" : "eioe"
                                  },
                                  "sourceCrop1" : {
                                    "type" : "double",
                                    "defaultValue" : 0.0,
                                    "interp" : "eioe"
                                  },
                                  "sourceCrop2" : {
                                    "type" : "double",
                                    "defaultValue" : 0.0,
                                    "interp" : "eioe"
                                  },
                                  "sourceCrop3" : {
                                    "type" : "double",
                                    "defaultValue" : 0.0,
                                    "interp" : "eioe"
                                  },
                                  "geometryCrop0" : {
                                    "type" : "double",
                                    "defaultValue" : 0.0,
                                    "interp" : "eioe"
                                  },
                                  "geometryCrop1" : {
                                    "type" : "double",
                                    "defaultValue" : 0.0,
                                    "interp" : "eioe"
                                  },
                                  "geometryCrop2" : {
                                    "type" : "double",
                                    "defaultValue" : 0.0,
                                    "interp" : "eioe"
                                  },
                                  "geometryCrop3" : {
                                    "type" : "double",
                                    "defaultValue" : 0.0,
                                    "interp" : "eioe"
                                  },
                                  "cursorScale" : {
                                    "type" : "double",
                                    "defaultValue" : 0.0,
                                    "interp" : "linr"
                                  },
                                  "cursorOpacity" : {
                                    "type" : "double",
                                    "defaultValue" : 0.0,
                                    "interp" : "linr"
                                  }
                                },
                                "effects" : [

                                ],
                                "start" : 703,
                                "duration" : 9534,
                                "mediaStart" : 163,
                                "mediaDuration" : 9534,
                                "scalar" : 1,
                                "animationTracks" : {

                                }
                              },
                          "audio" : 
                              {
                                "id" : 190,
                                "_type" : "AMFile",
                                "src" : 3,
                                "trackNumber" : 2,
                                "attributes" : {
                                  "ident" : "",
                                  "gain" : 1.0,
                                  "mixToMono" : false
                                },
                                  "channelNumber" : "0,1",
                                "effects" : [

                                ],
                                "start" : 703,
                                "duration" : 9534,
                                "mediaStart" : 163,
                                "mediaDuration" : 9534,
                                "scalar" : 1,
                                "animationTracks" : {

                                }
                              }
,
                          "start" : 703,
                          "duration" : 9534,
                          "mediaStart" : 0,
                          "mediaDuration" : 9697,
                          "scalar" : 1,
                          "metadata" : {
                            "AutoAppliedSmartFocus" : "False",
                            "clipSpeedAttribute" : false,
                            "default-height" : 1080.0,
                            "default-scale0" : 1.0,
                            "default-scale1" : 1.0,
                            "default-translation0" : 0.0,
                            "default-translation1" : 0.0,
                            "default-width" : 1920.0
                          }
                        }
                    ],
                    "effects" : [

                    ],
                    "start" : 2956,
                    "duration" : 149,
                    "mediaStart" : 6821,
                    "mediaDuration" : 298,
                    "scalar" : "1/2",
                    "metadata" : {
                      "AutoAppliedSmartFocus" : "False",
                      "clipSpeedAttribute" : true
                    },
                    "animationTracks" : {
                      "visual" : [
                        {
                          "endTime" : 621,
                          "duration" : 20,
                          "range" : [ 601, 20]
                        }
                      ]
                    }
                  },
                  {
                    "id" : 191,
                    "_type" : "StitchedMedia",
                    "minMediaStart" : 0,
                    "attributes" : {
                      "ident" : "Rec 04-11-21_004",
                      "gain" : 1.0,
                      "mixToMono" : false
                    },
                    "parameters" : {
                      "sourceCrop0" : 0.0,
                      "sourceCrop1" : 0.0,
                      "sourceCrop2" : 0.0,
                      "sourceCrop3" : 0.0,
                      "geometryCrop0" : 0.0,
                      "geometryCrop1" : 0.0,
                      "geometryCrop2" : 0.0,
                      "geometryCrop3" : 0.0,
                      "volume" : 1.0,
                      "cursorOpacity" : 1.0,
                      "cursorScale" : 1.0
                    },
                    "medias" : [
                        {
                          "id" : 192,
                          "_type" : "UnifiedMedia",
                          "video" : 
                              {
                                "id" : 193,
                                "_type" : "ScreenVMFile",
                                "src" : 5,
                                "trackNumber" : 0,
                                "attributes" : {
                                  "ident" : "Rec 04-11-21_004"
                                },
                                "parameters" : {
                                  "sourceCrop0" : {
                                    "type" : "double",
                                    "defaultValue" : 0.0,
                                    "interp" : "eioe"
                                  },
                                  "sourceCrop1" : {
                                    "type" : "double",
                                    "defaultValue" : 0.0,
                                    "interp" : "eioe"
                                  },
                                  "sourceCrop2" : {
                                    "type" : "double",
                                    "defaultValue" : 0.0,
                                    "interp" : "eioe"
                                  },
                                  "sourceCrop3" : {
                                    "type" : "double",
                                    "defaultValue" : 0.0,
                                    "interp" : "eioe"
                                  },
                                  "geometryCrop0" : {
                                    "type" : "double",
                                    "defaultValue" : 0.0,
                                    "interp" : "eioe"
                                  },
                                  "geometryCrop1" : {
                                    "type" : "double",
                                    "defaultValue" : 0.0,
                                    "interp" : "eioe"
                                  },
                                  "geometryCrop2" : {
                                    "type" : "double",
                                    "defaultValue" : 0.0,
                                    "interp" : "eioe"
                                  },
                                  "geometryCrop3" : {
                                    "type" : "double",
                                    "defaultValue" : 0.0,
                                    "interp" : "eioe"
                                  },
                                  "cursorScale" : {
                                    "type" : "double",
                                    "defaultValue" : 0.0,
                                    "interp" : "linr"
                                  },
                                  "cursorOpacity" : {
                                    "type" : "double",
                                    "defaultValue" : 0.0,
                                    "interp" : "linr"
                                  }
                                },
                                "effects" : [

                                ],
                                "start" : 0,
                                "duration" : 24,
                                "mediaStart" : 0,
                                "mediaDuration" : 24,
                                "scalar" : 1,
                                "animationTracks" : {

                                }
                              },
                          "audio" : 
                              {
                                "id" : 194,
                                "_type" : "AMFile",
                                "src" : 5,
                                "trackNumber" : 2,
                                "attributes" : {
                                  "ident" : "",
                                  "gain" : 1.0,
                                  "mixToMono" : false
                                },
                                  "channelNumber" : "0,1",
                                "effects" : [

                                ],
                                "start" : 0,
                                "duration" : 24,
                                "mediaStart" : 0,
                                "mediaDuration" : 24,
                                "scalar" : 1,
                                "animationTracks" : {

                                }
                              }
,
                          "start" : 0,
                          "duration" : 24,
                          "mediaStart" : 0,
                          "mediaDuration" : 377,
                          "scalar" : 1,
                          "metadata" : {
                            "AutoAppliedSmartFocus" : "False",
                            "clipSpeedAttribute" : false
                          }
                        },
                        {
                          "id" : 195,
                          "_type" : "ScreenIMFile",
                          "src" : 5,
                          "trackNumber" : 0,
                          "trimStartSum" : 0,
                          "attributes" : {
                            "ident" : "Rec 04-11-21_004"
                          },
                          "parameters" : {
                            "sourceCrop0" : {
                              "type" : "double",
                              "defaultValue" : 0.0,
                              "interp" : "eioe"
                            },
                            "sourceCrop1" : {
                              "type" : "double",
                              "defaultValue" : 0.0,
                              "interp" : "eioe"
                            },
                            "sourceCrop2" : {
                              "type" : "double",
                              "defaultValue" : 0.0,
                              "interp" : "eioe"
                            },
                            "sourceCrop3" : {
                              "type" : "double",
                              "defaultValue" : 0.0,
                              "interp" : "eioe"
                            },
                            "geometryCrop0" : {
                              "type" : "double",
                              "defaultValue" : 0.0,
                              "interp" : "eioe"
                            },
                            "geometryCrop1" : {
                              "type" : "double",
                              "defaultValue" : 0.0,
                              "interp" : "eioe"
                            },
                            "geometryCrop2" : {
                              "type" : "double",
                              "defaultValue" : 0.0,
                              "interp" : "eioe"
                            },
                            "geometryCrop3" : {
                              "type" : "double",
                              "defaultValue" : 0.0,
                              "interp" : "eioe"
                            },
                            "cursorOpacity" : {
                              "type" : "double",
                              "defaultValue" : 0.0,
                              "interp" : "linr"
                            },
                            "cursorScale" : {
                              "type" : "double",
                              "defaultValue" : 0.0,
                              "interp" : "linr"
                            }
                          },
                          "effects" : [

                          ],
                          "start" : 24,
                          "duration" : 60,
                          "mediaStart" : 23,
                          "mediaDuration" : 1,
                          "scalar" : 1,
                          "metadata" : {
                            "AutoAppliedSmartFocus" : "False"
                          },
                          "animationTracks" : {

                          }
                        },
                        {
                          "id" : 196,
                          "_type" : "UnifiedMedia",
                          "video" : 
                              {
                                "id" : 197,
                                "_type" : "ScreenVMFile",
                                "src" : 5,
                                "trackNumber" : 0,
                                "attributes" : {
                                  "ident" : "Rec 04-11-21_004"
                                },
                                "parameters" : {
                                  "sourceCrop0" : {
                                    "type" : "double",
                                    "defaultValue" : 0.0,
                                    "interp" : "eioe"
                                  },
                                  "sourceCrop1" : {
                                    "type" : "double",
                                    "defaultValue" : 0.0,
                                    "interp" : "eioe"
                                  },
                                  "sourceCrop2" : {
                                    "type" : "double",
                                    "defaultValue" : 0.0,
                                    "interp" : "eioe"
                                  },
                                  "sourceCrop3" : {
                                    "type" : "double",
                                    "defaultValue" : 0.0,
                                    "interp" : "eioe"
                                  },
                                  "geometryCrop0" : {
                                    "type" : "double",
                                    "defaultValue" : 0.0,
                                    "interp" : "eioe"
                                  },
                                  "geometryCrop1" : {
                                    "type" : "double",
                                    "defaultValue" : 0.0,
                                    "interp" : "eioe"
                                  },
                                  "geometryCrop2" : {
                                    "type" : "double",
                                    "defaultValue" : 0.0,
                                    "interp" : "eioe"
                                  },
                                  "geometryCrop3" : {
                                    "type" : "double",
                                    "defaultValue" : 0.0,
                                    "interp" : "eioe"
                                  },
                                  "cursorScale" : {
                                    "type" : "double",
                                    "defaultValue" : 0.0,
                                    "interp" : "linr"
                                  },
                                  "cursorOpacity" : {
                                    "type" : "double",
                                    "defaultValue" : 0.0,
                                    "interp" : "linr"
                                  }
                                },
                                "effects" : [

                                ],
                                "start" : 84,
                                "duration" : 353,
                                "mediaStart" : 24,
                                "mediaDuration" : 353,
                                "scalar" : 1,
                                "animationTracks" : {

                                }
                              },
                          "audio" : 
                              {
                                "id" : 198,
                                "_type" : "AMFile",
                                "src" : 5,
                                "trackNumber" : 2,
                                "attributes" : {
                                  "ident" : "",
                                  "gain" : 1.0,
                                  "mixToMono" : false
                                },
                                  "channelNumber" : "0,1",
                                "effects" : [

                                ],
                                "start" : 84,
                                "duration" : 353,
                                "mediaStart" : 24,
                                "mediaDuration" : 353,
                                "scalar" : 1,
                                "animationTracks" : {

                                }
                              }
,
                          "start" : 84,
                          "duration" : 353,
                          "mediaStart" : 0,
                          "mediaDuration" : 377,
                          "scalar" : 1,
                          "metadata" : {
                            "AutoAppliedSmartFocus" : "False",
                            "clipSpeedAttribute" : false
                          }
                        }
                    ],
                    "effects" : [

                    ],
                    "start" : 3105,
                    "duration" : 278,
                    "mediaStart" : 0,
                    "mediaDuration" : 278,
                    "scalar" : 1,
                    "metadata" : {
                      "AutoAppliedSmartFocus" : "False",
                      "clipSpeedAttribute" : false
                    },
                    "animationTracks" : {

                    }
                  },
                  {
                    "id" : 199,
                    "_type" : "StitchedMedia",
                    "minMediaStart" : 0,
                    "attributes" : {
                      "ident" : "Rec 04-11-21_004",
                      "gain" : 1.0,
                      "mixToMono" : false
                    },
                    "parameters" : {
                      "sourceCrop0" : {
                        "type" : "double",
                        "defaultValue" : 0.0,
                        "interp" : "eioe"
                      },
                      "sourceCrop1" : {
                        "type" : "double",
                        "defaultValue" : 0.0,
                        "interp" : "eioe"
                      },
                      "sourceCrop2" : {
                        "type" : "double",
                        "defaultValue" : 0.0,
                        "interp" : "eioe"
                      },
                      "sourceCrop3" : {
                        "type" : "double",
                        "defaultValue" : 0.0,
                        "interp" : "eioe"
                      },
                      "geometryCrop0" : {
                        "type" : "double",
                        "defaultValue" : 0.0,
                        "interp" : "eioe"
                      },
                      "geometryCrop1" : {
                        "type" : "double",
                        "defaultValue" : 0.0,
                        "interp" : "eioe"
                      },
                      "geometryCrop2" : {
                        "type" : "double",
                        "defaultValue" : 0.0,
                        "interp" : "eioe"
                      },
                      "geometryCrop3" : {
                        "type" : "double",
                        "defaultValue" : 0.0,
                        "interp" : "eioe"
                      },
                      "volume" : 1.0,
                      "cursorOpacity" : {
                        "type" : "double",
                        "defaultValue" : 1.0,
                        "interp" : "linr"
                      },
                      "cursorScale" : {
                        "type" : "double",
                        "defaultValue" : 1.0,
                        "interp" : "linr"
                      }
                    },
                    "medias" : [
                        {
                          "id" : 200,
                          "_type" : "UnifiedMedia",
                          "video" : 
                              {
                                "id" : 201,
                                "_type" : "ScreenVMFile",
                                "src" : 5,
                                "trackNumber" : 0,
                                "attributes" : {
                                  "ident" : "Rec 04-11-21_004"
                                },
                                "parameters" : {
                                  "sourceCrop0" : {
                                    "type" : "double",
                                    "defaultValue" : 0.0,
                                    "interp" : "eioe"
                                  },
                                  "sourceCrop1" : {
                                    "type" : "double",
                                    "defaultValue" : 0.0,
                                    "interp" : "eioe"
                                  },
                                  "sourceCrop2" : {
                                    "type" : "double",
                                    "defaultValue" : 0.0,
                                    "interp" : "eioe"
                                  },
                                  "sourceCrop3" : {
                                    "type" : "double",
                                    "defaultValue" : 0.0,
                                    "interp" : "eioe"
                                  },
                                  "geometryCrop0" : {
                                    "type" : "double",
                                    "defaultValue" : 0.0,
                                    "interp" : "eioe"
                                  },
                                  "geometryCrop1" : {
                                    "type" : "double",
                                    "defaultValue" : 0.0,
                                    "interp" : "eioe"
                                  },
                                  "geometryCrop2" : {
                                    "type" : "double",
                                    "defaultValue" : 0.0,
                                    "interp" : "eioe"
                                  },
                                  "geometryCrop3" : {
                                    "type" : "double",
                                    "defaultValue" : 0.0,
                                    "interp" : "eioe"
                                  },
                                  "cursorScale" : {
                                    "type" : "double",
                                    "defaultValue" : 0.0,
                                    "interp" : "linr"
                                  },
                                  "cursorOpacity" : {
                                    "type" : "double",
                                    "defaultValue" : 0.0,
                                    "interp" : "linr"
                                  }
                                },
                                "effects" : [

                                ],
                                "start" : 0,
                                "duration" : 24,
                                "mediaStart" : 0,
                                "mediaDuration" : 24,
                                "scalar" : 1,
                                "animationTracks" : {

                                }
                              },
                          "audio" : 
                              {
                                "id" : 202,
                                "_type" : "AMFile",
                                "src" : 5,
                                "trackNumber" : 2,
                                "attributes" : {
                                  "ident" : "",
                                  "gain" : 1.0,
                                  "mixToMono" : false
                                },
                                  "channelNumber" : "0,1",
                                "effects" : [

                                ],
                                "start" : 0,
                                "duration" : 24,
                                "mediaStart" : 0,
                                "mediaDuration" : 24,
                                "scalar" : 1,
                                "animationTracks" : {

                                }
                              }
,
                          "start" : 0,
                          "duration" : 24,
                          "mediaStart" : 0,
                          "mediaDuration" : 377,
                          "scalar" : 1,
                          "metadata" : {
                            "AutoAppliedSmartFocus" : "False",
                            "clipSpeedAttribute" : false
                          }
                        },
                        {
                          "id" : 203,
                          "_type" : "ScreenIMFile",
                          "src" : 5,
                          "trackNumber" : 0,
                          "trimStartSum" : 0,
                          "attributes" : {
                            "ident" : "Rec 04-11-21_004"
                          },
                          "parameters" : {
                            "sourceCrop0" : {
                              "type" : "double",
                              "defaultValue" : 0.0,
                              "interp" : "eioe"
                            },
                            "sourceCrop1" : {
                              "type" : "double",
                              "defaultValue" : 0.0,
                              "interp" : "eioe"
                            },
                            "sourceCrop2" : {
                              "type" : "double",
                              "defaultValue" : 0.0,
                              "interp" : "eioe"
                            },
                            "sourceCrop3" : {
                              "type" : "double",
                              "defaultValue" : 0.0,
                              "interp" : "eioe"
                            },
                            "geometryCrop0" : {
                              "type" : "double",
                              "defaultValue" : 0.0,
                              "interp" : "eioe"
                            },
                            "geometryCrop1" : {
                              "type" : "double",
                              "defaultValue" : 0.0,
                              "interp" : "eioe"
                            },
                            "geometryCrop2" : {
                              "type" : "double",
                              "defaultValue" : 0.0,
                              "interp" : "eioe"
                            },
                            "geometryCrop3" : {
                              "type" : "double",
                              "defaultValue" : 0.0,
                              "interp" : "eioe"
                            },
                            "cursorOpacity" : {
                              "type" : "double",
                              "defaultValue" : 0.0,
                              "interp" : "linr"
                            },
                            "cursorScale" : {
                              "type" : "double",
                              "defaultValue" : 0.0,
                              "interp" : "linr"
                            }
                          },
                          "effects" : [

                          ],
                          "start" : 24,
                          "duration" : 60,
                          "mediaStart" : 23,
                          "mediaDuration" : 1,
                          "scalar" : 1,
                          "metadata" : {
                            "AutoAppliedSmartFocus" : "False"
                          },
                          "animationTracks" : {

                          }
                        },
                        {
                          "id" : 204,
                          "_type" : "UnifiedMedia",
                          "video" : 
                              {
                                "id" : 205,
                                "_type" : "ScreenVMFile",
                                "src" : 5,
                                "trackNumber" : 0,
                                "attributes" : {
                                  "ident" : "Rec 04-11-21_004"
                                },
                                "parameters" : {
                                  "sourceCrop0" : {
                                    "type" : "double",
                                    "defaultValue" : 0.0,
                                    "interp" : "eioe"
                                  },
                                  "sourceCrop1" : {
                                    "type" : "double",
                                    "defaultValue" : 0.0,
                                    "interp" : "eioe"
                                  },
                                  "sourceCrop2" : {
                                    "type" : "double",
                                    "defaultValue" : 0.0,
                                    "interp" : "eioe"
                                  },
                                  "sourceCrop3" : {
                                    "type" : "double",
                                    "defaultValue" : 0.0,
                                    "interp" : "eioe"
                                  },
                                  "geometryCrop0" : {
                                    "type" : "double",
                                    "defaultValue" : 0.0,
                                    "interp" : "eioe"
                                  },
                                  "geometryCrop1" : {
                                    "type" : "double",
                                    "defaultValue" : 0.0,
                                    "interp" : "eioe"
                                  },
                                  "geometryCrop2" : {
                                    "type" : "double",
                                    "defaultValue" : 0.0,
                                    "interp" : "eioe"
                                  },
                                  "geometryCrop3" : {
                                    "type" : "double",
                                    "defaultValue" : 0.0,
                                    "interp" : "eioe"
                                  },
                                  "cursorScale" : {
                                    "type" : "double",
                                    "defaultValue" : 0.0,
                                    "interp" : "linr"
                                  },
                                  "cursorOpacity" : {
                                    "type" : "double",
                                    "defaultValue" : 0.0,
                                    "interp" : "linr"
                                  }
                                },
                                "effects" : [

                                ],
                                "start" : 84,
                                "duration" : 353,
                                "mediaStart" : 24,
                                "mediaDuration" : 353,
                                "scalar" : 1,
                                "animationTracks" : {

                                }
                              },
                          "audio" : 
                              {
                                "id" : 206,
                                "_type" : "AMFile",
                                "src" : 5,
                                "trackNumber" : 2,
                                "attributes" : {
                                  "ident" : "",
                                  "gain" : 1.0,
                                  "mixToMono" : false
                                },
                                  "channelNumber" : "0,1",
                                "effects" : [

                                ],
                                "start" : 84,
                                "duration" : 353,
                                "mediaStart" : 24,
                                "mediaDuration" : 353,
                                "scalar" : 1,
                                "animationTracks" : {

                                }
                              }
,
                          "start" : 84,
                          "duration" : 353,
                          "mediaStart" : 0,
                          "mediaDuration" : 377,
                          "scalar" : 1,
                          "metadata" : {
                            "AutoAppliedSmartFocus" : "False",
                            "clipSpeedAttribute" : false
                          }
                        }
                    ],
                    "effects" : [
                        {
                          "_type" : "GenericBehaviorEffect",
                          "effectName" : "scale",
                          "bypassed" : false,
                          "start" : 325,
                          "duration" : 23                        ,
                          "in" : {
                            "attributes" : {
                              "name" : "none",
                              "type" : 0,
                              "characterOrder" : 6,
                              "offsetBetweenCharacters" : 0,
                              "suggestedDurationPerCharacter" : 0,
                              "overlapProportion" : 0,
                              "movement" : -1,
                              "springDamping" : 5.0,
                              "springStiffness" : 50.0,
                              "bounceBounciness" : 0.45
                            }
                          
                          },
                          "center" : {
                            "attributes" : {
                              "name" : "none",
                              "type" : 0,
                              "characterOrder" : 6,
                              "offsetBetweenCharacters" : 0,
                              "secondsPerLoop" : 1,
                              "numberOfLoops" : -1,
                              "delayBetweenLoops" : 0,
                              "offsetBetweenCharacters" : 0
                            }
                          
                          },
                          "out" : {
                            "attributes" : {
                              "name" : "shrink",
                              "type" : 0,
                              "characterOrder" : 6,
                              "offsetBetweenCharacters" : 1,
                              "suggestedDurationPerCharacter" : "29/2",
                              "overlapProportion" : "1/10",
                              "movement" : 11,
                              "springDamping" : 5.0,
                              "springStiffness" : 50.0,
                              "bounceBounciness" : 0.45
                            }
                          
                          },
                          "metadata" : {
                            "default-behavior-in-style" : "grow",
                            "presetName" : "Scale"
                          }
                        }
                    ],
                    "start" : 3383,
                    "duration" : 23,
                    "mediaStart" : 325,
                    "mediaDuration" : 23,
                    "scalar" : 1,
                    "metadata" : {
                      "AutoAppliedSmartFocus" : "False",
                      "clipSpeedAttribute" : false
                    },
                    "animationTracks" : {

                    }
                  },
                  {
                    "id" : 207,
                    "_type" : "IMFile",
                    "src" : 2,
                    "trackNumber" : 0,
                    "trimStartSum" : 0,
                    "attributes" : {
                      "ident" : "mail-icon"
                    },
                    "parameters" : {
                      "sourceCrop0" : {
                        "type" : "double",
                        "defaultValue" : 0.0,
                        "interp" : "eioe"
                      },
                      "sourceCrop1" : {
                        "type" : "double",
                        "defaultValue" : 0.0,
                        "interp" : "eioe"
                      },
                      "sourceCrop2" : {
                        "type" : "double",
                        "defaultValue" : 0.0,
                        "interp" : "eioe"
                      },
                      "sourceCrop3" : {
                        "type" : "double",
                        "defaultValue" : 0.0,
                        "interp" : "eioe"
                      },
                      "geometryCrop0" : {
                        "type" : "double",
                        "defaultValue" : 0.0,
                        "interp" : "eioe"
                      },
                      "geometryCrop1" : {
                        "type" : "double",
                        "defaultValue" : 0.0,
                        "interp" : "eioe"
                      },
                      "geometryCrop2" : {
                        "type" : "double",
                        "defaultValue" : 0.0,
                        "interp" : "eioe"
                      },
                      "geometryCrop3" : {
                        "type" : "double",
                        "defaultValue" : 0.0,
                        "interp" : "eioe"
                      }
                    },
                    "effects" : [
                        {
                          "_type" : "GenericBehaviorEffect",
                          "effectName" : "pulsating",
                          "bypassed" : false,
                          "start" : 0,
                          "duration" : 56                        ,
                          "in" : {
                            "attributes" : {
                              "name" : "grow",
                              "type" : 0,
                              "characterOrder" : 6,
                              "offsetBetweenCharacters" : 1,
                              "suggestedDurationPerCharacter" : 18,
                              "overlapProportion" : "3/4",
                              "movement" : 30,
                              "springDamping" : 5.0,
                              "springStiffness" : 50.0,
                              "bounceBounciness" : 0.45
                            }
                          
                          },
                          "center" : {
                            "attributes" : {
                              "name" : "none",
                              "type" : 0,
                              "characterOrder" : 6,
                              "offsetBetweenCharacters" : 0,
                              "secondsPerLoop" : 1,
                              "numberOfLoops" : -1,
                              "delayBetweenLoops" : 0,
                              "offsetBetweenCharacters" : 0
                            }
                          
                          },
                          "out" : {
                            "attributes" : {
                              "name" : "reveal",
                              "type" : 0,
                              "characterOrder" : 7,
                              "offsetBetweenCharacters" : "3/2",
                              "suggestedDurationPerCharacter" : 17,
                              "overlapProportion" : "1/2",
                              "movement" : 6,
                              "springDamping" : 5.0,
                              "springStiffness" : 50.0,
                              "bounceBounciness" : 0.45
                            },
                            "parameters" : {
                              "direction" : {
                                "type" : "int",
                                "valueBounds" : {
                                  "minValue" : 0,
                                  "maxValue" : 3,
                                  "defaultValue" : 2
                                },
                                "uiHints" : {
                                  "userInterfaceType" : 2,
                                  "unitType" : 0
                                },
                                "keyframes" : [
                                  {
                                    "endTime" : 0,
                                    "time" : 0,
                                    "value" : 2,
                                    "duration" : 0
                                  }
                                ]
                              }
                            }
                          
                          },
                          "metadata" : {
                            "default-behavior-center-style" : "pulsate",
                            "default-behavior-out-style" : "shrink",
                            "presetName" : "Pulsating"
                          }
                        }
                    ],
                    "start" : 3406,
                    "duration" : 56,
                    "mediaStart" : 0,
                    "mediaDuration" : 1,
                    "scalar" : 1,
                    "metadata" : {
                      "clipSpeedAttribute" : false
                    },
                    "animationTracks" : {

                    }
                  }
                ],
                "transitions" : [
                  {
                    "name" : "SlideRight",
                    "duration" : 30,
                    "trivial" : false,
                    "reverse" : false,
                    "bypass" : false,
                    "useAudioPreRoll" : true,
                    "useVisualPreRoll" : true,
                    "rightMedia" : 18
                  },
                  {
                    "name" : "SlideLeft",
                    "duration" : 30,
                    "trivial" : false,
                    "reverse" : false,
                    "bypass" : false,
                    "useAudioPreRoll" : true,
                    "useVisualPreRoll" : true,
                    "rightMedia" : 19
                  },
                  {
                    "name" : "Fade",
                    "duration" : 15,
                    "trivial" : false,
                    "reverse" : false,
                    "bypass" : false,
                    "useAudioPreRoll" : true,
                    "useVisualPreRoll" : true,
                    "leftMedia" : 179,
                    "rightMedia" : 191
                  }
                ]
              },
              {
                "trackIndex" : 3,
                "medias" : [
                  {
                    "id" : 208,
                    "_type" : "Callout",
                    "def" : {
                      "kind" : "remix",
                      "shape" : "text",
                      "style" : "basic",
                      "height" : 250.0,
                      "line-spacing" : 0.02,
                      "width" : 570.175438596567,
                      "word-wrap" : 1.0,
                      "horizontal-alignment" : "center",
                      "resize-behavior" : "resizeText",
                      "text" : "Answer questions at scale",
                      "vertical-alignment" : "center",
                      "font" : {
                        "color-blue" : 1.0,
                        "color-green" : 1.0,
                        "color-red" : 1.0,
                        "size" : 96.0,
                        "tracking" : 0.0,
                        "name" : "Montserrat",
                        "weight" : "Regular"
                      },
                      "textAttributes" : {
                        "type" : "textAttributeList",
                        "keyframes" : [
                          {
                            "endTime" : 0,
                            "time" : 0,
                            "value" : [{"name":"kerning","rangeEnd":25,"rangeStart":0,"value":0.040000000000000001,"valueType":"double"},{"name":"underline","rangeEnd":25,"rangeStart":0,"value":0,"valueType":"int"},{"name":"fontSize","rangeEnd":25,"rangeStart":0,"value":96,"valueType":"double"},{"name":"fontWeight","rangeEnd":25,"rangeStart":0,"value":400,"valueType":"int"},{"name":"fontName","rangeEnd":25,"rangeStart":0,"value":"Barlow Condensed Medium","valueType":"string"},{"name":"strikethrough","rangeEnd":25,"rangeStart":0,"value":0,"valueType":"int"},{"name":"fgColor","rangeEnd":25,"rangeStart":0,"value":"(35,40,47,255)","valueType":"color"},{"name":"fontItalic","rangeEnd":25,"rangeStart":0,"value":0,"valueType":"int"}],
                            "duration" : 0
                          }
                        ]
                      }
                    },
                    "attributes" : {
                      "autoRotateText" : true
                    },
                    "parameters" : {
                      "translation0" : -528.798245614185,
                      "translation1" : 35.2631587647918,
                      "sourceCrop0" : 0.0,
                      "sourceCrop1" : 0.0,
                      "sourceCrop2" : 0.0,
                      "sourceCrop3" : 0.0,
                      "geometryCrop0" : 0.0,
                      "geometryCrop1" : 0.0,
                      "geometryCrop2" : 0.0,
                      "geometryCrop3" : 0.0
                    },
                    "effects" : [

                    ],
                    "start" : 0,
                    "duration" : 213,
                    "mediaStart" : 0,
                    "mediaDuration" : 213,
                    "scalar" : 1,
                    "metadata" : {
                      "clipSpeedAttribute" : false,
                      "default-HAlign" : "center",
                      "default-LineSpace" : 0.0,
                      "default-VAlign" : "center",
                      "default-height" : 250.0,
                      "default-text-attributes" : null,
                      "default-translation0" : 0.0,
                      "default-translation1" : 0.0,
                      "default-width" : 400.0
                    },
                    "animationTracks" : {

                    }
                  },
                  {
                    "id" : 209,
                    "_type" : "Callout",
                    "def" : {
                      "kind" : "remix",
                      "shape" : "text",
                      "style" : "basic",
                      "height" : {
                        "type" : "double",
                        "defaultValue" : 250.0,
                        "interp" : "linr"
                      },
                      "line-spacing" : {
                        "type" : "double",
                        "defaultValue" : 0.02,
                        "interp" : "linr"
                      },
                      "width" : {
                        "type" : "double",
                        "defaultValue" : 570.175438596567,
                        "interp" : "linr"
                      },
                      "word-wrap" : {
                        "type" : "double",
                        "defaultValue" : 1.0,
                        "interp" : "linr"
                      },
                      "horizontal-alignment" : "left",
                      "resize-behavior" : "resizeText",
                      "text" : "What's your refund policy?",
                      "vertical-alignment" : "center",
                      "font" : {
                        "color-blue" : {
                          "type" : "double",
                          "defaultValue" : 1.0,
                          "interp" : "linr"
                        },
                        "color-green" : {
                          "type" : "double",
                          "defaultValue" : 1.0,
                          "interp" : "linr"
                        },
                        "color-red" : {
                          "type" : "double",
                          "defaultValue" : 1.0,
                          "interp" : "linr"
                        },
                        "size" : {
                          "type" : "double",
                          "defaultValue" : 96.0,
                          "interp" : "linr"
                        },
                        "tracking" : {
                          "type" : "double",
                          "defaultValue" : 0.0,
                          "interp" : "linr"
                        },
                        "name" : "Montserrat",
                        "weight" : "Regular"
                      },
                      "textAttributes" : {
                        "type" : "textAttributeList",
                        "keyframes" : [
                          {
                            "endTime" : 0,
                            "time" : 0,
                            "value" : [{"name":"fontWeight","rangeEnd":26,"rangeStart":0,"value":400,"valueType":"int"},{"name":"fgColor","rangeEnd":26,"rangeStart":0,"value":"(35,40,47,255)","valueType":"color"},{"name":"kerning","rangeEnd":26,"rangeStart":0,"value":0.040000000000000001,"valueType":"double"},{"name":"fontName","rangeEnd":26,"rangeStart":0,"value":"Barlow Condensed Medium","valueType":"string"},{"name":"strikethrough","rangeEnd":26,"rangeStart":0,"value":0,"valueType":"int"},{"name":"fontItalic","rangeEnd":26,"rangeStart":0,"value":0,"valueType":"int"},{"name":"underline","rangeEnd":26,"rangeStart":0,"value":0,"valueType":"int"},{"name":"fontSize","rangeEnd":26,"rangeStart":0,"value":40,"valueType":"double"}],
                            "duration" : 0
                          }
                        ]
                      }
                    },
                    "attributes" : {
                      "autoRotateText" : true
                    },
                    "parameters" : {
                      "translation0" : {
                        "type" : "double",
                        "defaultValue" : -461.307005765067,
                        "interp" : "eioe"
                      },
                      "translation1" : {
                        "type" : "double",
                        "defaultValue" : 50.0000000000959,
                        "interp" : "eioe"
                      },
                      "sourceCrop0" : {
                        "type" : "double",
                        "defaultValue" : 0.0,
                        "interp" : "eioe"
                      },
                      "sourceCrop1" : {
                        "type" : "double",
                        "defaultValue" : 0.0,
                        "interp" : "eioe"
                      },
                      "sourceCrop2" : {
                        "type" : "double",
                        "defaultValue" : 0.0,
                        "interp" : "eioe"
                      },
                      "sourceCrop3" : {
                        "type" : "double",
                        "defaultValue" : 0.0,
                        "interp" : "eioe"
                      },
                      "geometryCrop0" : {
                        "type" : "double",
                        "defaultValue" : 0.0,
                        "interp" : "eioe"
                      },
                      "geometryCrop1" : {
                        "type" : "double",
                        "defaultValue" : 0.0,
                        "interp" : "eioe"
                      },
                      "geometryCrop2" : {
                        "type" : "double",
                        "defaultValue" : 0.0,
                        "interp" : "eioe"
                      },
                      "geometryCrop3" : {
                        "type" : "double",
                        "defaultValue" : 0.0,
                        "interp" : "eioe"
                      }
                    },
                    "effects" : [
                        {
                          "_type" : "GenericBehaviorEffect",
                          "effectName" : "popUp",
                          "bypassed" : false,
                          "start" : 0,
                          "duration" : 441                        ,
                          "in" : {
                            "attributes" : {
                              "name" : "grow",
                              "type" : 0,
                              "characterOrder" : 6,
                              "offsetBetweenCharacters" : 1,
                              "suggestedDurationPerCharacter" : 18,
                              "overlapProportion" : "3/4",
                              "movement" : 30,
                              "springDamping" : 5.0,
                              "springStiffness" : 50.0,
                              "bounceBounciness" : 0.45
                            }
                          
                          },
                          "center" : {
                            "attributes" : {
                              "name" : "none",
                              "type" : 1,
                              "characterOrder" : 6,
                              "offsetBetweenCharacters" : 0,
                              "secondsPerLoop" : 1,
                              "numberOfLoops" : -1,
                              "delayBetweenLoops" : 0,
                              "offsetBetweenCharacters" : 0
                            }
                          
                          },
                          "out" : {
                            "attributes" : {
                              "name" : "none",
                              "type" : 1,
                              "characterOrder" : 6,
                              "offsetBetweenCharacters" : 0,
                              "suggestedDurationPerCharacter" : 0,
                              "overlapProportion" : 0,
                              "movement" : -1,
                              "springDamping" : 5.0,
                              "springStiffness" : 50.0,
                              "bounceBounciness" : 0.45
                            }
                          
                          },
                          "metadata" : {
                            "default-behavior-center-style" : "popUp",
                            "default-behavior-in-style" : "hinge",
                            "default-behavior-in-type" : 1.0,
                            "default-behavior-out-style" : "hinge",
                            "presetName" : "Pop Up"
                          }
                        }
                    ],
                    "start" : 259,
                    "duration" : 441,
                    "mediaStart" : 0,
                    "mediaDuration" : 441,
                    "scalar" : 1,
                    "metadata" : {
                      "clipSpeedAttribute" : false,
                      "default-HAlign" : "center",
                      "default-LineSpace" : 0.0,
                      "default-VAlign" : "center",
                      "default-height" : 250.0,
                      "default-text-attributes" : null,
                      "default-translation0" : 0.0,
                      "default-translation1" : 0.0,
                      "default-width" : 400.0
                    },
                    "animationTracks" : {

                    }
                  }
                ]
              },
              {
                "trackIndex" : 4,
                "medias" : [
                  {
                    "id" : 210,
                    "_type" : "Callout",
                    "def" : {
                      "kind" : "remix",
                      "shape" : "text",
                      "style" : "basic",
                      "height" : {
                        "type" : "double",
                        "defaultValue" : 250.0,
                        "interp" : "linr"
                      },
                      "line-spacing" : {
                        "type" : "double",
                        "defaultValue" : 0.02,
                        "interp" : "linr"
                      },
                      "width" : {
                        "type" : "double",
                        "defaultValue" : 570.175438596567,
                        "interp" : "linr"
                      },
                      "word-wrap" : {
                        "type" : "double",
                        "defaultValue" : 1.0,
                        "interp" : "linr"
                      },
                      "horizontal-alignment" : "left",
                      "resize-behavior" : "resizeText",
                      "text" : "We don't have one.",
                      "vertical-alignment" : "center",
                      "font" : {
                        "color-blue" : {
                          "type" : "double",
                          "defaultValue" : 1.0,
                          "interp" : "linr"
                        },
                        "color-green" : {
                          "type" : "double",
                          "defaultValue" : 1.0,
                          "interp" : "linr"
                        },
                        "color-red" : {
                          "type" : "double",
                          "defaultValue" : 1.0,
                          "interp" : "linr"
                        },
                        "size" : {
                          "type" : "double",
                          "defaultValue" : 96.0,
                          "interp" : "linr"
                        },
                        "tracking" : {
                          "type" : "double",
                          "defaultValue" : 0.0,
                          "interp" : "linr"
                        },
                        "name" : "Montserrat",
                        "weight" : "Regular"
                      },
                      "textAttributes" : {
                        "type" : "textAttributeList",
                        "keyframes" : [
                          {
                            "endTime" : 0,
                            "time" : 0,
                            "value" : [{"name":"strikethrough","rangeEnd":18,"rangeStart":0,"value":0,"valueType":"int"},{"name":"fgColor","rangeEnd":18,"rangeStart":0,"value":"(35,40,47,255)","valueType":"color"},{"name":"underline","rangeEnd":18,"rangeStart":0,"value":0,"valueType":"int"},{"name":"kerning","rangeEnd":18,"rangeStart":0,"value":0.040000000000000001,"valueType":"double"},{"name":"fontWeight","rangeEnd":18,"rangeStart":0,"value":400,"valueType":"int"},{"name":"fontName","rangeEnd":18,"rangeStart":0,"value":"Barlow Condensed Medium","valueType":"string"},{"name":"fontItalic","rangeEnd":18,"rangeStart":0,"value":0,"valueType":"int"},{"name":"fontSize","rangeEnd":18,"rangeStart":0,"value":40,"valueType":"double"}],
                            "duration" : 0
                          }
                        ]
                      }
                    },
                    "attributes" : {
                      "autoRotateText" : true
                    },
                    "parameters" : {
                      "translation0" : {
                        "type" : "double",
                        "defaultValue" : -423.973672431744,
                        "interp" : "eioe"
                      },
                      "translation1" : {
                        "type" : "double",
                        "defaultValue" : -53.3333333332566,
                        "interp" : "eioe"
                      },
                      "sourceCrop0" : {
                        "type" : "double",
                        "defaultValue" : 0.0,
                        "interp" : "eioe"
                      },
                      "sourceCrop1" : {
                        "type" : "double",
                        "defaultValue" : 0.0,
                        "interp" : "eioe"
                      },
                      "sourceCrop2" : {
                        "type" : "double",
                        "defaultValue" : 0.0,
                        "interp" : "eioe"
                      },
                      "sourceCrop3" : {
                        "type" : "double",
                        "defaultValue" : 0.0,
                        "interp" : "eioe"
                      },
                      "geometryCrop0" : {
                        "type" : "double",
                        "defaultValue" : 0.0,
                        "interp" : "eioe"
                      },
                      "geometryCrop1" : {
                        "type" : "double",
                        "defaultValue" : 0.0,
                        "interp" : "eioe"
                      },
                      "geometryCrop2" : {
                        "type" : "double",
                        "defaultValue" : 0.0,
                        "interp" : "eioe"
                      },
                      "geometryCrop3" : {
                        "type" : "double",
                        "defaultValue" : 0.0,
                        "interp" : "eioe"
                      }
                    },
                    "effects" : [
                        {
                          "_type" : "GenericBehaviorEffect",
                          "effectName" : "popUp",
                          "bypassed" : false,
                          "start" : 0,
                          "duration" : 134                        ,
                          "in" : {
                            "attributes" : {
                              "name" : "grow",
                              "type" : 0,
                              "characterOrder" : 6,
                              "offsetBetweenCharacters" : 1,
                              "suggestedDurationPerCharacter" : 18,
                              "overlapProportion" : "3/4",
                              "movement" : 30,
                              "springDamping" : 5.0,
                              "springStiffness" : 50.0,
                              "bounceBounciness" : 0.45
                            }
                          
                          },
                          "center" : {
                            "attributes" : {
                              "name" : "none",
                              "type" : 1,
                              "characterOrder" : 6,
                              "offsetBetweenCharacters" : 0,
                              "secondsPerLoop" : 1,
                              "numberOfLoops" : -1,
                              "delayBetweenLoops" : 0,
                              "offsetBetweenCharacters" : 0
                            }
                          
                          },
                          "out" : {
                            "attributes" : {
                              "name" : "none",
                              "type" : 1,
                              "characterOrder" : 6,
                              "offsetBetweenCharacters" : 0,
                              "suggestedDurationPerCharacter" : 0,
                              "overlapProportion" : 0,
                              "movement" : -1,
                              "springDamping" : 5.0,
                              "springStiffness" : 50.0,
                              "bounceBounciness" : 0.45
                            }
                          
                          },
                          "metadata" : {
                            "default-behavior-center-style" : "popUp",
                            "default-behavior-in-style" : "hinge",
                            "default-behavior-in-type" : 1.0,
                            "default-behavior-out-style" : "hinge",
                            "presetName" : "Pop Up"
                          }
                        }
                    ],
                    "start" : 387,
                    "duration" : 134,
                    "mediaStart" : 0,
                    "mediaDuration" : 134,
                    "scalar" : 1,
                    "metadata" : {
                      "clipSpeedAttribute" : false,
                      "default-HAlign" : "center",
                      "default-LineSpace" : 0.0,
                      "default-VAlign" : "center",
                      "default-height" : 250.0,
                      "default-text-attributes" : null,
                      "default-translation0" : 0.0,
                      "default-translation1" : 0.0,
                      "default-width" : 400.0
                    },
                    "animationTracks" : {

                    }
                  },
                  {
                    "id" : 211,
                    "_type" : "Callout",
                    "def" : {
                      "kind" : "remix",
                      "shape" : "text",
                      "style" : "basic",
                      "height" : {
                        "type" : "double",
                        "defaultValue" : 250.0,
                        "interp" : "linr"
                      },
                      "line-spacing" : {
                        "type" : "double",
                        "defaultValue" : 0.02,
                        "interp" : "linr"
                      },
                      "width" : {
                        "type" : "double",
                        "defaultValue" : 432.280693990914,
                        "interp" : "linr"
                      },
                      "word-wrap" : {
                        "type" : "double",
                        "defaultValue" : 1.0,
                        "interp" : "linr"
                      },
                      "horizontal-alignment" : "left",
                      "resize-behavior" : "resizeText",
                      "text" : "Goods must be returned within 90 days",
                      "vertical-alignment" : "center",
                      "font" : {
                        "color-blue" : {
                          "type" : "double",
                          "defaultValue" : 1.0,
                          "interp" : "linr"
                        },
                        "color-green" : {
                          "type" : "double",
                          "defaultValue" : 1.0,
                          "interp" : "linr"
                        },
                        "color-red" : {
                          "type" : "double",
                          "defaultValue" : 1.0,
                          "interp" : "linr"
                        },
                        "size" : {
                          "type" : "double",
                          "defaultValue" : 96.0,
                          "interp" : "linr"
                        },
                        "tracking" : {
                          "type" : "double",
                          "defaultValue" : 0.0,
                          "interp" : "linr"
                        },
                        "name" : "Montserrat",
                        "weight" : "Regular"
                      },
                      "textAttributes" : {
                        "type" : "textAttributeList",
                        "keyframes" : [
                          {
                            "endTime" : 0,
                            "time" : 0,
                            "value" : [{"name":"fontItalic","rangeEnd":37,"rangeStart":0,"value":0,"valueType":"int"},{"name":"underline","rangeEnd":37,"rangeStart":0,"value":0,"valueType":"int"},{"name":"fontName","rangeEnd":37,"rangeStart":0,"value":"Barlow Condensed Medium","valueType":"string"},{"name":"fontSize","rangeEnd":37,"rangeStart":0,"value":40,"valueType":"double"},{"name":"fontWeight","rangeEnd":37,"rangeStart":0,"value":400,"valueType":"int"},{"name":"kerning","rangeEnd":37,"rangeStart":0,"value":0.040000000000000001,"valueType":"double"},{"name":"strikethrough","rangeEnd":37,"rangeStart":0,"value":0,"valueType":"int"},{"name":"fgColor","rangeEnd":37,"rangeStart":0,"value":"(35,40,47,255)","valueType":"color"}],
                            "duration" : 0
                          }
                        ]
                      }
                    },
                    "attributes" : {
                      "autoRotateText" : true
                    },
                    "parameters" : {
                      "translation0" : {
                        "type" : "double",
                        "defaultValue" : -528.640339098456,
                        "interp" : "eioe"
                      },
                      "translation1" : {
                        "type" : "double",
                        "defaultValue" : -57.9999999999074,
                        "interp" : "eioe"
                      },
                      "sourceCrop0" : {
                        "type" : "double",
                        "defaultValue" : 0.0,
                        "interp" : "eioe"
                      },
                      "sourceCrop1" : {
                        "type" : "double",
                        "defaultValue" : 0.0,
                        "interp" : "eioe"
                      },
                      "sourceCrop2" : {
                        "type" : "double",
                        "defaultValue" : 0.0,
                        "interp" : "eioe"
                      },
                      "sourceCrop3" : {
                        "type" : "double",
                        "defaultValue" : 0.0,
                        "interp" : "eioe"
                      },
                      "geometryCrop0" : {
                        "type" : "double",
                        "defaultValue" : 0.0,
                        "interp" : "eioe"
                      },
                      "geometryCrop1" : {
                        "type" : "double",
                        "defaultValue" : 0.0,
                        "interp" : "eioe"
                      },
                      "geometryCrop2" : {
                        "type" : "double",
                        "defaultValue" : 0.0,
                        "interp" : "eioe"
                      },
                      "geometryCrop3" : {
                        "type" : "double",
                        "defaultValue" : 0.0,
                        "interp" : "eioe"
                      }
                    },
                    "effects" : [
                        {
                          "_type" : "GenericBehaviorEffect",
                          "effectName" : "popUp",
                          "bypassed" : false,
                          "start" : 0,
                          "duration" : 179                        ,
                          "in" : {
                            "attributes" : {
                              "name" : "grow",
                              "type" : 0,
                              "characterOrder" : 6,
                              "offsetBetweenCharacters" : 1,
                              "suggestedDurationPerCharacter" : 18,
                              "overlapProportion" : "3/4",
                              "movement" : 30,
                              "springDamping" : 5.0,
                              "springStiffness" : 50.0,
                              "bounceBounciness" : 0.45
                            }
                          
                          },
                          "center" : {
                            "attributes" : {
                              "name" : "none",
                              "type" : 1,
                              "characterOrder" : 6,
                              "offsetBetweenCharacters" : 0,
                              "secondsPerLoop" : 1,
                              "numberOfLoops" : -1,
                              "delayBetweenLoops" : 0,
                              "offsetBetweenCharacters" : 0
                            }
                          
                          },
                          "out" : {
                            "attributes" : {
                              "name" : "none",
                              "type" : 1,
                              "characterOrder" : 6,
                              "offsetBetweenCharacters" : 0,
                              "suggestedDurationPerCharacter" : 0,
                              "overlapProportion" : 0,
                              "movement" : -1,
                              "springDamping" : 5.0,
                              "springStiffness" : 50.0,
                              "bounceBounciness" : 0.45
                            }
                          
                          },
                          "metadata" : {
                            "default-behavior-center-style" : "popUp",
                            "default-behavior-in-style" : "hinge",
                            "default-behavior-in-type" : 1.0,
                            "default-behavior-out-style" : "hinge",
                            "presetName" : "Pop Up"
                          }
                        }
                    ],
                    "start" : 521,
                    "duration" : 179,
                    "mediaStart" : 0,
                    "mediaDuration" : 179,
                    "scalar" : 1,
                    "metadata" : {
                      "clipSpeedAttribute" : false,
                      "default-HAlign" : "center",
                      "default-LineSpace" : 0.0,
                      "default-VAlign" : "center",
                      "default-height" : 250.0,
                      "default-text-attributes" : null,
                      "default-translation0" : 0.0,
                      "default-translation1" : 0.0,
                      "default-width" : 400.0
                    },
                    "animationTracks" : {

                    }
                  },
                  {
                    "id" : 212,
                    "_type" : "Callout",
                    "def" : {
                      "kind" : "remix",
                      "shape" : "text",
                      "style" : "basic",
                      "height" : {
                        "type" : "double",
                        "defaultValue" : 250.0,
                        "interp" : "linr"
                      },
                      "line-spacing" : {
                        "type" : "double",
                        "defaultValue" : 0.02,
                        "interp" : "linr"
                      },
                      "width" : {
                        "type" : "double",
                        "defaultValue" : 594.280693991118,
                        "interp" : "linr"
                      },
                      "word-wrap" : {
                        "type" : "double",
                        "defaultValue" : 1.0,
                        "interp" : "linr"
                      },
                      "horizontal-alignment" : "left",
                      "resize-behavior" : "resizeText",
                      "text" : "Build an FAQ database",
                      "vertical-alignment" : "center",
                      "font" : {
                        "color-blue" : {
                          "type" : "double",
                          "defaultValue" : 1.0,
                          "interp" : "linr"
                        },
                        "color-green" : {
                          "type" : "double",
                          "defaultValue" : 1.0,
                          "interp" : "linr"
                        },
                        "color-red" : {
                          "type" : "double",
                          "defaultValue" : 1.0,
                          "interp" : "linr"
                        },
                        "size" : {
                          "type" : "double",
                          "defaultValue" : 96.0,
                          "interp" : "linr"
                        },
                        "tracking" : {
                          "type" : "double",
                          "defaultValue" : 0.0,
                          "interp" : "linr"
                        },
                        "name" : "Montserrat",
                        "weight" : "Regular"
                      },
                      "textAttributes" : {
                        "type" : "textAttributeList",
                        "keyframes" : [
                          {
                            "endTime" : 0,
                            "time" : 0,
                            "value" : [{"name":"fontName","rangeEnd":21,"rangeStart":0,"value":"Barlow Condensed Medium","valueType":"string"},{"name":"fontSize","rangeEnd":21,"rangeStart":0,"value":55,"valueType":"double"},{"name":"kerning","rangeEnd":21,"rangeStart":0,"value":0.040000000000000001,"valueType":"double"},{"name":"fontItalic","rangeEnd":21,"rangeStart":0,"value":0,"valueType":"int"},{"name":"underline","rangeEnd":21,"rangeStart":0,"value":0,"valueType":"int"},{"name":"strikethrough","rangeEnd":21,"rangeStart":0,"value":0,"valueType":"int"},{"name":"fgColor","rangeEnd":21,"rangeStart":0,"value":"(35,40,47,255)","valueType":"color"},{"name":"fontWeight","rangeEnd":21,"rangeStart":0,"value":400,"valueType":"int"}],
                            "duration" : 0
                          }
                        ]
                      }
                    },
                    "attributes" : {
                      "autoRotateText" : true
                    },
                    "parameters" : {
                      "translation0" : {
                        "type" : "double",
                        "defaultValue" : -505.307005764981,
                        "interp" : "eioe"
                      },
                      "translation1" : {
                        "type" : "double",
                        "defaultValue" : 88.0000000001336,
                        "interp" : "eioe"
                      },
                      "sourceCrop0" : {
                        "type" : "double",
                        "defaultValue" : 0.0,
                        "interp" : "eioe"
                      },
                      "sourceCrop1" : {
                        "type" : "double",
                        "defaultValue" : 0.0,
                        "interp" : "eioe"
                      },
                      "sourceCrop2" : {
                        "type" : "double",
                        "defaultValue" : 0.0,
                        "interp" : "eioe"
                      },
                      "sourceCrop3" : {
                        "type" : "double",
                        "defaultValue" : 0.0,
                        "interp" : "eioe"
                      },
                      "geometryCrop0" : {
                        "type" : "double",
                        "defaultValue" : 0.0,
                        "interp" : "eioe"
                      },
                      "geometryCrop1" : {
                        "type" : "double",
                        "defaultValue" : 0.0,
                        "interp" : "eioe"
                      },
                      "geometryCrop2" : {
                        "type" : "double",
                        "defaultValue" : 0.0,
                        "interp" : "eioe"
                      },
                      "geometryCrop3" : {
                        "type" : "double",
                        "defaultValue" : 0.0,
                        "interp" : "eioe"
                      }
                    },
                    "effects" : [
                        {
                          "_type" : "GenericBehaviorEffect",
                          "effectName" : "popUp",
                          "bypassed" : false,
                          "start" : -9,
                          "duration" : 309                        ,
                          "in" : {
                            "attributes" : {
                              "name" : "grow",
                              "type" : 0,
                              "characterOrder" : 6,
                              "offsetBetweenCharacters" : 1,
                              "suggestedDurationPerCharacter" : 18,
                              "overlapProportion" : "3/4",
                              "movement" : 30,
                              "springDamping" : 5.0,
                              "springStiffness" : 50.0,
                              "bounceBounciness" : 0.45
                            }
                          
                          },
                          "center" : {
                            "attributes" : {
                              "name" : "none",
                              "type" : 1,
                              "characterOrder" : 6,
                              "offsetBetweenCharacters" : 0,
                              "secondsPerLoop" : 1,
                              "numberOfLoops" : -1,
                              "delayBetweenLoops" : 0,
                              "offsetBetweenCharacters" : 0
                            }
                          
                          },
                          "out" : {
                            "attributes" : {
                              "name" : "none",
                              "type" : 1,
                              "characterOrder" : 6,
                              "offsetBetweenCharacters" : 0,
                              "suggestedDurationPerCharacter" : 0,
                              "overlapProportion" : 0,
                              "movement" : -1,
                              "springDamping" : 5.0,
                              "springStiffness" : 50.0,
                              "bounceBounciness" : 0.45
                            }
                          
                          },
                          "metadata" : {
                            "default-behavior-center-style" : "popUp",
                            "default-behavior-in-style" : "hinge",
                            "default-behavior-in-type" : 1.0,
                            "default-behavior-out-style" : "hinge",
                            "presetName" : "Pop Up"
                          }
                        }
                    ],
                    "start" : 788,
                    "duration" : 309,
                    "mediaStart" : -9,
                    "mediaDuration" : 309,
                    "scalar" : 1,
                    "metadata" : {
                      "clipSpeedAttribute" : false,
                      "default-HAlign" : "center",
                      "default-LineSpace" : 0.0,
                      "default-VAlign" : "center",
                      "default-height" : 250.0,
                      "default-text-attributes" : null,
                      "default-translation0" : 0.0,
                      "default-translation1" : 0.0,
                      "default-width" : 400.0
                    },
                    "animationTracks" : {

                    }
                  }
                ]
              },
              {
                "trackIndex" : 5,
                "medias" : [
                  {
                    "id" : 213,
                    "_type" : "StitchedMedia",
                    "minMediaStart" : 0,
                    "attributes" : {
                      "ident" : "Rec 04-11-21_004",
                      "gain" : 1.0,
                      "mixToMono" : false
                    },
                    "parameters" : {
                      "translation0" : 423.33333333324,
                      "translation1" : -57.4999999999062,
                      "scale0" : 0.615740740740872,
                      "scale1" : 0.615740740740872,
                      "sourceCrop0" : 0.0,
                      "sourceCrop1" : 0.0,
                      "sourceCrop2" : 0.0,
                      "sourceCrop3" : 0.0,
                      "geometryCrop0" : 0.0,
                      "geometryCrop1" : 0.0,
                      "geometryCrop2" : 0.0,
                      "geometryCrop3" : 0.0,
                      "volume" : 1.0,
                      "cursorOpacity" : 1.0,
                      "cursorScale" : 1.0
                    },
                    "medias" : [
                        {
                          "id" : 214,
                          "_type" : "UnifiedMedia",
                          "video" : 
                              {
                                "id" : 215,
                                "_type" : "ScreenVMFile",
                                "src" : 5,
                                "trackNumber" : 0,
                                "attributes" : {
                                  "ident" : "Rec 04-11-21_004"
                                },
                                "parameters" : {
                                  "sourceCrop0" : {
                                    "type" : "double",
                                    "defaultValue" : 0.0,
                                    "interp" : "eioe"
                                  },
                                  "sourceCrop1" : {
                                    "type" : "double",
                                    "defaultValue" : 0.0,
                                    "interp" : "eioe"
                                  },
                                  "sourceCrop2" : {
                                    "type" : "double",
                                    "defaultValue" : 0.0,
                                    "interp" : "eioe"
                                  },
                                  "sourceCrop3" : {
                                    "type" : "double",
                                    "defaultValue" : 0.0,
                                    "interp" : "eioe"
                                  },
                                  "geometryCrop0" : {
                                    "type" : "double",
                                    "defaultValue" : 0.0,
                                    "interp" : "eioe"
                                  },
                                  "geometryCrop1" : {
                                    "type" : "double",
                                    "defaultValue" : 0.0,
                                    "interp" : "eioe"
                                  },
                                  "geometryCrop2" : {
                                    "type" : "double",
                                    "defaultValue" : 0.0,
                                    "interp" : "eioe"
                                  },
                                  "geometryCrop3" : {
                                    "type" : "double",
                                    "defaultValue" : 0.0,
                                    "interp" : "eioe"
                                  },
                                  "cursorScale" : {
                                    "type" : "double",
                                    "defaultValue" : 0.0,
                                    "interp" : "linr"
                                  },
                                  "cursorOpacity" : {
                                    "type" : "double",
                                    "defaultValue" : 0.0,
                                    "interp" : "linr"
                                  }
                                },
                                "effects" : [

                                ],
                                "start" : 0,
                                "duration" : 19,
                                "mediaStart" : 0,
                                "mediaDuration" : 19,
                                "scalar" : 1,
                                "animationTracks" : {

                                }
                              },
                          "audio" : 
                              {
                                "id" : 216,
                                "_type" : "AMFile",
                                "src" : 5,
                                "trackNumber" : 2,
                                "attributes" : {
                                  "ident" : "",
                                  "gain" : 1.0,
                                  "mixToMono" : false
                                },
                                  "channelNumber" : "0,1",
                                "effects" : [

                                ],
                                "start" : 0,
                                "duration" : 19,
                                "mediaStart" : 0,
                                "mediaDuration" : 19,
                                "scalar" : 1,
                                "animationTracks" : {

                                }
                              }
,
                          "start" : 0,
                          "duration" : 19,
                          "mediaStart" : 0,
                          "mediaDuration" : 377,
                          "scalar" : 1,
                          "metadata" : {
                            "AutoAppliedSmartFocus" : "False",
                            "clipSpeedAttribute" : false
                          }
                        },
                        {
                          "id" : 217,
                          "_type" : "ScreenIMFile",
                          "src" : 5,
                          "trackNumber" : 0,
                          "trimStartSum" : 0,
                          "attributes" : {
                            "ident" : "Rec 04-11-21_004"
                          },
                          "parameters" : {
                            "sourceCrop0" : {
                              "type" : "double",
                              "defaultValue" : 0.0,
                              "interp" : "eioe"
                            },
                            "sourceCrop1" : {
                              "type" : "double",
                              "defaultValue" : 0.0,
                              "interp" : "eioe"
                            },
                            "sourceCrop2" : {
                              "type" : "double",
                              "defaultValue" : 0.0,
                              "interp" : "eioe"
                            },
                            "sourceCrop3" : {
                              "type" : "double",
                              "defaultValue" : 0.0,
                              "interp" : "eioe"
                            },
                            "geometryCrop0" : {
                              "type" : "double",
                              "defaultValue" : 0.0,
                              "interp" : "eioe"
                            },
                            "geometryCrop1" : {
                              "type" : "double",
                              "defaultValue" : 0.0,
                              "interp" : "eioe"
                            },
                            "geometryCrop2" : {
                              "type" : "double",
                              "defaultValue" : 0.0,
                              "interp" : "eioe"
                            },
                            "geometryCrop3" : {
                              "type" : "double",
                              "defaultValue" : 0.0,
                              "interp" : "eioe"
                            },
                            "cursorOpacity" : {
                              "type" : "double",
                              "defaultValue" : 0.0,
                              "interp" : "linr"
                            },
                            "cursorScale" : {
                              "type" : "double",
                              "defaultValue" : 0.0,
                              "interp" : "linr"
                            }
                          },
                          "effects" : [

                          ],
                          "start" : 19,
                          "duration" : 300,
                          "mediaStart" : 19,
                          "mediaDuration" : 1,
                          "scalar" : 1,
                          "metadata" : {
                            "AutoAppliedSmartFocus" : "False"
                          },
                          "animationTracks" : {

                          }
                        },
                        {
                          "id" : 218,
                          "_type" : "UnifiedMedia",
                          "video" : 
                              {
                                "id" : 219,
                                "_type" : "ScreenVMFile",
                                "src" : 5,
                                "trackNumber" : 0,
                                "attributes" : {
                                  "ident" : "Rec 04-11-21_004"
                                },
                                "parameters" : {
                                  "sourceCrop0" : {
                                    "type" : "double",
                                    "defaultValue" : 0.0,
                                    "interp" : "eioe"
                                  },
                                  "sourceCrop1" : {
                                    "type" : "double",
                                    "defaultValue" : 0.0,
                                    "interp" : "eioe"
                                  },
                                  "sourceCrop2" : {
                                    "type" : "double",
                                    "defaultValue" : 0.0,
                                    "interp" : "eioe"
                                  },
                                  "sourceCrop3" : {
                                    "type" : "double",
                                    "defaultValue" : 0.0,
                                    "interp" : "eioe"
                                  },
                                  "geometryCrop0" : {
                                    "type" : "double",
                                    "defaultValue" : 0.0,
                                    "interp" : "eioe"
                                  },
                                  "geometryCrop1" : {
                                    "type" : "double",
                                    "defaultValue" : 0.0,
                                    "interp" : "eioe"
                                  },
                                  "geometryCrop2" : {
                                    "type" : "double",
                                    "defaultValue" : 0.0,
                                    "interp" : "eioe"
                                  },
                                  "geometryCrop3" : {
                                    "type" : "double",
                                    "defaultValue" : 0.0,
                                    "interp" : "eioe"
                                  },
                                  "cursorScale" : {
                                    "type" : "double",
                                    "defaultValue" : 0.0,
                                    "interp" : "linr"
                                  },
                                  "cursorOpacity" : {
                                    "type" : "double",
                                    "defaultValue" : 0.0,
                                    "interp" : "linr"
                                  }
                                },
                                "effects" : [

                                ],
                                "start" : 319,
                                "duration" : 5,
                                "mediaStart" : 19,
                                "mediaDuration" : 5,
                                "scalar" : 1,
                                "animationTracks" : {

                                }
                              },
                          "audio" : 
                              {
                                "id" : 220,
                                "_type" : "AMFile",
                                "src" : 5,
                                "trackNumber" : 2,
                                "attributes" : {
                                  "ident" : "",
                                  "gain" : 1.0,
                                  "mixToMono" : false
                                },
                                  "channelNumber" : "0,1",
                                "effects" : [

                                ],
                                "start" : 319,
                                "duration" : 5,
                                "mediaStart" : 19,
                                "mediaDuration" : 5,
                                "scalar" : 1,
                                "animationTracks" : {

                                }
                              }
,
                          "start" : 319,
                          "duration" : 5,
                          "mediaStart" : 0,
                          "mediaDuration" : 377,
                          "scalar" : 1,
                          "metadata" : {
                            "AutoAppliedSmartFocus" : "False",
                            "clipSpeedAttribute" : false
                          }
                        },
                        {
                          "id" : 221,
                          "_type" : "ScreenIMFile",
                          "src" : 5,
                          "trackNumber" : 0,
                          "trimStartSum" : 0,
                          "attributes" : {
                            "ident" : "Rec 04-11-21_004"
                          },
                          "parameters" : {
                            "sourceCrop0" : {
                              "type" : "double",
                              "defaultValue" : 0.0,
                              "interp" : "eioe"
                            },
                            "sourceCrop1" : {
                              "type" : "double",
                              "defaultValue" : 0.0,
                              "interp" : "eioe"
                            },
                            "sourceCrop2" : {
                              "type" : "double",
                              "defaultValue" : 0.0,
                              "interp" : "eioe"
                            },
                            "sourceCrop3" : {
                              "type" : "double",
                              "defaultValue" : 0.0,
                              "interp" : "eioe"
                            },
                            "geometryCrop0" : {
                              "type" : "double",
                              "defaultValue" : 0.0,
                              "interp" : "eioe"
                            },
                            "geometryCrop1" : {
                              "type" : "double",
                              "defaultValue" : 0.0,
                              "interp" : "eioe"
                            },
                            "geometryCrop2" : {
                              "type" : "double",
                              "defaultValue" : 0.0,
                              "interp" : "eioe"
                            },
                            "geometryCrop3" : {
                              "type" : "double",
                              "defaultValue" : 0.0,
                              "interp" : "eioe"
                            },
                            "cursorOpacity" : {
                              "type" : "double",
                              "defaultValue" : 0.0,
                              "interp" : "linr"
                            },
                            "cursorScale" : {
                              "type" : "double",
                              "defaultValue" : 0.0,
                              "interp" : "linr"
                            }
                          },
                          "effects" : [

                          ],
                          "start" : 324,
                          "duration" : 60,
                          "mediaStart" : 23,
                          "mediaDuration" : 1,
                          "scalar" : 1,
                          "metadata" : {
                            "AutoAppliedSmartFocus" : "False"
                          },
                          "animationTracks" : {

                          }
                        },
                        {
                          "id" : 222,
                          "_type" : "UnifiedMedia",
                          "video" : 
                              {
                                "id" : 223,
                                "_type" : "ScreenVMFile",
                                "src" : 5,
                                "trackNumber" : 0,
                                "attributes" : {
                                  "ident" : "Rec 04-11-21_004"
                                },
                                "parameters" : {
                                  "sourceCrop0" : {
                                    "type" : "double",
                                    "defaultValue" : 0.0,
                                    "interp" : "eioe"
                                  },
                                  "sourceCrop1" : {
                                    "type" : "double",
                                    "defaultValue" : 0.0,
                                    "interp" : "eioe"
                                  },
                                  "sourceCrop2" : {
                                    "type" : "double",
                                    "defaultValue" : 0.0,
                                    "interp" : "eioe"
                                  },
                                  "sourceCrop3" : {
                                    "type" : "double",
                                    "defaultValue" : 0.0,
                                    "interp" : "eioe"
                                  },
                                  "geometryCrop0" : {
                                    "type" : "double",
                                    "defaultValue" : 0.0,
                                    "interp" : "eioe"
                                  },
                                  "geometryCrop1" : {
                                    "type" : "double",
                                    "defaultValue" : 0.0,
                                    "interp" : "eioe"
                                  },
                                  "geometryCrop2" : {
                                    "type" : "double",
                                    "defaultValue" : 0.0,
                                    "interp" : "eioe"
                                  },
                                  "geometryCrop3" : {
                                    "type" : "double",
                                    "defaultValue" : 0.0,
                                    "interp" : "eioe"
                                  },
                                  "cursorScale" : {
                                    "type" : "double",
                                    "defaultValue" : 0.0,
                                    "interp" : "linr"
                                  },
                                  "cursorOpacity" : {
                                    "type" : "double",
                                    "defaultValue" : 0.0,
                                    "interp" : "linr"
                                  }
                                },
                                "effects" : [

                                ],
                                "start" : 384,
                                "duration" : 353,
                                "mediaStart" : 24,
                                "mediaDuration" : 353,
                                "scalar" : 1,
                                "animationTracks" : {

                                }
                              },
                          "audio" : 
                              {
                                "id" : 224,
                                "_type" : "AMFile",
                                "src" : 5,
                                "trackNumber" : 2,
                                "attributes" : {
                                  "ident" : "",
                                  "gain" : 1.0,
                                  "mixToMono" : false
                                },
                                  "channelNumber" : "0,1",
                                "effects" : [

                                ],
                                "start" : 384,
                                "duration" : 353,
                                "mediaStart" : 24,
                                "mediaDuration" : 353,
                                "scalar" : 1,
                                "animationTracks" : {

                                }
                              }
,
                          "start" : 384,
                          "duration" : 353,
                          "mediaStart" : 0,
                          "mediaDuration" : 377,
                          "scalar" : 1,
                          "metadata" : {
                            "AutoAppliedSmartFocus" : "False",
                            "clipSpeedAttribute" : false
                          }
                        }
                    ],
                    "effects" : [
                        {
                          "effectName" : "DropShadow",
                          "bypassed" : false,
                          "category" : "categoryVisualEffects",
                          "parameters" : {
                            "angle" : {
                              "type" : "double",
                              "defaultValue" : 5.49779,
                              "interp" : "linr",
                              "uiHints" : {
                                "userInterfaceType" : 0,
                                "unitType" : 0
                              }
                            },
                            "blur" : {
                              "type" : "double",
                              "defaultValue" : 10.0,
                              "interp" : "linr",
                              "uiHints" : {
                                "userInterfaceType" : 0,
                                "unitType" : 0
                              }
                            },
                            "color-alpha" : {
                              "type" : "double",
                              "defaultValue" : 1.0,
                              "interp" : "linr",
                              "uiHints" : {
                                "userInterfaceType" : 0,
                                "unitType" : 0
                              }
                            },
                            "color-blue" : {
                              "type" : "double",
                              "defaultValue" : 0.1216,
                              "interp" : "linr",
                              "uiHints" : {
                                "userInterfaceType" : 0,
                                "unitType" : 0
                              }
                            },
                            "color-green" : {
                              "type" : "double",
                              "defaultValue" : 0.1216,
                              "interp" : "linr",
                              "uiHints" : {
                                "userInterfaceType" : 0,
                                "unitType" : 0
                              }
                            },
                            "color-red" : {
                              "type" : "double",
                              "defaultValue" : 0.1216,
                              "interp" : "linr",
                              "uiHints" : {
                                "userInterfaceType" : 0,
                                "unitType" : 0
                              }
                            },
                            "enabled" : {
                              "type" : "int",
                              "uiHints" : {
                                "userInterfaceType" : 0,
                                "unitType" : 0
                              },
                              "keyframes" : [
                                {
                                  "endTime" : 0,
                                  "time" : 0,
                                  "value" : 1,
                                  "duration" : 0
                                },
                                {
                                  "endTime" : 19,
                                  "time" : 19,
                                  "value" : 1,
                                  "duration" : 0
                                }
                              ]
                            },
                            "offset" : {
                              "type" : "double",
                              "defaultValue" : 10.0,
                              "interp" : "linr",
                              "uiHints" : {
                                "userInterfaceType" : 0,
                                "unitType" : 0
                              }
                            },
                            "opacity" : {
                              "type" : "double",
                              "defaultValue" : 0.4,
                              "interp" : "linr",
                              "uiHints" : {
                                "userInterfaceType" : 0,
                                "unitType" : 0
                              }
                            }
                          },
                          "metadata" : {
                            "presetName" : "Drop Shadow"
                          }
                        }
                    ],
                    "start" : 0,
                    "duration" : 213,
                    "mediaStart" : 0,
                    "mediaDuration" : 213,
                    "scalar" : 1,
                    "metadata" : {
                      "AutoAppliedSmartFocus" : "False",
                      "clipSpeedAttribute" : false
                    },
                    "animationTracks" : {

                    }
                  },
                  {
                    "id" : 225,
                    "_type" : "Callout",
                    "def" : {
                      "kind" : "remix",
                      "shape" : "text",
                      "style" : "basic",
                      "height" : {
                        "type" : "double",
                        "defaultValue" : 250.0,
                        "interp" : "linr"
                      },
                      "line-spacing" : {
                        "type" : "double",
                        "defaultValue" : 0.02,
                        "interp" : "linr"
                      },
                      "width" : {
                        "type" : "double",
                        "defaultValue" : 708.280693991254,
                        "interp" : "linr"
                      },
                      "word-wrap" : {
                        "type" : "double",
                        "defaultValue" : 1.0,
                        "interp" : "linr"
                      },
                      "horizontal-alignment" : "left",
                      "resize-behavior" : "resizeText",
                      "text" : "Standardize work with \rtemplates",
                      "vertical-alignment" : "center",
                      "font" : {
                        "color-blue" : {
                          "type" : "double",
                          "defaultValue" : 1.0,
                          "interp" : "linr"
                        },
                        "color-green" : {
                          "type" : "double",
                          "defaultValue" : 1.0,
                          "interp" : "linr"
                        },
                        "color-red" : {
                          "type" : "double",
                          "defaultValue" : 1.0,
                          "interp" : "linr"
                        },
                        "size" : {
                          "type" : "double",
                          "defaultValue" : 96.0,
                          "interp" : "linr"
                        },
                        "tracking" : {
                          "type" : "double",
                          "defaultValue" : 0.0,
                          "interp" : "linr"
                        },
                        "name" : "Montserrat",
                        "weight" : "Regular"
                      },
                      "textAttributes" : {
                        "type" : "textAttributeList",
                        "keyframes" : [
                          {
                            "endTime" : 0,
                            "time" : 0,
                            "value" : [{"name":"fontWeight","rangeEnd":32,"rangeStart":0,"value":400,"valueType":"int"},{"name":"strikethrough","rangeEnd":32,"rangeStart":0,"value":0,"valueType":"int"},{"name":"fontSize","rangeEnd":32,"rangeStart":0,"value":55,"valueType":"double"},{"name":"fontItalic","rangeEnd":32,"rangeStart":0,"value":0,"valueType":"int"},{"name":"kerning","rangeEnd":32,"rangeStart":0,"value":0.040000000000000001,"valueType":"double"},{"name":"underline","rangeEnd":32,"rangeStart":0,"value":0,"valueType":"int"},{"name":"fgColor","rangeEnd":32,"rangeStart":0,"value":"(35,40,47,255)","valueType":"color"},{"name":"fontName","rangeEnd":32,"rangeStart":0,"value":"Barlow Condensed Medium","valueType":"string"}],
                            "duration" : 0
                          }
                        ]
                      }
                    },
                    "attributes" : {
                      "autoRotateText" : true
                    },
                    "parameters" : {
                      "translation0" : {
                        "type" : "double",
                        "defaultValue" : -448.307002418738,
                        "interp" : "eioe"
                      },
                      "translation1" : {
                        "type" : "double",
                        "defaultValue" : -81.9999999999326,
                        "interp" : "eioe"
                      },
                      "sourceCrop0" : {
                        "type" : "double",
                        "defaultValue" : 0.0,
                        "interp" : "eioe"
                      },
                      "sourceCrop1" : {
                        "type" : "double",
                        "defaultValue" : 0.0,
                        "interp" : "eioe"
                      },
                      "sourceCrop2" : {
                        "type" : "double",
                        "defaultValue" : 0.0,
                        "interp" : "eioe"
                      },
                      "sourceCrop3" : {
                        "type" : "double",
                        "defaultValue" : 0.0,
                        "interp" : "eioe"
                      },
                      "geometryCrop0" : {
                        "type" : "double",
                        "defaultValue" : 0.0,
                        "interp" : "eioe"
                      },
                      "geometryCrop1" : {
                        "type" : "double",
                        "defaultValue" : 0.0,
                        "interp" : "eioe"
                      },
                      "geometryCrop2" : {
                        "type" : "double",
                        "defaultValue" : 0.0,
                        "interp" : "eioe"
                      },
                      "geometryCrop3" : {
                        "type" : "double",
                        "defaultValue" : 0.0,
                        "interp" : "eioe"
                      }
                    },
                    "effects" : [
                        {
                          "_type" : "GenericBehaviorEffect",
                          "effectName" : "popUp",
                          "bypassed" : false,
                          "start" : -63,
                          "duration" : 182                        ,
                          "in" : {
                            "attributes" : {
                              "name" : "grow",
                              "type" : 0,
                              "characterOrder" : 6,
                              "offsetBetweenCharacters" : 1,
                              "suggestedDurationPerCharacter" : 18,
                              "overlapProportion" : "3/4",
                              "movement" : 30,
                              "springDamping" : 5.0,
                              "springStiffness" : 50.0,
                              "bounceBounciness" : 0.45
                            }
                          
                          },
                          "center" : {
                            "attributes" : {
                              "name" : "none",
                              "type" : 1,
                              "characterOrder" : 6,
                              "offsetBetweenCharacters" : 0,
                              "secondsPerLoop" : 1,
                              "numberOfLoops" : -1,
                              "delayBetweenLoops" : 0,
                              "offsetBetweenCharacters" : 0
                            }
                          
                          },
                          "out" : {
                            "attributes" : {
                              "name" : "none",
                              "type" : 1,
                              "characterOrder" : 6,
                              "offsetBetweenCharacters" : 0,
                              "suggestedDurationPerCharacter" : 0,
                              "overlapProportion" : 0,
                              "movement" : -1,
                              "springDamping" : 5.0,
                              "springStiffness" : 50.0,
                              "bounceBounciness" : 0.45
                            }
                          
                          },
                          "metadata" : {
                            "default-behavior-center-style" : "popUp",
                            "default-behavior-in-style" : "hinge",
                            "default-behavior-in-type" : 1.0,
                            "default-behavior-out-style" : "hinge",
                            "presetName" : "Pop Up"
                          }
                        }
                    ],
                    "start" : 915,
                    "duration" : 182,
                    "mediaStart" : -63,
                    "mediaDuration" : 182,
                    "scalar" : 1,
                    "metadata" : {
                      "clipSpeedAttribute" : false,
                      "default-HAlign" : "center",
                      "default-LineSpace" : 0.0,
                      "default-VAlign" : "center",
                      "default-height" : 250.0,
                      "default-text-attributes" : null,
                      "default-translation0" : 0.0,
                      "default-translation1" : 0.0,
                      "default-width" : 400.0
                    },
                    "animationTracks" : {

                    }
                  }
                ]
              },
              {
                "trackIndex" : 6,
                "medias" : [
                  {
                    "id" : 226,
                    "_type" : "IMFile",
                    "src" : 2,
                    "trackNumber" : 0,
                    "trimStartSum" : 0,
                    "attributes" : {
                      "ident" : "mail-icon"
                    },
                    "parameters" : {
                      "translation0" : {
                        "type" : "double",
                        "defaultValue" : -64.4210368367218,
                        "interp" : "eioe"
                      },
                      "translation1" : {
                        "type" : "double",
                        "defaultValue" : -186.999999999946,
                        "interp" : "eioe"
                      },
                      "sourceCrop0" : {
                        "type" : "double",
                        "defaultValue" : 0.0,
                        "interp" : "eioe"
                      },
                      "sourceCrop1" : {
                        "type" : "double",
                        "defaultValue" : 0.0,
                        "interp" : "eioe"
                      },
                      "sourceCrop2" : {
                        "type" : "double",
                        "defaultValue" : 0.0,
                        "interp" : "eioe"
                      },
                      "sourceCrop3" : {
                        "type" : "double",
                        "defaultValue" : 0.0,
                        "interp" : "eioe"
                      },
                      "geometryCrop0" : {
                        "type" : "double",
                        "defaultValue" : 0.0,
                        "interp" : "eioe"
                      },
                      "geometryCrop1" : {
                        "type" : "double",
                        "defaultValue" : 0.0,
                        "interp" : "eioe"
                      },
                      "geometryCrop2" : {
                        "type" : "double",
                        "defaultValue" : 0.0,
                        "interp" : "eioe"
                      },
                      "geometryCrop3" : {
                        "type" : "double",
                        "defaultValue" : 0.0,
                        "interp" : "eioe"
                      }
                    },
                    "effects" : [
                        {
                          "_type" : "GenericBehaviorEffect",
                          "effectName" : "popUp",
                          "bypassed" : false,
                          "start" : 0,
                          "duration" : 410                        ,
                          "in" : {
                            "attributes" : {
                              "name" : "grow",
                              "type" : 0,
                              "characterOrder" : 6,
                              "offsetBetweenCharacters" : 1,
                              "suggestedDurationPerCharacter" : 18,
                              "overlapProportion" : "3/4",
                              "movement" : 30,
                              "springDamping" : 5.0,
                              "springStiffness" : 50.0,
                              "bounceBounciness" : 0.45
                            }
                          
                          },
                          "center" : {
                            "attributes" : {
                              "name" : "none",
                              "type" : 0,
                              "characterOrder" : 6,
                              "offsetBetweenCharacters" : 0,
                              "secondsPerLoop" : 1,
                              "numberOfLoops" : -1,
                              "delayBetweenLoops" : 0,
                              "offsetBetweenCharacters" : 0
                            }
                          
                          },
                          "out" : {
                            "attributes" : {
                              "name" : "none",
                              "type" : 0,
                              "characterOrder" : 6,
                              "offsetBetweenCharacters" : 0,
                              "suggestedDurationPerCharacter" : 0,
                              "overlapProportion" : 0,
                              "movement" : -1,
                              "springDamping" : 5.0,
                              "springStiffness" : 50.0,
                              "bounceBounciness" : 0.45
                            }
                          
                          },
                          "metadata" : {
                            "default-behavior-center-style" : "popUp",
                            "default-behavior-in-style" : "hinge",
                            "default-behavior-out-style" : "hinge",
                            "presetName" : "Pop Up"
                          }
                        }
                    ],
                    "start" : 290,
                    "duration" : 410,
                    "mediaStart" : 0,
                    "mediaDuration" : 1,
                    "scalar" : 1,
                    "metadata" : {
                      "clipSpeedAttribute" : false,
                      "default-height" : 512.0,
                      "default-translation0" : 0.0,
                      "default-translation1" : 0.0,
                      "default-width" : 512.0
                    },
                    "animationTracks" : {

                    }
                  }
                ]
              },
              {
                "trackIndex" : 7,
                "medias" : [
                  {
                    "id" : 227,
                    "_type" : "Callout",
                    "def" : {
                      "kind" : "remix",
                      "shape" : "shape-rectangle",
                      "style" : "basic",
                      "fill-color-blue" : {
                        "type" : "double",
                        "defaultValue" : 0.0,
                        "interp" : "linr"
                      },
                      "fill-color-green" : {
                        "type" : "double",
                        "defaultValue" : 0.870588235294118,
                        "interp" : "linr"
                      },
                      "fill-color-opacity" : {
                        "type" : "double",
                        "defaultValue" : 1.0,
                        "interp" : "linr"
                      },
                      "fill-color-red" : {
                        "type" : "double",
                        "defaultValue" : 1.0,
                        "interp" : "linr"
                      },
                      "height" : {
                        "type" : "double",
                        "defaultValue" : 48.4210526313798,
                        "interp" : "linr"
                      },
                      "stroke-color-blue" : {
                        "type" : "double",
                        "defaultValue" : 1.0,
                        "interp" : "linr"
                      },
                      "stroke-color-green" : {
                        "type" : "double",
                        "defaultValue" : 1.0,
                        "interp" : "linr"
                      },
                      "stroke-color-opacity" : {
                        "type" : "double",
                        "defaultValue" : 1.0,
                        "interp" : "linr"
                      },
                      "stroke-color-red" : {
                        "type" : "double",
                        "defaultValue" : 1.0,
                        "interp" : "linr"
                      },
                      "stroke-width" : {
                        "type" : "double",
                        "defaultValue" : 0.0,
                        "interp" : "linr"
                      },
                      "width" : {
                        "type" : "double",
                        "defaultValue" : 397.894736842019,
                        "interp" : "linr"
                      },
                      "fill-style" : "solid",
                      "stroke-style" : "solid"
                    },
                    "attributes" : {
                      "autoRotateText" : true
                    },
                    "parameters" : {
                      "translation0" : {
                        "type" : "double",
                        "defaultValue" : 30.3158052681666,
                        "interp" : "eioe"
                      },
                      "translation1" : {
                        "type" : "double",
                        "defaultValue" : -388.403507901777,
                        "interp" : "eioe"
                      },
                      "sourceCrop0" : {
                        "type" : "double",
                        "defaultValue" : 0.0,
                        "interp" : "eioe"
                      },
                      "sourceCrop1" : {
                        "type" : "double",
                        "defaultValue" : 0.0,
                        "interp" : "eioe"
                      },
                      "sourceCrop2" : {
                        "type" : "double",
                        "defaultValue" : 0.0,
                        "interp" : "eioe"
                      },
                      "sourceCrop3" : {
                        "type" : "double",
                        "defaultValue" : 0.0,
                        "interp" : "eioe"
                      },
                      "geometryCrop0" : {
                        "type" : "double",
                        "defaultValue" : 0.0,
                        "interp" : "eioe"
                      },
                      "geometryCrop1" : {
                        "type" : "double",
                        "defaultValue" : 0.0,
                        "interp" : "eioe"
                      },
                      "geometryCrop2" : {
                        "type" : "double",
                        "defaultValue" : 0.0,
                        "interp" : "eioe"
                      },
                      "geometryCrop3" : {
                        "type" : "double",
                        "defaultValue" : 0.0,
                        "interp" : "eioe"
                      }
                    },
                    "effects" : [

                    ],
                    "start" : 306,
                    "duration" : 394,
                    "mediaStart" : -38,
                    "mediaDuration" : 394,
                    "scalar" : 1,
                    "metadata" : {
                      "clipSpeedAttribute" : false,
                      "default-fill-color-blue" : 0.0,
                      "default-fill-color-green" : 0.0,
                      "default-fill-color-red" : 0.0,
                      "default-height" : 180.0,
                      "default-translation0" : 0.0,
                      "default-translation1" : 0.0,
                      "default-width" : 240.0
                    },
                    "animationTracks" : {

                    }
                  }
                ],
                "transitions" : [
                  {
                    "name" : "SlideRight",
                    "duration" : 30,
                    "trivial" : false,
                    "reverse" : false,
                    "bypass" : false,
                    "useAudioPreRoll" : true,
                    "useVisualPreRoll" : true,
                    "rightMedia" : 227
                  }
                ]
              },
              {
                "trackIndex" : 8,
                "medias" : [
                  {
                    "id" : 228,
                    "_type" : "Callout",
                    "def" : {
                      "kind" : "remix",
                      "shape" : "text",
                      "style" : "basic",
                      "height" : {
                        "type" : "double",
                        "defaultValue" : 250.0,
                        "interp" : "linr"
                      },
                      "line-spacing" : {
                        "type" : "double",
                        "defaultValue" : 0.02,
                        "interp" : "linr"
                      },
                      "width" : {
                        "type" : "double",
                        "defaultValue" : 570.175438596567,
                        "interp" : "linr"
                      },
                      "word-wrap" : {
                        "type" : "double",
                        "defaultValue" : 1.0,
                        "interp" : "linr"
                      },
                      "horizontal-alignment" : "left",
                      "resize-behavior" : "resizeText",
                      "text" : "What's your refund policy?",
                      "vertical-alignment" : "center",
                      "font" : {
                        "color-blue" : {
                          "type" : "double",
                          "defaultValue" : 1.0,
                          "interp" : "linr"
                        },
                        "color-green" : {
                          "type" : "double",
                          "defaultValue" : 1.0,
                          "interp" : "linr"
                        },
                        "color-red" : {
                          "type" : "double",
                          "defaultValue" : 1.0,
                          "interp" : "linr"
                        },
                        "size" : {
                          "type" : "double",
                          "defaultValue" : 96.0,
                          "interp" : "linr"
                        },
                        "tracking" : {
                          "type" : "double",
                          "defaultValue" : 0.0,
                          "interp" : "linr"
                        },
                        "name" : "Montserrat",
                        "weight" : "Regular"
                      },
                      "textAttributes" : {
                        "type" : "textAttributeList",
                        "keyframes" : [
                          {
                            "endTime" : 0,
                            "time" : 0,
                            "value" : [{"name":"fontWeight","rangeEnd":26,"rangeStart":0,"value":400,"valueType":"int"},{"name":"fgColor","rangeEnd":26,"rangeStart":0,"value":"(35,40,47,255)","valueType":"color"},{"name":"kerning","rangeEnd":26,"rangeStart":0,"value":0.040000000000000001,"valueType":"double"},{"name":"fontName","rangeEnd":26,"rangeStart":0,"value":"Barlow Condensed Medium","valueType":"string"},{"name":"strikethrough","rangeEnd":26,"rangeStart":0,"value":0,"valueType":"int"},{"name":"fontItalic","rangeEnd":26,"rangeStart":0,"value":0,"valueType":"int"},{"name":"underline","rangeEnd":26,"rangeStart":0,"value":0,"valueType":"int"},{"name":"fontSize","rangeEnd":26,"rangeStart":0,"value":40,"valueType":"double"}],
                            "duration" : 0
                          }
                        ]
                      }
                    },
                    "attributes" : {
                      "autoRotateText" : true
                    },
                    "parameters" : {
                      "translation0" : {
                        "type" : "double",
                        "defaultValue" : 60.7280859702588,
                        "interp" : "eioe"
                      },
                      "translation1" : {
                        "type" : "double",
                        "defaultValue" : -365.192982389072,
                        "interp" : "eioe"
                      },
                      "sourceCrop0" : {
                        "type" : "double",
                        "defaultValue" : 0.0,
                        "interp" : "eioe"
                      },
                      "sourceCrop1" : {
                        "type" : "double",
                        "defaultValue" : 0.0,
                        "interp" : "eioe"
                      },
                      "sourceCrop2" : {
                        "type" : "double",
                        "defaultValue" : 0.0,
                        "interp" : "eioe"
                      },
                      "sourceCrop3" : {
                        "type" : "double",
                        "defaultValue" : 0.0,
                        "interp" : "eioe"
                      },
                      "geometryCrop0" : {
                        "type" : "double",
                        "defaultValue" : 0.0,
                        "interp" : "eioe"
                      },
                      "geometryCrop1" : {
                        "type" : "double",
                        "defaultValue" : 0.0,
                        "interp" : "eioe"
                      },
                      "geometryCrop2" : {
                        "type" : "double",
                        "defaultValue" : 0.0,
                        "interp" : "eioe"
                      },
                      "geometryCrop3" : {
                        "type" : "double",
                        "defaultValue" : 0.0,
                        "interp" : "eioe"
                      }
                    },
                    "effects" : [
                        {
                          "_type" : "GenericBehaviorEffect",
                          "effectName" : "popUp",
                          "bypassed" : false,
                          "start" : 0,
                          "duration" : 410                        ,
                          "in" : {
                            "attributes" : {
                              "name" : "grow",
                              "type" : 0,
                              "characterOrder" : 6,
                              "offsetBetweenCharacters" : 1,
                              "suggestedDurationPerCharacter" : 18,
                              "overlapProportion" : "3/4",
                              "movement" : 30,
                              "springDamping" : 5.0,
                              "springStiffness" : 50.0,
                              "bounceBounciness" : 0.45
                            }
                          
                          },
                          "center" : {
                            "attributes" : {
                              "name" : "none",
                              "type" : 1,
                              "characterOrder" : 6,
                              "offsetBetweenCharacters" : 0,
                              "secondsPerLoop" : 1,
                              "numberOfLoops" : -1,
                              "delayBetweenLoops" : 0,
                              "offsetBetweenCharacters" : 0
                            }
                          
                          },
                          "out" : {
                            "attributes" : {
                              "name" : "none",
                              "type" : 1,
                              "characterOrder" : 6,
                              "offsetBetweenCharacters" : 0,
                              "suggestedDurationPerCharacter" : 0,
                              "overlapProportion" : 0,
                              "movement" : -1,
                              "springDamping" : 5.0,
                              "springStiffness" : 50.0,
                              "bounceBounciness" : 0.45
                            }
                          
                          },
                          "metadata" : {
                            "default-behavior-center-style" : "popUp",
                            "default-behavior-in-style" : "hinge",
                            "default-behavior-in-type" : 1.0,
                            "default-behavior-out-style" : "hinge",
                            "presetName" : "Pop Up"
                          }
                        }
                    ],
                    "start" : 290,
                    "duration" : 410,
                    "mediaStart" : 0,
                    "mediaDuration" : 410,
                    "scalar" : 1,
                    "metadata" : {
                      "clipSpeedAttribute" : false,
                      "default-HAlign" : "center",
                      "default-LineSpace" : 0.0,
                      "default-VAlign" : "center",
                      "default-height" : 250.0,
                      "default-text-attributes" : null,
                      "default-translation0" : 0.0,
                      "default-translation1" : 0.0,
                      "default-width" : 400.0
                    },
                    "animationTracks" : {

                    }
                  }
                ]
              },
              {
                "trackIndex" : 9,
                "medias" : [
                  {
                    "id" : 229,
                    "_type" : "Callout",
                    "def" : {
                      "kind" : "remix",
                      "shape" : "text",
                      "style" : "basic",
                      "height" : {
                        "type" : "double",
                        "defaultValue" : 250.0,
                        "interp" : "linr"
                      },
                      "line-spacing" : {
                        "type" : "double",
                        "defaultValue" : 0.02,
                        "interp" : "linr"
                      },
                      "width" : {
                        "type" : "double",
                        "defaultValue" : 570.175438596567,
                        "interp" : "linr"
                      },
                      "word-wrap" : {
                        "type" : "double",
                        "defaultValue" : 1.0,
                        "interp" : "linr"
                      },
                      "horizontal-alignment" : "left",
                      "resize-behavior" : "resizeText",
                      "text" : "We don't offer refunds.",
                      "vertical-alignment" : "center",
                      "font" : {
                        "color-blue" : {
                          "type" : "double",
                          "defaultValue" : 1.0,
                          "interp" : "linr"
                        },
                        "color-green" : {
                          "type" : "double",
                          "defaultValue" : 1.0,
                          "interp" : "linr"
                        },
                        "color-red" : {
                          "type" : "double",
                          "defaultValue" : 1.0,
                          "interp" : "linr"
                        },
                        "size" : {
                          "type" : "double",
                          "defaultValue" : 96.0,
                          "interp" : "linr"
                        },
                        "tracking" : {
                          "type" : "double",
                          "defaultValue" : 0.0,
                          "interp" : "linr"
                        },
                        "name" : "Montserrat",
                        "weight" : "Regular"
                      },
                      "textAttributes" : {
                        "type" : "textAttributeList",
                        "keyframes" : [
                          {
                            "endTime" : 0,
                            "time" : 0,
                            "value" : [{"name":"fontItalic","rangeEnd":23,"rangeStart":0,"value":0,"valueType":"int"},{"name":"underline","rangeEnd":23,"rangeStart":0,"value":0,"valueType":"int"},{"name":"strikethrough","rangeEnd":23,"rangeStart":0,"value":0,"valueType":"int"},{"name":"fontWeight","rangeEnd":23,"rangeStart":0,"value":400,"valueType":"int"},{"name":"fontSize","rangeEnd":23,"rangeStart":0,"value":40,"valueType":"double"},{"name":"kerning","rangeEnd":23,"rangeStart":0,"value":0.040000000000000001,"valueType":"double"},{"name":"fontName","rangeEnd":23,"rangeStart":0,"value":"Barlow Condensed Medium","valueType":"string"},{"name":"fgColor","rangeEnd":23,"rangeStart":0,"value":"(35,40,47,255)","valueType":"color"}],
                            "duration" : 0
                          }
                        ]
                      }
                    },
                    "attributes" : {
                      "autoRotateText" : true
                    },
                    "parameters" : {
                      "translation0" : {
                        "type" : "double",
                        "defaultValue" : 117.149150380454,
                        "interp" : "eioe"
                      },
                      "translation1" : {
                        "type" : "double",
                        "defaultValue" : -463.807015870718,
                        "interp" : "eioe"
                      },
                      "sourceCrop0" : {
                        "type" : "double",
                        "defaultValue" : 0.0,
                        "interp" : "eioe"
                      },
                      "sourceCrop1" : {
                        "type" : "double",
                        "defaultValue" : 0.0,
                        "interp" : "eioe"
                      },
                      "sourceCrop2" : {
                        "type" : "double",
                        "defaultValue" : 0.0,
                        "interp" : "eioe"
                      },
                      "sourceCrop3" : {
                        "type" : "double",
                        "defaultValue" : 0.0,
                        "interp" : "eioe"
                      },
                      "geometryCrop0" : {
                        "type" : "double",
                        "defaultValue" : 0.0,
                        "interp" : "eioe"
                      },
                      "geometryCrop1" : {
                        "type" : "double",
                        "defaultValue" : 0.0,
                        "interp" : "eioe"
                      },
                      "geometryCrop2" : {
                        "type" : "double",
                        "defaultValue" : 0.0,
                        "interp" : "eioe"
                      },
                      "geometryCrop3" : {
                        "type" : "double",
                        "defaultValue" : 0.0,
                        "interp" : "eioe"
                      }
                    },
                    "effects" : [
                        {
                          "_type" : "GenericBehaviorEffect",
                          "effectName" : "popUp",
                          "bypassed" : false,
                          "start" : 0,
                          "duration" : 117                        ,
                          "in" : {
                            "attributes" : {
                              "name" : "grow",
                              "type" : 0,
                              "characterOrder" : 6,
                              "offsetBetweenCharacters" : 1,
                              "suggestedDurationPerCharacter" : 18,
                              "overlapProportion" : "3/4",
                              "movement" : 30,
                              "springDamping" : 5.0,
                              "springStiffness" : 50.0,
                              "bounceBounciness" : 0.45
                            }
                          
                          },
                          "center" : {
                            "attributes" : {
                              "name" : "none",
                              "type" : 1,
                              "characterOrder" : 6,
                              "offsetBetweenCharacters" : 0,
                              "secondsPerLoop" : 1,
                              "numberOfLoops" : -1,
                              "delayBetweenLoops" : 0,
                              "offsetBetweenCharacters" : 0
                            }
                          
                          },
                          "out" : {
                            "attributes" : {
                              "name" : "none",
                              "type" : 1,
                              "characterOrder" : 6,
                              "offsetBetweenCharacters" : 0,
                              "suggestedDurationPerCharacter" : 0,
                              "overlapProportion" : 0,
                              "movement" : -1,
                              "springDamping" : 5.0,
                              "springStiffness" : 50.0,
                              "bounceBounciness" : 0.45
                            }
                          
                          },
                          "metadata" : {
                            "default-behavior-center-style" : "popUp",
                            "default-behavior-in-style" : "hinge",
                            "default-behavior-in-type" : 1.0,
                            "default-behavior-out-style" : "hinge",
                            "presetName" : "Pop Up"
                          }
                        }
                    ],
                    "start" : 404,
                    "duration" : 117,
                    "mediaStart" : 0,
                    "mediaDuration" : 117,
                    "scalar" : 1,
                    "metadata" : {
                      "clipSpeedAttribute" : false,
                      "default-HAlign" : "center",
                      "default-LineSpace" : 0.0,
                      "default-VAlign" : "center",
                      "default-height" : 250.0,
                      "default-text-attributes" : null,
                      "default-translation0" : 0.0,
                      "default-translation1" : 0.0,
                      "default-width" : 400.0
                    },
                    "animationTracks" : {

                    }
                  },
                  {
                    "id" : 230,
                    "_type" : "Callout",
                    "def" : {
                      "kind" : "remix",
                      "shape" : "text",
                      "style" : "basic",
                      "height" : {
                        "type" : "double",
                        "defaultValue" : 250.0,
                        "interp" : "linr"
                      },
                      "line-spacing" : {
                        "type" : "double",
                        "defaultValue" : 0.02,
                        "interp" : "linr"
                      },
                      "width" : {
                        "type" : "double",
                        "defaultValue" : 432.280693990914,
                        "interp" : "linr"
                      },
                      "word-wrap" : {
                        "type" : "double",
                        "defaultValue" : 1.0,
                        "interp" : "linr"
                      },
                      "horizontal-alignment" : "left",
                      "resize-behavior" : "resizeText",
                      "text" : "Goods must be returned within 90 days",
                      "vertical-alignment" : "center",
                      "font" : {
                        "color-blue" : {
                          "type" : "double",
                          "defaultValue" : 1.0,
                          "interp" : "linr"
                        },
                        "color-green" : {
                          "type" : "double",
                          "defaultValue" : 1.0,
                          "interp" : "linr"
                        },
                        "color-red" : {
                          "type" : "double",
                          "defaultValue" : 1.0,
                          "interp" : "linr"
                        },
                        "size" : {
                          "type" : "double",
                          "defaultValue" : 96.0,
                          "interp" : "linr"
                        },
                        "tracking" : {
                          "type" : "double",
                          "defaultValue" : 0.0,
                          "interp" : "linr"
                        },
                        "name" : "Montserrat",
                        "weight" : "Regular"
                      },
                      "textAttributes" : {
                        "type" : "textAttributeList",
                        "keyframes" : [
                          {
                            "endTime" : 0,
                            "time" : 0,
                            "value" : [{"name":"fontItalic","rangeEnd":37,"rangeStart":0,"value":0,"valueType":"int"},{"name":"underline","rangeEnd":37,"rangeStart":0,"value":0,"valueType":"int"},{"name":"fontName","rangeEnd":37,"rangeStart":0,"value":"Barlow Condensed Medium","valueType":"string"},{"name":"fontSize","rangeEnd":37,"rangeStart":0,"value":40,"valueType":"double"},{"name":"fontWeight","rangeEnd":37,"rangeStart":0,"value":400,"valueType":"int"},{"name":"kerning","rangeEnd":37,"rangeStart":0,"value":0.040000000000000001,"valueType":"double"},{"name":"strikethrough","rangeEnd":37,"rangeStart":0,"value":0,"valueType":"int"},{"name":"fgColor","rangeEnd":37,"rangeStart":0,"value":"(35,40,47,255)","valueType":"color"}],
                            "duration" : 0
                          }
                        ]
                      }
                    },
                    "attributes" : {
                      "autoRotateText" : true
                    },
                    "parameters" : {
                      "translation0" : {
                        "type" : "double",
                        "defaultValue" : -9.30700576502639,
                        "interp" : "eioe"
                      },
                      "translation1" : {
                        "type" : "double",
                        "defaultValue" : -464.666666666638,
                        "interp" : "eioe"
                      },
                      "sourceCrop0" : {
                        "type" : "double",
                        "defaultValue" : 0.0,
                        "interp" : "eioe"
                      },
                      "sourceCrop1" : {
                        "type" : "double",
                        "defaultValue" : 0.0,
                        "interp" : "eioe"
                      },
                      "sourceCrop2" : {
                        "type" : "double",
                        "defaultValue" : 0.0,
                        "interp" : "eioe"
                      },
                      "sourceCrop3" : {
                        "type" : "double",
                        "defaultValue" : 0.0,
                        "interp" : "eioe"
                      },
                      "geometryCrop0" : {
                        "type" : "double",
                        "defaultValue" : 0.0,
                        "interp" : "eioe"
                      },
                      "geometryCrop1" : {
                        "type" : "double",
                        "defaultValue" : 0.0,
                        "interp" : "eioe"
                      },
                      "geometryCrop2" : {
                        "type" : "double",
                        "defaultValue" : 0.0,
                        "interp" : "eioe"
                      },
                      "geometryCrop3" : {
                        "type" : "double",
                        "defaultValue" : 0.0,
                        "interp" : "eioe"
                      }
                    },
                    "effects" : [
                        {
                          "_type" : "GenericBehaviorEffect",
                          "effectName" : "popUp",
                          "bypassed" : false,
                          "start" : 0,
                          "duration" : 179                        ,
                          "in" : {
                            "attributes" : {
                              "name" : "grow",
                              "type" : 0,
                              "characterOrder" : 6,
                              "offsetBetweenCharacters" : 1,
                              "suggestedDurationPerCharacter" : 18,
                              "overlapProportion" : "3/4",
                              "movement" : 30,
                              "springDamping" : 5.0,
                              "springStiffness" : 50.0,
                              "bounceBounciness" : 0.45
                            }
                          
                          },
                          "center" : {
                            "attributes" : {
                              "name" : "none",
                              "type" : 1,
                              "characterOrder" : 6,
                              "offsetBetweenCharacters" : 0,
                              "secondsPerLoop" : 1,
                              "numberOfLoops" : -1,
                              "delayBetweenLoops" : 0,
                              "offsetBetweenCharacters" : 0
                            }
                          
                          },
                          "out" : {
                            "attributes" : {
                              "name" : "none",
                              "type" : 1,
                              "characterOrder" : 6,
                              "offsetBetweenCharacters" : 0,
                              "suggestedDurationPerCharacter" : 0,
                              "overlapProportion" : 0,
                              "movement" : -1,
                              "springDamping" : 5.0,
                              "springStiffness" : 50.0,
                              "bounceBounciness" : 0.45
                            }
                          
                          },
                          "metadata" : {
                            "default-behavior-center-style" : "popUp",
                            "default-behavior-in-style" : "hinge",
                            "default-behavior-in-type" : 1.0,
                            "default-behavior-out-style" : "hinge",
                            "presetName" : "Pop Up"
                          }
                        }
                    ],
                    "start" : 521,
                    "duration" : 179,
                    "mediaStart" : 0,
                    "mediaDuration" : 179,
                    "scalar" : 1,
                    "metadata" : {
                      "clipSpeedAttribute" : false,
                      "default-HAlign" : "center",
                      "default-LineSpace" : 0.0,
                      "default-VAlign" : "center",
                      "default-height" : 250.0,
                      "default-text-attributes" : null,
                      "default-translation0" : 0.0,
                      "default-translation1" : 0.0,
                      "default-width" : 400.0
                    },
                    "animationTracks" : {

                    }
                  }
                ]
              },
              {
                "trackIndex" : 10,
                "medias" : [
                  {
                    "id" : 231,
                    "_type" : "IMFile",
                    "src" : 2,
                    "trackNumber" : 0,
                    "trimStartSum" : 0,
                    "attributes" : {
                      "ident" : "mail-icon"
                    },
                    "parameters" : {
                      "translation0" : {
                        "type" : "double",
                        "defaultValue" : 476.666654888372,
                        "interp" : "eioe"
                      },
                      "translation1" : {
                        "type" : "double",
                        "defaultValue" : 155.614033481716,
                        "interp" : "eioe"
                      },
                      "sourceCrop0" : {
                        "type" : "double",
                        "defaultValue" : 0.0,
                        "interp" : "eioe"
                      },
                      "sourceCrop1" : {
                        "type" : "double",
                        "defaultValue" : 0.0,
                        "interp" : "eioe"
                      },
                      "sourceCrop2" : {
                        "type" : "double",
                        "defaultValue" : 0.0,
                        "interp" : "eioe"
                      },
                      "sourceCrop3" : {
                        "type" : "double",
                        "defaultValue" : 0.0,
                        "interp" : "eioe"
                      },
                      "geometryCrop0" : {
                        "type" : "double",
                        "defaultValue" : 0.0,
                        "interp" : "eioe"
                      },
                      "geometryCrop1" : {
                        "type" : "double",
                        "defaultValue" : 0.0,
                        "interp" : "eioe"
                      },
                      "geometryCrop2" : {
                        "type" : "double",
                        "defaultValue" : 0.0,
                        "interp" : "eioe"
                      },
                      "geometryCrop3" : {
                        "type" : "double",
                        "defaultValue" : 0.0,
                        "interp" : "eioe"
                      }
                    },
                    "effects" : [
                        {
                          "_type" : "GenericBehaviorEffect",
                          "effectName" : "popUp",
                          "bypassed" : false,
                          "start" : 0,
                          "duration" : 364                        ,
                          "in" : {
                            "attributes" : {
                              "name" : "grow",
                              "type" : 0,
                              "characterOrder" : 6,
                              "offsetBetweenCharacters" : 1,
                              "suggestedDurationPerCharacter" : 18,
                              "overlapProportion" : "3/4",
                              "movement" : 30,
                              "springDamping" : 5.0,
                              "springStiffness" : 50.0,
                              "bounceBounciness" : 0.45
                            }
                          
                          },
                          "center" : {
                            "attributes" : {
                              "name" : "none",
                              "type" : 0,
                              "characterOrder" : 6,
                              "offsetBetweenCharacters" : 0,
                              "secondsPerLoop" : 1,
                              "numberOfLoops" : -1,
                              "delayBetweenLoops" : 0,
                              "offsetBetweenCharacters" : 0
                            }
                          
                          },
                          "out" : {
                            "attributes" : {
                              "name" : "none",
                              "type" : 0,
                              "characterOrder" : 6,
                              "offsetBetweenCharacters" : 0,
                              "suggestedDurationPerCharacter" : 0,
                              "overlapProportion" : 0,
                              "movement" : -1,
                              "springDamping" : 5.0,
                              "springStiffness" : 50.0,
                              "bounceBounciness" : 0.45
                            }
                          
                          },
                          "metadata" : {
                            "default-behavior-center-style" : "popUp",
                            "default-behavior-in-style" : "hinge",
                            "default-behavior-out-style" : "hinge",
                            "presetName" : "Pop Up"
                          }
                        }
                    ],
                    "start" : 336,
                    "duration" : 364,
                    "mediaStart" : 0,
                    "mediaDuration" : 1,
                    "scalar" : 1,
                    "metadata" : {
                      "clipSpeedAttribute" : false,
                      "default-height" : 512.0,
                      "default-translation0" : 0.0,
                      "default-translation1" : 0.0,
                      "default-width" : 512.0
                    },
                    "animationTracks" : {

                    }
                  }
                ]
              },
              {
                "trackIndex" : 11,
                "medias" : [
                  {
                    "id" : 232,
                    "_type" : "Callout",
                    "def" : {
                      "kind" : "remix",
                      "shape" : "shape-rectangle",
                      "style" : "basic",
                      "fill-color-blue" : {
                        "type" : "double",
                        "defaultValue" : 0.0,
                        "interp" : "linr"
                      },
                      "fill-color-green" : {
                        "type" : "double",
                        "defaultValue" : 0.870588235294118,
                        "interp" : "linr"
                      },
                      "fill-color-opacity" : {
                        "type" : "double",
                        "defaultValue" : 1.0,
                        "interp" : "linr"
                      },
                      "fill-color-red" : {
                        "type" : "double",
                        "defaultValue" : 1.0,
                        "interp" : "linr"
                      },
                      "height" : {
                        "type" : "double",
                        "defaultValue" : 48.4210526313798,
                        "interp" : "linr"
                      },
                      "stroke-color-blue" : {
                        "type" : "double",
                        "defaultValue" : 1.0,
                        "interp" : "linr"
                      },
                      "stroke-color-green" : {
                        "type" : "double",
                        "defaultValue" : 1.0,
                        "interp" : "linr"
                      },
                      "stroke-color-opacity" : {
                        "type" : "double",
                        "defaultValue" : 1.0,
                        "interp" : "linr"
                      },
                      "stroke-color-red" : {
                        "type" : "double",
                        "defaultValue" : 1.0,
                        "interp" : "linr"
                      },
                      "stroke-width" : {
                        "type" : "double",
                        "defaultValue" : 0.0,
                        "interp" : "linr"
                      },
                      "width" : {
                        "type" : "double",
                        "defaultValue" : 397.894736842019,
                        "interp" : "linr"
                      },
                      "fill-style" : "solid",
                      "stroke-style" : "solid"
                    },
                    "attributes" : {
                      "autoRotateText" : true
                    },
                    "parameters" : {
                      "translation0" : {
                        "type" : "double",
                        "defaultValue" : 571.40349699326,
                        "interp" : "eioe"
                      },
                      "translation1" : {
                        "type" : "double",
                        "defaultValue" : -45.7894744201148,
                        "interp" : "eioe"
                      },
                      "sourceCrop0" : {
                        "type" : "double",
                        "defaultValue" : 0.0,
                        "interp" : "eioe"
                      },
                      "sourceCrop1" : {
                        "type" : "double",
                        "defaultValue" : 0.0,
                        "interp" : "eioe"
                      },
                      "sourceCrop2" : {
                        "type" : "double",
                        "defaultValue" : 0.0,
                        "interp" : "eioe"
                      },
                      "sourceCrop3" : {
                        "type" : "double",
                        "defaultValue" : 0.0,
                        "interp" : "eioe"
                      },
                      "geometryCrop0" : {
                        "type" : "double",
                        "defaultValue" : 0.0,
                        "interp" : "eioe"
                      },
                      "geometryCrop1" : {
                        "type" : "double",
                        "defaultValue" : 0.0,
                        "interp" : "eioe"
                      },
                      "geometryCrop2" : {
                        "type" : "double",
                        "defaultValue" : 0.0,
                        "interp" : "eioe"
                      },
                      "geometryCrop3" : {
                        "type" : "double",
                        "defaultValue" : 0.0,
                        "interp" : "eioe"
                      }
                    },
                    "effects" : [

                    ],
                    "start" : 357,
                    "duration" : 343,
                    "mediaStart" : -22,
                    "mediaDuration" : 343,
                    "scalar" : 1,
                    "metadata" : {
                      "clipSpeedAttribute" : false,
                      "default-fill-color-blue" : 0.0,
                      "default-fill-color-green" : 0.0,
                      "default-fill-color-red" : 0.0,
                      "default-height" : 180.0,
                      "default-translation0" : 0.0,
                      "default-translation1" : 0.0,
                      "default-width" : 240.0
                    },
                    "animationTracks" : {

                    }
                  }
                ],
                "transitions" : [
                  {
                    "name" : "SlideRight",
                    "duration" : 30,
                    "trivial" : false,
                    "reverse" : false,
                    "bypass" : false,
                    "useAudioPreRoll" : true,
                    "useVisualPreRoll" : true,
                    "rightMedia" : 232
                  }
                ]
              },
              {
                "trackIndex" : 12,
                "medias" : [
                  {
                    "id" : 233,
                    "_type" : "Callout",
                    "def" : {
                      "kind" : "remix",
                      "shape" : "text",
                      "style" : "basic",
                      "height" : {
                        "type" : "double",
                        "defaultValue" : 250.0,
                        "interp" : "linr"
                      },
                      "line-spacing" : {
                        "type" : "double",
                        "defaultValue" : 0.02,
                        "interp" : "linr"
                      },
                      "width" : {
                        "type" : "double",
                        "defaultValue" : 570.175438596567,
                        "interp" : "linr"
                      },
                      "word-wrap" : {
                        "type" : "double",
                        "defaultValue" : 1.0,
                        "interp" : "linr"
                      },
                      "horizontal-alignment" : "left",
                      "resize-behavior" : "resizeText",
                      "text" : "What's your refund policy?",
                      "vertical-alignment" : "center",
                      "font" : {
                        "color-blue" : {
                          "type" : "double",
                          "defaultValue" : 1.0,
                          "interp" : "linr"
                        },
                        "color-green" : {
                          "type" : "double",
                          "defaultValue" : 1.0,
                          "interp" : "linr"
                        },
                        "color-red" : {
                          "type" : "double",
                          "defaultValue" : 1.0,
                          "interp" : "linr"
                        },
                        "size" : {
                          "type" : "double",
                          "defaultValue" : 96.0,
                          "interp" : "linr"
                        },
                        "tracking" : {
                          "type" : "double",
                          "defaultValue" : 0.0,
                          "interp" : "linr"
                        },
                        "name" : "Montserrat",
                        "weight" : "Regular"
                      },
                      "textAttributes" : {
                        "type" : "textAttributeList",
                        "keyframes" : [
                          {
                            "endTime" : 0,
                            "time" : 0,
                            "value" : [{"name":"fontWeight","rangeEnd":26,"rangeStart":0,"value":400,"valueType":"int"},{"name":"fgColor","rangeEnd":26,"rangeStart":0,"value":"(35,40,47,255)","valueType":"color"},{"name":"kerning","rangeEnd":26,"rangeStart":0,"value":0.040000000000000001,"valueType":"double"},{"name":"fontName","rangeEnd":26,"rangeStart":0,"value":"Barlow Condensed Medium","valueType":"string"},{"name":"strikethrough","rangeEnd":26,"rangeStart":0,"value":0,"valueType":"int"},{"name":"fontItalic","rangeEnd":26,"rangeStart":0,"value":0,"valueType":"int"},{"name":"underline","rangeEnd":26,"rangeStart":0,"value":0,"valueType":"int"},{"name":"fontSize","rangeEnd":26,"rangeStart":0,"value":40,"valueType":"double"}],
                            "duration" : 0
                          }
                        ]
                      }
                    },
                    "attributes" : {
                      "autoRotateText" : true
                    },
                    "parameters" : {
                      "translation0" : {
                        "type" : "double",
                        "defaultValue" : 623.570175438997,
                        "interp" : "eioe"
                      },
                      "translation1" : {
                        "type" : "double",
                        "defaultValue" : -21.5789489744445,
                        "interp" : "eioe"
                      },
                      "sourceCrop0" : {
                        "type" : "double",
                        "defaultValue" : 0.0,
                        "interp" : "eioe"
                      },
                      "sourceCrop1" : {
                        "type" : "double",
                        "defaultValue" : 0.0,
                        "interp" : "eioe"
                      },
                      "sourceCrop2" : {
                        "type" : "double",
                        "defaultValue" : 0.0,
                        "interp" : "eioe"
                      },
                      "sourceCrop3" : {
                        "type" : "double",
                        "defaultValue" : 0.0,
                        "interp" : "eioe"
                      },
                      "geometryCrop0" : {
                        "type" : "double",
                        "defaultValue" : 0.0,
                        "interp" : "eioe"
                      },
                      "geometryCrop1" : {
                        "type" : "double",
                        "defaultValue" : 0.0,
                        "interp" : "eioe"
                      },
                      "geometryCrop2" : {
                        "type" : "double",
                        "defaultValue" : 0.0,
                        "interp" : "eioe"
                      },
                      "geometryCrop3" : {
                        "type" : "double",
                        "defaultValue" : 0.0,
                        "interp" : "eioe"
                      }
                    },
                    "effects" : [
                        {
                          "_type" : "GenericBehaviorEffect",
                          "effectName" : "popUp",
                          "bypassed" : false,
                          "start" : 0,
                          "duration" : 364                        ,
                          "in" : {
                            "attributes" : {
                              "name" : "grow",
                              "type" : 0,
                              "characterOrder" : 6,
                              "offsetBetweenCharacters" : 1,
                              "suggestedDurationPerCharacter" : 18,
                              "overlapProportion" : "3/4",
                              "movement" : 30,
                              "springDamping" : 5.0,
                              "springStiffness" : 50.0,
                              "bounceBounciness" : 0.45
                            }
                          
                          },
                          "center" : {
                            "attributes" : {
                              "name" : "none",
                              "type" : 1,
                              "characterOrder" : 6,
                              "offsetBetweenCharacters" : 0,
                              "secondsPerLoop" : 1,
                              "numberOfLoops" : -1,
                              "delayBetweenLoops" : 0,
                              "offsetBetweenCharacters" : 0
                            }
                          
                          },
                          "out" : {
                            "attributes" : {
                              "name" : "none",
                              "type" : 1,
                              "characterOrder" : 6,
                              "offsetBetweenCharacters" : 0,
                              "suggestedDurationPerCharacter" : 0,
                              "overlapProportion" : 0,
                              "movement" : -1,
                              "springDamping" : 5.0,
                              "springStiffness" : 50.0,
                              "bounceBounciness" : 0.45
                            }
                          
                          },
                          "metadata" : {
                            "default-behavior-center-style" : "popUp",
                            "default-behavior-in-style" : "hinge",
                            "default-behavior-in-type" : 1.0,
                            "default-behavior-out-style" : "hinge",
                            "presetName" : "Pop Up"
                          }
                        }
                    ],
                    "start" : 336,
                    "duration" : 364,
                    "mediaStart" : 0,
                    "mediaDuration" : 364,
                    "scalar" : 1,
                    "metadata" : {
                      "clipSpeedAttribute" : false,
                      "default-HAlign" : "center",
                      "default-LineSpace" : 0.0,
                      "default-VAlign" : "center",
                      "default-height" : 250.0,
                      "default-text-attributes" : null,
                      "default-translation0" : 0.0,
                      "default-translation1" : 0.0,
                      "default-width" : 400.0
                    },
                    "animationTracks" : {

                    }
                  }
                ]
              },
              {
                "trackIndex" : 13,
                "medias" : [
                  {
                    "id" : 234,
                    "_type" : "Callout",
                    "def" : {
                      "kind" : "remix",
                      "shape" : "text",
                      "style" : "basic",
                      "height" : {
                        "type" : "double",
                        "defaultValue" : 250.0,
                        "interp" : "linr"
                      },
                      "line-spacing" : {
                        "type" : "double",
                        "defaultValue" : 0.02,
                        "interp" : "linr"
                      },
                      "width" : {
                        "type" : "double",
                        "defaultValue" : 570.175438596567,
                        "interp" : "linr"
                      },
                      "word-wrap" : {
                        "type" : "double",
                        "defaultValue" : 1.0,
                        "interp" : "linr"
                      },
                      "horizontal-alignment" : "left",
                      "resize-behavior" : "resizeText",
                      "text" : "90 day guarantee.",
                      "vertical-alignment" : "center",
                      "font" : {
                        "color-blue" : {
                          "type" : "double",
                          "defaultValue" : 1.0,
                          "interp" : "linr"
                        },
                        "color-green" : {
                          "type" : "double",
                          "defaultValue" : 1.0,
                          "interp" : "linr"
                        },
                        "color-red" : {
                          "type" : "double",
                          "defaultValue" : 1.0,
                          "interp" : "linr"
                        },
                        "size" : {
                          "type" : "double",
                          "defaultValue" : 96.0,
                          "interp" : "linr"
                        },
                        "tracking" : {
                          "type" : "double",
                          "defaultValue" : 0.0,
                          "interp" : "linr"
                        },
                        "name" : "Montserrat",
                        "weight" : "Regular"
                      },
                      "textAttributes" : {
                        "type" : "textAttributeList",
                        "keyframes" : [
                          {
                            "endTime" : 0,
                            "time" : 0,
                            "value" : [{"name":"strikethrough","rangeEnd":17,"rangeStart":0,"value":0,"valueType":"int"},{"name":"fontWeight","rangeEnd":17,"rangeStart":0,"value":400,"valueType":"int"},{"name":"fontItalic","rangeEnd":17,"rangeStart":0,"value":0,"valueType":"int"},{"name":"fontName","rangeEnd":17,"rangeStart":0,"value":"Barlow Condensed Medium","valueType":"string"},{"name":"fontSize","rangeEnd":17,"rangeStart":0,"value":40,"valueType":"double"},{"name":"underline","rangeEnd":17,"rangeStart":0,"value":0,"valueType":"int"},{"name":"kerning","rangeEnd":17,"rangeStart":0,"value":0.040000000000000001,"valueType":"double"},{"name":"fgColor","rangeEnd":17,"rangeStart":0,"value":"(35,40,47,255)","valueType":"color"}],
                            "duration" : 0
                          }
                        ]
                      }
                    },
                    "attributes" : {
                      "autoRotateText" : true
                    },
                    "parameters" : {
                      "translation0" : {
                        "type" : "double",
                        "defaultValue" : 657.149150380476,
                        "interp" : "eioe"
                      },
                      "translation1" : {
                        "type" : "double",
                        "defaultValue" : -121.140349204035,
                        "interp" : "eioe"
                      },
                      "sourceCrop0" : {
                        "type" : "double",
                        "defaultValue" : 0.0,
                        "interp" : "eioe"
                      },
                      "sourceCrop1" : {
                        "type" : "double",
                        "defaultValue" : 0.0,
                        "interp" : "eioe"
                      },
                      "sourceCrop2" : {
                        "type" : "double",
                        "defaultValue" : 0.0,
                        "interp" : "eioe"
                      },
                      "sourceCrop3" : {
                        "type" : "double",
                        "defaultValue" : 0.0,
                        "interp" : "eioe"
                      },
                      "geometryCrop0" : {
                        "type" : "double",
                        "defaultValue" : 0.0,
                        "interp" : "eioe"
                      },
                      "geometryCrop1" : {
                        "type" : "double",
                        "defaultValue" : 0.0,
                        "interp" : "eioe"
                      },
                      "geometryCrop2" : {
                        "type" : "double",
                        "defaultValue" : 0.0,
                        "interp" : "eioe"
                      },
                      "geometryCrop3" : {
                        "type" : "double",
                        "defaultValue" : 0.0,
                        "interp" : "eioe"
                      }
                    },
                    "effects" : [
                        {
                          "_type" : "GenericBehaviorEffect",
                          "effectName" : "popUp",
                          "bypassed" : false,
                          "start" : 0,
                          "duration" : 81                        ,
                          "in" : {
                            "attributes" : {
                              "name" : "grow",
                              "type" : 0,
                              "characterOrder" : 6,
                              "offsetBetweenCharacters" : 1,
                              "suggestedDurationPerCharacter" : 18,
                              "overlapProportion" : "3/4",
                              "movement" : 30,
                              "springDamping" : 5.0,
                              "springStiffness" : 50.0,
                              "bounceBounciness" : 0.45
                            }
                          
                          },
                          "center" : {
                            "attributes" : {
                              "name" : "none",
                              "type" : 1,
                              "characterOrder" : 6,
                              "offsetBetweenCharacters" : 0,
                              "secondsPerLoop" : 1,
                              "numberOfLoops" : -1,
                              "delayBetweenLoops" : 0,
                              "offsetBetweenCharacters" : 0
                            }
                          
                          },
                          "out" : {
                            "attributes" : {
                              "name" : "none",
                              "type" : 1,
                              "characterOrder" : 6,
                              "offsetBetweenCharacters" : 0,
                              "suggestedDurationPerCharacter" : 0,
                              "overlapProportion" : 0,
                              "movement" : -1,
                              "springDamping" : 5.0,
                              "springStiffness" : 50.0,
                              "bounceBounciness" : 0.45
                            }
                          
                          },
                          "metadata" : {
                            "default-behavior-center-style" : "popUp",
                            "default-behavior-in-style" : "hinge",
                            "default-behavior-in-type" : 1.0,
                            "default-behavior-out-style" : "hinge",
                            "presetName" : "Pop Up"
                          }
                        }
                    ],
                    "start" : 440,
                    "duration" : 81,
                    "mediaStart" : 0,
                    "mediaDuration" : 81,
                    "scalar" : 1,
                    "metadata" : {
                      "clipSpeedAttribute" : false,
                      "default-HAlign" : "center",
                      "default-LineSpace" : 0.0,
                      "default-VAlign" : "center",
                      "default-height" : 250.0,
                      "default-text-attributes" : null,
                      "default-translation0" : 0.0,
                      "default-translation1" : 0.0,
                      "default-width" : 400.0
                    },
                    "animationTracks" : {

                    }
                  },
                  {
                    "id" : 235,
                    "_type" : "Callout",
                    "def" : {
                      "kind" : "remix",
                      "shape" : "text",
                      "style" : "basic",
                      "height" : {
                        "type" : "double",
                        "defaultValue" : 250.0,
                        "interp" : "linr"
                      },
                      "line-spacing" : {
                        "type" : "double",
                        "defaultValue" : 0.02,
                        "interp" : "linr"
                      },
                      "width" : {
                        "type" : "double",
                        "defaultValue" : 432.280693990914,
                        "interp" : "linr"
                      },
                      "word-wrap" : {
                        "type" : "double",
                        "defaultValue" : 1.0,
                        "interp" : "linr"
                      },
                      "horizontal-alignment" : "left",
                      "resize-behavior" : "resizeText",
                      "text" : "Goods must be returned within 90 days",
                      "vertical-alignment" : "center",
                      "font" : {
                        "color-blue" : {
                          "type" : "double",
                          "defaultValue" : 1.0,
                          "interp" : "linr"
                        },
                        "color-green" : {
                          "type" : "double",
                          "defaultValue" : 1.0,
                          "interp" : "linr"
                        },
                        "color-red" : {
                          "type" : "double",
                          "defaultValue" : 1.0,
                          "interp" : "linr"
                        },
                        "size" : {
                          "type" : "double",
                          "defaultValue" : 96.0,
                          "interp" : "linr"
                        },
                        "tracking" : {
                          "type" : "double",
                          "defaultValue" : 0.0,
                          "interp" : "linr"
                        },
                        "name" : "Montserrat",
                        "weight" : "Regular"
                      },
                      "textAttributes" : {
                        "type" : "textAttributeList",
                        "keyframes" : [
                          {
                            "endTime" : 0,
                            "time" : 0,
                            "value" : [{"name":"fontItalic","rangeEnd":37,"rangeStart":0,"value":0,"valueType":"int"},{"name":"underline","rangeEnd":37,"rangeStart":0,"value":0,"valueType":"int"},{"name":"fontName","rangeEnd":37,"rangeStart":0,"value":"Barlow Condensed Medium","valueType":"string"},{"name":"fontSize","rangeEnd":37,"rangeStart":0,"value":40,"valueType":"double"},{"name":"fontWeight","rangeEnd":37,"rangeStart":0,"value":400,"valueType":"int"},{"name":"kerning","rangeEnd":37,"rangeStart":0,"value":0.040000000000000001,"valueType":"double"},{"name":"strikethrough","rangeEnd":37,"rangeStart":0,"value":0,"valueType":"int"},{"name":"fgColor","rangeEnd":37,"rangeStart":0,"value":"(35,40,47,255)","valueType":"color"}],
                            "duration" : 0
                          }
                        ]
                      }
                    },
                    "attributes" : {
                      "autoRotateText" : true
                    },
                    "parameters" : {
                      "translation0" : {
                        "type" : "double",
                        "defaultValue" : 555.93859649149,
                        "interp" : "eioe"
                      },
                      "translation1" : {
                        "type" : "double",
                        "defaultValue" : -124.999999932812,
                        "interp" : "eioe"
                      },
                      "sourceCrop0" : {
                        "type" : "double",
                        "defaultValue" : 0.0,
                        "interp" : "eioe"
                      },
                      "sourceCrop1" : {
                        "type" : "double",
                        "defaultValue" : 0.0,
                        "interp" : "eioe"
                      },
                      "sourceCrop2" : {
                        "type" : "double",
                        "defaultValue" : 0.0,
                        "interp" : "eioe"
                      },
                      "sourceCrop3" : {
                        "type" : "double",
                        "defaultValue" : 0.0,
                        "interp" : "eioe"
                      },
                      "geometryCrop0" : {
                        "type" : "double",
                        "defaultValue" : 0.0,
                        "interp" : "eioe"
                      },
                      "geometryCrop1" : {
                        "type" : "double",
                        "defaultValue" : 0.0,
                        "interp" : "eioe"
                      },
                      "geometryCrop2" : {
                        "type" : "double",
                        "defaultValue" : 0.0,
                        "interp" : "eioe"
                      },
                      "geometryCrop3" : {
                        "type" : "double",
                        "defaultValue" : 0.0,
                        "interp" : "eioe"
                      }
                    },
                    "effects" : [
                        {
                          "_type" : "GenericBehaviorEffect",
                          "effectName" : "popUp",
                          "bypassed" : false,
                          "start" : 0,
                          "duration" : 178                        ,
                          "in" : {
                            "attributes" : {
                              "name" : "grow",
                              "type" : 0,
                              "characterOrder" : 6,
                              "offsetBetweenCharacters" : 1,
                              "suggestedDurationPerCharacter" : 18,
                              "overlapProportion" : "3/4",
                              "movement" : 30,
                              "springDamping" : 5.0,
                              "springStiffness" : 50.0,
                              "bounceBounciness" : 0.45
                            }
                          
                          },
                          "center" : {
                            "attributes" : {
                              "name" : "none",
                              "type" : 1,
                              "characterOrder" : 6,
                              "offsetBetweenCharacters" : 0,
                              "secondsPerLoop" : 1,
                              "numberOfLoops" : -1,
                              "delayBetweenLoops" : 0,
                              "offsetBetweenCharacters" : 0
                            }
                          
                          },
                          "out" : {
                            "attributes" : {
                              "name" : "none",
                              "type" : 1,
                              "characterOrder" : 6,
                              "offsetBetweenCharacters" : 0,
                              "suggestedDurationPerCharacter" : 0,
                              "overlapProportion" : 0,
                              "movement" : -1,
                              "springDamping" : 5.0,
                              "springStiffness" : 50.0,
                              "bounceBounciness" : 0.45
                            }
                          
                          },
                          "metadata" : {
                            "default-behavior-center-style" : "popUp",
                            "default-behavior-in-style" : "hinge",
                            "default-behavior-in-type" : 1.0,
                            "default-behavior-out-style" : "hinge",
                            "presetName" : "Pop Up"
                          }
                        }
                    ],
                    "start" : 521,
                    "duration" : 178,
                    "mediaStart" : 0,
                    "mediaDuration" : 178,
                    "scalar" : 1,
                    "metadata" : {
                      "clipSpeedAttribute" : false,
                      "default-HAlign" : "center",
                      "default-LineSpace" : 0.0,
                      "default-VAlign" : "center",
                      "default-height" : 250.0,
                      "default-text-attributes" : null,
                      "default-translation0" : 0.0,
                      "default-translation1" : 0.0,
                      "default-width" : 400.0
                    },
                    "animationTracks" : {

                    }
                  }
                ]
              },
              {
                "trackIndex" : 14,
                "medias" : [
                ]
              },
              {
                "trackIndex" : 15,
                "medias" : [
                ]
              },
              {
                "trackIndex" : 16,
                "medias" : [
                ]
              }            ]
          }
        }
      ]
    },
    "trackAttributes" : [
      {
        "ident" : "",
        "audioMuted" : false,
        "videoHidden" : false,
        "magnetic" : false,
        "matte" : 0,
        "solo" : false,
        "metadata" : {
          "IsLocked" : "False",
          "WinTrackHeight" : "0"
        }
      },
      {
        "ident" : "",
        "audioMuted" : false,
        "videoHidden" : false,
        "magnetic" : false,
        "matte" : 0,
        "solo" : false,
        "metadata" : {
          "IsLocked" : "False",
          "WinTrackHeight" : "56"
        }
      },
      {
        "ident" : "",
        "audioMuted" : false,
        "videoHidden" : false,
        "magnetic" : false,
        "matte" : 0,
        "solo" : false,
        "metadata" : {
          "IsLocked" : "False",
          "WinTrackHeight" : "56"
        }
      },
      {
        "ident" : "",
        "audioMuted" : false,
        "videoHidden" : false,
        "magnetic" : false,
        "matte" : 0,
        "solo" : false,
        "metadata" : {
          "IsLocked" : "False",
          "WinTrackHeight" : "56"
        }
      },
      {
        "ident" : "",
        "audioMuted" : false,
        "videoHidden" : false,
        "magnetic" : false,
        "matte" : 0,
        "solo" : false,
        "metadata" : {
          "IsLocked" : "False",
          "WinTrackHeight" : "56"
        }
      },
      {
        "ident" : "",
        "audioMuted" : false,
        "videoHidden" : false,
        "magnetic" : false,
        "matte" : 0,
        "solo" : false,
        "metadata" : {
          "IsLocked" : "False",
          "WinTrackHeight" : "56"
        }
      },
      {
        "ident" : "",
        "audioMuted" : false,
        "videoHidden" : false,
        "magnetic" : false,
        "matte" : 0,
        "solo" : false,
        "metadata" : {
          "IsLocked" : "False",
          "WinTrackHeight" : "56"
        }
      },
      {
        "ident" : "",
        "audioMuted" : false,
        "videoHidden" : false,
        "magnetic" : false,
        "matte" : 0,
        "solo" : false,
        "metadata" : {
          "IsLocked" : "False",
          "WinTrackHeight" : "56"
        }
      },
      {
        "ident" : "",
        "audioMuted" : false,
        "videoHidden" : false,
        "magnetic" : false,
        "matte" : 0,
        "solo" : false,
        "metadata" : {
          "IsLocked" : "False",
          "WinTrackHeight" : "56"
        }
      },
      {
        "ident" : "",
        "audioMuted" : false,
        "videoHidden" : false,
        "magnetic" : false,
        "matte" : 0,
        "solo" : false,
        "metadata" : {
          "IsLocked" : "False",
          "WinTrackHeight" : "56"
        }
      },
      {
        "ident" : "",
        "audioMuted" : false,
        "videoHidden" : false,
        "magnetic" : false,
        "matte" : 0,
        "solo" : false,
        "metadata" : {
          "IsLocked" : "False",
          "WinTrackHeight" : "56"
        }
      },
      {
        "ident" : "",
        "audioMuted" : false,
        "videoHidden" : false,
        "magnetic" : false,
        "matte" : 0,
        "solo" : false,
        "metadata" : {
          "IsLocked" : "False",
          "WinTrackHeight" : "56"
        }
      },
      {
        "ident" : "",
        "audioMuted" : false,
        "videoHidden" : false,
        "magnetic" : false,
        "matte" : 0,
        "solo" : false,
        "metadata" : {
          "IsLocked" : "False",
          "WinTrackHeight" : "56"
        }
      },
      {
        "ident" : "",
        "audioMuted" : false,
        "videoHidden" : false,
        "magnetic" : false,
        "matte" : 0,
        "solo" : false,
        "metadata" : {
          "IsLocked" : "False",
          "WinTrackHeight" : "56"
        }
      },
      {
        "ident" : "",
        "audioMuted" : false,
        "videoHidden" : false,
        "magnetic" : false,
        "matte" : 0,
        "solo" : false,
        "metadata" : {
          "IsLocked" : "False",
          "WinTrackHeight" : "56"
        }
      },
      {
        "ident" : "",
        "audioMuted" : false,
        "videoHidden" : false,
        "magnetic" : false,
        "matte" : 0,
        "solo" : false,
        "metadata" : {
          "IsLocked" : "False",
          "WinTrackHeight" : "56"
        }
      },
      {
        "ident" : "",
        "audioMuted" : false,
        "videoHidden" : false,
        "magnetic" : false,
        "matte" : 0,
        "solo" : false,
        "metadata" : {
          "IsLocked" : "False",
          "WinTrackHeight" : "56"
        }
      }
    ],
    "captionAttributes" : {
      "enabled" : true,
      "fontName" : "Arial",
      "fontSize" : 64,
      "backgroundColor" : [ 0, 0, 0, 191],
      "foregroundColor" : [ 255, 255, 255, 255],
      "lang" : "en",
      "alignment" : 0,
      "defaultFontSize" : true,
      "opacity" : 0.5,
      "backgroundEnabled" : true,
      "backgroundOnlyAroundText" : true
    },
    "backgroundColor" : [ 255, 255, 255, 255]
  },
  "metadata" : {
    "AutoSaveFile" : "C:\\Users\\C5314887\\AppData\\Local\\TechSmith\\Camtasia Studio\\20.0\\Auto-Saves\\Untitled Project60eca5d7.autosave.tscproj",
    "CanvasZoom" : 60,
    "Date" : "2021-04-11 07:56:51 PM",
    "Fit" : 0,
    "IsAutoSave" : false,
    "Language" : "ENU",
    "ProfileName" : "",
    "ProjectDimensionsChanged" : "1",
    "Title" : "Notion",
    "audioNarrationNotes" : "",
    "calloutStyle" : "Basic"
  }
}
